%TF.GenerationSoftware,KiCad,Pcbnew,9.0.6*%
%TF.CreationDate,2026-02-18T17:47:18+01:00*%
%TF.ProjectId,devboard,64657662-6f61-4726-942e-6b696361645f,rev?*%
%TF.SameCoordinates,Original*%
%TF.FileFunction,Soldermask,Bot*%
%TF.FilePolarity,Negative*%
%FSLAX46Y46*%
G04 Gerber Fmt 4.6, Leading zero omitted, Abs format (unit mm)*
G04 Created by KiCad (PCBNEW 9.0.6) date 2026-02-18 17:47:18*
%MOMM*%
%LPD*%
G01*
G04 APERTURE LIST*
%ADD10R,1.700000X1.700000*%
%ADD11C,1.700000*%
%ADD12C,0.650000*%
%ADD13O,1.000000X2.100000*%
%ADD14O,1.000000X1.600000*%
G04 APERTURE END LIST*
D10*
%TO.C,J2*%
X51610000Y-50370000D03*
D11*
X51610000Y-52910000D03*
X51610000Y-55450000D03*
X51610000Y-57990000D03*
X51610000Y-60530000D03*
X51610000Y-63070000D03*
X51610000Y-65610000D03*
X51610000Y-68150000D03*
X51610000Y-70690000D03*
X51610000Y-73230000D03*
X51610000Y-75770000D03*
X51610000Y-78310000D03*
X51610000Y-80850000D03*
X51610000Y-83390000D03*
X51610000Y-85930000D03*
X51610000Y-88470000D03*
X51610000Y-91010000D03*
X51610000Y-93550000D03*
X51610000Y-96090000D03*
X51610000Y-98630000D03*
%TD*%
D10*
%TO.C,J4*%
X57960000Y-98390000D03*
D11*
X60500000Y-98390000D03*
X63040000Y-98390000D03*
%TD*%
D10*
%TO.C,J3*%
X69390000Y-50370000D03*
D11*
X69390000Y-52910000D03*
X69390000Y-55450000D03*
X69390000Y-57990000D03*
X69390000Y-60530000D03*
X69390000Y-63070000D03*
X69390000Y-65610000D03*
X69390000Y-68150000D03*
X69390000Y-70690000D03*
X69390000Y-73230000D03*
X69390000Y-75770000D03*
X69390000Y-78310000D03*
X69390000Y-80850000D03*
X69390000Y-83390000D03*
X69390000Y-85930000D03*
X69390000Y-88470000D03*
X69390000Y-91010000D03*
X69390000Y-93550000D03*
X69390000Y-96090000D03*
X69390000Y-98630000D03*
%TD*%
D12*
%TO.C,J1*%
X63390000Y-54150000D03*
X57610000Y-54150000D03*
D13*
X64820000Y-54680000D03*
D14*
X64820000Y-50500000D03*
D13*
X56180000Y-54680000D03*
D14*
X56180000Y-50500000D03*
%TD*%
M02*
