%TF.GenerationSoftware,KiCad,Pcbnew,9.0.6*%
%TF.CreationDate,2026-02-18T17:47:18+01:00*%
%TF.ProjectId,devboard,64657662-6f61-4726-942e-6b696361645f,rev?*%
%TF.SameCoordinates,Original*%
%TF.FileFunction,Copper,L1,Top*%
%TF.FilePolarity,Positive*%
%FSLAX46Y46*%
G04 Gerber Fmt 4.6, Leading zero omitted, Abs format (unit mm)*
G04 Created by KiCad (PCBNEW 9.0.6) date 2026-02-18 17:47:18*
%MOMM*%
%LPD*%
G01*
G04 APERTURE LIST*
G04 Aperture macros list*
%AMRoundRect*
0 Rectangle with rounded corners*
0 $1 Rounding radius*
0 $2 $3 $4 $5 $6 $7 $8 $9 X,Y pos of 4 corners*
0 Add a 4 corners polygon primitive as box body*
4,1,4,$2,$3,$4,$5,$6,$7,$8,$9,$2,$3,0*
0 Add four circle primitives for the rounded corners*
1,1,$1+$1,$2,$3*
1,1,$1+$1,$4,$5*
1,1,$1+$1,$6,$7*
1,1,$1+$1,$8,$9*
0 Add four rect primitives between the rounded corners*
20,1,$1+$1,$2,$3,$4,$5,0*
20,1,$1+$1,$4,$5,$6,$7,0*
20,1,$1+$1,$6,$7,$8,$9,0*
20,1,$1+$1,$8,$9,$2,$3,0*%
G04 Aperture macros list end*
%TA.AperFunction,SMDPad,CuDef*%
%ADD10RoundRect,0.075000X-0.350000X-0.075000X0.350000X-0.075000X0.350000X0.075000X-0.350000X0.075000X0*%
%TD*%
%TA.AperFunction,SMDPad,CuDef*%
%ADD11RoundRect,0.075000X0.075000X-0.350000X0.075000X0.350000X-0.075000X0.350000X-0.075000X-0.350000X0*%
%TD*%
%TA.AperFunction,SMDPad,CuDef*%
%ADD12RoundRect,0.140000X0.140000X0.170000X-0.140000X0.170000X-0.140000X-0.170000X0.140000X-0.170000X0*%
%TD*%
%TA.AperFunction,SMDPad,CuDef*%
%ADD13RoundRect,0.140000X0.170000X-0.140000X0.170000X0.140000X-0.170000X0.140000X-0.170000X-0.140000X0*%
%TD*%
%TA.AperFunction,SMDPad,CuDef*%
%ADD14RoundRect,0.140000X-0.140000X-0.170000X0.140000X-0.170000X0.140000X0.170000X-0.140000X0.170000X0*%
%TD*%
%TA.AperFunction,SMDPad,CuDef*%
%ADD15RoundRect,0.135000X0.135000X0.185000X-0.135000X0.185000X-0.135000X-0.185000X0.135000X-0.185000X0*%
%TD*%
%TA.AperFunction,SMDPad,CuDef*%
%ADD16RoundRect,0.225000X-0.250000X0.225000X-0.250000X-0.225000X0.250000X-0.225000X0.250000X0.225000X0*%
%TD*%
%TA.AperFunction,SMDPad,CuDef*%
%ADD17RoundRect,0.140000X-0.170000X0.140000X-0.170000X-0.140000X0.170000X-0.140000X0.170000X0.140000X0*%
%TD*%
%TA.AperFunction,SMDPad,CuDef*%
%ADD18RoundRect,0.062500X-0.387500X-0.062500X0.387500X-0.062500X0.387500X0.062500X-0.387500X0.062500X0*%
%TD*%
%TA.AperFunction,HeatsinkPad*%
%ADD19R,0.200000X1.600000*%
%TD*%
%TA.AperFunction,SMDPad,CuDef*%
%ADD20RoundRect,0.135000X-0.135000X-0.185000X0.135000X-0.185000X0.135000X0.185000X-0.135000X0.185000X0*%
%TD*%
%TA.AperFunction,SMDPad,CuDef*%
%ADD21RoundRect,0.250000X-0.450000X-0.350000X0.450000X-0.350000X0.450000X0.350000X-0.450000X0.350000X0*%
%TD*%
%TA.AperFunction,SMDPad,CuDef*%
%ADD22RoundRect,0.200000X0.800000X-0.200000X0.800000X0.200000X-0.800000X0.200000X-0.800000X-0.200000X0*%
%TD*%
%TA.AperFunction,SMDPad,CuDef*%
%ADD23RoundRect,0.135000X-0.185000X0.135000X-0.185000X-0.135000X0.185000X-0.135000X0.185000X0.135000X0*%
%TD*%
%TA.AperFunction,ComponentPad*%
%ADD24R,1.700000X1.700000*%
%TD*%
%TA.AperFunction,ComponentPad*%
%ADD25C,1.700000*%
%TD*%
%TA.AperFunction,SMDPad,CuDef*%
%ADD26RoundRect,0.218750X0.256250X-0.218750X0.256250X0.218750X-0.256250X0.218750X-0.256250X-0.218750X0*%
%TD*%
%TA.AperFunction,SMDPad,CuDef*%
%ADD27RoundRect,0.140000X-0.219203X-0.021213X-0.021213X-0.219203X0.219203X0.021213X0.021213X0.219203X0*%
%TD*%
%TA.AperFunction,SMDPad,CuDef*%
%ADD28R,1.600000X0.850000*%
%TD*%
%TA.AperFunction,SMDPad,CuDef*%
%ADD29RoundRect,0.135000X0.185000X-0.135000X0.185000X0.135000X-0.185000X0.135000X-0.185000X-0.135000X0*%
%TD*%
%TA.AperFunction,SMDPad,CuDef*%
%ADD30RoundRect,0.050000X-0.387500X-0.050000X0.387500X-0.050000X0.387500X0.050000X-0.387500X0.050000X0*%
%TD*%
%TA.AperFunction,SMDPad,CuDef*%
%ADD31RoundRect,0.050000X-0.050000X-0.387500X0.050000X-0.387500X0.050000X0.387500X-0.050000X0.387500X0*%
%TD*%
%TA.AperFunction,HeatsinkPad*%
%ADD32R,3.200000X3.200000*%
%TD*%
%TA.AperFunction,SMDPad,CuDef*%
%ADD33R,0.600000X1.450000*%
%TD*%
%TA.AperFunction,SMDPad,CuDef*%
%ADD34R,0.300000X1.450000*%
%TD*%
%TA.AperFunction,HeatsinkPad*%
%ADD35O,1.000000X2.100000*%
%TD*%
%TA.AperFunction,HeatsinkPad*%
%ADD36O,1.000000X1.600000*%
%TD*%
%TA.AperFunction,SMDPad,CuDef*%
%ADD37RoundRect,0.225000X-0.225000X-0.250000X0.225000X-0.250000X0.225000X0.250000X-0.225000X0.250000X0*%
%TD*%
%TA.AperFunction,SMDPad,CuDef*%
%ADD38R,0.500000X0.300000*%
%TD*%
%TA.AperFunction,SMDPad,CuDef*%
%ADD39RoundRect,0.150000X0.150000X-0.587500X0.150000X0.587500X-0.150000X0.587500X-0.150000X-0.587500X0*%
%TD*%
%TA.AperFunction,ViaPad*%
%ADD40C,0.600000*%
%TD*%
%TA.AperFunction,Conductor*%
%ADD41C,0.200000*%
%TD*%
G04 APERTURE END LIST*
D10*
%TO.P,U6,1,CLKIN*%
%TO.N,GND*%
X61500000Y-87200000D03*
%TO.P,U6,2,NC*%
%TO.N,unconnected-(U6-NC-Pad2)*%
X61500000Y-87700000D03*
%TO.P,U6,3,NC*%
%TO.N,unconnected-(U6-NC-Pad3)*%
X61500000Y-88200000D03*
%TO.P,U6,4,NC*%
%TO.N,unconnected-(U6-NC-Pad4)*%
X61500000Y-88700000D03*
%TO.P,U6,5,NC*%
%TO.N,unconnected-(U6-NC-Pad5)*%
X61500000Y-89200000D03*
%TO.P,U6,6,AUX_DA*%
%TO.N,unconnected-(U6-AUX_DA-Pad6)*%
X61500000Y-89700000D03*
D11*
%TO.P,U6,7,AUX_CL*%
%TO.N,unconnected-(U6-AUX_CL-Pad7)*%
X62200000Y-90400000D03*
%TO.P,U6,8,VLOGIC*%
%TO.N,+3V3*%
X62700000Y-90400000D03*
%TO.P,U6,9,AD0*%
%TO.N,GND*%
X63200000Y-90400000D03*
%TO.P,U6,10,REGOUT*%
%TO.N,Net-(U6-REGOUT)*%
X63700000Y-90400000D03*
%TO.P,U6,11,FSYNC*%
%TO.N,GND*%
X64200000Y-90400000D03*
%TO.P,U6,12,INT*%
%TO.N,unconnected-(U6-INT-Pad12)*%
X64700000Y-90400000D03*
D10*
%TO.P,U6,13,VDD*%
%TO.N,+3V3*%
X65400000Y-89700000D03*
%TO.P,U6,14,NC*%
%TO.N,unconnected-(U6-NC-Pad14)*%
X65400000Y-89200000D03*
%TO.P,U6,15,NC*%
%TO.N,unconnected-(U6-NC-Pad15)*%
X65400000Y-88700000D03*
%TO.P,U6,16,NC*%
%TO.N,unconnected-(U6-NC-Pad16)*%
X65400000Y-88200000D03*
%TO.P,U6,17,NC*%
%TO.N,unconnected-(U6-NC-Pad17)*%
X65400000Y-87700000D03*
%TO.P,U6,18,GND*%
%TO.N,GND*%
X65400000Y-87200000D03*
D11*
%TO.P,U6,19,RESV*%
%TO.N,unconnected-(U6-RESV-Pad19)*%
X64700000Y-86500000D03*
%TO.P,U6,20,CPOUT*%
%TO.N,Net-(U6-CPOUT)*%
X64200000Y-86500000D03*
%TO.P,U6,21,RESV*%
%TO.N,unconnected-(U6-RESV-Pad21)*%
X63700000Y-86500000D03*
%TO.P,U6,22,RESV*%
%TO.N,unconnected-(U6-RESV-Pad22)*%
X63200000Y-86500000D03*
%TO.P,U6,23,SCL*%
%TO.N,GPIO5*%
X62700000Y-86500000D03*
%TO.P,U6,24,SDA*%
%TO.N,GPIO4*%
X62200000Y-86500000D03*
%TD*%
D12*
%TO.P,C19,1*%
%TO.N,GND*%
X55180000Y-96600000D03*
%TO.P,C19,2*%
%TO.N,+3V3*%
X54220000Y-96600000D03*
%TD*%
D13*
%TO.P,C12,1*%
%TO.N,+1V1*%
X60340000Y-67180000D03*
%TO.P,C12,2*%
%TO.N,GND*%
X60340000Y-66220000D03*
%TD*%
D14*
%TO.P,C17,1*%
%TO.N,GND*%
X57695000Y-66125000D03*
%TO.P,C17,2*%
%TO.N,+3V3*%
X58655000Y-66125000D03*
%TD*%
D15*
%TO.P,R6,1*%
%TO.N,Net-(R6-Pad1)*%
X66020000Y-63250000D03*
%TO.P,R6,2*%
%TO.N,QSPI_SS*%
X65000000Y-63250000D03*
%TD*%
D16*
%TO.P,C13,1*%
%TO.N,VBUS*%
X62850000Y-59365000D03*
%TO.P,C13,2*%
%TO.N,GND*%
X62850000Y-60915000D03*
%TD*%
D17*
%TO.P,C9,1*%
%TO.N,+3V3*%
X57100000Y-94400000D03*
%TO.P,C9,2*%
%TO.N,GND*%
X57100000Y-95360000D03*
%TD*%
D14*
%TO.P,C23,1*%
%TO.N,GND*%
X64410000Y-82370000D03*
%TO.P,C23,2*%
%TO.N,RUN*%
X65370000Y-82370000D03*
%TD*%
D18*
%TO.P,U5,1,~{CS}*%
%TO.N,QSPI_SS*%
X55450000Y-67350000D03*
%TO.P,U5,2,DO/IO_{1}*%
%TO.N,QSPI_SD1*%
X55450000Y-67850000D03*
%TO.P,U5,3,~{WP}/IO_{2}*%
%TO.N,QSPI_SD2*%
X55450000Y-68350000D03*
%TO.P,U5,4,GND*%
%TO.N,GND*%
X55450000Y-68850000D03*
%TO.P,U5,5,DI/IO_{0}*%
%TO.N,QSPI_SD0*%
X58300000Y-68850000D03*
%TO.P,U5,6,CLK*%
%TO.N,QSPI_SCLK*%
X58300000Y-68350000D03*
%TO.P,U5,7,~{HOLD}/~{RESET}/IO_{3}*%
%TO.N,QSPI_SD3*%
X58300000Y-67850000D03*
%TO.P,U5,8,VCC*%
%TO.N,+3V3*%
X58300000Y-67350000D03*
D19*
%TO.P,U5,9*%
%TO.N,N/C*%
X56875000Y-68100000D03*
%TD*%
D17*
%TO.P,C2,1*%
%TO.N,+3V3*%
X63110000Y-66530000D03*
%TO.P,C2,2*%
%TO.N,GND*%
X63110000Y-67490000D03*
%TD*%
D20*
%TO.P,R8,1*%
%TO.N,GPIO4*%
X56970000Y-89750000D03*
%TO.P,R8,2*%
%TO.N,+3V3*%
X57990000Y-89750000D03*
%TD*%
D17*
%TO.P,C16,1*%
%TO.N,GND*%
X56400000Y-82040000D03*
%TO.P,C16,2*%
%TO.N,Net-(C16-Pad2)*%
X56400000Y-83000000D03*
%TD*%
D12*
%TO.P,C3,1*%
%TO.N,+3V3*%
X60230000Y-80160000D03*
%TO.P,C3,2*%
%TO.N,GND*%
X59270000Y-80160000D03*
%TD*%
D20*
%TO.P,R9,1*%
%TO.N,GPIO5*%
X61180000Y-85100000D03*
%TO.P,R9,2*%
%TO.N,+3V3*%
X62200000Y-85100000D03*
%TD*%
D21*
%TO.P,Y1,1,1*%
%TO.N,Net-(C16-Pad2)*%
X58100000Y-83300000D03*
%TO.P,Y1,2,2*%
%TO.N,GND*%
X60300000Y-83300000D03*
%TO.P,Y1,3,3*%
%TO.N,XIN*%
X60300000Y-81600000D03*
%TO.P,Y1,4,4*%
%TO.N,GND*%
X58100000Y-81600000D03*
%TD*%
D14*
%TO.P,C8,1*%
%TO.N,+3V3*%
X54945000Y-63275000D03*
%TO.P,C8,2*%
%TO.N,GND*%
X55905000Y-63275000D03*
%TD*%
D22*
%TO.P,SW2,1,1*%
%TO.N,GND*%
X55400000Y-61900000D03*
%TO.P,SW2,2,2*%
%TO.N,RUN*%
X55400000Y-57700000D03*
%TD*%
D23*
%TO.P,R7,1*%
%TO.N,+3V3*%
X54100000Y-65760000D03*
%TO.P,R7,2*%
%TO.N,QSPI_SS*%
X54100000Y-66780000D03*
%TD*%
D24*
%TO.P,J2,1,Pin_1*%
%TO.N,GPIO0*%
X51610000Y-50370000D03*
D25*
%TO.P,J2,2,Pin_2*%
%TO.N,GPIO1*%
X51610000Y-52910000D03*
%TO.P,J2,3,Pin_3*%
%TO.N,GND*%
X51610000Y-55450000D03*
%TO.P,J2,4,Pin_4*%
%TO.N,GPIO2*%
X51610000Y-57990000D03*
%TO.P,J2,5,Pin_5*%
%TO.N,GPIO3*%
X51610000Y-60530000D03*
%TO.P,J2,6,Pin_6*%
%TO.N,GPIO4*%
X51610000Y-63070000D03*
%TO.P,J2,7,Pin_7*%
%TO.N,GPIO5*%
X51610000Y-65610000D03*
%TO.P,J2,8,Pin_8*%
%TO.N,GND*%
X51610000Y-68150000D03*
%TO.P,J2,9,Pin_9*%
%TO.N,GPIO6*%
X51610000Y-70690000D03*
%TO.P,J2,10,Pin_10*%
%TO.N,GPIO7*%
X51610000Y-73230000D03*
%TO.P,J2,11,Pin_11*%
%TO.N,GPIO8*%
X51610000Y-75770000D03*
%TO.P,J2,12,Pin_12*%
%TO.N,GPIO9*%
X51610000Y-78310000D03*
%TO.P,J2,13,Pin_13*%
%TO.N,GND*%
X51610000Y-80850000D03*
%TO.P,J2,14,Pin_14*%
%TO.N,GPIO10*%
X51610000Y-83390000D03*
%TO.P,J2,15,Pin_15*%
%TO.N,GPIO11*%
X51610000Y-85930000D03*
%TO.P,J2,16,Pin_16*%
%TO.N,GPIO12*%
X51610000Y-88470000D03*
%TO.P,J2,17,Pin_17*%
%TO.N,GPIO13*%
X51610000Y-91010000D03*
%TO.P,J2,18,Pin_18*%
%TO.N,GND*%
X51610000Y-93550000D03*
%TO.P,J2,19,Pin_19*%
%TO.N,GPIO14*%
X51610000Y-96090000D03*
%TO.P,J2,20,Pin_20*%
%TO.N,GPIO15*%
X51610000Y-98630000D03*
%TD*%
D12*
%TO.P,C24,1*%
%TO.N,VBUS*%
X60200000Y-91700000D03*
%TO.P,C24,2*%
%TO.N,GND*%
X59240000Y-91700000D03*
%TD*%
D22*
%TO.P,SW1,1,1*%
%TO.N,GND*%
X65600000Y-61900000D03*
%TO.P,SW1,2,2*%
%TO.N,Net-(R6-Pad1)*%
X65600000Y-57700000D03*
%TD*%
D26*
%TO.P,PWR,1,K*%
%TO.N,Net-(D1-K)*%
X66730000Y-54802500D03*
%TO.P,PWR,2,A*%
%TO.N,+3V3*%
X66730000Y-53227500D03*
%TD*%
D20*
%TO.P,R5,1*%
%TO.N,Net-(C16-Pad2)*%
X55450000Y-80670000D03*
%TO.P,R5,2*%
%TO.N,XOUT*%
X56470000Y-80670000D03*
%TD*%
D14*
%TO.P,C21,1*%
%TO.N,Net-(U6-CPOUT)*%
X63220000Y-85100000D03*
%TO.P,C21,2*%
%TO.N,GND*%
X64180000Y-85100000D03*
%TD*%
D27*
%TO.P,C10,1*%
%TO.N,+1V1*%
X63780589Y-80440589D03*
%TO.P,C10,2*%
%TO.N,GND*%
X64459411Y-81119411D03*
%TD*%
D12*
%TO.P,C18,1*%
%TO.N,+3V3*%
X66180000Y-85100000D03*
%TO.P,C18,2*%
%TO.N,GND*%
X65220000Y-85100000D03*
%TD*%
D28*
%TO.P,D3,1,DOUT*%
%TO.N,unconnected-(D3-DOUT-Pad1)*%
X58850000Y-93425000D03*
%TO.P,D3,2,VSS*%
%TO.N,GND*%
X58850000Y-95175000D03*
%TO.P,D3,3,DIN*%
%TO.N,GPIO25*%
X62350000Y-95175000D03*
%TO.P,D3,4,VDD*%
%TO.N,VBUS*%
X62350000Y-93425000D03*
%TD*%
D15*
%TO.P,R11,1*%
%TO.N,Net-(D1-K)*%
X63550000Y-63250000D03*
%TO.P,R11,2*%
%TO.N,GND*%
X62530000Y-63250000D03*
%TD*%
D13*
%TO.P,C15,1*%
%TO.N,GND*%
X62000000Y-82985000D03*
%TO.P,C15,2*%
%TO.N,XIN*%
X62000000Y-82025000D03*
%TD*%
D29*
%TO.P,R10,1*%
%TO.N,+3V3*%
X63350000Y-83280000D03*
%TO.P,R10,2*%
%TO.N,RUN*%
X63350000Y-82260000D03*
%TD*%
D24*
%TO.P,J4,1,Pin_1*%
%TO.N,SWCLK*%
X57960000Y-98390000D03*
D25*
%TO.P,J4,2,Pin_2*%
%TO.N,GND*%
X60500000Y-98390000D03*
%TO.P,J4,3,Pin_3*%
%TO.N,SWD*%
X63040000Y-98390000D03*
%TD*%
D20*
%TO.P,R12,1*%
%TO.N,Net-(D2-K)*%
X54910000Y-64620000D03*
%TO.P,R12,2*%
%TO.N,RUN*%
X55930000Y-64620000D03*
%TD*%
D13*
%TO.P,C25,1*%
%TO.N,Net-(U6-REGOUT)*%
X64100000Y-94580000D03*
%TO.P,C25,2*%
%TO.N,GND*%
X64100000Y-93620000D03*
%TD*%
D30*
%TO.P,U1,1,IOVDD*%
%TO.N,+3V3*%
X57062500Y-72377500D03*
%TO.P,U1,2,GPIO0*%
%TO.N,GPIO0*%
X57062500Y-72777500D03*
%TO.P,U1,3,GPIO1*%
%TO.N,GPIO1*%
X57062500Y-73177500D03*
%TO.P,U1,4,GPIO2*%
%TO.N,GPIO2*%
X57062500Y-73577500D03*
%TO.P,U1,5,GPIO3*%
%TO.N,GPIO3*%
X57062500Y-73977500D03*
%TO.P,U1,6,GPIO4*%
%TO.N,GPIO4*%
X57062500Y-74377500D03*
%TO.P,U1,7,GPIO5*%
%TO.N,GPIO5*%
X57062500Y-74777500D03*
%TO.P,U1,8,GPIO6*%
%TO.N,GPIO6*%
X57062500Y-75177500D03*
%TO.P,U1,9,GPIO7*%
%TO.N,GPIO7*%
X57062500Y-75577500D03*
%TO.P,U1,10,IOVDD*%
%TO.N,+3V3*%
X57062500Y-75977500D03*
%TO.P,U1,11,GPIO8*%
%TO.N,GPIO8*%
X57062500Y-76377500D03*
%TO.P,U1,12,GPIO9*%
%TO.N,GPIO9*%
X57062500Y-76777500D03*
%TO.P,U1,13,GPIO10*%
%TO.N,GPIO10*%
X57062500Y-77177500D03*
%TO.P,U1,14,GPIO11*%
%TO.N,GPIO11*%
X57062500Y-77577500D03*
D31*
%TO.P,U1,15,GPIO12*%
%TO.N,GPIO12*%
X57900000Y-78415000D03*
%TO.P,U1,16,GPIO13*%
%TO.N,GPIO13*%
X58300000Y-78415000D03*
%TO.P,U1,17,GPIO14*%
%TO.N,GPIO14*%
X58700000Y-78415000D03*
%TO.P,U1,18,GPIO15*%
%TO.N,GPIO15*%
X59100000Y-78415000D03*
%TO.P,U1,19,TESTEN*%
%TO.N,GND*%
X59500000Y-78415000D03*
%TO.P,U1,20,XIN*%
%TO.N,XIN*%
X59900000Y-78415000D03*
%TO.P,U1,21,XOUT*%
%TO.N,XOUT*%
X60300000Y-78415000D03*
%TO.P,U1,22,IOVDD*%
%TO.N,+3V3*%
X60700000Y-78415000D03*
%TO.P,U1,23,DVDD*%
%TO.N,+1V1*%
X61100000Y-78415000D03*
%TO.P,U1,24,SWCLK*%
%TO.N,SWCLK*%
X61500000Y-78415000D03*
%TO.P,U1,25,SWD*%
%TO.N,SWD*%
X61900000Y-78415000D03*
%TO.P,U1,26,RUN*%
%TO.N,RUN*%
X62300000Y-78415000D03*
%TO.P,U1,27,GPIO16*%
%TO.N,GPIO16*%
X62700000Y-78415000D03*
%TO.P,U1,28,GPIO17*%
%TO.N,GPIO17*%
X63100000Y-78415000D03*
D30*
%TO.P,U1,29,GPIO18*%
%TO.N,GPIO18*%
X63937500Y-77577500D03*
%TO.P,U1,30,GPIO19*%
%TO.N,GPIO19*%
X63937500Y-77177500D03*
%TO.P,U1,31,GPIO20*%
%TO.N,GPIO20*%
X63937500Y-76777500D03*
%TO.P,U1,32,GPIO21*%
%TO.N,GPIO21*%
X63937500Y-76377500D03*
%TO.P,U1,33,IOVDD*%
%TO.N,+3V3*%
X63937500Y-75977500D03*
%TO.P,U1,34,GPIO22*%
%TO.N,GPIO22*%
X63937500Y-75577500D03*
%TO.P,U1,35,GPIO23*%
%TO.N,GPIO23*%
X63937500Y-75177500D03*
%TO.P,U1,36,GPIO24*%
%TO.N,GPIO24*%
X63937500Y-74777500D03*
%TO.P,U1,37,GPIO25*%
%TO.N,GPIO25*%
X63937500Y-74377500D03*
%TO.P,U1,38,GPIO26_ADC0*%
%TO.N,GPIO26_ADC0*%
X63937500Y-73977500D03*
%TO.P,U1,39,GPIO27_ADC1*%
%TO.N,GPIO27_ADC1*%
X63937500Y-73577500D03*
%TO.P,U1,40,GPIO28_ADC2*%
%TO.N,GPIO28_ADC2*%
X63937500Y-73177500D03*
%TO.P,U1,41,GPIO29_ADC3*%
%TO.N,GPIO29_ADC3*%
X63937500Y-72777500D03*
%TO.P,U1,42,IOVDD*%
%TO.N,+3V3*%
X63937500Y-72377500D03*
D31*
%TO.P,U1,43,ADC_AVDD*%
X63100000Y-71540000D03*
%TO.P,U1,44,VREG_IN*%
X62700000Y-71540000D03*
%TO.P,U1,45,VREG_VOUT*%
%TO.N,+1V1*%
X62300000Y-71540000D03*
%TO.P,U1,46,USB_DM*%
%TO.N,Net-(U1-USB_DM)*%
X61900000Y-71540000D03*
%TO.P,U1,47,USB_DP*%
%TO.N,Net-(U1-USB_DP)*%
X61500000Y-71540000D03*
%TO.P,U1,48,USB_VDD*%
%TO.N,+3V3*%
X61100000Y-71540000D03*
%TO.P,U1,49,IOVDD*%
X60700000Y-71540000D03*
%TO.P,U1,50,DVDD*%
%TO.N,+1V1*%
X60300000Y-71540000D03*
%TO.P,U1,51,QSPI_SD3*%
%TO.N,QSPI_SD3*%
X59900000Y-71540000D03*
%TO.P,U1,52,QSPI_SCLK*%
%TO.N,QSPI_SCLK*%
X59500000Y-71540000D03*
%TO.P,U1,53,QSPI_SD0*%
%TO.N,QSPI_SD0*%
X59100000Y-71540000D03*
%TO.P,U1,54,QSPI_SD2*%
%TO.N,QSPI_SD2*%
X58700000Y-71540000D03*
%TO.P,U1,55,QSPI_SD1*%
%TO.N,QSPI_SD1*%
X58300000Y-71540000D03*
%TO.P,U1,56,QSPI_SS*%
%TO.N,QSPI_SS*%
X57900000Y-71540000D03*
D32*
%TO.P,U1,57,GND*%
%TO.N,GND*%
X60500000Y-74977500D03*
%TD*%
D24*
%TO.P,J3,1,Pin_1*%
%TO.N,VBUS*%
X69390000Y-50370000D03*
D25*
%TO.P,J3,2,Pin_2*%
%TO.N,+3V3*%
X69390000Y-52910000D03*
%TO.P,J3,3,Pin_3*%
%TO.N,GPIO29_ADC3*%
X69390000Y-55450000D03*
%TO.P,J3,4,Pin_4*%
%TO.N,GPIO28_ADC2*%
X69390000Y-57990000D03*
%TO.P,J3,5,Pin_5*%
%TO.N,GPIO27_ADC1*%
X69390000Y-60530000D03*
%TO.P,J3,6,Pin_6*%
%TO.N,GPIO26_ADC0*%
X69390000Y-63070000D03*
%TO.P,J3,7,Pin_7*%
%TO.N,GND*%
X69390000Y-65610000D03*
%TO.P,J3,8,Pin_8*%
%TO.N,GPIO24*%
X69390000Y-68150000D03*
%TO.P,J3,9,Pin_9*%
%TO.N,GPIO23*%
X69390000Y-70690000D03*
%TO.P,J3,10,Pin_10*%
%TO.N,RUN*%
X69390000Y-73230000D03*
%TO.P,J3,11,Pin_11*%
%TO.N,GPIO22*%
X69390000Y-75770000D03*
%TO.P,J3,12,Pin_12*%
%TO.N,GND*%
X69390000Y-78310000D03*
%TO.P,J3,13,Pin_13*%
%TO.N,GPIO21*%
X69390000Y-80850000D03*
%TO.P,J3,14,Pin_14*%
%TO.N,GPIO20*%
X69390000Y-83390000D03*
%TO.P,J3,15,Pin_15*%
%TO.N,GPIO19*%
X69390000Y-85930000D03*
%TO.P,J3,16,Pin_16*%
%TO.N,GPIO18*%
X69390000Y-88470000D03*
%TO.P,J3,17,Pin_17*%
%TO.N,+3V3*%
X69390000Y-91010000D03*
%TO.P,J3,18,Pin_18*%
%TO.N,GND*%
X69390000Y-93550000D03*
%TO.P,J3,19,Pin_19*%
%TO.N,GPIO17*%
X69390000Y-96090000D03*
%TO.P,J3,20,Pin_20*%
%TO.N,GPIO16*%
X69390000Y-98630000D03*
%TD*%
D13*
%TO.P,C5,1*%
%TO.N,+3V3*%
X57100000Y-93180000D03*
%TO.P,C5,2*%
%TO.N,GND*%
X57100000Y-92220000D03*
%TD*%
D33*
%TO.P,J1,A1,GND*%
%TO.N,GND*%
X63750000Y-55595000D03*
%TO.P,J1,A4,VBUS*%
%TO.N,VBUS*%
X62950000Y-55595000D03*
D34*
%TO.P,J1,A5,CC1*%
%TO.N,Net-(J1-CC1)*%
X61750000Y-55595000D03*
%TO.P,J1,A6,D+*%
%TO.N,USB_D+*%
X60750000Y-55595000D03*
%TO.P,J1,A7,D-*%
%TO.N,USB_D-*%
X60250000Y-55595000D03*
%TO.P,J1,A8*%
%TO.N,N/C*%
X59250000Y-55595000D03*
D33*
%TO.P,J1,A9,VBUS*%
%TO.N,VBUS*%
X58050000Y-55595000D03*
%TO.P,J1,A12,GND*%
%TO.N,GND*%
X57250000Y-55595000D03*
%TO.P,J1,B1,GND*%
X57250000Y-55595000D03*
%TO.P,J1,B4,VBUS*%
%TO.N,VBUS*%
X58050000Y-55595000D03*
D34*
%TO.P,J1,B5,CC2*%
%TO.N,Net-(J1-CC2)*%
X58750000Y-55595000D03*
%TO.P,J1,B6,D+*%
%TO.N,USB_D+*%
X59750000Y-55595000D03*
%TO.P,J1,B7,D-*%
%TO.N,USB_D-*%
X61250000Y-55595000D03*
%TO.P,J1,B8*%
%TO.N,N/C*%
X62250000Y-55595000D03*
D33*
%TO.P,J1,B9,VBUS*%
%TO.N,VBUS*%
X62950000Y-55595000D03*
%TO.P,J1,B12,GND*%
%TO.N,GND*%
X63750000Y-55595000D03*
D35*
%TO.P,J1,S1,SHIELD*%
X64820000Y-54680000D03*
D36*
X64820000Y-50500000D03*
D35*
X56180000Y-54680000D03*
D36*
X56180000Y-50500000D03*
%TD*%
D37*
%TO.P,C14,1*%
%TO.N,+3V3*%
X63625000Y-64780000D03*
%TO.P,C14,2*%
%TO.N,GND*%
X65175000Y-64780000D03*
%TD*%
D23*
%TO.P,R3,1*%
%TO.N,USB_D+*%
X61180000Y-69230000D03*
%TO.P,R3,2*%
%TO.N,Net-(U1-USB_DP)*%
X61180000Y-70250000D03*
%TD*%
D14*
%TO.P,C20,1*%
%TO.N,GND*%
X64520000Y-92300000D03*
%TO.P,C20,2*%
%TO.N,+3V3*%
X65480000Y-92300000D03*
%TD*%
D20*
%TO.P,R1,1*%
%TO.N,Net-(J1-CC1)*%
X62300000Y-57570000D03*
%TO.P,R1,2*%
%TO.N,GND*%
X63320000Y-57570000D03*
%TD*%
D17*
%TO.P,C22,1*%
%TO.N,GND*%
X59200000Y-87545000D03*
%TO.P,C22,2*%
%TO.N,+3V3*%
X59200000Y-88505000D03*
%TD*%
D13*
%TO.P,C6,1*%
%TO.N,+3V3*%
X56470000Y-85610000D03*
%TO.P,C6,2*%
%TO.N,GND*%
X56470000Y-84650000D03*
%TD*%
D23*
%TO.P,R4,1*%
%TO.N,USB_D-*%
X62220000Y-69230000D03*
%TO.P,R4,2*%
%TO.N,Net-(U1-USB_DM)*%
X62220000Y-70250000D03*
%TD*%
D26*
%TO.P,RST,1,K*%
%TO.N,Net-(D2-K)*%
X54285000Y-54802500D03*
%TO.P,RST,2,A*%
%TO.N,+3V3*%
X54285000Y-53227500D03*
%TD*%
D27*
%TO.P,C7,1*%
%TO.N,+3V3*%
X66170589Y-76420589D03*
%TO.P,C7,2*%
%TO.N,GND*%
X66849411Y-77099411D03*
%TD*%
D15*
%TO.P,R2,1*%
%TO.N,Net-(J1-CC2)*%
X58940000Y-57740000D03*
%TO.P,R2,2*%
%TO.N,GND*%
X57920000Y-57740000D03*
%TD*%
D12*
%TO.P,C1,1*%
%TO.N,+3V3*%
X59730000Y-64147500D03*
%TO.P,C1,2*%
%TO.N,GND*%
X58770000Y-64147500D03*
%TD*%
D38*
%TO.P,U4,1,SDA*%
%TO.N,GPIO4*%
X56700000Y-87625000D03*
%TO.P,U4,2,SCL*%
%TO.N,GPIO5*%
X56700000Y-88425000D03*
%TO.P,U4,3,VDD*%
%TO.N,+3V3*%
X58100000Y-88425000D03*
%TO.P,U4,4,VSS*%
%TO.N,GND*%
X58100000Y-87625000D03*
%TD*%
D17*
%TO.P,C11,1*%
%TO.N,+1V1*%
X67160000Y-73600000D03*
%TO.P,C11,2*%
%TO.N,GND*%
X67160000Y-74560000D03*
%TD*%
D39*
%TO.P,U2,1,GND*%
%TO.N,GND*%
X58220000Y-62397500D03*
%TO.P,U2,2,VO*%
%TO.N,+3V3*%
X60120000Y-62397500D03*
%TO.P,U2,3,VI*%
%TO.N,VBUS*%
X59170000Y-60522500D03*
%TD*%
D12*
%TO.P,C4,1*%
%TO.N,+3V3*%
X56220000Y-71010000D03*
%TO.P,C4,2*%
%TO.N,GND*%
X55260000Y-71010000D03*
%TD*%
D40*
%TO.N,+3V3*%
X65400000Y-91080000D03*
X59110000Y-72877498D03*
X65480000Y-92300000D03*
X54220000Y-96600000D03*
X63625000Y-64780000D03*
X60120000Y-62397500D03*
X59730000Y-64147500D03*
X57100000Y-94400000D03*
X62680000Y-91400000D03*
X56230000Y-71010000D03*
%TO.N,GND*%
X66849411Y-77099411D03*
X62850000Y-60915000D03*
X60340000Y-66220000D03*
X63280000Y-92300000D03*
X63110000Y-67490000D03*
X64520000Y-92300000D03*
X58680000Y-87625000D03*
X67160000Y-74560000D03*
X52550000Y-69500000D03*
X50950000Y-71950000D03*
X58961897Y-76825227D03*
X64459411Y-81119411D03*
X57100000Y-95360000D03*
X58220000Y-62450000D03*
X64410000Y-82499000D03*
X59270000Y-80160000D03*
X64200000Y-85100000D03*
X56400000Y-82040000D03*
X55905000Y-63240000D03*
X55260000Y-71010000D03*
X56470000Y-84650000D03*
X57100000Y-92220000D03*
X62000000Y-82985000D03*
X65175000Y-64780000D03*
X57695000Y-66125000D03*
X55450000Y-68975000D03*
X62530000Y-62100000D03*
X59169000Y-91700000D03*
X65600000Y-61900000D03*
X55180000Y-96600000D03*
%TO.N,+1V1*%
X63033192Y-69460532D03*
X60340000Y-67180000D03*
X66885050Y-72414823D03*
X60001376Y-72475338D03*
X63785197Y-80475668D03*
%TO.N,VBUS*%
X55400000Y-92000000D03*
X52500000Y-56800000D03*
X58050000Y-55595000D03*
X52558000Y-67304899D03*
X59200000Y-60460000D03*
X62850000Y-59365000D03*
X62950000Y-55595000D03*
%TO.N,XIN*%
X62000000Y-82025000D03*
X60120000Y-77350000D03*
%TO.N,RUN*%
X55400000Y-57700000D03*
X62942235Y-77403578D03*
%TO.N,GPIO25*%
X62350000Y-95175000D03*
X65880000Y-74080000D03*
%TO.N,GPIO15*%
X58240000Y-77170000D03*
%TO.N,GPIO2*%
X55225441Y-73446877D03*
%TO.N,GPIO3*%
X54630403Y-72936482D03*
%TO.N,GPIO4*%
X57883878Y-74388580D03*
X54053349Y-72359427D03*
X58030000Y-86600000D03*
%TO.N,GPIO5*%
X56067388Y-86875323D03*
X56010000Y-88720000D03*
X53384170Y-72093714D03*
%TO.N,GPIO17*%
X63738494Y-78305791D03*
%TO.N,GPIO16*%
X63940000Y-79080000D03*
%TO.N,SWCLK*%
X61910000Y-84200000D03*
X59450000Y-85390000D03*
X62890000Y-80370000D03*
%TO.N,SWD*%
X61611137Y-77478500D03*
%TO.N,QSPI_SS*%
X62260000Y-65770000D03*
X56274616Y-67432130D03*
%TD*%
D41*
%TO.N,+3V3*%
X58920000Y-72990000D02*
X58802750Y-72872750D01*
X63110000Y-65295000D02*
X63625000Y-64780000D01*
X63937500Y-72377500D02*
X63100000Y-71540000D01*
X65480000Y-92300000D02*
X65880000Y-91900000D01*
X57100000Y-93180000D02*
X58600000Y-91680000D01*
X60272000Y-90772000D02*
X58960000Y-90772000D01*
X53323000Y-54081000D02*
X53400000Y-54004000D01*
X66500000Y-85420000D02*
X66500000Y-91900000D01*
X60971500Y-76878500D02*
X62401500Y-76878500D01*
X58600000Y-91680000D02*
X58600000Y-90972000D01*
X57990000Y-89715000D02*
X59200000Y-88505000D01*
X59309002Y-73076500D02*
X60403500Y-73076500D01*
X63937500Y-75977500D02*
X63397500Y-75977500D01*
X54339000Y-63881000D02*
X54339000Y-64989340D01*
X62200000Y-85100000D02*
X62600000Y-84700000D01*
X54971000Y-87109000D02*
X54971000Y-90051000D01*
X59200000Y-88505000D02*
X59200000Y-90532000D01*
X60700000Y-78415000D02*
X60700000Y-77619943D01*
X59200000Y-90532000D02*
X58960000Y-90772000D01*
X68500000Y-91900000D02*
X69390000Y-91010000D01*
X69390000Y-52910000D02*
X67190000Y-52910000D01*
X59120000Y-88425000D02*
X58100000Y-88425000D01*
X54061000Y-53549000D02*
X54290000Y-53320000D01*
X57595774Y-72377500D02*
X57062500Y-72377500D01*
X63255000Y-76025000D02*
X63255000Y-75835000D01*
X54720000Y-65760000D02*
X54914830Y-65565170D01*
X54914830Y-65565170D02*
X56085660Y-66736000D01*
X58600000Y-90972000D02*
X58800000Y-90772000D01*
X64512000Y-83432000D02*
X63502000Y-83432000D01*
X57100000Y-93180000D02*
X57100000Y-94400000D01*
X58800000Y-90772000D02*
X58960000Y-90772000D01*
X57062500Y-75977500D02*
X57602500Y-75977500D01*
X63110000Y-66530000D02*
X63110000Y-65295000D01*
X60721000Y-77598943D02*
X60721000Y-77129000D01*
X53499000Y-53901000D02*
X53499000Y-53847400D01*
X58655000Y-66125000D02*
X58655000Y-66995000D01*
X60730000Y-72950000D02*
X60730000Y-72750000D01*
X54339000Y-64989340D02*
X54914830Y-65565170D01*
X53797400Y-53549000D02*
X54061000Y-53549000D01*
X61943500Y-73076500D02*
X60856500Y-73076500D01*
X63402226Y-72377500D02*
X63937500Y-72377500D01*
X63937500Y-75977500D02*
X65727500Y-75977500D01*
X65400000Y-91080000D02*
X65400000Y-89700000D01*
X54040000Y-62370000D02*
X54040000Y-55720000D01*
X62700000Y-91920000D02*
X62620000Y-92000000D01*
X63090000Y-72689726D02*
X63402226Y-72377500D01*
X59200000Y-88505000D02*
X59120000Y-88425000D01*
X65727500Y-75977500D02*
X66170589Y-76420589D01*
X62630000Y-82560000D02*
X62630000Y-81717450D01*
X62600000Y-84030000D02*
X63350000Y-83280000D01*
X61452500Y-91952500D02*
X60272000Y-90772000D01*
X58655000Y-66995000D02*
X58300000Y-67350000D01*
X62600000Y-84700000D02*
X62600000Y-84030000D01*
X62700000Y-71540000D02*
X63100000Y-71540000D01*
X53400000Y-54004000D02*
X53400000Y-54000000D01*
X67000000Y-91900000D02*
X68500000Y-91900000D01*
X60403500Y-73076500D02*
X60730000Y-72750000D01*
X60700000Y-79230000D02*
X60700000Y-78415000D01*
X61100000Y-72380000D02*
X60730000Y-72750000D01*
X62620000Y-92000000D02*
X61405000Y-92000000D01*
X62700000Y-90400000D02*
X62700000Y-91920000D01*
X54945000Y-63275000D02*
X54040000Y-62370000D01*
X66180000Y-85100000D02*
X64512000Y-83432000D01*
X53499000Y-53847400D02*
X53797400Y-53549000D01*
X59110000Y-72877498D02*
X59309002Y-73076500D01*
X57062500Y-71852500D02*
X56220000Y-71010000D01*
X60230000Y-79700000D02*
X60700000Y-79230000D01*
X63397500Y-75977500D02*
X63255000Y-75835000D01*
X57062500Y-72377500D02*
X58307500Y-72377500D01*
X60721000Y-77129000D02*
X60971500Y-76878500D01*
X61072550Y-80160000D02*
X60230000Y-80160000D01*
X63255000Y-75835000D02*
X63090000Y-75670000D01*
X63090000Y-75670000D02*
X63090000Y-72689726D01*
X57062500Y-72377500D02*
X57062500Y-71852500D01*
X61100000Y-71540000D02*
X61100000Y-72380000D01*
X67190000Y-52910000D02*
X66960000Y-52910000D01*
X62700000Y-72320000D02*
X61943500Y-73076500D01*
X57990000Y-89750000D02*
X57990000Y-89715000D01*
X58599000Y-73076500D02*
X58802750Y-72872750D01*
X58997498Y-72990000D02*
X58920000Y-72990000D01*
X62700000Y-71540000D02*
X62700000Y-72320000D01*
X63350000Y-83280000D02*
X62630000Y-82560000D01*
X67190000Y-52910000D02*
X67162500Y-52910000D01*
X67162500Y-52910000D02*
X66730000Y-53342500D01*
X66180000Y-85100000D02*
X66500000Y-85420000D01*
X54040000Y-55720000D02*
X53625000Y-55305000D01*
X60700000Y-71540000D02*
X61100000Y-71540000D01*
X53400000Y-54000000D02*
X53499000Y-53901000D01*
X59110000Y-72877498D02*
X58997498Y-72990000D01*
X65880000Y-91900000D02*
X66500000Y-91900000D01*
X61405000Y-92000000D02*
X61452500Y-91952500D01*
X60856500Y-73076500D02*
X60730000Y-72950000D01*
X54100000Y-65760000D02*
X54720000Y-65760000D01*
X57596774Y-72376500D02*
X57595774Y-72377500D01*
X60230000Y-80160000D02*
X60230000Y-79700000D01*
X56470000Y-85610000D02*
X54971000Y-87109000D01*
X58044000Y-66736000D02*
X58655000Y-66125000D01*
X58307500Y-72377500D02*
X58802750Y-72872750D01*
X60700000Y-77619943D02*
X60721000Y-77598943D01*
X63502000Y-83432000D02*
X63350000Y-83280000D01*
X57602500Y-75977500D02*
X58599000Y-74981000D01*
X62630000Y-81717450D02*
X61072550Y-80160000D01*
X58655000Y-66125000D02*
X58655000Y-65222500D01*
X54971000Y-90051000D02*
X55692000Y-90772000D01*
X66500000Y-91900000D02*
X67000000Y-91900000D01*
X53625000Y-55302000D02*
X53323000Y-55000000D01*
X58599000Y-74981000D02*
X58599000Y-73076500D01*
X53323000Y-55000000D02*
X53323000Y-54081000D01*
X55692000Y-90772000D02*
X58800000Y-90772000D01*
X56085660Y-66736000D02*
X58044000Y-66736000D01*
X54945000Y-63275000D02*
X54339000Y-63881000D01*
X62401500Y-76878500D02*
X63255000Y-76025000D01*
X58655000Y-65222500D02*
X59730000Y-64147500D01*
X53625000Y-55305000D02*
X53625000Y-55302000D01*
%TO.N,GND*%
X58925227Y-76825227D02*
X58830000Y-76730000D01*
X58830000Y-76730000D02*
X58830000Y-76647500D01*
X59270000Y-80160000D02*
X59270000Y-80430000D01*
X63750000Y-55595000D02*
X63905000Y-55595000D01*
X51610000Y-80810000D02*
X50700000Y-79900000D01*
X64345707Y-82435707D02*
X64300000Y-82390000D01*
X63320000Y-57570000D02*
X63750000Y-57140000D01*
X64410000Y-82499000D02*
X64346707Y-82435707D01*
X64820000Y-56070000D02*
X64810000Y-56080000D01*
X59545000Y-87200000D02*
X60300000Y-87200000D01*
X58100000Y-81600000D02*
X56840000Y-81600000D01*
X65747037Y-91579000D02*
X65726037Y-91600000D01*
X63500000Y-92520000D02*
X63280000Y-92300000D01*
X66179000Y-87633314D02*
X66179000Y-91321000D01*
X59800000Y-83300000D02*
X58100000Y-81600000D01*
X69390000Y-65610000D02*
X69390000Y-65585000D01*
X62105000Y-82985000D02*
X62130000Y-83010000D01*
X55905000Y-63275000D02*
X55905000Y-63240000D01*
X58830000Y-76647500D02*
X60500000Y-74977500D01*
X64200000Y-91980000D02*
X64200000Y-91300000D01*
X58961897Y-76825227D02*
X58961897Y-76861897D01*
X65220000Y-87020000D02*
X65220000Y-85100000D01*
X51610000Y-80850000D02*
X51610000Y-80810000D01*
X69455000Y-93550000D02*
X69390000Y-93550000D01*
X51610000Y-93550000D02*
X51610000Y-93510000D01*
X63500000Y-92558374D02*
X63500000Y-92520000D01*
X57920000Y-57740000D02*
X57920000Y-62097500D01*
X63750000Y-57140000D02*
X63750000Y-55595000D01*
X59500000Y-77400000D02*
X59500000Y-78415000D01*
X59200000Y-87545000D02*
X59545000Y-87200000D01*
X64100000Y-93620000D02*
X64100000Y-93158374D01*
X65745686Y-87200000D02*
X66179000Y-87633314D01*
X51610000Y-68150000D02*
X51610000Y-68010000D01*
X58665000Y-95360000D02*
X58850000Y-95175000D01*
X60615000Y-82985000D02*
X60300000Y-83300000D01*
X65220000Y-85100000D02*
X64180000Y-85100000D01*
X70080000Y-77645000D02*
X70055000Y-77645000D01*
X63905000Y-55595000D02*
X64820000Y-54680000D01*
X64520000Y-92300000D02*
X64200000Y-91980000D01*
X65400000Y-87200000D02*
X65745686Y-87200000D01*
X63626000Y-57876000D02*
X63320000Y-57570000D01*
X62000000Y-82985000D02*
X60615000Y-82985000D01*
X69390000Y-65585000D02*
X70065000Y-64910000D01*
X58220000Y-62450000D02*
X58220000Y-63597500D01*
X51610000Y-93510000D02*
X50800000Y-92700000D01*
X58961897Y-76861897D02*
X59500000Y-77400000D01*
X58220000Y-63597500D02*
X58770000Y-64147500D01*
X65400000Y-87200000D02*
X65220000Y-87020000D01*
X64100000Y-93158374D02*
X63500000Y-92558374D01*
X55905000Y-63240000D02*
X55905000Y-62405000D01*
X51610000Y-68150000D02*
X51610000Y-68560000D01*
X69390000Y-93550000D02*
X69390000Y-93510000D01*
X51610000Y-68560000D02*
X52550000Y-69500000D01*
X59200000Y-87545000D02*
X59120000Y-87625000D01*
X69390000Y-93510000D02*
X70100000Y-92800000D01*
X55905000Y-62405000D02*
X55400000Y-61900000D01*
X64500000Y-91600000D02*
X64200000Y-91300000D01*
X56840000Y-81600000D02*
X56400000Y-82040000D01*
X58220000Y-62397500D02*
X58220000Y-62450000D01*
X64200000Y-91300000D02*
X64200000Y-90400000D01*
X59120000Y-87625000D02*
X58680000Y-87625000D01*
X62000000Y-82985000D02*
X62105000Y-82985000D01*
X57695000Y-65222500D02*
X57695000Y-66125000D01*
X64820000Y-54680000D02*
X64820000Y-56070000D01*
X57100000Y-95360000D02*
X58665000Y-95360000D01*
X63626000Y-60139000D02*
X63626000Y-57876000D01*
X66179000Y-91321000D02*
X65921000Y-91579000D01*
X58680000Y-87625000D02*
X58100000Y-87625000D01*
X60300000Y-83300000D02*
X59800000Y-83300000D01*
X50700000Y-79900000D02*
X50700000Y-79800000D01*
X62530000Y-63250000D02*
X62530000Y-62100000D01*
X64346707Y-82435707D02*
X64345707Y-82435707D01*
X63200000Y-90400000D02*
X63200000Y-92200000D01*
X69390000Y-78310000D02*
X70055000Y-77645000D01*
X58961897Y-76825227D02*
X58925227Y-76825227D01*
X64300000Y-81278822D02*
X64459411Y-81119411D01*
X60300000Y-87200000D02*
X60300000Y-87600000D01*
X59270000Y-80430000D02*
X58100000Y-81600000D01*
X57920000Y-62097500D02*
X58220000Y-62397500D01*
X64300000Y-82390000D02*
X64300000Y-81278822D01*
X65726037Y-91600000D02*
X64500000Y-91600000D01*
X62530000Y-62100000D02*
X62530000Y-61235000D01*
X65921000Y-91579000D02*
X65747037Y-91579000D01*
X62530000Y-61235000D02*
X62850000Y-60915000D01*
X60300000Y-87200000D02*
X61500000Y-87200000D01*
X62850000Y-60915000D02*
X63626000Y-60139000D01*
X58770000Y-64147500D02*
X57695000Y-65222500D01*
%TO.N,+1V1*%
X63785197Y-80475668D02*
X63260865Y-81000000D01*
X60310000Y-70900000D02*
X60310000Y-70994726D01*
X63040532Y-69460532D02*
X63033192Y-69460532D01*
X60300000Y-70910000D02*
X60310000Y-70900000D01*
X61100000Y-79440000D02*
X61100000Y-78415000D01*
X62300000Y-71540000D02*
X62300000Y-70860000D01*
X60310000Y-67910000D02*
X60340000Y-67880000D01*
X67160000Y-72689773D02*
X67160000Y-73600000D01*
X66885050Y-72414823D02*
X67160000Y-72689773D01*
X63260865Y-81000000D02*
X62660000Y-81000000D01*
X62300000Y-70860000D02*
X62339000Y-70821000D01*
X60300000Y-71540000D02*
X60300000Y-72176714D01*
X60310000Y-70900000D02*
X60310000Y-67910000D01*
X62550000Y-70800000D02*
X63400000Y-70800000D01*
X62339000Y-70821000D02*
X62529000Y-70821000D01*
X62529000Y-70821000D02*
X62550000Y-70800000D01*
X63400000Y-70800000D02*
X63890000Y-70310000D01*
X62660000Y-81000000D02*
X61100000Y-79440000D01*
X60300000Y-71540000D02*
X60300000Y-70910000D01*
X60300000Y-72176714D02*
X60001376Y-72475338D01*
X60310000Y-70994726D02*
X60301000Y-71003726D01*
X63890000Y-70310000D02*
X63040532Y-69460532D01*
X60340000Y-67880000D02*
X60340000Y-67180000D01*
%TO.N,VBUS*%
X62714000Y-53869992D02*
X62714000Y-54430008D01*
X60625000Y-91700000D02*
X62350000Y-93425000D01*
X63109992Y-53474000D02*
X62714000Y-53869992D01*
X62350000Y-93425000D02*
X59775000Y-96000000D01*
X52558000Y-67304899D02*
X52757000Y-67105899D01*
X60200000Y-91700000D02*
X60625000Y-91700000D01*
X52757000Y-67105899D02*
X52757000Y-57057000D01*
X69390000Y-50370000D02*
X67447215Y-50370000D01*
X64343215Y-53474000D02*
X63109992Y-53474000D01*
X62714000Y-54430008D02*
X62950000Y-54666008D01*
X62950000Y-54666008D02*
X62950000Y-55595000D01*
X55400000Y-94700000D02*
X55400000Y-92000000D01*
X59533900Y-53767000D02*
X58849000Y-54451900D01*
X58400000Y-54468000D02*
X58050000Y-54818000D01*
X58849000Y-54468000D02*
X58400000Y-54468000D01*
X52757000Y-57057000D02*
X52500000Y-56800000D01*
X58050000Y-54818000D02*
X58050000Y-55595000D01*
X56700000Y-96000000D02*
X55400000Y-94700000D01*
X62950000Y-55595000D02*
X62950000Y-54818000D01*
X58849000Y-54451900D02*
X58849000Y-54468000D01*
X59775000Y-96000000D02*
X56700000Y-96000000D01*
X62950000Y-54818000D02*
X61899000Y-53767000D01*
X67447215Y-50370000D02*
X64343215Y-53474000D01*
X61899000Y-53767000D02*
X59533900Y-53767000D01*
%TO.N,XIN*%
X60725000Y-82025000D02*
X60300000Y-81600000D01*
X59900000Y-77570000D02*
X60120000Y-77350000D01*
X62000000Y-82025000D02*
X60725000Y-82025000D01*
X59900000Y-78415000D02*
X59900000Y-77570000D01*
%TO.N,Net-(C16-Pad2)*%
X55450000Y-82050000D02*
X55450000Y-81810000D01*
X55450000Y-80670000D02*
X55450000Y-81810000D01*
X58100000Y-83300000D02*
X56700000Y-83300000D01*
X56400000Y-83000000D02*
X55450000Y-82050000D01*
X56700000Y-83300000D02*
X56400000Y-83000000D01*
%TO.N,RUN*%
X62300000Y-77697730D02*
X62300000Y-78415000D01*
X64960000Y-81688000D02*
X64964000Y-81684000D01*
X65370000Y-82090000D02*
X65370000Y-82500000D01*
X65720000Y-80700000D02*
X64960000Y-81460000D01*
X64759000Y-83111000D02*
X64141000Y-83111000D01*
X62300000Y-78415000D02*
X62300000Y-79130000D01*
X63460000Y-82430000D02*
X63330000Y-82430000D01*
X62942235Y-77403578D02*
X62596801Y-77403578D01*
X64964000Y-81684000D02*
X65370000Y-82090000D01*
X56701000Y-63849000D02*
X55930000Y-64620000D01*
X62596801Y-77403578D02*
X62502349Y-77498030D01*
X65720000Y-80440000D02*
X65720000Y-80700000D01*
X62860000Y-79690000D02*
X64970000Y-79690000D01*
X62300000Y-79130000D02*
X62860000Y-79690000D01*
X65370000Y-82500000D02*
X64759000Y-83111000D01*
X56701000Y-59001000D02*
X56701000Y-63849000D01*
X64970000Y-79690000D02*
X65720000Y-80440000D01*
X62502349Y-77498030D02*
X62499700Y-77498030D01*
X62499700Y-77498030D02*
X62300000Y-77697730D01*
X64141000Y-83111000D02*
X63460000Y-82430000D01*
X55400000Y-57700000D02*
X56701000Y-59001000D01*
X64960000Y-81460000D02*
X64960000Y-81688000D01*
%TO.N,Net-(D1-K)*%
X64020000Y-62048064D02*
X64020000Y-62800000D01*
X64020000Y-62800000D02*
X63530000Y-63290000D01*
X64027000Y-57558936D02*
X64027000Y-62041064D01*
X66725000Y-54860936D02*
X64027000Y-57558936D01*
X64027000Y-62041064D02*
X64020000Y-62048064D01*
%TO.N,Net-(D2-K)*%
X57120000Y-62410000D02*
X57102000Y-62428000D01*
X57120000Y-57420000D02*
X57120000Y-62410000D01*
X55531000Y-65241000D02*
X54910000Y-64620000D01*
X56501000Y-64989340D02*
X56249340Y-65241000D01*
X57102000Y-62428000D02*
X57102000Y-64015100D01*
X56249340Y-65241000D02*
X55531000Y-65241000D01*
X57102000Y-64015100D02*
X56501000Y-64616100D01*
X56501000Y-64616100D02*
X56501000Y-64989340D01*
X54275000Y-54575000D02*
X57120000Y-57420000D01*
%TO.N,GPIO25*%
X65362500Y-74377500D02*
X63937500Y-74377500D01*
X65660000Y-74080000D02*
X65362500Y-74377500D01*
X65880000Y-74080000D02*
X65660000Y-74080000D01*
%TO.N,USB_D-*%
X60299000Y-54569000D02*
X61069000Y-54569000D01*
X61260000Y-57120000D02*
X61260000Y-55605000D01*
X61660000Y-57949012D02*
X61660000Y-63385913D01*
X60250000Y-54618000D02*
X60299000Y-54569000D01*
X61660000Y-63385913D02*
X61660000Y-63391265D01*
X61660000Y-57839295D02*
X61660000Y-57520000D01*
X61660000Y-68670000D02*
X62220000Y-69230000D01*
X61660000Y-57520000D02*
X61260000Y-57120000D01*
X61660000Y-57949012D02*
X61660000Y-57839295D01*
X60250000Y-55595000D02*
X60250000Y-54618000D01*
X61660000Y-63391265D02*
X61660000Y-68670000D01*
X61069000Y-54569000D02*
X61250000Y-54750000D01*
X61260000Y-55605000D02*
X61250000Y-55595000D01*
X61250000Y-54750000D02*
X61250000Y-55595000D01*
%TO.N,USB_D+*%
X61180000Y-69230000D02*
X61180000Y-65420072D01*
X61142674Y-57852674D02*
X60710000Y-57420000D01*
X61180000Y-57852674D02*
X61142674Y-57852674D01*
X59799000Y-56621000D02*
X59840000Y-56621000D01*
X61180000Y-63385913D02*
X61180000Y-63391265D01*
X61180000Y-63391265D02*
X61180000Y-65410000D01*
X60710000Y-56757499D02*
X60767499Y-56700000D01*
X60622000Y-56700000D02*
X60750000Y-56572000D01*
X59840000Y-56621000D02*
X59840000Y-56700000D01*
X60750000Y-56682501D02*
X60750000Y-55595000D01*
X59799000Y-55644000D02*
X59799000Y-56621000D01*
X60750000Y-56572000D02*
X60750000Y-55595000D01*
X61180000Y-57957040D02*
X61180000Y-63187885D01*
X61180000Y-57957040D02*
X61180000Y-57852674D01*
X61180000Y-63187885D02*
X61180000Y-63385913D01*
X59840000Y-56700000D02*
X60622000Y-56700000D01*
X61180000Y-65410000D02*
X61180000Y-65420072D01*
X59750000Y-55595000D02*
X59799000Y-55644000D01*
X60710000Y-57420000D02*
X60710000Y-56757499D01*
%TO.N,Net-(J1-CC2)*%
X58940000Y-57740000D02*
X58750000Y-57550000D01*
X58750000Y-57550000D02*
X58750000Y-55595000D01*
%TO.N,Net-(J1-CC1)*%
X61750000Y-57020000D02*
X61750000Y-55595000D01*
X62300000Y-57570000D02*
X61750000Y-57020000D01*
%TO.N,GPIO10*%
X56524226Y-77180500D02*
X56527226Y-77177500D01*
X56023900Y-77180500D02*
X53569500Y-77180500D01*
X51610000Y-83189660D02*
X51610000Y-83390000D01*
X53569500Y-77180500D02*
X52770000Y-77980000D01*
X56527226Y-77177500D02*
X57062500Y-77177500D01*
X56023900Y-77180500D02*
X56524226Y-77180500D01*
X52770000Y-82029660D02*
X51610000Y-83189660D01*
X52770000Y-77980000D02*
X52770000Y-82029660D01*
%TO.N,GPIO15*%
X58240000Y-77470000D02*
X58420000Y-77650000D01*
X58868274Y-77650000D02*
X59100000Y-77881726D01*
X58420000Y-77650000D02*
X58868274Y-77650000D01*
X59100000Y-77881726D02*
X59100000Y-78415000D01*
X58240000Y-77170000D02*
X58240000Y-77470000D01*
%TO.N,GPIO2*%
X55317500Y-73577500D02*
X55150000Y-73410000D01*
X55267500Y-73577500D02*
X55130000Y-73440000D01*
X55317500Y-73577500D02*
X55267500Y-73577500D01*
X55225441Y-73446877D02*
X55148564Y-73370000D01*
X57062500Y-73577500D02*
X55317500Y-73577500D01*
%TO.N,GPIO3*%
X55158650Y-73977500D02*
X57062500Y-73977500D01*
X54630403Y-72936482D02*
X54600000Y-72966885D01*
X54600000Y-72966885D02*
X54600000Y-73784989D01*
X55141150Y-73960000D02*
X55158650Y-73977500D01*
X54775011Y-73960000D02*
X55141150Y-73960000D01*
X54600000Y-73784989D02*
X54775011Y-73960000D01*
%TO.N,GPIO6*%
X51610000Y-71500000D02*
X52879000Y-72769000D01*
X52879000Y-72769000D02*
X52879000Y-73919000D01*
X51610000Y-70690000D02*
X51610000Y-71500000D01*
X54137500Y-75177500D02*
X57062500Y-75177500D01*
X51610000Y-70690000D02*
X51610000Y-71560224D01*
X52879000Y-73919000D02*
X54137500Y-75177500D01*
%TO.N,GPIO8*%
X56365000Y-76220000D02*
X52060000Y-76220000D01*
X52060000Y-76220000D02*
X51610000Y-75770000D01*
X57062500Y-76377500D02*
X56522500Y-76377500D01*
X56522500Y-76377500D02*
X56365000Y-76220000D01*
%TO.N,GPIO7*%
X56529226Y-75577500D02*
X56528226Y-75578500D01*
X51610000Y-73230000D02*
X53958500Y-75578500D01*
X53958500Y-75578500D02*
X56528226Y-75578500D01*
X57062500Y-75577500D02*
X56529226Y-75577500D01*
%TO.N,GPIO4*%
X54577500Y-74377500D02*
X54053349Y-73853349D01*
X56316331Y-87476323D02*
X56322654Y-87470000D01*
X57182164Y-86600000D02*
X56549000Y-87233164D01*
X56549000Y-87233164D02*
X56549000Y-87516836D01*
X57883878Y-74388580D02*
X57703580Y-74388580D01*
X55830000Y-89750000D02*
X55372000Y-89292000D01*
X56608164Y-87576000D02*
X56651000Y-87576000D01*
X60200000Y-86600000D02*
X58030000Y-86600000D01*
X55818445Y-87476323D02*
X56316331Y-87476323D01*
X58030000Y-86600000D02*
X57182164Y-86600000D01*
X54053349Y-73853349D02*
X54053349Y-72548922D01*
X56322654Y-87470000D02*
X56545000Y-87470000D01*
X56549000Y-87516836D02*
X56608164Y-87576000D01*
X56549000Y-87474000D02*
X56549000Y-87516836D01*
X56970000Y-89750000D02*
X55830000Y-89750000D01*
X55372000Y-87868000D02*
X55770000Y-87470000D01*
X57703580Y-74388580D02*
X57692500Y-74377500D01*
X55770000Y-87470000D02*
X55812122Y-87470000D01*
X60300000Y-86500000D02*
X62200000Y-86500000D01*
X60200000Y-86600000D02*
X60300000Y-86500000D01*
X55812122Y-87470000D02*
X55818445Y-87476323D01*
X55372000Y-89292000D02*
X55372000Y-87868000D01*
X56651000Y-87576000D02*
X56700000Y-87625000D01*
X57062500Y-74377500D02*
X54577500Y-74377500D01*
X56657164Y-87625000D02*
X56700000Y-87625000D01*
X57692500Y-74377500D02*
X57062500Y-74377500D01*
X56549000Y-87516836D02*
X56657164Y-87625000D01*
X56545000Y-87470000D02*
X56549000Y-87474000D01*
%TO.N,GPIO5*%
X54337500Y-74777500D02*
X57062500Y-74777500D01*
X56067388Y-86875323D02*
X56324677Y-86875323D01*
X60540000Y-85740000D02*
X61180000Y-85100000D01*
X56010000Y-88720000D02*
X56305000Y-88425000D01*
X56305000Y-88425000D02*
X56700000Y-88425000D01*
X62324999Y-85700000D02*
X61780000Y-85700000D01*
X59590000Y-86200000D02*
X60051000Y-85739000D01*
X56324677Y-86875323D02*
X57001000Y-86199000D01*
X59359999Y-86200000D02*
X59590000Y-86200000D01*
X53400000Y-73840000D02*
X54337500Y-74777500D01*
X57001000Y-86199000D02*
X57581057Y-86199000D01*
X60051000Y-85739000D02*
X60051000Y-85740000D01*
X57781057Y-85999000D02*
X58278943Y-85999000D01*
X61780000Y-85700000D02*
X61180000Y-85100000D01*
X53400000Y-72233130D02*
X53400000Y-73840000D01*
X58278943Y-85999000D02*
X58478943Y-86199000D01*
X53384170Y-72217300D02*
X53400000Y-72233130D01*
X62700000Y-86075001D02*
X62324999Y-85700000D01*
X58478943Y-86199000D02*
X59358650Y-86199000D01*
X57581057Y-86199000D02*
X57781057Y-85999000D01*
X53384170Y-72093714D02*
X53384170Y-72217300D01*
X59358650Y-86199000D02*
X59359825Y-86200174D01*
X59359825Y-86200174D02*
X59359999Y-86200000D01*
X62700000Y-86500000D02*
X62700000Y-86075001D01*
X60051000Y-85740000D02*
X60540000Y-85740000D01*
%TO.N,GPIO13*%
X57880000Y-79160000D02*
X58088274Y-79160000D01*
X58088274Y-79160000D02*
X58300000Y-78948274D01*
X54926500Y-79153500D02*
X57873500Y-79153500D01*
X57873500Y-79153500D02*
X57880000Y-79160000D01*
X54130000Y-79950000D02*
X54926500Y-79153500D01*
X58300000Y-78948274D02*
X58300000Y-78415000D01*
X51610000Y-91010000D02*
X54130000Y-88490000D01*
X54130000Y-88490000D02*
X54130000Y-79950000D01*
%TO.N,GPIO0*%
X53499000Y-53152600D02*
X53503200Y-53156800D01*
X54679000Y-71199000D02*
X54679000Y-71366550D01*
X53479000Y-65440660D02*
X53479000Y-69959000D01*
X54670000Y-71150000D02*
X54670000Y-71190000D01*
X52921000Y-53767038D02*
X52921000Y-54792414D01*
X54670000Y-71190000D02*
X54679000Y-71199000D01*
X53479000Y-69959000D02*
X54670000Y-71150000D01*
X56130000Y-71950000D02*
X56130000Y-72610000D01*
X54130000Y-63027100D02*
X54130000Y-63522900D01*
X53938000Y-64982000D02*
X53731000Y-65189000D01*
X52906981Y-53753019D02*
X52921000Y-53767038D01*
X53499000Y-52272400D02*
X53499000Y-53152600D01*
X53002000Y-55202000D02*
X53639000Y-55839000D01*
X51610000Y-50370000D02*
X53505700Y-52265700D01*
X53503200Y-53156800D02*
X52906981Y-53753019D01*
X56297500Y-72777500D02*
X57062500Y-72777500D01*
X56130000Y-72610000D02*
X56297500Y-72777500D01*
X55101000Y-71621000D02*
X55170000Y-71690000D01*
X53505700Y-52265700D02*
X53499000Y-52272400D01*
X53639000Y-62536100D02*
X54130000Y-63027100D01*
X54933450Y-71621000D02*
X55101000Y-71621000D01*
X55870000Y-71690000D02*
X56130000Y-71950000D01*
X54679000Y-71366550D02*
X54933450Y-71621000D01*
X54130000Y-63522900D02*
X53938000Y-63714900D01*
X55170000Y-71690000D02*
X55870000Y-71690000D01*
X53639000Y-55839000D02*
X53639000Y-62536100D01*
X53731000Y-65189000D02*
X53730660Y-65189000D01*
X53002000Y-54873415D02*
X53002000Y-55202000D01*
X52921000Y-54792414D02*
X53002000Y-54873415D01*
X53938000Y-63714900D02*
X53938000Y-64982000D01*
X53730660Y-65189000D02*
X53479000Y-65440660D01*
%TO.N,GPIO9*%
X56435500Y-76779500D02*
X56437500Y-76777500D01*
X51610000Y-78310000D02*
X53140500Y-76779500D01*
X56437500Y-76777500D02*
X57062500Y-76777500D01*
X53140500Y-76779500D02*
X56435500Y-76779500D01*
%TO.N,GPIO12*%
X53591000Y-86489000D02*
X53591000Y-78316100D01*
X57536000Y-78051000D02*
X57900000Y-78415000D01*
X53856100Y-78051000D02*
X57536000Y-78051000D01*
X53591000Y-78316100D02*
X53856100Y-78051000D01*
X51610000Y-88470000D02*
X53591000Y-86489000D01*
%TO.N,GPIO11*%
X56995000Y-77645000D02*
X57062500Y-77577500D01*
X55850000Y-77645000D02*
X56995000Y-77645000D01*
X53190000Y-84350000D02*
X53190000Y-78150000D01*
X53190000Y-78150000D02*
X53740000Y-77600000D01*
X51610000Y-85930000D02*
X53190000Y-84350000D01*
X55805000Y-77600000D02*
X55850000Y-77645000D01*
X53740000Y-77600000D02*
X55805000Y-77600000D01*
%TO.N,GPIO1*%
X53537000Y-63548800D02*
X53537000Y-64815560D01*
X53537000Y-64815560D02*
X53593569Y-64872129D01*
X53238000Y-56038000D02*
X53238000Y-62702200D01*
X53593569Y-64872129D02*
X53158000Y-65307698D01*
X53238000Y-62702200D02*
X53729000Y-63193200D01*
X53729000Y-63193200D02*
X53729000Y-63356800D01*
X55931431Y-73177500D02*
X57062500Y-73177500D01*
X54300000Y-71554650D02*
X54703131Y-71957781D01*
X54703131Y-71957781D02*
X54711712Y-71957781D01*
X52681000Y-55481000D02*
X53238000Y-56038000D01*
X52681000Y-55006377D02*
X52681000Y-55481000D01*
X53729000Y-63356800D02*
X53537000Y-63548800D01*
X54711712Y-71957781D02*
X55931431Y-73177500D01*
X54300000Y-71233962D02*
X54300000Y-71554650D01*
X52600000Y-54925377D02*
X52681000Y-55006377D01*
X52600000Y-53900000D02*
X52600000Y-54925377D01*
X51610000Y-52910000D02*
X52600000Y-53900000D01*
X53158000Y-65307698D02*
X53158000Y-70091963D01*
X53158000Y-70091963D02*
X54300000Y-71233962D01*
%TO.N,GPIO14*%
X58700000Y-79117374D02*
X58028374Y-79789000D01*
X58028374Y-79789000D02*
X55010660Y-79789000D01*
X55010660Y-79789000D02*
X54570000Y-80229660D01*
X54570000Y-80229660D02*
X54570000Y-93130000D01*
X58700000Y-78790000D02*
X58700000Y-79117374D01*
X54570000Y-93130000D02*
X51610000Y-96090000D01*
%TO.N,GPIO28_ADC2*%
X66981000Y-63796440D02*
X66981000Y-68996100D01*
X65080000Y-72800000D02*
X64702500Y-73177500D01*
X67703000Y-59677000D02*
X67703000Y-62701200D01*
X65080000Y-70897100D02*
X65080000Y-72800000D01*
X66992000Y-63412200D02*
X66992000Y-63785440D01*
X67703000Y-62701200D02*
X66992000Y-63412200D01*
X64639874Y-73177500D02*
X63937500Y-73177500D01*
X64702500Y-73177500D02*
X63937500Y-73177500D01*
X66981000Y-68996100D02*
X65080000Y-70897100D01*
X66992000Y-63785440D02*
X66981000Y-63796440D01*
X69390000Y-57990000D02*
X67703000Y-59677000D01*
%TO.N,GPIO17*%
X63738494Y-78305791D02*
X63209209Y-78305791D01*
X69390000Y-96300000D02*
X69620000Y-96530000D01*
X63209209Y-78305791D02*
X63100000Y-78415000D01*
%TO.N,GPIO26_ADC0*%
X68550000Y-63070000D02*
X69390000Y-63070000D01*
X67820000Y-63800000D02*
X68550000Y-63070000D01*
X65884050Y-73130150D02*
X65884050Y-71233050D01*
X67820000Y-69297100D02*
X67820000Y-63800000D01*
X65036700Y-73977500D02*
X65884050Y-73130150D01*
X65036700Y-73977500D02*
X63937500Y-73977500D01*
X65884050Y-71233050D02*
X67820000Y-69297100D01*
%TO.N,GPIO18*%
X64347500Y-77577500D02*
X65228231Y-78458231D01*
X67430000Y-80650698D02*
X67430000Y-86510000D01*
X63937500Y-77577500D02*
X64347500Y-77577500D01*
X65237533Y-78458231D02*
X67430000Y-80650698D01*
X65228231Y-78458231D02*
X65237533Y-78458231D01*
X67430000Y-86510000D02*
X69390000Y-88470000D01*
%TO.N,GPIO23*%
X68930000Y-71150000D02*
X68930000Y-72079000D01*
X68930000Y-72079000D02*
X68913240Y-72079000D01*
X68913240Y-72079000D02*
X68239000Y-72753240D01*
X68239000Y-74811000D02*
X67872500Y-75177500D01*
X67872500Y-75177500D02*
X63937500Y-75177500D01*
X69390000Y-70690000D02*
X68930000Y-71150000D01*
X68239000Y-72753240D02*
X68239000Y-74811000D01*
%TO.N,GPIO27_ADC1*%
X68104000Y-62867300D02*
X67393000Y-63578300D01*
X65480000Y-72967100D02*
X64869600Y-73577500D01*
X67382000Y-63962540D02*
X67382000Y-69162200D01*
X67382000Y-69162200D02*
X66980000Y-69564200D01*
X64869600Y-73577500D02*
X63937500Y-73577500D01*
X66980000Y-69564200D02*
X66980000Y-69570000D01*
X67393000Y-63578300D02*
X67393000Y-63951540D01*
X65480000Y-71070000D02*
X65480000Y-72967100D01*
X69390000Y-60530000D02*
X68104000Y-61816000D01*
X67393000Y-63951540D02*
X67382000Y-63962540D01*
X66980000Y-69570000D02*
X65480000Y-71070000D01*
X68104000Y-61816000D02*
X68104000Y-62867300D01*
%TO.N,GPIO20*%
X68239000Y-82239000D02*
X69390000Y-83390000D01*
X63937500Y-76777500D02*
X65000400Y-76777500D01*
X65000400Y-76777500D02*
X68239000Y-80016100D01*
X68239000Y-80016100D02*
X68239000Y-82239000D01*
%TO.N,GPIO24*%
X66549000Y-73273450D02*
X66670000Y-73152450D01*
X66284050Y-72663766D02*
X66284050Y-72165880D01*
X66670000Y-73152450D02*
X66670000Y-73049716D01*
X66284050Y-72165880D02*
X66636107Y-71813823D01*
X66549000Y-74471000D02*
X66549000Y-73273450D01*
X66850000Y-70834200D02*
X69390000Y-68294200D01*
X69390000Y-68294200D02*
X69390000Y-68150000D01*
X66044725Y-74775275D02*
X66244725Y-74775275D01*
X66050000Y-74777500D02*
X63595000Y-74777500D01*
X66636107Y-71813823D02*
X66850000Y-71813823D01*
X66670000Y-73049716D02*
X66284050Y-72663766D01*
X66850000Y-71813823D02*
X66850000Y-70834200D01*
X66244725Y-74775275D02*
X66549000Y-74471000D01*
%TO.N,GPIO19*%
X67838000Y-84378000D02*
X67838000Y-80347500D01*
X63937500Y-77177500D02*
X64668000Y-77177500D01*
X64668000Y-77177500D02*
X67838000Y-80347500D01*
X69390000Y-85930000D02*
X67838000Y-84378000D01*
%TO.N,GPIO21*%
X63937500Y-76377500D02*
X65257500Y-76377500D01*
X69390000Y-80510000D02*
X69390000Y-80850000D01*
X65257500Y-76377500D02*
X69390000Y-80510000D01*
%TO.N,GPIO22*%
X63937500Y-75577500D02*
X69197500Y-75577500D01*
X69197500Y-75577500D02*
X69390000Y-75770000D01*
%TO.N,GPIO29_ADC3*%
X66740582Y-58273482D02*
X66901000Y-58113064D01*
X63937500Y-72777500D02*
X64472774Y-72777500D01*
X64676000Y-70734000D02*
X66580000Y-68830000D01*
X66580000Y-63630340D02*
X66591000Y-63619340D01*
X66901000Y-57939000D02*
X69390000Y-55450000D01*
X67302000Y-58834900D02*
X66740582Y-58273482D01*
X64676000Y-72574274D02*
X64676000Y-70734000D01*
X66901000Y-58113064D02*
X66901000Y-57939000D01*
X66591000Y-63619340D02*
X66591000Y-63246100D01*
X66591000Y-63246100D02*
X67302000Y-62535100D01*
X64472774Y-72777500D02*
X64676000Y-72574274D01*
X66580000Y-68830000D02*
X66580000Y-63630340D01*
X67302000Y-62535100D02*
X67302000Y-58834900D01*
%TO.N,GPIO16*%
X62903226Y-79153500D02*
X63866500Y-79153500D01*
X62700000Y-78950274D02*
X62903226Y-79153500D01*
X63866500Y-79153500D02*
X63940000Y-79080000D01*
X62700000Y-78415000D02*
X62700000Y-78950274D01*
%TO.N,SWCLK*%
X62640000Y-80400000D02*
X61500000Y-79260000D01*
X61500000Y-79260000D02*
X61500000Y-78415000D01*
X62860000Y-80400000D02*
X62640000Y-80400000D01*
X59450000Y-85390000D02*
X60640000Y-84200000D01*
X60640000Y-84200000D02*
X61910000Y-84200000D01*
X62890000Y-80370000D02*
X62860000Y-80400000D01*
%TO.N,SWD*%
X61700002Y-77497732D02*
X61900000Y-77697730D01*
X61611137Y-77478500D02*
X61630369Y-77497732D01*
X61900000Y-77697730D02*
X61900000Y-78415000D01*
X61630369Y-77497732D02*
X61700002Y-77497732D01*
%TO.N,Net-(U1-USB_DP)*%
X61500000Y-71540000D02*
X61500000Y-70570000D01*
X61500000Y-70570000D02*
X61180000Y-70250000D01*
%TO.N,Net-(U1-USB_DM)*%
X61900000Y-70570000D02*
X62220000Y-70250000D01*
X61900000Y-71540000D02*
X61900000Y-70570000D01*
%TO.N,XOUT*%
X58943450Y-79549000D02*
X59701274Y-79549000D01*
X60300000Y-78950274D02*
X60300000Y-78415000D01*
X56470000Y-80670000D02*
X56740000Y-80400000D01*
X59701274Y-79549000D02*
X60300000Y-78950274D01*
X56740000Y-80400000D02*
X58092450Y-80400000D01*
X58092450Y-80400000D02*
X58943450Y-79549000D01*
%TO.N,Net-(R6-Pad1)*%
X66901000Y-62369000D02*
X66901000Y-59001000D01*
X66020000Y-63250000D02*
X66901000Y-62369000D01*
X66901000Y-59001000D02*
X65600000Y-57700000D01*
%TO.N,QSPI_SS*%
X54175000Y-67725000D02*
X54175000Y-69675000D01*
X63230660Y-63871000D02*
X64379000Y-63871000D01*
X55450000Y-67350000D02*
X54550000Y-67350000D01*
X56660000Y-70300000D02*
X57900000Y-71540000D01*
X56274616Y-67432130D02*
X56275000Y-67432514D01*
X55980000Y-67350000D02*
X55450000Y-67350000D01*
X54800000Y-70300000D02*
X56660000Y-70300000D01*
X54100000Y-67650000D02*
X54175000Y-67725000D01*
X62260000Y-64841660D02*
X63230660Y-63871000D01*
X56250000Y-67620000D02*
X55980000Y-67350000D01*
X64379000Y-63871000D02*
X65000000Y-63250000D01*
X54550000Y-67350000D02*
X54175000Y-67725000D01*
X56275000Y-67595000D02*
X56250000Y-67620000D01*
X54100000Y-66780000D02*
X54100000Y-67650000D01*
X54175000Y-69675000D02*
X54800000Y-70300000D01*
X56275000Y-67432514D02*
X56275000Y-67595000D01*
X62260000Y-65770000D02*
X62260000Y-64841660D01*
%TO.N,QSPI_SD2*%
X56550000Y-69500000D02*
X57362374Y-69500000D01*
X57362374Y-69500000D02*
X58700000Y-70837626D01*
X55975000Y-68350000D02*
X56474000Y-68849000D01*
X56474000Y-69201000D02*
X56490000Y-69201000D01*
X55450000Y-68350000D02*
X55975000Y-68350000D01*
X58700000Y-70837626D02*
X58700000Y-71540000D01*
X56490000Y-69440000D02*
X56550000Y-69500000D01*
X56474000Y-68849000D02*
X56474000Y-69201000D01*
X56490000Y-69201000D02*
X56490000Y-69440000D01*
%TO.N,QSPI_SD3*%
X58300000Y-67850000D02*
X58832898Y-67850000D01*
X58832898Y-67850000D02*
X59900000Y-68917102D01*
X59900000Y-68917102D02*
X59900000Y-71540000D01*
%TO.N,QSPI_SD0*%
X58300000Y-68850000D02*
X59100000Y-69650000D01*
X59100000Y-69650000D02*
X59100000Y-71540000D01*
%TO.N,QSPI_SD1*%
X54575000Y-68200000D02*
X54575000Y-69500000D01*
X54575000Y-69500000D02*
X54975000Y-69900000D01*
X57195274Y-69900000D02*
X58300000Y-71004726D01*
X58300000Y-71004726D02*
X58300000Y-71540000D01*
X55450000Y-67850000D02*
X54925000Y-67850000D01*
X54925000Y-67850000D02*
X54575000Y-68200000D01*
X54975000Y-69900000D02*
X57195274Y-69900000D01*
%TO.N,QSPI_SCLK*%
X58300000Y-68350000D02*
X58765798Y-68350000D01*
X58765798Y-68350000D02*
X59500000Y-69084202D01*
X59500000Y-69084202D02*
X59500000Y-71540000D01*
%TO.N,Net-(U6-CPOUT)*%
X63220000Y-85100000D02*
X64200000Y-86080000D01*
X64200000Y-86080000D02*
X64200000Y-86500000D01*
%TO.N,Net-(U6-REGOUT)*%
X63821000Y-92425412D02*
X64631000Y-93235412D01*
X64631000Y-94049000D02*
X64100000Y-94580000D01*
X64631000Y-93235412D02*
X64631000Y-94049000D01*
X63821000Y-91221000D02*
X63821000Y-92425412D01*
X63700000Y-91100000D02*
X63821000Y-91221000D01*
X63700000Y-90400000D02*
X63700000Y-91100000D01*
%TD*%
%TA.AperFunction,Conductor*%
%TO.N,GND*%
G36*
X68932160Y-91957409D02*
G01*
X69083580Y-92020130D01*
X69269310Y-92057073D01*
X69316402Y-92088538D01*
X69327451Y-92144087D01*
X69295986Y-92191180D01*
X69266450Y-92202740D01*
X69073874Y-92233242D01*
X69073863Y-92233244D01*
X68871785Y-92298903D01*
X68682450Y-92395374D01*
X68628282Y-92434729D01*
X69260590Y-93067037D01*
X69197007Y-93084075D01*
X69082993Y-93149901D01*
X68989901Y-93242993D01*
X68924075Y-93357007D01*
X68907037Y-93420590D01*
X68274729Y-92788282D01*
X68235374Y-92842450D01*
X68138903Y-93031785D01*
X68073244Y-93233863D01*
X68073241Y-93233876D01*
X68040000Y-93443751D01*
X68040000Y-93656248D01*
X68073241Y-93866123D01*
X68073244Y-93866136D01*
X68138904Y-94068217D01*
X68138906Y-94068221D01*
X68235375Y-94257550D01*
X68235378Y-94257556D01*
X68274728Y-94311716D01*
X68907037Y-93679407D01*
X68924075Y-93742993D01*
X68989901Y-93857007D01*
X69082993Y-93950099D01*
X69197007Y-94015925D01*
X69260590Y-94032962D01*
X68628282Y-94665270D01*
X68682449Y-94704624D01*
X68871778Y-94801093D01*
X68871782Y-94801095D01*
X69073863Y-94866755D01*
X69073876Y-94866758D01*
X69266449Y-94897259D01*
X69314740Y-94926852D01*
X69327962Y-94981924D01*
X69298369Y-95030215D01*
X69269310Y-95042926D01*
X69083585Y-95079868D01*
X69083579Y-95079870D01*
X68892401Y-95159059D01*
X68720345Y-95274022D01*
X68720344Y-95274024D01*
X68574024Y-95420344D01*
X68574022Y-95420345D01*
X68459059Y-95592401D01*
X68379870Y-95783579D01*
X68379868Y-95783586D01*
X68339500Y-95986535D01*
X68339500Y-96193464D01*
X68379868Y-96396413D01*
X68379870Y-96396420D01*
X68459059Y-96587598D01*
X68567757Y-96750278D01*
X68574023Y-96759655D01*
X68720345Y-96905977D01*
X68892402Y-97020941D01*
X69083580Y-97100130D01*
X69286535Y-97140500D01*
X69286536Y-97140500D01*
X69493464Y-97140500D01*
X69493465Y-97140500D01*
X69696420Y-97100130D01*
X69887598Y-97020941D01*
X70059655Y-96905977D01*
X70205977Y-96759655D01*
X70320941Y-96587598D01*
X70357133Y-96500222D01*
X70397181Y-96460174D01*
X70453818Y-96460174D01*
X70493867Y-96500222D01*
X70499500Y-96528541D01*
X70499500Y-98191458D01*
X70477826Y-98243784D01*
X70425500Y-98265458D01*
X70373174Y-98243784D01*
X70357133Y-98219777D01*
X70345403Y-98191458D01*
X70320941Y-98132402D01*
X70205977Y-97960345D01*
X70059655Y-97814023D01*
X69919453Y-97720344D01*
X69887598Y-97699059D01*
X69696420Y-97619870D01*
X69696413Y-97619868D01*
X69543516Y-97589455D01*
X69493465Y-97579500D01*
X69286535Y-97579500D01*
X69246385Y-97587486D01*
X69083586Y-97619868D01*
X69083579Y-97619870D01*
X68892401Y-97699059D01*
X68720345Y-97814022D01*
X68720344Y-97814024D01*
X68574024Y-97960344D01*
X68574022Y-97960345D01*
X68459059Y-98132401D01*
X68379870Y-98323579D01*
X68379868Y-98323586D01*
X68339500Y-98526535D01*
X68339500Y-98733464D01*
X68379868Y-98936413D01*
X68379870Y-98936420D01*
X68459059Y-99127598D01*
X68574022Y-99299654D01*
X68647542Y-99373174D01*
X68669216Y-99425500D01*
X68647542Y-99477826D01*
X68595216Y-99499500D01*
X63478542Y-99499500D01*
X63426216Y-99477826D01*
X63404542Y-99425500D01*
X63426216Y-99373174D01*
X63450223Y-99357133D01*
X63537598Y-99320941D01*
X63709655Y-99205977D01*
X63855977Y-99059655D01*
X63970941Y-98887598D01*
X64050130Y-98696420D01*
X64090500Y-98493465D01*
X64090500Y-98286535D01*
X64050130Y-98083580D01*
X63970941Y-97892402D01*
X63855977Y-97720345D01*
X63709655Y-97574023D01*
X63629180Y-97520252D01*
X63537598Y-97459059D01*
X63346420Y-97379870D01*
X63346413Y-97379868D01*
X63193516Y-97349455D01*
X63143465Y-97339500D01*
X62936535Y-97339500D01*
X62896385Y-97347486D01*
X62733586Y-97379868D01*
X62733579Y-97379870D01*
X62542401Y-97459059D01*
X62370345Y-97574022D01*
X62370344Y-97574024D01*
X62224024Y-97720344D01*
X62224022Y-97720345D01*
X62109059Y-97892401D01*
X62029870Y-98083579D01*
X62029868Y-98083585D01*
X61992926Y-98269310D01*
X61961460Y-98316402D01*
X61905911Y-98327451D01*
X61858819Y-98295985D01*
X61847259Y-98266449D01*
X61816758Y-98073876D01*
X61816755Y-98073863D01*
X61751095Y-97871782D01*
X61751093Y-97871778D01*
X61654624Y-97682449D01*
X61654625Y-97682449D01*
X61615269Y-97628282D01*
X60982962Y-98260590D01*
X60965925Y-98197007D01*
X60900099Y-98082993D01*
X60807007Y-97989901D01*
X60692993Y-97924075D01*
X60629407Y-97907037D01*
X61261716Y-97274728D01*
X61207556Y-97235378D01*
X61207550Y-97235375D01*
X61018221Y-97138906D01*
X61018217Y-97138904D01*
X60816136Y-97073244D01*
X60816123Y-97073241D01*
X60606249Y-97040000D01*
X60393751Y-97040000D01*
X60183876Y-97073241D01*
X60183863Y-97073244D01*
X59981785Y-97138903D01*
X59792450Y-97235374D01*
X59738282Y-97274729D01*
X60370590Y-97907037D01*
X60307007Y-97924075D01*
X60192993Y-97989901D01*
X60099901Y-98082993D01*
X60034075Y-98197007D01*
X60017037Y-98260590D01*
X59384729Y-97628282D01*
X59345374Y-97682450D01*
X59248903Y-97871785D01*
X59183244Y-98073863D01*
X59183241Y-98073876D01*
X59157589Y-98235837D01*
X59127996Y-98284128D01*
X59072924Y-98297350D01*
X59024633Y-98267757D01*
X59010500Y-98224261D01*
X59010500Y-97520253D01*
X59010500Y-97520252D01*
X58998867Y-97461769D01*
X58997056Y-97459059D01*
X58984027Y-97439560D01*
X58954552Y-97395448D01*
X58888231Y-97351133D01*
X58829748Y-97339500D01*
X57090252Y-97339500D01*
X57061010Y-97345316D01*
X57031767Y-97351133D01*
X56965449Y-97395447D01*
X56965447Y-97395449D01*
X56921133Y-97461767D01*
X56909500Y-97520253D01*
X56909500Y-99259746D01*
X56921133Y-99318232D01*
X56965338Y-99384387D01*
X56976388Y-99439935D01*
X56944923Y-99487028D01*
X56903810Y-99499500D01*
X52404784Y-99499500D01*
X52352458Y-99477826D01*
X52330784Y-99425500D01*
X52352458Y-99373174D01*
X52425976Y-99299656D01*
X52425977Y-99299655D01*
X52540941Y-99127598D01*
X52620130Y-98936420D01*
X52660500Y-98733465D01*
X52660500Y-98526535D01*
X52620130Y-98323580D01*
X52540941Y-98132402D01*
X52425977Y-97960345D01*
X52279655Y-97814023D01*
X52139453Y-97720344D01*
X52107598Y-97699059D01*
X51916420Y-97619870D01*
X51916413Y-97619868D01*
X51763516Y-97589455D01*
X51713465Y-97579500D01*
X51506535Y-97579500D01*
X51466385Y-97587486D01*
X51303586Y-97619868D01*
X51303579Y-97619870D01*
X51112401Y-97699059D01*
X50940345Y-97814022D01*
X50940344Y-97814024D01*
X50794024Y-97960344D01*
X50794022Y-97960345D01*
X50679059Y-98132401D01*
X50642867Y-98219777D01*
X50602818Y-98259825D01*
X50546181Y-98259825D01*
X50506133Y-98219776D01*
X50500500Y-98191458D01*
X50500500Y-96528541D01*
X50522174Y-96476215D01*
X50574500Y-96454541D01*
X50626826Y-96476215D01*
X50642866Y-96500222D01*
X50643164Y-96500940D01*
X50679058Y-96587597D01*
X50787758Y-96750278D01*
X50794023Y-96759655D01*
X50940345Y-96905977D01*
X51112402Y-97020941D01*
X51303580Y-97100130D01*
X51506535Y-97140500D01*
X51506536Y-97140500D01*
X51713464Y-97140500D01*
X51713465Y-97140500D01*
X51916420Y-97100130D01*
X52107598Y-97020941D01*
X52279655Y-96905977D01*
X52425977Y-96759655D01*
X52540941Y-96587598D01*
X52563097Y-96534108D01*
X53719500Y-96534108D01*
X53719500Y-96665892D01*
X53736979Y-96731127D01*
X53739500Y-96750278D01*
X53739500Y-96809899D01*
X53746027Y-96859485D01*
X53746028Y-96859487D01*
X53796776Y-96968316D01*
X53881684Y-97053224D01*
X53990513Y-97103972D01*
X54040099Y-97110500D01*
X54399900Y-97110499D01*
X54442286Y-97104919D01*
X54496991Y-97119578D01*
X54515637Y-97140617D01*
X54530280Y-97165377D01*
X54644622Y-97279719D01*
X54783803Y-97362031D01*
X54929999Y-97404505D01*
X54930000Y-97404505D01*
X55430000Y-97404505D01*
X55576196Y-97362031D01*
X55715377Y-97279719D01*
X55829719Y-97165377D01*
X55912031Y-97026196D01*
X55957144Y-96870916D01*
X55958791Y-96850000D01*
X55430000Y-96850000D01*
X55430000Y-97404505D01*
X54930000Y-97404505D01*
X54930000Y-96350000D01*
X55430000Y-96350000D01*
X55958789Y-96350000D01*
X55958790Y-96349998D01*
X55957145Y-96329089D01*
X55957145Y-96329087D01*
X55912031Y-96173803D01*
X55829719Y-96034622D01*
X55715377Y-95920280D01*
X55576196Y-95837968D01*
X55430000Y-95795494D01*
X55430000Y-96350000D01*
X54930000Y-96350000D01*
X54930000Y-95795494D01*
X54783803Y-95837968D01*
X54644622Y-95920280D01*
X54530280Y-96034622D01*
X54515636Y-96059383D01*
X54470343Y-96093388D01*
X54442285Y-96095079D01*
X54399901Y-96089500D01*
X54040100Y-96089500D01*
X53990514Y-96096027D01*
X53990512Y-96096028D01*
X53881683Y-96146776D01*
X53796776Y-96231683D01*
X53746027Y-96340514D01*
X53739500Y-96390100D01*
X53739500Y-96449721D01*
X53737191Y-96467260D01*
X53737266Y-96467767D01*
X53737120Y-96468346D01*
X53719500Y-96534108D01*
X52563097Y-96534108D01*
X52620130Y-96396420D01*
X52660500Y-96193465D01*
X52660500Y-95986535D01*
X52620130Y-95783580D01*
X52557410Y-95632161D01*
X52557410Y-95575526D01*
X52573448Y-95551521D01*
X54810460Y-93314511D01*
X54821154Y-93295988D01*
X54850021Y-93245989D01*
X54870499Y-93169564D01*
X54870500Y-93169564D01*
X54870500Y-92356966D01*
X54892174Y-92304640D01*
X54944500Y-92282966D01*
X54996826Y-92304640D01*
X55077826Y-92385640D01*
X55099500Y-92437966D01*
X55099500Y-94739564D01*
X55119977Y-94815985D01*
X55119979Y-94815990D01*
X55124156Y-94823224D01*
X55142225Y-94854520D01*
X55159540Y-94884511D01*
X56515489Y-96240460D01*
X56584012Y-96280022D01*
X56660438Y-96300500D01*
X56660440Y-96300500D01*
X59814564Y-96300500D01*
X59814564Y-96300499D01*
X59890989Y-96280021D01*
X59959511Y-96240460D01*
X60015460Y-96184511D01*
X61223174Y-94976797D01*
X61275500Y-94955123D01*
X61327826Y-94976797D01*
X61349500Y-95029123D01*
X61349500Y-95619748D01*
X61355808Y-95651458D01*
X61361133Y-95678232D01*
X61378207Y-95703784D01*
X61405448Y-95744552D01*
X61449560Y-95774027D01*
X61471767Y-95788866D01*
X61471768Y-95788866D01*
X61471769Y-95788867D01*
X61530252Y-95800500D01*
X61530254Y-95800500D01*
X63169746Y-95800500D01*
X63169748Y-95800500D01*
X63228231Y-95788867D01*
X63294552Y-95744552D01*
X63338867Y-95678231D01*
X63350500Y-95619748D01*
X63350500Y-94730252D01*
X63338867Y-94671769D01*
X63334524Y-94665270D01*
X63319389Y-94642619D01*
X63294552Y-94605448D01*
X63256319Y-94579901D01*
X63228232Y-94561133D01*
X63228233Y-94561133D01*
X63198989Y-94555316D01*
X63169748Y-94549500D01*
X63169746Y-94549500D01*
X61829123Y-94549500D01*
X61776797Y-94527826D01*
X61755123Y-94475500D01*
X61776797Y-94423174D01*
X62127797Y-94072174D01*
X62180123Y-94050500D01*
X63169746Y-94050500D01*
X63169748Y-94050500D01*
X63228231Y-94038867D01*
X63251488Y-94023326D01*
X63307036Y-94012277D01*
X63354129Y-94043741D01*
X63356296Y-94047186D01*
X63420280Y-94155377D01*
X63534622Y-94269719D01*
X63559381Y-94284362D01*
X63593387Y-94329654D01*
X63595079Y-94357714D01*
X63589500Y-94400098D01*
X63589500Y-94759899D01*
X63596027Y-94809485D01*
X63596028Y-94809487D01*
X63646776Y-94918316D01*
X63731684Y-95003224D01*
X63840513Y-95053972D01*
X63890099Y-95060500D01*
X64309900Y-95060499D01*
X64359487Y-95053972D01*
X64468316Y-95003224D01*
X64553224Y-94918316D01*
X64603972Y-94809487D01*
X64610500Y-94759901D01*
X64610499Y-94525121D01*
X64632172Y-94472797D01*
X64871460Y-94233511D01*
X64886873Y-94206814D01*
X64911021Y-94164989D01*
X64931499Y-94088564D01*
X64931500Y-94088564D01*
X64931500Y-93195848D01*
X64912992Y-93126780D01*
X64920384Y-93070627D01*
X64946801Y-93043931D01*
X65055377Y-92979719D01*
X65169717Y-92865379D01*
X65184360Y-92840619D01*
X65229652Y-92806612D01*
X65257714Y-92804920D01*
X65300099Y-92810500D01*
X65659900Y-92810499D01*
X65709487Y-92803972D01*
X65818316Y-92753224D01*
X65903224Y-92668316D01*
X65953972Y-92559487D01*
X65960500Y-92509901D01*
X65960499Y-92450273D01*
X65963020Y-92431124D01*
X65976795Y-92379719D01*
X65980500Y-92365893D01*
X65980500Y-92274500D01*
X66002174Y-92222174D01*
X66054500Y-92200500D01*
X68539564Y-92200500D01*
X68539564Y-92200499D01*
X68615989Y-92180021D01*
X68684511Y-92140460D01*
X68740460Y-92084511D01*
X68851518Y-91973451D01*
X68903843Y-91951777D01*
X68932160Y-91957409D01*
G37*
%TD.AperFunction*%
%TA.AperFunction,Conductor*%
G36*
X59136826Y-98503412D02*
G01*
X59157589Y-98544162D01*
X59183241Y-98706123D01*
X59183244Y-98706136D01*
X59248904Y-98908217D01*
X59248906Y-98908221D01*
X59345375Y-99097550D01*
X59345378Y-99097556D01*
X59384728Y-99151716D01*
X60017037Y-98519407D01*
X60034075Y-98582993D01*
X60099901Y-98697007D01*
X60192993Y-98790099D01*
X60307007Y-98855925D01*
X60370590Y-98872962D01*
X59765727Y-99477826D01*
X59713401Y-99499500D01*
X59016190Y-99499500D01*
X58963864Y-99477826D01*
X58942190Y-99425500D01*
X58954662Y-99384387D01*
X58998867Y-99318231D01*
X59010500Y-99259748D01*
X59010500Y-98555738D01*
X59032174Y-98503412D01*
X59084500Y-98481738D01*
X59136826Y-98503412D01*
G37*
%TD.AperFunction*%
%TA.AperFunction,Conductor*%
G36*
X61980215Y-98481630D02*
G01*
X61992926Y-98510689D01*
X62029868Y-98696414D01*
X62029870Y-98696420D01*
X62109059Y-98887598D01*
X62194997Y-99016215D01*
X62224023Y-99059655D01*
X62370345Y-99205977D01*
X62542402Y-99320941D01*
X62629777Y-99357133D01*
X62669825Y-99397182D01*
X62669825Y-99453819D01*
X62629776Y-99493867D01*
X62601458Y-99499500D01*
X61286599Y-99499500D01*
X61234273Y-99477826D01*
X60629409Y-98872962D01*
X60692993Y-98855925D01*
X60807007Y-98790099D01*
X60900099Y-98697007D01*
X60965925Y-98582993D01*
X60982962Y-98519409D01*
X61615270Y-99151717D01*
X61615270Y-99151716D01*
X61654618Y-99097561D01*
X61654623Y-99097554D01*
X61751093Y-98908221D01*
X61751095Y-98908217D01*
X61816755Y-98706136D01*
X61816758Y-98706123D01*
X61847259Y-98513550D01*
X61876852Y-98465259D01*
X61931924Y-98452037D01*
X61980215Y-98481630D01*
G37*
%TD.AperFunction*%
%TA.AperFunction,Conductor*%
G36*
X70477826Y-94284272D02*
G01*
X70499500Y-94336598D01*
X70499500Y-95651458D01*
X70477826Y-95703784D01*
X70425500Y-95725458D01*
X70373174Y-95703784D01*
X70357133Y-95679777D01*
X70345403Y-95651458D01*
X70320941Y-95592402D01*
X70205977Y-95420345D01*
X70059655Y-95274023D01*
X69887598Y-95159059D01*
X69696420Y-95079870D01*
X69696414Y-95079868D01*
X69510689Y-95042926D01*
X69463597Y-95011460D01*
X69452548Y-94955911D01*
X69484014Y-94908819D01*
X69513550Y-94897259D01*
X69706123Y-94866758D01*
X69706136Y-94866755D01*
X69908217Y-94801095D01*
X69908221Y-94801093D01*
X70097554Y-94704623D01*
X70097561Y-94704618D01*
X70151716Y-94665270D01*
X70151717Y-94665270D01*
X69519409Y-94032962D01*
X69582993Y-94015925D01*
X69697007Y-93950099D01*
X69790099Y-93857007D01*
X69855925Y-93742993D01*
X69872962Y-93679408D01*
X70477826Y-94284272D01*
G37*
%TD.AperFunction*%
%TA.AperFunction,Conductor*%
G36*
X51144075Y-93742993D02*
G01*
X51209901Y-93857007D01*
X51302993Y-93950099D01*
X51417007Y-94015925D01*
X51480590Y-94032962D01*
X50848282Y-94665269D01*
X50902449Y-94704624D01*
X51091778Y-94801093D01*
X51091782Y-94801095D01*
X51293863Y-94866755D01*
X51293876Y-94866758D01*
X51486449Y-94897259D01*
X51534740Y-94926852D01*
X51547962Y-94981924D01*
X51518369Y-95030215D01*
X51489310Y-95042926D01*
X51303585Y-95079868D01*
X51303579Y-95079870D01*
X51112401Y-95159059D01*
X50940345Y-95274022D01*
X50940344Y-95274024D01*
X50794024Y-95420344D01*
X50794022Y-95420345D01*
X50679059Y-95592401D01*
X50642867Y-95679777D01*
X50602818Y-95719825D01*
X50546181Y-95719825D01*
X50506133Y-95679776D01*
X50500500Y-95651458D01*
X50500500Y-94336598D01*
X50522174Y-94284272D01*
X51127037Y-93679408D01*
X51144075Y-93742993D01*
G37*
%TD.AperFunction*%
%TA.AperFunction,Conductor*%
G36*
X59468326Y-91721674D02*
G01*
X59490000Y-91774000D01*
X59490000Y-92504505D01*
X59636196Y-92462031D01*
X59775377Y-92379719D01*
X59889717Y-92265379D01*
X59904360Y-92240619D01*
X59949652Y-92206612D01*
X59977714Y-92204920D01*
X60020099Y-92210500D01*
X60379900Y-92210499D01*
X60429487Y-92203972D01*
X60538316Y-92153224D01*
X60543456Y-92148083D01*
X60595780Y-92126407D01*
X60648107Y-92148078D01*
X61343938Y-92843909D01*
X61365612Y-92896235D01*
X61361979Y-92914506D01*
X61362555Y-92914621D01*
X61361134Y-92921767D01*
X61361133Y-92921769D01*
X61349500Y-92980252D01*
X61349500Y-93869748D01*
X61360156Y-93923317D01*
X61362555Y-93935379D01*
X61359978Y-93935891D01*
X61359980Y-93982080D01*
X61343938Y-94006089D01*
X60276326Y-95073702D01*
X60224000Y-95095376D01*
X60171674Y-95073702D01*
X60150000Y-95021376D01*
X60150000Y-94702171D01*
X60143597Y-94642624D01*
X60143596Y-94642619D01*
X60093354Y-94507912D01*
X60093353Y-94507911D01*
X60007188Y-94392811D01*
X59892088Y-94306646D01*
X59892087Y-94306645D01*
X59757380Y-94256403D01*
X59757375Y-94256402D01*
X59697829Y-94250000D01*
X59100000Y-94250000D01*
X59100000Y-95101000D01*
X59078326Y-95153326D01*
X59026000Y-95175000D01*
X58850000Y-95175000D01*
X58850000Y-95351000D01*
X58828326Y-95403326D01*
X58776000Y-95425000D01*
X57990000Y-95425000D01*
X57990000Y-95536000D01*
X57968326Y-95588326D01*
X57916000Y-95610000D01*
X57174000Y-95610000D01*
X57121674Y-95588326D01*
X57100000Y-95536000D01*
X57100000Y-95184000D01*
X57121674Y-95131674D01*
X57174000Y-95110000D01*
X57470000Y-95110000D01*
X57470000Y-94999000D01*
X57491674Y-94946674D01*
X57544000Y-94925000D01*
X58600000Y-94925000D01*
X58600000Y-94250000D01*
X58002171Y-94250000D01*
X57942624Y-94256402D01*
X57942619Y-94256403D01*
X57807912Y-94306645D01*
X57807911Y-94306646D01*
X57728846Y-94365835D01*
X57673968Y-94379842D01*
X57625259Y-94350942D01*
X57610499Y-94306595D01*
X57610499Y-94220100D01*
X57603972Y-94170514D01*
X57603972Y-94170513D01*
X57553224Y-94061684D01*
X57468316Y-93976776D01*
X57443224Y-93965075D01*
X57404962Y-93923317D01*
X57400500Y-93898009D01*
X57400500Y-93681990D01*
X57422174Y-93629664D01*
X57443227Y-93614923D01*
X57468316Y-93603224D01*
X57553224Y-93518316D01*
X57603972Y-93409487D01*
X57610500Y-93359901D01*
X57610499Y-93125121D01*
X57632172Y-93072797D01*
X57723175Y-92981794D01*
X57775500Y-92960121D01*
X57827826Y-92981795D01*
X57849500Y-93034121D01*
X57849500Y-93869748D01*
X57856224Y-93903553D01*
X57861133Y-93928232D01*
X57885432Y-93964596D01*
X57905448Y-93994552D01*
X57948512Y-94023327D01*
X57971767Y-94038866D01*
X57971768Y-94038866D01*
X57971769Y-94038867D01*
X58030252Y-94050500D01*
X58030254Y-94050500D01*
X59669746Y-94050500D01*
X59669748Y-94050500D01*
X59728231Y-94038867D01*
X59794552Y-93994552D01*
X59838867Y-93928231D01*
X59850500Y-93869748D01*
X59850500Y-92980252D01*
X59838867Y-92921769D01*
X59794552Y-92855448D01*
X59772343Y-92840608D01*
X59728232Y-92811133D01*
X59728233Y-92811133D01*
X59692225Y-92803971D01*
X59669748Y-92799500D01*
X58084122Y-92799500D01*
X58031796Y-92777826D01*
X58010122Y-92725500D01*
X58031796Y-92673174D01*
X58095047Y-92609923D01*
X58466826Y-92238144D01*
X58519148Y-92216472D01*
X58571474Y-92238146D01*
X58582841Y-92252801D01*
X58590276Y-92265372D01*
X58590279Y-92265376D01*
X58704622Y-92379719D01*
X58843803Y-92462031D01*
X58989999Y-92504505D01*
X58990000Y-92504505D01*
X58990000Y-91774000D01*
X59011674Y-91721674D01*
X59064000Y-91700000D01*
X59416000Y-91700000D01*
X59468326Y-91721674D01*
G37*
%TD.AperFunction*%
%TA.AperFunction,Conductor*%
G36*
X54996826Y-90501797D02*
G01*
X55451540Y-90956511D01*
X55507489Y-91012460D01*
X55576011Y-91052021D01*
X55576012Y-91052021D01*
X55576014Y-91052022D01*
X55614224Y-91062260D01*
X55652435Y-91072499D01*
X55652436Y-91072500D01*
X55652438Y-91072500D01*
X58225500Y-91072500D01*
X58277826Y-91094174D01*
X58299500Y-91146500D01*
X58299500Y-91524876D01*
X58277826Y-91577202D01*
X57988598Y-91866428D01*
X57936272Y-91888102D01*
X57883946Y-91866428D01*
X57865209Y-91834744D01*
X57862030Y-91823802D01*
X57779719Y-91684622D01*
X57665377Y-91570280D01*
X57526196Y-91487968D01*
X57370914Y-91442855D01*
X57370917Y-91442855D01*
X57350000Y-91441209D01*
X57350000Y-92146000D01*
X57328326Y-92198326D01*
X57276000Y-92220000D01*
X57100000Y-92220000D01*
X57100000Y-92396000D01*
X57078326Y-92448326D01*
X57026000Y-92470000D01*
X56295495Y-92470000D01*
X56337968Y-92616196D01*
X56420280Y-92755377D01*
X56534622Y-92869719D01*
X56559381Y-92884362D01*
X56593387Y-92929654D01*
X56595079Y-92957714D01*
X56589500Y-93000098D01*
X56589500Y-93359899D01*
X56596027Y-93409485D01*
X56596028Y-93409487D01*
X56646776Y-93518316D01*
X56731684Y-93603224D01*
X56756773Y-93614923D01*
X56795037Y-93656680D01*
X56799500Y-93681990D01*
X56799500Y-93898009D01*
X56777826Y-93950335D01*
X56756776Y-93965075D01*
X56731683Y-93976776D01*
X56646776Y-94061683D01*
X56596027Y-94170514D01*
X56589500Y-94220100D01*
X56589500Y-94579899D01*
X56595080Y-94622285D01*
X56580420Y-94676992D01*
X56559383Y-94695636D01*
X56534624Y-94710278D01*
X56420280Y-94824622D01*
X56337967Y-94963806D01*
X56337966Y-94963806D01*
X56316777Y-95036739D01*
X56281365Y-95080940D01*
X56225070Y-95087154D01*
X56193390Y-95068419D01*
X55722174Y-94597203D01*
X55700500Y-94544877D01*
X55700500Y-92437966D01*
X55722174Y-92385640D01*
X55750848Y-92356966D01*
X55800500Y-92307314D01*
X55866392Y-92193186D01*
X55900499Y-92065894D01*
X55900500Y-92065894D01*
X55900500Y-91969999D01*
X56295494Y-91969999D01*
X56295495Y-91970000D01*
X56850000Y-91970000D01*
X56850000Y-91441209D01*
X56829083Y-91442855D01*
X56673803Y-91487968D01*
X56534622Y-91570280D01*
X56420280Y-91684622D01*
X56337968Y-91823803D01*
X56295494Y-91969999D01*
X55900500Y-91969999D01*
X55900500Y-91934106D01*
X55900499Y-91934105D01*
X55894013Y-91909900D01*
X55866392Y-91806814D01*
X55800500Y-91692686D01*
X55707314Y-91599500D01*
X55674405Y-91580500D01*
X55593190Y-91533610D01*
X55593181Y-91533606D01*
X55465894Y-91499500D01*
X55465892Y-91499500D01*
X55334108Y-91499500D01*
X55334106Y-91499500D01*
X55206818Y-91533606D01*
X55206809Y-91533610D01*
X55092685Y-91599500D01*
X54996826Y-91695360D01*
X54944500Y-91717034D01*
X54892174Y-91695360D01*
X54870500Y-91643034D01*
X54870500Y-90554123D01*
X54892174Y-90501797D01*
X54944500Y-90480123D01*
X54996826Y-90501797D01*
G37*
%TD.AperFunction*%
%TA.AperFunction,Conductor*%
G36*
X54247826Y-88901796D02*
G01*
X54269500Y-88954122D01*
X54269500Y-92974876D01*
X54247826Y-93027202D01*
X52757692Y-94517336D01*
X52705366Y-94539010D01*
X52653040Y-94517336D01*
X52631366Y-94465010D01*
X52645499Y-94421514D01*
X52764621Y-94257556D01*
X52764624Y-94257550D01*
X52861093Y-94068221D01*
X52861095Y-94068217D01*
X52926755Y-93866136D01*
X52926758Y-93866123D01*
X52960000Y-93656248D01*
X52960000Y-93443751D01*
X52926758Y-93233876D01*
X52926755Y-93233863D01*
X52861095Y-93031782D01*
X52861093Y-93031778D01*
X52764624Y-92842449D01*
X52764625Y-92842449D01*
X52725269Y-92788282D01*
X52092962Y-93420590D01*
X52075925Y-93357007D01*
X52010099Y-93242993D01*
X51917007Y-93149901D01*
X51802993Y-93084075D01*
X51739407Y-93067037D01*
X52371716Y-92434728D01*
X52317556Y-92395378D01*
X52317550Y-92395375D01*
X52128221Y-92298906D01*
X52128217Y-92298904D01*
X51926136Y-92233244D01*
X51926125Y-92233242D01*
X51733549Y-92202740D01*
X51685259Y-92173147D01*
X51672037Y-92118074D01*
X51701630Y-92069784D01*
X51730686Y-92057074D01*
X51916420Y-92020130D01*
X52107598Y-91940941D01*
X52279655Y-91825977D01*
X52425977Y-91679655D01*
X52540941Y-91507598D01*
X52620130Y-91316420D01*
X52660500Y-91113465D01*
X52660500Y-90906535D01*
X52620130Y-90703580D01*
X52557410Y-90552161D01*
X52557410Y-90495526D01*
X52573448Y-90471521D01*
X54143175Y-88901795D01*
X54195500Y-88880122D01*
X54247826Y-88901796D01*
G37*
%TD.AperFunction*%
%TA.AperFunction,Conductor*%
G36*
X64308826Y-93391674D02*
G01*
X64330500Y-93444000D01*
X64330500Y-93796000D01*
X64308826Y-93848326D01*
X64256500Y-93870000D01*
X64174000Y-93870000D01*
X64121674Y-93848326D01*
X64100000Y-93796000D01*
X64100000Y-93444000D01*
X64121674Y-93391674D01*
X64174000Y-93370000D01*
X64256500Y-93370000D01*
X64308826Y-93391674D01*
G37*
%TD.AperFunction*%
%TA.AperFunction,Conductor*%
G36*
X50626826Y-91396215D02*
G01*
X50642867Y-91420223D01*
X50679058Y-91507597D01*
X50780583Y-91659540D01*
X50794023Y-91679655D01*
X50940345Y-91825977D01*
X51112402Y-91940941D01*
X51303580Y-92020130D01*
X51489310Y-92057073D01*
X51536402Y-92088538D01*
X51547451Y-92144087D01*
X51515986Y-92191180D01*
X51486450Y-92202740D01*
X51293874Y-92233242D01*
X51293863Y-92233244D01*
X51091785Y-92298903D01*
X50902450Y-92395374D01*
X50848282Y-92434729D01*
X51480590Y-93067037D01*
X51417007Y-93084075D01*
X51302993Y-93149901D01*
X51209901Y-93242993D01*
X51144075Y-93357007D01*
X51127037Y-93420590D01*
X50522174Y-92815727D01*
X50500500Y-92763401D01*
X50500500Y-91448541D01*
X50522174Y-91396215D01*
X50574500Y-91374541D01*
X50626826Y-91396215D01*
G37*
%TD.AperFunction*%
%TA.AperFunction,Conductor*%
G36*
X70493867Y-91420222D02*
G01*
X70499500Y-91448541D01*
X70499500Y-92763401D01*
X70477826Y-92815727D01*
X69872962Y-93420589D01*
X69855925Y-93357007D01*
X69790099Y-93242993D01*
X69697007Y-93149901D01*
X69582993Y-93084075D01*
X69519407Y-93067037D01*
X70151716Y-92434728D01*
X70097556Y-92395378D01*
X70097550Y-92395375D01*
X69908221Y-92298906D01*
X69908217Y-92298904D01*
X69706136Y-92233244D01*
X69706125Y-92233242D01*
X69513549Y-92202740D01*
X69465259Y-92173147D01*
X69452037Y-92118074D01*
X69481630Y-92069784D01*
X69510686Y-92057074D01*
X69696420Y-92020130D01*
X69887598Y-91940941D01*
X70059655Y-91825977D01*
X70205977Y-91679655D01*
X70320941Y-91507598D01*
X70357133Y-91420222D01*
X70397181Y-91380174D01*
X70453818Y-91380174D01*
X70493867Y-91420222D01*
G37*
%TD.AperFunction*%
%TA.AperFunction,Conductor*%
G36*
X63327826Y-90271674D02*
G01*
X63349500Y-90324000D01*
X63349500Y-90777136D01*
X63349643Y-90778578D01*
X63350000Y-90785833D01*
X63350000Y-91320086D01*
X63425099Y-91310200D01*
X63427341Y-91309600D01*
X63428502Y-91309752D01*
X63429914Y-91309567D01*
X63429963Y-91309945D01*
X63483494Y-91316988D01*
X63517977Y-91361918D01*
X63520500Y-91381077D01*
X63520500Y-92464976D01*
X63540977Y-92541397D01*
X63540979Y-92541402D01*
X63551421Y-92559487D01*
X63580540Y-92609923D01*
X63728508Y-92757891D01*
X63750182Y-92810217D01*
X63728508Y-92862543D01*
X63696829Y-92881278D01*
X63673805Y-92887967D01*
X63534621Y-92970280D01*
X63476747Y-93028154D01*
X63424421Y-93049828D01*
X63372096Y-93028153D01*
X63350778Y-92983082D01*
X63350500Y-92980267D01*
X63350500Y-92980252D01*
X63338867Y-92921769D01*
X63294552Y-92855448D01*
X63272343Y-92840608D01*
X63228232Y-92811133D01*
X63228233Y-92811133D01*
X63192225Y-92803971D01*
X63169748Y-92799500D01*
X63169746Y-92799500D01*
X62180123Y-92799500D01*
X62127797Y-92777826D01*
X61776797Y-92426826D01*
X61755123Y-92374500D01*
X61776797Y-92322174D01*
X61829123Y-92300500D01*
X62659564Y-92300500D01*
X62659564Y-92300499D01*
X62735989Y-92280021D01*
X62804511Y-92240460D01*
X62860460Y-92184511D01*
X62940460Y-92104511D01*
X62952007Y-92084511D01*
X62980021Y-92035989D01*
X63000499Y-91959564D01*
X63000500Y-91959564D01*
X63000500Y-91817966D01*
X63022174Y-91765640D01*
X63028433Y-91759381D01*
X63080500Y-91707314D01*
X63146392Y-91593186D01*
X63180499Y-91465894D01*
X63180500Y-91465894D01*
X63180500Y-91334106D01*
X63180499Y-91334105D01*
X63175761Y-91316424D01*
X63146392Y-91206814D01*
X63080500Y-91092686D01*
X63071674Y-91083860D01*
X63050000Y-91031534D01*
X63050000Y-90785844D01*
X63050357Y-90778588D01*
X63050499Y-90777136D01*
X63050500Y-90777133D01*
X63050499Y-90473998D01*
X63072173Y-90421674D01*
X63124499Y-90400000D01*
X63200000Y-90400000D01*
X63200000Y-90324000D01*
X63221674Y-90271674D01*
X63274000Y-90250000D01*
X63275500Y-90250000D01*
X63327826Y-90271674D01*
G37*
%TD.AperFunction*%
%TA.AperFunction,Conductor*%
G36*
X66184209Y-87759868D02*
G01*
X66199500Y-87804915D01*
X66199500Y-91525500D01*
X66177826Y-91577826D01*
X66125500Y-91599500D01*
X65840436Y-91599500D01*
X65764014Y-91619977D01*
X65764009Y-91619979D01*
X65729370Y-91639979D01*
X65695488Y-91659540D01*
X65587202Y-91767826D01*
X65534876Y-91789500D01*
X65300100Y-91789500D01*
X65257714Y-91795080D01*
X65203007Y-91780420D01*
X65184362Y-91759381D01*
X65169721Y-91734624D01*
X65076049Y-91640952D01*
X64982537Y-91577202D01*
X64916196Y-91537968D01*
X64770000Y-91495494D01*
X64770000Y-92226000D01*
X64748326Y-92278326D01*
X64696000Y-92300000D01*
X64344000Y-92300000D01*
X64291674Y-92278326D01*
X64270000Y-92226000D01*
X64270000Y-91495494D01*
X64269999Y-91495493D01*
X64216145Y-91511140D01*
X64159850Y-91504925D01*
X64124438Y-91460723D01*
X64121500Y-91440078D01*
X64121500Y-91181436D01*
X64121499Y-91181435D01*
X64101022Y-91105014D01*
X64101020Y-91105009D01*
X64059914Y-91033811D01*
X64050000Y-90996811D01*
X64050000Y-90785844D01*
X64050357Y-90778588D01*
X64050499Y-90777136D01*
X64050500Y-90777133D01*
X64050499Y-90323999D01*
X64072173Y-90271674D01*
X64124499Y-90250000D01*
X64126000Y-90250000D01*
X64178326Y-90271674D01*
X64200000Y-90324000D01*
X64200000Y-90400000D01*
X64275501Y-90400000D01*
X64327827Y-90421674D01*
X64349501Y-90474000D01*
X64349501Y-90777136D01*
X64349643Y-90778578D01*
X64350000Y-90785833D01*
X64350000Y-91320086D01*
X64425102Y-91310200D01*
X64425106Y-91310199D01*
X64564979Y-91252262D01*
X64685094Y-91160094D01*
X64766792Y-91053625D01*
X64815841Y-91025307D01*
X64870549Y-91039966D01*
X64898867Y-91089015D01*
X64899500Y-91098674D01*
X64899500Y-91145894D01*
X64933606Y-91273181D01*
X64933610Y-91273190D01*
X64958897Y-91316988D01*
X64999500Y-91387314D01*
X65092686Y-91480500D01*
X65206814Y-91546392D01*
X65334105Y-91580499D01*
X65334106Y-91580500D01*
X65334108Y-91580500D01*
X65465894Y-91580500D01*
X65465894Y-91580499D01*
X65593186Y-91546392D01*
X65707314Y-91480500D01*
X65800500Y-91387314D01*
X65866392Y-91273186D01*
X65900499Y-91145894D01*
X65900500Y-91145894D01*
X65900500Y-91014106D01*
X65900499Y-91014105D01*
X65891505Y-90980540D01*
X65866392Y-90886814D01*
X65800500Y-90772686D01*
X65722174Y-90694360D01*
X65700500Y-90642034D01*
X65700500Y-90124499D01*
X65722174Y-90072173D01*
X65773515Y-90050906D01*
X65773510Y-90050856D01*
X65773678Y-90050839D01*
X65774500Y-90050499D01*
X65777131Y-90050499D01*
X65777132Y-90050499D01*
X65857495Y-90034515D01*
X65948624Y-89973624D01*
X66009515Y-89882495D01*
X66025500Y-89802133D01*
X66025499Y-89597868D01*
X66009515Y-89517505D01*
X65991879Y-89491112D01*
X65980830Y-89435564D01*
X65991880Y-89408887D01*
X66009515Y-89382495D01*
X66025500Y-89302133D01*
X66025499Y-89097868D01*
X66009515Y-89017505D01*
X65991879Y-88991112D01*
X65980830Y-88935564D01*
X65991880Y-88908887D01*
X65996618Y-88901796D01*
X66009515Y-88882495D01*
X66025500Y-88802133D01*
X66025499Y-88597868D01*
X66009515Y-88517505D01*
X65991879Y-88491112D01*
X65980830Y-88435564D01*
X65991880Y-88408887D01*
X66009515Y-88382495D01*
X66025500Y-88302133D01*
X66025499Y-88097868D01*
X66009515Y-88017505D01*
X65991879Y-87991112D01*
X65980830Y-87935564D01*
X65983499Y-87925736D01*
X65986608Y-87916776D01*
X66009515Y-87882495D01*
X66024293Y-87808199D01*
X66025965Y-87803383D01*
X66037416Y-87790503D01*
X66050827Y-87768938D01*
X66080453Y-87746206D01*
X66135160Y-87731548D01*
X66184209Y-87759868D01*
G37*
%TD.AperFunction*%
%TA.AperFunction,Conductor*%
G36*
X60603614Y-86822174D02*
G01*
X60625288Y-86874500D01*
X60619655Y-86902818D01*
X60589799Y-86974895D01*
X60579912Y-87050000D01*
X61426000Y-87050000D01*
X61478326Y-87071674D01*
X61500000Y-87124000D01*
X61500000Y-87275500D01*
X61478326Y-87327826D01*
X61426000Y-87349500D01*
X61122862Y-87349500D01*
X61121409Y-87349644D01*
X61114162Y-87350000D01*
X60579912Y-87350000D01*
X60589799Y-87425104D01*
X60647737Y-87564979D01*
X60739905Y-87685094D01*
X60849176Y-87768941D01*
X60874036Y-87803386D01*
X60875709Y-87808207D01*
X60890485Y-87882495D01*
X60913389Y-87916773D01*
X60916500Y-87925737D01*
X60915354Y-87945257D01*
X60919169Y-87964437D01*
X60913412Y-87978334D01*
X60913181Y-87982277D01*
X60910962Y-87984249D01*
X60908120Y-87991112D01*
X60890485Y-88017504D01*
X60886123Y-88039435D01*
X60876756Y-88086528D01*
X60874500Y-88097868D01*
X60874500Y-88302130D01*
X60890485Y-88382495D01*
X60908120Y-88408888D01*
X60919169Y-88464437D01*
X60908120Y-88491112D01*
X60890485Y-88517504D01*
X60874500Y-88597868D01*
X60874500Y-88802130D01*
X60890485Y-88882495D01*
X60908120Y-88908888D01*
X60919169Y-88964437D01*
X60908120Y-88991112D01*
X60890485Y-89017504D01*
X60890485Y-89017505D01*
X60876003Y-89090314D01*
X60874500Y-89097868D01*
X60874500Y-89302130D01*
X60890485Y-89382495D01*
X60908120Y-89408888D01*
X60919169Y-89464437D01*
X60908120Y-89491112D01*
X60890485Y-89517504D01*
X60874500Y-89597868D01*
X60874500Y-89802130D01*
X60890485Y-89882495D01*
X60890485Y-89882496D01*
X60919908Y-89926529D01*
X60951376Y-89973624D01*
X61042505Y-90034515D01*
X61122867Y-90050500D01*
X61775500Y-90050499D01*
X61827826Y-90072173D01*
X61849500Y-90124499D01*
X61849500Y-90777130D01*
X61865485Y-90857495D01*
X61865485Y-90857496D01*
X61885078Y-90886818D01*
X61926376Y-90948624D01*
X62017505Y-91009515D01*
X62097867Y-91025500D01*
X62190118Y-91025499D01*
X62242443Y-91047173D01*
X62264118Y-91099498D01*
X62254204Y-91136499D01*
X62213610Y-91206809D01*
X62213606Y-91206818D01*
X62179500Y-91334105D01*
X62179500Y-91334108D01*
X62179500Y-91465892D01*
X62210209Y-91580499D01*
X62213609Y-91593189D01*
X62215263Y-91597181D01*
X62215263Y-91653818D01*
X62175215Y-91693867D01*
X62146896Y-91699500D01*
X61655123Y-91699500D01*
X61602797Y-91677826D01*
X60456511Y-90531540D01*
X60387990Y-90491979D01*
X60387985Y-90491977D01*
X60311564Y-90471500D01*
X60311562Y-90471500D01*
X59574500Y-90471500D01*
X59522174Y-90449826D01*
X59500500Y-90397500D01*
X59500500Y-89006990D01*
X59522174Y-88954664D01*
X59543227Y-88939923D01*
X59568316Y-88928224D01*
X59653224Y-88843316D01*
X59703972Y-88734487D01*
X59710500Y-88684901D01*
X59710499Y-88325100D01*
X59704919Y-88282711D01*
X59719578Y-88228007D01*
X59740619Y-88209360D01*
X59765378Y-88194718D01*
X59879719Y-88080377D01*
X59962031Y-87941196D01*
X60004505Y-87795000D01*
X58360652Y-87795000D01*
X58312367Y-87775000D01*
X58174000Y-87775000D01*
X58121674Y-87753326D01*
X58100000Y-87701000D01*
X58100000Y-87549000D01*
X58121674Y-87496674D01*
X58174000Y-87475000D01*
X58310000Y-87475000D01*
X58310000Y-87369000D01*
X58331674Y-87316674D01*
X58384000Y-87295000D01*
X60004505Y-87295000D01*
X60004505Y-87294999D01*
X59962031Y-87148803D01*
X59881226Y-87012169D01*
X59873246Y-86956097D01*
X59907252Y-86910805D01*
X59944921Y-86900500D01*
X60239564Y-86900500D01*
X60239564Y-86900499D01*
X60315989Y-86880021D01*
X60384511Y-86840460D01*
X60402797Y-86822174D01*
X60455123Y-86800500D01*
X60551288Y-86800500D01*
X60603614Y-86822174D01*
G37*
%TD.AperFunction*%
%TA.AperFunction,Conductor*%
G36*
X64409203Y-83754174D02*
G01*
X64866429Y-84211400D01*
X64870665Y-84221627D01*
X64879247Y-84228622D01*
X64881101Y-84246823D01*
X64888103Y-84263726D01*
X64883866Y-84273953D01*
X64884989Y-84284967D01*
X64873430Y-84299148D01*
X64866429Y-84316052D01*
X64853348Y-84323788D01*
X64849207Y-84328870D01*
X64735104Y-84390357D01*
X64708279Y-84393090D01*
X64681597Y-84396888D01*
X64680332Y-84395938D01*
X64678759Y-84396099D01*
X64662331Y-84388908D01*
X64576197Y-84337968D01*
X64430000Y-84295494D01*
X64430000Y-84850000D01*
X65146000Y-84850000D01*
X65198326Y-84871674D01*
X65220000Y-84924000D01*
X65220000Y-85100000D01*
X65396000Y-85100000D01*
X65448326Y-85121674D01*
X65470000Y-85174000D01*
X65470000Y-85904505D01*
X65616196Y-85862031D01*
X65755377Y-85779719D01*
X65869717Y-85665379D01*
X65884360Y-85640619D01*
X65929652Y-85606612D01*
X65957714Y-85604920D01*
X66000099Y-85610500D01*
X66125499Y-85610499D01*
X66177825Y-85632173D01*
X66199500Y-85684498D01*
X66199500Y-86595084D01*
X66177826Y-86647410D01*
X66125500Y-86669084D01*
X66080452Y-86653792D01*
X66039983Y-86622739D01*
X66039979Y-86622737D01*
X65900104Y-86564799D01*
X65787688Y-86550000D01*
X65550000Y-86550000D01*
X65550000Y-87126000D01*
X65528326Y-87178326D01*
X65476000Y-87200000D01*
X65324000Y-87200000D01*
X65271674Y-87178326D01*
X65250000Y-87126000D01*
X65250000Y-86550000D01*
X65124500Y-86550000D01*
X65072174Y-86528326D01*
X65050500Y-86476000D01*
X65050499Y-86122869D01*
X65050499Y-86122867D01*
X65034515Y-86042505D01*
X64982470Y-85964614D01*
X64970000Y-85923505D01*
X64970000Y-85350000D01*
X64254000Y-85350000D01*
X64201674Y-85328326D01*
X64180000Y-85276000D01*
X64180000Y-85100000D01*
X64004000Y-85100000D01*
X63951674Y-85078326D01*
X63930000Y-85026000D01*
X63930000Y-84295494D01*
X63783803Y-84337968D01*
X63644622Y-84420280D01*
X63530280Y-84534622D01*
X63515636Y-84559383D01*
X63470343Y-84593388D01*
X63442285Y-84595079D01*
X63399901Y-84589500D01*
X63040100Y-84589500D01*
X62984899Y-84596767D01*
X62984467Y-84593489D01*
X62938885Y-84588482D01*
X62903449Y-84544299D01*
X62900500Y-84523616D01*
X62900500Y-84185123D01*
X62922174Y-84132797D01*
X63282797Y-83772174D01*
X63335123Y-83750500D01*
X63574314Y-83750500D01*
X63574316Y-83750500D01*
X63623173Y-83744068D01*
X63633110Y-83739433D01*
X63664385Y-83732500D01*
X64356877Y-83732500D01*
X64409203Y-83754174D01*
G37*
%TD.AperFunction*%
%TA.AperFunction,Conductor*%
G36*
X54996826Y-80977094D02*
G01*
X55011565Y-80998143D01*
X55024917Y-81026776D01*
X55035935Y-81050404D01*
X55124174Y-81138643D01*
X55122599Y-81140217D01*
X55148375Y-81180674D01*
X55149500Y-81193526D01*
X55149500Y-82089564D01*
X55169977Y-82165985D01*
X55169979Y-82165990D01*
X55197793Y-82214165D01*
X55197794Y-82214167D01*
X55197797Y-82214171D01*
X55209540Y-82234511D01*
X55209541Y-82234512D01*
X55867826Y-82892797D01*
X55889500Y-82945123D01*
X55889500Y-83179899D01*
X55896027Y-83229485D01*
X55896028Y-83229487D01*
X55946776Y-83338316D01*
X56031684Y-83423224D01*
X56140513Y-83473972D01*
X56190099Y-83480500D01*
X56424876Y-83480499D01*
X56477202Y-83502173D01*
X56515489Y-83540460D01*
X56584011Y-83580021D01*
X56584012Y-83580021D01*
X56584014Y-83580022D01*
X56622224Y-83590260D01*
X56660435Y-83600499D01*
X56660436Y-83600500D01*
X56660438Y-83600500D01*
X56739562Y-83600500D01*
X57125500Y-83600500D01*
X57177826Y-83622174D01*
X57199500Y-83674500D01*
X57199500Y-83704266D01*
X57202354Y-83734699D01*
X57202354Y-83734701D01*
X57202355Y-83734704D01*
X57247206Y-83862881D01*
X57247207Y-83862883D01*
X57327846Y-83972146D01*
X57327853Y-83972153D01*
X57437116Y-84052792D01*
X57437118Y-84052793D01*
X57565295Y-84097644D01*
X57565301Y-84097646D01*
X57595734Y-84100500D01*
X57595741Y-84100500D01*
X58604258Y-84100500D01*
X58604266Y-84100500D01*
X58634699Y-84097646D01*
X58762882Y-84052793D01*
X58872150Y-83972150D01*
X58874386Y-83969121D01*
X58925768Y-83899500D01*
X58952793Y-83862882D01*
X58972279Y-83807193D01*
X59010018Y-83764964D01*
X59066566Y-83761787D01*
X59108797Y-83799527D01*
X59112370Y-83808358D01*
X59165642Y-83969121D01*
X59257683Y-84118343D01*
X59257686Y-84118347D01*
X59381653Y-84242314D01*
X59381656Y-84242316D01*
X59530878Y-84334357D01*
X59697302Y-84389505D01*
X59800024Y-84399999D01*
X59836373Y-84399999D01*
X59888700Y-84421672D01*
X59910375Y-84473997D01*
X59888702Y-84526324D01*
X59888701Y-84526325D01*
X59547202Y-84867826D01*
X59494876Y-84889500D01*
X59384106Y-84889500D01*
X59256818Y-84923606D01*
X59256809Y-84923610D01*
X59142685Y-84989500D01*
X59049500Y-85082685D01*
X58983610Y-85196809D01*
X58983606Y-85196818D01*
X58949500Y-85324105D01*
X58949500Y-85455894D01*
X58983606Y-85583181D01*
X58983610Y-85583190D01*
X59049500Y-85697314D01*
X59124360Y-85772174D01*
X59146034Y-85824500D01*
X59124360Y-85876826D01*
X59072034Y-85898500D01*
X58634066Y-85898500D01*
X58581740Y-85876826D01*
X58463454Y-85758540D01*
X58440849Y-85745489D01*
X58394933Y-85718979D01*
X58394928Y-85718977D01*
X58318507Y-85698500D01*
X58318505Y-85698500D01*
X57820619Y-85698500D01*
X57741495Y-85698500D01*
X57665069Y-85718978D01*
X57665068Y-85718978D01*
X57665066Y-85718979D01*
X57665064Y-85718980D01*
X57596549Y-85758537D01*
X57478260Y-85876826D01*
X57425934Y-85898500D01*
X57050584Y-85898500D01*
X56998258Y-85876826D01*
X56976584Y-85824500D01*
X56977217Y-85814843D01*
X56978467Y-85805336D01*
X56980500Y-85789901D01*
X56980499Y-85430100D01*
X56974919Y-85387711D01*
X56989578Y-85333007D01*
X57010619Y-85314360D01*
X57035378Y-85299718D01*
X57149719Y-85185377D01*
X57232031Y-85046196D01*
X57274505Y-84900000D01*
X55665495Y-84900000D01*
X55707968Y-85046196D01*
X55790280Y-85185377D01*
X55904622Y-85299719D01*
X55929381Y-85314362D01*
X55963387Y-85359654D01*
X55965079Y-85387714D01*
X55959500Y-85430098D01*
X55959500Y-85664876D01*
X55937826Y-85717202D01*
X54996826Y-86658202D01*
X54944500Y-86679876D01*
X54892174Y-86658202D01*
X54870500Y-86605876D01*
X54870500Y-84399999D01*
X55665494Y-84399999D01*
X55665495Y-84400000D01*
X56220000Y-84400000D01*
X56720000Y-84400000D01*
X57274505Y-84400000D01*
X57274505Y-84399999D01*
X57232031Y-84253803D01*
X57149719Y-84114622D01*
X57035377Y-84000280D01*
X56896196Y-83917968D01*
X56740914Y-83872855D01*
X56740917Y-83872855D01*
X56720000Y-83871209D01*
X56720000Y-84400000D01*
X56220000Y-84400000D01*
X56220000Y-83871209D01*
X56199083Y-83872855D01*
X56043803Y-83917968D01*
X55904622Y-84000280D01*
X55790280Y-84114622D01*
X55707968Y-84253803D01*
X55665494Y-84399999D01*
X54870500Y-84399999D01*
X54870500Y-81029420D01*
X54892174Y-80977094D01*
X54944500Y-80955420D01*
X54996826Y-80977094D01*
G37*
%TD.AperFunction*%
%TA.AperFunction,Conductor*%
G36*
X51144075Y-81042993D02*
G01*
X51209901Y-81157007D01*
X51302993Y-81250099D01*
X51417007Y-81315925D01*
X51480589Y-81332962D01*
X50848282Y-81965269D01*
X50902449Y-82004624D01*
X51091778Y-82101093D01*
X51091782Y-82101095D01*
X51293863Y-82166755D01*
X51293876Y-82166758D01*
X51486449Y-82197259D01*
X51534740Y-82226852D01*
X51547962Y-82281924D01*
X51518369Y-82330215D01*
X51489310Y-82342926D01*
X51303585Y-82379868D01*
X51303579Y-82379870D01*
X51112401Y-82459059D01*
X50940345Y-82574022D01*
X50940344Y-82574024D01*
X50794024Y-82720344D01*
X50794022Y-82720345D01*
X50679059Y-82892401D01*
X50642867Y-82979777D01*
X50602818Y-83019825D01*
X50546181Y-83019825D01*
X50506133Y-82979776D01*
X50500500Y-82951458D01*
X50500500Y-81636598D01*
X50522174Y-81584272D01*
X51127037Y-80979408D01*
X51144075Y-81042993D01*
G37*
%TD.AperFunction*%
%TA.AperFunction,Conductor*%
G36*
X59202271Y-82463041D02*
G01*
X59223945Y-82515367D01*
X59212928Y-82554215D01*
X59165642Y-82630878D01*
X59112370Y-82791641D01*
X59094115Y-82812764D01*
X59076140Y-82834084D01*
X59075654Y-82834125D01*
X59075337Y-82834493D01*
X59047515Y-82836519D01*
X59019707Y-82838886D01*
X59019380Y-82838569D01*
X59018849Y-82838608D01*
X58976406Y-82802378D01*
X58974005Y-82797739D01*
X58952793Y-82737118D01*
X58918771Y-82691020D01*
X58916078Y-82685816D01*
X58914136Y-82662999D01*
X58908624Y-82640773D01*
X58911797Y-82635507D01*
X58911276Y-82629383D01*
X58926035Y-82611876D01*
X58937855Y-82592262D01*
X58942950Y-82588819D01*
X59018343Y-82542316D01*
X59018346Y-82542314D01*
X59097619Y-82463041D01*
X59149945Y-82441367D01*
X59202271Y-82463041D01*
G37*
%TD.AperFunction*%
%TA.AperFunction,Conductor*%
G36*
X64867203Y-80012174D02*
G01*
X65372702Y-80517673D01*
X65394376Y-80569999D01*
X65372702Y-80622325D01*
X65286052Y-80708976D01*
X65233726Y-80730650D01*
X65223299Y-80729912D01*
X65205058Y-80727316D01*
X64688513Y-81243861D01*
X64636187Y-81265535D01*
X64583861Y-81243861D01*
X64334959Y-80994959D01*
X64313285Y-80942633D01*
X64334959Y-80890307D01*
X64851504Y-80373761D01*
X64718097Y-80300421D01*
X64718098Y-80300421D01*
X64561475Y-80260208D01*
X64399773Y-80260208D01*
X64371910Y-80267362D01*
X64315838Y-80259380D01*
X64294801Y-80240735D01*
X64268776Y-80206820D01*
X64178782Y-80116826D01*
X64157108Y-80064500D01*
X64178782Y-80012174D01*
X64231108Y-79990500D01*
X64814877Y-79990500D01*
X64867203Y-80012174D01*
G37*
%TD.AperFunction*%
%TA.AperFunction,Conductor*%
G36*
X50626826Y-78696215D02*
G01*
X50642867Y-78720223D01*
X50679058Y-78807597D01*
X50749513Y-78913040D01*
X50794023Y-78979655D01*
X50940345Y-79125977D01*
X51112402Y-79240941D01*
X51303580Y-79320130D01*
X51489310Y-79357073D01*
X51536402Y-79388538D01*
X51547451Y-79444087D01*
X51515986Y-79491180D01*
X51486450Y-79502740D01*
X51293874Y-79533242D01*
X51293863Y-79533244D01*
X51091785Y-79598903D01*
X50902450Y-79695374D01*
X50848282Y-79734729D01*
X51480590Y-80367037D01*
X51417007Y-80384075D01*
X51302993Y-80449901D01*
X51209901Y-80542993D01*
X51144075Y-80657007D01*
X51127037Y-80720590D01*
X50522174Y-80115727D01*
X50500500Y-80063401D01*
X50500500Y-78748541D01*
X50522174Y-78696215D01*
X50574500Y-78674541D01*
X50626826Y-78696215D01*
G37*
%TD.AperFunction*%
%TA.AperFunction,Conductor*%
G36*
X70477826Y-79044272D02*
G01*
X70499500Y-79096598D01*
X70499500Y-80411458D01*
X70477826Y-80463784D01*
X70425500Y-80485458D01*
X70373174Y-80463784D01*
X70357133Y-80439777D01*
X70320941Y-80352402D01*
X70205977Y-80180345D01*
X70059655Y-80034023D01*
X70026955Y-80012174D01*
X69887598Y-79919059D01*
X69696420Y-79839870D01*
X69696414Y-79839868D01*
X69510689Y-79802926D01*
X69463597Y-79771460D01*
X69452548Y-79715911D01*
X69484014Y-79668819D01*
X69513550Y-79657259D01*
X69706123Y-79626758D01*
X69706136Y-79626755D01*
X69908217Y-79561095D01*
X69908221Y-79561093D01*
X70097554Y-79464623D01*
X70097561Y-79464618D01*
X70151716Y-79425270D01*
X69519408Y-78792962D01*
X69582993Y-78775925D01*
X69697007Y-78710099D01*
X69790099Y-78617007D01*
X69855925Y-78502993D01*
X69872962Y-78439408D01*
X70477826Y-79044272D01*
G37*
%TD.AperFunction*%
%TA.AperFunction,Conductor*%
G36*
X68299613Y-75886260D02*
G01*
X68320784Y-75890471D01*
X68324994Y-75896773D01*
X68331998Y-75899674D01*
X68352250Y-75937564D01*
X68379868Y-76076413D01*
X68379870Y-76076420D01*
X68459059Y-76267598D01*
X68498184Y-76326154D01*
X68574023Y-76439655D01*
X68720345Y-76585977D01*
X68892402Y-76700941D01*
X69083580Y-76780130D01*
X69269310Y-76817073D01*
X69316402Y-76848538D01*
X69327451Y-76904087D01*
X69295986Y-76951180D01*
X69266450Y-76962740D01*
X69073874Y-76993242D01*
X69073863Y-76993244D01*
X68871785Y-77058903D01*
X68682450Y-77155374D01*
X68628282Y-77194729D01*
X69260590Y-77827037D01*
X69197007Y-77844075D01*
X69082993Y-77909901D01*
X68989901Y-78002993D01*
X68924075Y-78117007D01*
X68907037Y-78180591D01*
X68274729Y-77548282D01*
X68235374Y-77602450D01*
X68138903Y-77791785D01*
X68073244Y-77993863D01*
X68073241Y-77993876D01*
X68040000Y-78203751D01*
X68040000Y-78416248D01*
X68064364Y-78570076D01*
X68051142Y-78625148D01*
X68002851Y-78654741D01*
X67947779Y-78641519D01*
X67938949Y-78633978D01*
X67230590Y-77925619D01*
X67208916Y-77873293D01*
X67222817Y-77839732D01*
X67223321Y-77826876D01*
X66724959Y-77328514D01*
X66703285Y-77276188D01*
X66724959Y-77223862D01*
X66849410Y-77099410D01*
X67202965Y-77099410D01*
X67202965Y-77099411D01*
X67576875Y-77473321D01*
X67590498Y-77457372D01*
X67668400Y-77315670D01*
X67708614Y-77159049D01*
X67708614Y-76997346D01*
X67668400Y-76840723D01*
X67595059Y-76707316D01*
X67202965Y-77099410D01*
X66849410Y-77099410D01*
X66724959Y-76974959D01*
X66703285Y-76922633D01*
X66724959Y-76870307D01*
X67241504Y-76353761D01*
X67108097Y-76280421D01*
X67108098Y-76280421D01*
X66951475Y-76240208D01*
X66789773Y-76240208D01*
X66761910Y-76247362D01*
X66705838Y-76239380D01*
X66684801Y-76220735D01*
X66658776Y-76186820D01*
X66606497Y-76134541D01*
X66476280Y-76004325D01*
X66454607Y-75952000D01*
X66476281Y-75899674D01*
X66528607Y-75878000D01*
X68279672Y-75878000D01*
X68299613Y-75886260D01*
G37*
%TD.AperFunction*%
%TA.AperFunction,Conductor*%
G36*
X62767826Y-72781797D02*
G01*
X62789500Y-72834123D01*
X62789500Y-75709564D01*
X62809978Y-75785988D01*
X62843422Y-75843916D01*
X62843423Y-75843916D01*
X62843424Y-75843918D01*
X62849540Y-75854511D01*
X62872703Y-75877674D01*
X62894377Y-75929999D01*
X62872703Y-75982325D01*
X62298703Y-76556326D01*
X62246377Y-76578000D01*
X60931936Y-76578000D01*
X60855514Y-76598477D01*
X60855509Y-76598479D01*
X60786988Y-76638040D01*
X60536489Y-76888540D01*
X60536488Y-76888541D01*
X60498031Y-76926997D01*
X60445705Y-76948670D01*
X60408706Y-76938756D01*
X60313190Y-76883610D01*
X60313181Y-76883606D01*
X60185894Y-76849500D01*
X60185892Y-76849500D01*
X60054108Y-76849500D01*
X60054106Y-76849500D01*
X59926818Y-76883606D01*
X59926809Y-76883610D01*
X59812685Y-76949500D01*
X59719500Y-77042685D01*
X59653610Y-77156809D01*
X59653606Y-77156818D01*
X59619500Y-77284105D01*
X59619500Y-77415894D01*
X59619694Y-77417368D01*
X59618681Y-77442545D01*
X59601143Y-77524306D01*
X59599500Y-77530438D01*
X59599500Y-77531966D01*
X59599500Y-78341000D01*
X59577826Y-78393326D01*
X59525500Y-78415000D01*
X59474500Y-78415000D01*
X59422174Y-78393326D01*
X59400500Y-78341000D01*
X59400500Y-77841142D01*
X59400000Y-77833515D01*
X59400000Y-77478332D01*
X59318555Y-77488114D01*
X59318553Y-77488114D01*
X59229452Y-77523250D01*
X59172823Y-77522282D01*
X59149980Y-77506735D01*
X59052786Y-77409541D01*
X59052785Y-77409540D01*
X59031463Y-77397230D01*
X59005798Y-77382412D01*
X58984264Y-77369979D01*
X58984259Y-77369977D01*
X58907838Y-77349500D01*
X58907836Y-77349500D01*
X58806498Y-77349500D01*
X58754172Y-77327826D01*
X58732498Y-77275500D01*
X58735019Y-77256348D01*
X58740500Y-77235891D01*
X58740500Y-77104106D01*
X58740499Y-77104105D01*
X58706393Y-76976818D01*
X58706392Y-76976814D01*
X58640500Y-76862686D01*
X58547314Y-76769500D01*
X58433190Y-76703610D01*
X58433181Y-76703606D01*
X58305894Y-76669500D01*
X58305892Y-76669500D01*
X58174108Y-76669500D01*
X58174106Y-76669500D01*
X58046818Y-76703606D01*
X58046809Y-76703610D01*
X57932685Y-76769500D01*
X57839500Y-76862685D01*
X57838585Y-76864271D01*
X57837852Y-76864833D01*
X57836548Y-76866533D01*
X57836092Y-76866183D01*
X57793651Y-76898748D01*
X57737498Y-76891354D01*
X57703021Y-76846420D01*
X57700500Y-76827269D01*
X57700500Y-76702827D01*
X57700125Y-76700940D01*
X57685966Y-76629760D01*
X57678516Y-76618611D01*
X57667468Y-76563063D01*
X57678517Y-76536388D01*
X57685966Y-76525240D01*
X57700500Y-76452174D01*
X57700500Y-76310630D01*
X57722174Y-76258304D01*
X57737498Y-76246545D01*
X57787011Y-76217960D01*
X57842960Y-76162011D01*
X58839460Y-75165511D01*
X58874444Y-75104916D01*
X58879021Y-75096989D01*
X58899499Y-75020564D01*
X58899500Y-75020564D01*
X58899500Y-73435689D01*
X58921174Y-73383363D01*
X58973500Y-73361689D01*
X58992653Y-73364211D01*
X59016170Y-73370512D01*
X59044105Y-73377997D01*
X59044106Y-73377998D01*
X59044108Y-73377998D01*
X59175891Y-73377998D01*
X59175892Y-73377998D01*
X59205377Y-73370097D01*
X59243683Y-73370097D01*
X59253281Y-73372669D01*
X59269438Y-73377000D01*
X59269440Y-73377000D01*
X60443064Y-73377000D01*
X60443064Y-73376999D01*
X60519489Y-73356521D01*
X60588011Y-73316960D01*
X60588011Y-73316959D01*
X60592211Y-73314535D01*
X60593629Y-73316991D01*
X60639625Y-73304644D01*
X60666961Y-73315967D01*
X60667789Y-73314535D01*
X60671988Y-73316959D01*
X60671989Y-73316960D01*
X60740511Y-73356521D01*
X60740512Y-73356521D01*
X60740514Y-73356522D01*
X60769210Y-73364211D01*
X60816935Y-73376999D01*
X60816936Y-73377000D01*
X60816938Y-73377000D01*
X61983064Y-73377000D01*
X61983064Y-73376999D01*
X62059489Y-73356521D01*
X62128011Y-73316960D01*
X62183960Y-73261011D01*
X62663174Y-72781797D01*
X62715500Y-72760123D01*
X62767826Y-72781797D01*
G37*
%TD.AperFunction*%
%TA.AperFunction,Conductor*%
G36*
X70493867Y-76180222D02*
G01*
X70499500Y-76208541D01*
X70499500Y-77523401D01*
X70477826Y-77575727D01*
X69872962Y-78180589D01*
X69855925Y-78117007D01*
X69790099Y-78002993D01*
X69697007Y-77909901D01*
X69582993Y-77844075D01*
X69519407Y-77827037D01*
X70151716Y-77194728D01*
X70097556Y-77155378D01*
X70097550Y-77155375D01*
X69908221Y-77058906D01*
X69908217Y-77058904D01*
X69706136Y-76993244D01*
X69706125Y-76993242D01*
X69513549Y-76962740D01*
X69465259Y-76933147D01*
X69452037Y-76878074D01*
X69481630Y-76829784D01*
X69510686Y-76817074D01*
X69696420Y-76780130D01*
X69887598Y-76700941D01*
X70059655Y-76585977D01*
X70205977Y-76439655D01*
X70320941Y-76267598D01*
X70357133Y-76180222D01*
X70397181Y-76140174D01*
X70453818Y-76140174D01*
X70493867Y-76180222D01*
G37*
%TD.AperFunction*%
%TA.AperFunction,Conductor*%
G36*
X50626826Y-71076215D02*
G01*
X50642867Y-71100223D01*
X50679058Y-71187597D01*
X50767861Y-71320500D01*
X50794023Y-71359655D01*
X50940345Y-71505977D01*
X51112402Y-71620941D01*
X51303580Y-71700130D01*
X51303584Y-71700130D01*
X51303588Y-71700132D01*
X51316117Y-71702624D01*
X51363210Y-71734089D01*
X51365766Y-71738199D01*
X51369538Y-71744731D01*
X51369542Y-71744738D01*
X51425486Y-71800682D01*
X51425488Y-71800683D01*
X51425489Y-71800684D01*
X51494011Y-71840245D01*
X51517565Y-71846556D01*
X51550737Y-71865708D01*
X51738203Y-72053174D01*
X51759877Y-72105500D01*
X51738203Y-72157826D01*
X51685877Y-72179500D01*
X51506535Y-72179500D01*
X51466385Y-72187486D01*
X51303586Y-72219868D01*
X51303579Y-72219870D01*
X51112401Y-72299059D01*
X50940345Y-72414022D01*
X50940344Y-72414024D01*
X50794024Y-72560344D01*
X50794022Y-72560345D01*
X50679059Y-72732401D01*
X50642867Y-72819777D01*
X50602818Y-72859825D01*
X50546181Y-72859825D01*
X50506133Y-72819776D01*
X50500500Y-72791458D01*
X50500500Y-71128541D01*
X50522174Y-71076215D01*
X50574500Y-71054541D01*
X50626826Y-71076215D01*
G37*
%TD.AperFunction*%
%TA.AperFunction,Conductor*%
G36*
X52725270Y-68911716D02*
G01*
X52727608Y-68911533D01*
X52771924Y-68884377D01*
X52826997Y-68897599D01*
X52856589Y-68945890D01*
X52857500Y-68957466D01*
X52857500Y-70131527D01*
X52877977Y-70207948D01*
X52877979Y-70207952D01*
X52880073Y-70211578D01*
X52880074Y-70211584D01*
X52880076Y-70211584D01*
X52917540Y-70276474D01*
X53977826Y-71336759D01*
X53999500Y-71389085D01*
X53999500Y-71594214D01*
X54019977Y-71670635D01*
X54019979Y-71670640D01*
X54046540Y-71716644D01*
X54046931Y-71717321D01*
X54059540Y-71739161D01*
X54061156Y-71740777D01*
X54064678Y-71746592D01*
X54068393Y-71770867D01*
X54074748Y-71794592D01*
X54072594Y-71798320D01*
X54073246Y-71802577D01*
X54058707Y-71822370D01*
X54046425Y-71843639D01*
X54041974Y-71845149D01*
X54039717Y-71848223D01*
X54027336Y-71850117D01*
X54001382Y-71858927D01*
X53987457Y-71858927D01*
X53902948Y-71881570D01*
X53846795Y-71874176D01*
X53819710Y-71847091D01*
X53805437Y-71822370D01*
X53784670Y-71786400D01*
X53691484Y-71693214D01*
X53647793Y-71667989D01*
X53577360Y-71627324D01*
X53577351Y-71627320D01*
X53450064Y-71593214D01*
X53450062Y-71593214D01*
X53318278Y-71593214D01*
X53318276Y-71593214D01*
X53190988Y-71627320D01*
X53190979Y-71627324D01*
X53076855Y-71693214D01*
X52983670Y-71786399D01*
X52917780Y-71900523D01*
X52917776Y-71900532D01*
X52883670Y-72027819D01*
X52883670Y-72159607D01*
X52883885Y-72161242D01*
X52883670Y-72162044D01*
X52883670Y-72164456D01*
X52883023Y-72164456D01*
X52869221Y-72215948D01*
X52820169Y-72244262D01*
X52765463Y-72229598D01*
X52758191Y-72223220D01*
X52200319Y-71665348D01*
X52178645Y-71613022D01*
X52200319Y-71560696D01*
X52211530Y-71551495D01*
X52279655Y-71505977D01*
X52425977Y-71359655D01*
X52540941Y-71187598D01*
X52620130Y-70996420D01*
X52660500Y-70793465D01*
X52660500Y-70586535D01*
X52620130Y-70383580D01*
X52540941Y-70192402D01*
X52425977Y-70020345D01*
X52279655Y-69874023D01*
X52260212Y-69861032D01*
X52107598Y-69759059D01*
X51916420Y-69679870D01*
X51916414Y-69679868D01*
X51730689Y-69642926D01*
X51683597Y-69611460D01*
X51672548Y-69555911D01*
X51704014Y-69508819D01*
X51733550Y-69497259D01*
X51926123Y-69466758D01*
X51926136Y-69466755D01*
X52128217Y-69401095D01*
X52128221Y-69401093D01*
X52317554Y-69304623D01*
X52317561Y-69304618D01*
X52371716Y-69265270D01*
X52371717Y-69265270D01*
X51739409Y-68632962D01*
X51802993Y-68615925D01*
X51917007Y-68550099D01*
X52010099Y-68457007D01*
X52075925Y-68342993D01*
X52092962Y-68279408D01*
X52725270Y-68911716D01*
G37*
%TD.AperFunction*%
%TA.AperFunction,Conductor*%
G36*
X65845684Y-63770500D02*
G01*
X65845685Y-63770500D01*
X66194314Y-63770500D01*
X66194316Y-63770500D01*
X66195841Y-63770299D01*
X66196145Y-63770380D01*
X66196732Y-63770342D01*
X66196745Y-63770541D01*
X66250548Y-63784958D01*
X66278867Y-63834007D01*
X66279500Y-63843666D01*
X66279500Y-68674877D01*
X66257826Y-68727203D01*
X64435540Y-70549488D01*
X64395979Y-70618009D01*
X64395977Y-70618014D01*
X64375500Y-70694435D01*
X64375500Y-72003000D01*
X64353826Y-72055326D01*
X64301500Y-72077000D01*
X64092623Y-72077000D01*
X64040297Y-72055326D01*
X63422174Y-71437203D01*
X63400500Y-71384877D01*
X63400500Y-71167748D01*
X63422174Y-71115422D01*
X63455344Y-71096270D01*
X63515989Y-71080021D01*
X63584511Y-71040460D01*
X63640460Y-70984511D01*
X64130460Y-70494511D01*
X64170022Y-70425988D01*
X64190500Y-70349562D01*
X64190500Y-70270438D01*
X64170022Y-70194012D01*
X64130460Y-70125489D01*
X64130459Y-70125488D01*
X64074511Y-70069539D01*
X64074511Y-70069540D01*
X63555366Y-69550395D01*
X63533692Y-69498069D01*
X63533692Y-69394638D01*
X63533691Y-69394637D01*
X63509572Y-69304624D01*
X63499584Y-69267346D01*
X63433692Y-69153218D01*
X63340506Y-69060032D01*
X63313692Y-69044551D01*
X63226382Y-68994142D01*
X63226373Y-68994138D01*
X63099086Y-68960032D01*
X63099084Y-68960032D01*
X62967300Y-68960032D01*
X62967298Y-68960032D01*
X62840010Y-68994138D01*
X62839997Y-68994143D01*
X62821814Y-69004642D01*
X62765661Y-69012034D01*
X62720729Y-68977555D01*
X62717752Y-68971839D01*
X62684065Y-68899596D01*
X62600404Y-68815935D01*
X62493173Y-68765932D01*
X62493171Y-68765931D01*
X62457178Y-68761193D01*
X62444316Y-68759500D01*
X62444314Y-68759500D01*
X62205123Y-68759500D01*
X62152797Y-68737826D01*
X61982174Y-68567203D01*
X61960500Y-68514877D01*
X61960500Y-67740000D01*
X62305495Y-67740000D01*
X62347968Y-67886196D01*
X62430280Y-68025377D01*
X62544622Y-68139719D01*
X62683803Y-68222031D01*
X62839088Y-68267145D01*
X62859998Y-68268790D01*
X62860000Y-68268789D01*
X63360000Y-68268789D01*
X63360001Y-68268790D01*
X63380910Y-68267145D01*
X63380912Y-68267145D01*
X63536196Y-68222031D01*
X63675377Y-68139719D01*
X63789719Y-68025377D01*
X63872031Y-67886196D01*
X63914505Y-67740000D01*
X63360000Y-67740000D01*
X63360000Y-68268789D01*
X62860000Y-68268789D01*
X62860000Y-67740000D01*
X62305495Y-67740000D01*
X61960500Y-67740000D01*
X61960500Y-66303104D01*
X61982174Y-66250778D01*
X62034500Y-66229104D01*
X62062819Y-66234737D01*
X62066810Y-66236390D01*
X62066811Y-66236390D01*
X62066814Y-66236392D01*
X62194108Y-66270500D01*
X62194109Y-66270500D01*
X62325894Y-66270500D01*
X62325894Y-66270499D01*
X62453186Y-66236392D01*
X62499996Y-66209365D01*
X62556149Y-66201972D01*
X62601082Y-66236450D01*
X62608476Y-66292603D01*
X62607578Y-66295070D01*
X62607612Y-66295080D01*
X62606027Y-66300514D01*
X62599500Y-66350100D01*
X62599500Y-66709899D01*
X62605080Y-66752285D01*
X62590420Y-66806992D01*
X62569383Y-66825636D01*
X62544624Y-66840278D01*
X62430280Y-66954622D01*
X62347968Y-67093803D01*
X62305494Y-67239999D01*
X62305495Y-67240000D01*
X63914505Y-67240000D01*
X63914505Y-67239999D01*
X63872031Y-67093803D01*
X63789719Y-66954622D01*
X63675375Y-66840278D01*
X63650617Y-66825636D01*
X63616612Y-66780344D01*
X63614920Y-66752283D01*
X63615999Y-66744087D01*
X63620500Y-66709901D01*
X63620499Y-66350100D01*
X63613972Y-66300513D01*
X63563224Y-66191684D01*
X63478316Y-66106776D01*
X63453224Y-66095075D01*
X63414962Y-66053317D01*
X63410500Y-66028009D01*
X63410500Y-65529500D01*
X63432174Y-65477174D01*
X63484500Y-65455500D01*
X63883489Y-65455500D01*
X63948015Y-65445280D01*
X63983126Y-65439719D01*
X64103220Y-65378528D01*
X64167552Y-65314195D01*
X64219876Y-65292522D01*
X64272203Y-65314196D01*
X64286942Y-65335243D01*
X64288454Y-65338484D01*
X64377426Y-65482731D01*
X64497268Y-65602573D01*
X64641517Y-65691547D01*
X64802391Y-65744855D01*
X64901689Y-65754999D01*
X64925000Y-65754999D01*
X65425000Y-65754999D01*
X65448307Y-65754999D01*
X65448312Y-65754998D01*
X65547608Y-65744855D01*
X65708482Y-65691547D01*
X65852731Y-65602573D01*
X65972573Y-65482731D01*
X66061547Y-65338482D01*
X66114855Y-65177608D01*
X66124999Y-65078311D01*
X66125000Y-65078309D01*
X66125000Y-65030000D01*
X65425000Y-65030000D01*
X65425000Y-65754999D01*
X64925000Y-65754999D01*
X64925000Y-64854000D01*
X64946674Y-64801674D01*
X64999000Y-64780000D01*
X65175000Y-64780000D01*
X65175000Y-64604000D01*
X65196674Y-64551674D01*
X65249000Y-64530000D01*
X66124999Y-64530000D01*
X66124999Y-64481693D01*
X66124998Y-64481687D01*
X66114855Y-64382391D01*
X66061547Y-64221517D01*
X65972573Y-64077268D01*
X65852731Y-63957426D01*
X65763558Y-63902424D01*
X65730401Y-63856507D01*
X65739423Y-63800593D01*
X65785340Y-63767436D01*
X65812064Y-63766074D01*
X65845684Y-63770500D01*
G37*
%TD.AperFunction*%
%TA.AperFunction,Conductor*%
G36*
X51144075Y-68342993D02*
G01*
X51209901Y-68457007D01*
X51302993Y-68550099D01*
X51417007Y-68615925D01*
X51480590Y-68632962D01*
X50848282Y-69265270D01*
X50902449Y-69304624D01*
X51091778Y-69401093D01*
X51091782Y-69401095D01*
X51293863Y-69466755D01*
X51293876Y-69466758D01*
X51486449Y-69497259D01*
X51534740Y-69526852D01*
X51547962Y-69581924D01*
X51518369Y-69630215D01*
X51489310Y-69642926D01*
X51303585Y-69679868D01*
X51303579Y-69679870D01*
X51112401Y-69759059D01*
X50940345Y-69874022D01*
X50940344Y-69874024D01*
X50794024Y-70020344D01*
X50794022Y-70020345D01*
X50679059Y-70192401D01*
X50642867Y-70279777D01*
X50602818Y-70319825D01*
X50546181Y-70319825D01*
X50506133Y-70279776D01*
X50500500Y-70251458D01*
X50500500Y-68936598D01*
X50522174Y-68884272D01*
X51127037Y-68279408D01*
X51144075Y-68342993D01*
G37*
%TD.AperFunction*%
%TA.AperFunction,Conductor*%
G36*
X68924075Y-65802993D02*
G01*
X68989901Y-65917007D01*
X69082993Y-66010099D01*
X69197007Y-66075925D01*
X69260590Y-66092962D01*
X68628282Y-66725270D01*
X68682449Y-66764624D01*
X68871778Y-66861093D01*
X68871782Y-66861095D01*
X69073863Y-66926755D01*
X69073876Y-66926758D01*
X69266449Y-66957259D01*
X69314740Y-66986852D01*
X69327962Y-67041924D01*
X69298369Y-67090215D01*
X69269310Y-67102926D01*
X69083585Y-67139868D01*
X69083579Y-67139870D01*
X68892401Y-67219059D01*
X68720345Y-67334022D01*
X68720344Y-67334024D01*
X68574024Y-67480344D01*
X68574022Y-67480345D01*
X68459059Y-67652401D01*
X68379870Y-67843579D01*
X68379868Y-67843586D01*
X68339500Y-68046535D01*
X68339500Y-68253464D01*
X68379868Y-68456413D01*
X68379870Y-68456420D01*
X68459059Y-68647598D01*
X68486430Y-68688562D01*
X68497479Y-68744111D01*
X68477227Y-68782000D01*
X68246826Y-69012402D01*
X68194500Y-69034076D01*
X68142174Y-69012402D01*
X68120500Y-68960076D01*
X68120500Y-66387187D01*
X68142174Y-66334861D01*
X68194500Y-66313187D01*
X68246826Y-66334861D01*
X68254367Y-66343691D01*
X68274728Y-66371716D01*
X68907037Y-65739407D01*
X68924075Y-65802993D01*
G37*
%TD.AperFunction*%
%TA.AperFunction,Conductor*%
G36*
X58373383Y-56522210D02*
G01*
X58422432Y-56537077D01*
X58449142Y-56587021D01*
X58449500Y-56594291D01*
X58449500Y-56920835D01*
X58427826Y-56973161D01*
X58375500Y-56994835D01*
X58337831Y-56984530D01*
X58309195Y-56967594D01*
X58170000Y-56927154D01*
X58170000Y-58552845D01*
X58309193Y-58512405D01*
X58447289Y-58430735D01*
X58560735Y-58317289D01*
X58589627Y-58268436D01*
X58634919Y-58234430D01*
X58684595Y-58239038D01*
X58716827Y-58254068D01*
X58765684Y-58260500D01*
X58765686Y-58260500D01*
X59114314Y-58260500D01*
X59114316Y-58260500D01*
X59163173Y-58254068D01*
X59270404Y-58204065D01*
X59354065Y-58120404D01*
X59404068Y-58013173D01*
X59410500Y-57964316D01*
X59410500Y-57515684D01*
X59404068Y-57466827D01*
X59354065Y-57359596D01*
X59270404Y-57275935D01*
X59163173Y-57225932D01*
X59163171Y-57225931D01*
X59114841Y-57219569D01*
X59065792Y-57191250D01*
X59050500Y-57146202D01*
X59050500Y-56594500D01*
X59072174Y-56542174D01*
X59124500Y-56520500D01*
X59423383Y-56520500D01*
X59423383Y-56522627D01*
X59471395Y-56537145D01*
X59498137Y-56587071D01*
X59498500Y-56594389D01*
X59498500Y-56660564D01*
X59518977Y-56736985D01*
X59518979Y-56736990D01*
X59551115Y-56792651D01*
X59558507Y-56810496D01*
X59559978Y-56815988D01*
X59559979Y-56815990D01*
X59583028Y-56855912D01*
X59599540Y-56884511D01*
X59655489Y-56940460D01*
X59668684Y-56948078D01*
X59712151Y-56973174D01*
X59724011Y-56980021D01*
X59724012Y-56980021D01*
X59724014Y-56980022D01*
X59740838Y-56984530D01*
X59800435Y-57000499D01*
X59800436Y-57000500D01*
X59800438Y-57000500D01*
X60335500Y-57000500D01*
X60387826Y-57022174D01*
X60409500Y-57074500D01*
X60409500Y-57459564D01*
X60429977Y-57535985D01*
X60429979Y-57535989D01*
X60443423Y-57559274D01*
X60443424Y-57559276D01*
X60469539Y-57604510D01*
X60857826Y-57992797D01*
X60879500Y-58045123D01*
X60879500Y-65425240D01*
X60857826Y-65477566D01*
X60805500Y-65499240D01*
X60770530Y-65489674D01*
X60770469Y-65489817D01*
X60769464Y-65489382D01*
X60767833Y-65488936D01*
X60766197Y-65487968D01*
X60610914Y-65442855D01*
X60610917Y-65442855D01*
X60590000Y-65441209D01*
X60590000Y-66146000D01*
X60568326Y-66198326D01*
X60516000Y-66220000D01*
X60340000Y-66220000D01*
X60340000Y-66396000D01*
X60318326Y-66448326D01*
X60266000Y-66470000D01*
X59535495Y-66470000D01*
X59577968Y-66616196D01*
X59660280Y-66755377D01*
X59774622Y-66869719D01*
X59799381Y-66884362D01*
X59833387Y-66929654D01*
X59835079Y-66957714D01*
X59829500Y-67000098D01*
X59829500Y-67359899D01*
X59836027Y-67409485D01*
X59836028Y-67409487D01*
X59886776Y-67518316D01*
X59971684Y-67603224D01*
X59995733Y-67614438D01*
X59996773Y-67614923D01*
X60005665Y-67624626D01*
X60017826Y-67629664D01*
X60024049Y-67644689D01*
X60035037Y-67656680D01*
X60039500Y-67681990D01*
X60039500Y-67757692D01*
X60031055Y-67789209D01*
X60031834Y-67789532D01*
X60029978Y-67794011D01*
X60009500Y-67870435D01*
X60009500Y-68422979D01*
X59987826Y-68475305D01*
X59935500Y-68496979D01*
X59883174Y-68475305D01*
X59017409Y-67609540D01*
X59016486Y-67609007D01*
X59016486Y-67609006D01*
X58972780Y-67583773D01*
X58938301Y-67538840D01*
X58937202Y-67505253D01*
X58950500Y-67438401D01*
X58950499Y-67261600D01*
X58935240Y-67184883D01*
X58935238Y-67184880D01*
X58932450Y-67178147D01*
X58935452Y-67176903D01*
X58926750Y-67133173D01*
X58933378Y-67115564D01*
X58933163Y-67115475D01*
X58935018Y-67110993D01*
X58935021Y-67110989D01*
X58955499Y-67034564D01*
X58955500Y-67034564D01*
X58955500Y-66643000D01*
X58977174Y-66590674D01*
X58988556Y-66582710D01*
X58988014Y-66581936D01*
X58993311Y-66578225D01*
X58993316Y-66578224D01*
X59078224Y-66493316D01*
X59128972Y-66384487D01*
X59135500Y-66334901D01*
X59135499Y-65969999D01*
X59535494Y-65969999D01*
X59535495Y-65970000D01*
X60090000Y-65970000D01*
X60090000Y-65441209D01*
X60069083Y-65442855D01*
X59913803Y-65487968D01*
X59774622Y-65570280D01*
X59660280Y-65684622D01*
X59577968Y-65823803D01*
X59535494Y-65969999D01*
X59135499Y-65969999D01*
X59135499Y-65915100D01*
X59128972Y-65865513D01*
X59078224Y-65756684D01*
X58993316Y-65671776D01*
X58988013Y-65668063D01*
X58990048Y-65665156D01*
X58959947Y-65632263D01*
X58955500Y-65606998D01*
X58955500Y-65377622D01*
X58977173Y-65325297D01*
X59622797Y-64679672D01*
X59675123Y-64657999D01*
X59909900Y-64657999D01*
X59959487Y-64651472D01*
X60068316Y-64600724D01*
X60153224Y-64515816D01*
X60203972Y-64406987D01*
X60210500Y-64357401D01*
X60210499Y-64297773D01*
X60213020Y-64278624D01*
X60230500Y-64213392D01*
X60230500Y-64081608D01*
X60226630Y-64067166D01*
X60213020Y-64016370D01*
X60210499Y-63997218D01*
X60210499Y-63937600D01*
X60203972Y-63888014D01*
X60203972Y-63888013D01*
X60153224Y-63779184D01*
X60068316Y-63694276D01*
X59959487Y-63643528D01*
X59959485Y-63643527D01*
X59922955Y-63638718D01*
X59909901Y-63637000D01*
X59909899Y-63637000D01*
X59550100Y-63637000D01*
X59507714Y-63642580D01*
X59453007Y-63627920D01*
X59434362Y-63606881D01*
X59419721Y-63582124D01*
X59305377Y-63467780D01*
X59166196Y-63385468D01*
X59019733Y-63342917D01*
X58975531Y-63307505D01*
X58969316Y-63251210D01*
X58970450Y-63248058D01*
X59017099Y-63087493D01*
X59020000Y-63050641D01*
X59020000Y-62647500D01*
X58294000Y-62647500D01*
X58241674Y-62625826D01*
X58220000Y-62573500D01*
X58220000Y-62397500D01*
X58044000Y-62397500D01*
X57991674Y-62375826D01*
X57970000Y-62323500D01*
X57970000Y-61162703D01*
X58470000Y-61162703D01*
X58470000Y-62147500D01*
X59020000Y-62147500D01*
X59020000Y-61776735D01*
X59619500Y-61776735D01*
X59619500Y-63018264D01*
X59629427Y-63086393D01*
X59629427Y-63086394D01*
X59680801Y-63191482D01*
X59680802Y-63191483D01*
X59763517Y-63274198D01*
X59868607Y-63325573D01*
X59936740Y-63335500D01*
X59936746Y-63335500D01*
X60303254Y-63335500D01*
X60303260Y-63335500D01*
X60371393Y-63325573D01*
X60476483Y-63274198D01*
X60559198Y-63191483D01*
X60610573Y-63086393D01*
X60620500Y-63018260D01*
X60620500Y-61776740D01*
X60610573Y-61708607D01*
X60559198Y-61603517D01*
X60476483Y-61520802D01*
X60476482Y-61520801D01*
X60371394Y-61469427D01*
X60303264Y-61459500D01*
X60303260Y-61459500D01*
X59936740Y-61459500D01*
X59936735Y-61459500D01*
X59868606Y-61469427D01*
X59868605Y-61469427D01*
X59763517Y-61520801D01*
X59680801Y-61603517D01*
X59629427Y-61708605D01*
X59629427Y-61708606D01*
X59619500Y-61776735D01*
X59020000Y-61776735D01*
X59020000Y-61744358D01*
X59017099Y-61707506D01*
X58972834Y-61555145D01*
X58979049Y-61498850D01*
X59023251Y-61463438D01*
X59043896Y-61460500D01*
X59353254Y-61460500D01*
X59353260Y-61460500D01*
X59421393Y-61450573D01*
X59526483Y-61399198D01*
X59609198Y-61316483D01*
X59660573Y-61211393D01*
X59670500Y-61143260D01*
X59670500Y-60647598D01*
X59673021Y-60628446D01*
X59700500Y-60525891D01*
X59700500Y-60394109D01*
X59673021Y-60291553D01*
X59670500Y-60272401D01*
X59670500Y-59901746D01*
X59670500Y-59901740D01*
X59660573Y-59833607D01*
X59609198Y-59728517D01*
X59526483Y-59645802D01*
X59526482Y-59645801D01*
X59421394Y-59594427D01*
X59353264Y-59584500D01*
X59353260Y-59584500D01*
X58986740Y-59584500D01*
X58986735Y-59584500D01*
X58918606Y-59594427D01*
X58918605Y-59594427D01*
X58813517Y-59645801D01*
X58730801Y-59728517D01*
X58679427Y-59833605D01*
X58679427Y-59833606D01*
X58669500Y-59901735D01*
X58669500Y-61121577D01*
X58647826Y-61173903D01*
X58595500Y-61195577D01*
X58574855Y-61192639D01*
X58472493Y-61162900D01*
X58470000Y-61162703D01*
X57970000Y-61162703D01*
X57969999Y-61162703D01*
X57967506Y-61162900D01*
X57809800Y-61208718D01*
X57668443Y-61292317D01*
X57549025Y-61411736D01*
X57547824Y-61410535D01*
X57503775Y-61435661D01*
X57449146Y-61420717D01*
X57421084Y-61371520D01*
X57420500Y-61362245D01*
X57420500Y-58576906D01*
X57442174Y-58524580D01*
X57494500Y-58502906D01*
X57526101Y-58511554D01*
X57526533Y-58510557D01*
X57530803Y-58512404D01*
X57669999Y-58552845D01*
X57670000Y-58552845D01*
X57670000Y-56924377D01*
X57644123Y-56880622D01*
X57658208Y-56825764D01*
X57691525Y-56800860D01*
X57792090Y-56763351D01*
X57907188Y-56677188D01*
X57993353Y-56562087D01*
X57995021Y-56559035D01*
X58039121Y-56523497D01*
X58059969Y-56520500D01*
X58373383Y-56520500D01*
X58373383Y-56522210D01*
G37*
%TD.AperFunction*%
%TA.AperFunction,Conductor*%
G36*
X50626826Y-65996215D02*
G01*
X50642867Y-66020223D01*
X50679058Y-66107597D01*
X50765155Y-66236450D01*
X50794023Y-66279655D01*
X50940345Y-66425977D01*
X51112402Y-66540941D01*
X51303580Y-66620130D01*
X51489310Y-66657073D01*
X51536402Y-66688538D01*
X51547451Y-66744087D01*
X51515986Y-66791180D01*
X51486450Y-66802740D01*
X51293874Y-66833242D01*
X51293863Y-66833244D01*
X51091785Y-66898903D01*
X50902450Y-66995374D01*
X50848282Y-67034729D01*
X51480591Y-67667037D01*
X51417007Y-67684075D01*
X51302993Y-67749901D01*
X51209901Y-67842993D01*
X51144075Y-67957007D01*
X51127037Y-68020590D01*
X50522174Y-67415727D01*
X50500500Y-67363401D01*
X50500500Y-66048541D01*
X50522174Y-65996215D01*
X50574500Y-65974541D01*
X50626826Y-65996215D01*
G37*
%TD.AperFunction*%
%TA.AperFunction,Conductor*%
G36*
X70477826Y-66344272D02*
G01*
X70499500Y-66396598D01*
X70499500Y-67711458D01*
X70477826Y-67763784D01*
X70425500Y-67785458D01*
X70373174Y-67763784D01*
X70357133Y-67739777D01*
X70345403Y-67711458D01*
X70320941Y-67652402D01*
X70205977Y-67480345D01*
X70059655Y-67334023D01*
X69979180Y-67280252D01*
X69887598Y-67219059D01*
X69696420Y-67139870D01*
X69696414Y-67139868D01*
X69510689Y-67102926D01*
X69463597Y-67071460D01*
X69452548Y-67015911D01*
X69484014Y-66968819D01*
X69513550Y-66957259D01*
X69706123Y-66926758D01*
X69706136Y-66926755D01*
X69908217Y-66861095D01*
X69908221Y-66861093D01*
X70097554Y-66764623D01*
X70097561Y-66764618D01*
X70151716Y-66725270D01*
X70151717Y-66725270D01*
X69519409Y-66092962D01*
X69582993Y-66075925D01*
X69697007Y-66010099D01*
X69790099Y-65917007D01*
X69855925Y-65802993D01*
X69872962Y-65739408D01*
X70477826Y-66344272D01*
G37*
%TD.AperFunction*%
%TA.AperFunction,Conductor*%
G36*
X57485383Y-63333406D02*
G01*
X57494904Y-63332052D01*
X57510643Y-63343869D01*
X57528826Y-63351401D01*
X57540195Y-63366058D01*
X57552317Y-63386556D01*
X57668443Y-63502682D01*
X57809800Y-63586281D01*
X57967508Y-63632099D01*
X57967506Y-63632099D01*
X57971111Y-63632383D01*
X58021576Y-63658093D01*
X58039081Y-63711957D01*
X58036371Y-63726800D01*
X57992855Y-63876583D01*
X57991209Y-63897500D01*
X58696000Y-63897500D01*
X58748326Y-63919174D01*
X58770000Y-63971500D01*
X58770000Y-64323500D01*
X58748326Y-64375826D01*
X58696000Y-64397500D01*
X57991211Y-64397500D01*
X57991209Y-64397501D01*
X57992854Y-64418410D01*
X57992854Y-64418412D01*
X58037968Y-64573696D01*
X58120280Y-64712877D01*
X58234622Y-64827219D01*
X58373803Y-64909531D01*
X58384748Y-64912711D01*
X58428949Y-64948123D01*
X58435165Y-65004418D01*
X58416434Y-65036094D01*
X58414541Y-65037987D01*
X58374979Y-65106509D01*
X58374977Y-65106514D01*
X58354500Y-65182935D01*
X58354500Y-65390751D01*
X58332826Y-65443077D01*
X58280500Y-65464751D01*
X58235593Y-65446150D01*
X58234055Y-65448133D01*
X58230378Y-65445280D01*
X58091196Y-65362968D01*
X57945000Y-65320494D01*
X57945000Y-66051000D01*
X57923326Y-66103326D01*
X57871000Y-66125000D01*
X57695000Y-66125000D01*
X57695000Y-66301000D01*
X57673326Y-66353326D01*
X57621000Y-66375000D01*
X56916211Y-66375000D01*
X56904196Y-66387997D01*
X56897189Y-66409561D01*
X56846724Y-66435272D01*
X56840920Y-66435500D01*
X56240783Y-66435500D01*
X56188457Y-66413826D01*
X55649631Y-65875000D01*
X56916209Y-65875000D01*
X57445000Y-65875000D01*
X57445000Y-65320494D01*
X57298803Y-65362968D01*
X57159622Y-65445280D01*
X57045280Y-65559622D01*
X56962968Y-65698803D01*
X56917855Y-65854083D01*
X56916209Y-65875000D01*
X55649631Y-65875000D01*
X55442457Y-65667826D01*
X55420783Y-65615500D01*
X55442457Y-65563174D01*
X55494783Y-65541500D01*
X56288904Y-65541500D01*
X56288904Y-65541499D01*
X56365329Y-65521021D01*
X56433851Y-65481460D01*
X56489800Y-65425511D01*
X56741460Y-65173851D01*
X56747743Y-65162968D01*
X56755555Y-65149439D01*
X56776938Y-65112401D01*
X56781021Y-65105329D01*
X56801499Y-65028904D01*
X56801500Y-65028904D01*
X56801500Y-64771223D01*
X56823174Y-64718897D01*
X57060384Y-64481687D01*
X57342460Y-64199611D01*
X57352916Y-64181500D01*
X57382021Y-64131089D01*
X57402499Y-64054664D01*
X57402500Y-64054664D01*
X57402500Y-63403727D01*
X57406179Y-63394843D01*
X57404825Y-63385323D01*
X57416642Y-63369583D01*
X57424174Y-63351401D01*
X57433057Y-63347721D01*
X57438831Y-63340032D01*
X57458316Y-63337258D01*
X57476500Y-63329727D01*
X57485383Y-63333406D01*
G37*
%TD.AperFunction*%
%TA.AperFunction,Conductor*%
G36*
X68507286Y-63642335D02*
G01*
X68516489Y-63653549D01*
X68565433Y-63726800D01*
X68574023Y-63739655D01*
X68720345Y-63885977D01*
X68892402Y-64000941D01*
X69083580Y-64080130D01*
X69269310Y-64117073D01*
X69316402Y-64148538D01*
X69327451Y-64204087D01*
X69295986Y-64251180D01*
X69266450Y-64262740D01*
X69073874Y-64293242D01*
X69073863Y-64293244D01*
X68871785Y-64358903D01*
X68682450Y-64455374D01*
X68628282Y-64494729D01*
X69260590Y-65127037D01*
X69197007Y-65144075D01*
X69082993Y-65209901D01*
X68989901Y-65302993D01*
X68924075Y-65417007D01*
X68907037Y-65480590D01*
X68274729Y-64848282D01*
X68274728Y-64848282D01*
X68254367Y-64876307D01*
X68206076Y-64905900D01*
X68151004Y-64892678D01*
X68121411Y-64844387D01*
X68120500Y-64832811D01*
X68120500Y-63955122D01*
X68142173Y-63902797D01*
X68402636Y-63642334D01*
X68454960Y-63620661D01*
X68507286Y-63642335D01*
G37*
%TD.AperFunction*%
%TA.AperFunction,Conductor*%
G36*
X70493867Y-63480222D02*
G01*
X70499500Y-63508541D01*
X70499500Y-64823401D01*
X70477826Y-64875727D01*
X69872962Y-65480589D01*
X69855925Y-65417007D01*
X69790099Y-65302993D01*
X69697007Y-65209901D01*
X69582993Y-65144075D01*
X69519407Y-65127037D01*
X70151716Y-64494728D01*
X70097556Y-64455378D01*
X70097550Y-64455375D01*
X69908221Y-64358906D01*
X69908217Y-64358904D01*
X69706136Y-64293244D01*
X69706125Y-64293242D01*
X69513549Y-64262740D01*
X69465259Y-64233147D01*
X69452037Y-64178074D01*
X69481630Y-64129784D01*
X69510686Y-64117074D01*
X69696420Y-64080130D01*
X69887598Y-64000941D01*
X70059655Y-63885977D01*
X70205977Y-63739655D01*
X70320941Y-63567598D01*
X70357133Y-63480222D01*
X70397181Y-63440174D01*
X70453818Y-63440174D01*
X70493867Y-63480222D01*
G37*
%TD.AperFunction*%
%TA.AperFunction,Conductor*%
G36*
X63078326Y-60936674D02*
G01*
X63100000Y-60989000D01*
X63100000Y-61864999D01*
X63148307Y-61864999D01*
X63148312Y-61864998D01*
X63247608Y-61854855D01*
X63408482Y-61801547D01*
X63552731Y-61712573D01*
X63600174Y-61665131D01*
X63652500Y-61643457D01*
X63704826Y-61665131D01*
X63726500Y-61717457D01*
X63726500Y-61972636D01*
X63723978Y-61991790D01*
X63719500Y-62008500D01*
X63719500Y-62644877D01*
X63697826Y-62697203D01*
X63687203Y-62707826D01*
X63634877Y-62729500D01*
X63375684Y-62729500D01*
X63343112Y-62733788D01*
X63326826Y-62735932D01*
X63294593Y-62750962D01*
X63238010Y-62753431D01*
X63199626Y-62721562D01*
X63170736Y-62672712D01*
X63170736Y-62672711D01*
X63057289Y-62559264D01*
X62919194Y-62477594D01*
X62780000Y-62437154D01*
X62780000Y-63176000D01*
X62758326Y-63228326D01*
X62706000Y-63250000D01*
X62354000Y-63250000D01*
X62301674Y-63228326D01*
X62280000Y-63176000D01*
X62280000Y-62437154D01*
X62140805Y-62477594D01*
X62072169Y-62518186D01*
X62016097Y-62526166D01*
X61970805Y-62492160D01*
X61960500Y-62454491D01*
X61960500Y-61704457D01*
X61982174Y-61652131D01*
X62034500Y-61630457D01*
X62086826Y-61652131D01*
X62147268Y-61712573D01*
X62291517Y-61801547D01*
X62452391Y-61854855D01*
X62551689Y-61864999D01*
X62599999Y-61864998D01*
X62600000Y-61864998D01*
X62600000Y-60989000D01*
X62621674Y-60936674D01*
X62674000Y-60915000D01*
X63026000Y-60915000D01*
X63078326Y-60936674D01*
G37*
%TD.AperFunction*%
%TA.AperFunction,Conductor*%
G36*
X64412499Y-58093630D02*
G01*
X64424369Y-58092696D01*
X64437668Y-58104055D01*
X64453826Y-58110748D01*
X64467433Y-58129477D01*
X64471950Y-58138342D01*
X64561658Y-58228050D01*
X64674696Y-58285646D01*
X64768481Y-58300500D01*
X65744876Y-58300499D01*
X65797202Y-58322173D01*
X66578826Y-59103797D01*
X66600500Y-59156123D01*
X66600500Y-60932049D01*
X66578826Y-60984375D01*
X66526500Y-61006049D01*
X66519804Y-61005745D01*
X66456584Y-61000000D01*
X65850000Y-61000000D01*
X65850000Y-62664923D01*
X65828326Y-62717249D01*
X65801709Y-62733007D01*
X65801958Y-62733540D01*
X65796828Y-62735931D01*
X65796827Y-62735932D01*
X65759301Y-62753431D01*
X65689595Y-62785935D01*
X65605935Y-62869595D01*
X65577067Y-62931504D01*
X65535309Y-62969767D01*
X65478726Y-62967297D01*
X65442933Y-62931504D01*
X65435698Y-62915988D01*
X65414065Y-62869596D01*
X65371674Y-62827205D01*
X65350000Y-62774879D01*
X65350000Y-61000000D01*
X64743429Y-61000000D01*
X64743416Y-61000001D01*
X64672897Y-61006408D01*
X64672893Y-61006409D01*
X64510606Y-61056979D01*
X64510603Y-61056980D01*
X64439782Y-61099793D01*
X64383790Y-61108315D01*
X64338172Y-61074747D01*
X64327500Y-61036465D01*
X64327500Y-58163074D01*
X64332056Y-58152074D01*
X64331122Y-58140205D01*
X64342481Y-58126905D01*
X64349174Y-58110748D01*
X64360173Y-58106191D01*
X64367906Y-58097139D01*
X64385341Y-58095767D01*
X64401500Y-58089074D01*
X64412499Y-58093630D01*
G37*
%TD.AperFunction*%
%TA.AperFunction,Conductor*%
G36*
X54448093Y-58272091D02*
G01*
X54474696Y-58285646D01*
X54568481Y-58300500D01*
X55544876Y-58300499D01*
X55597202Y-58322173D01*
X56378826Y-59103797D01*
X56400500Y-59156123D01*
X56400500Y-60932049D01*
X56378826Y-60984375D01*
X56326500Y-61006049D01*
X56319804Y-61005745D01*
X56256584Y-61000000D01*
X55650000Y-61000000D01*
X55650000Y-61826000D01*
X55628326Y-61878326D01*
X55576000Y-61900000D01*
X55224000Y-61900000D01*
X55171674Y-61878326D01*
X55150000Y-61826000D01*
X55150000Y-61000000D01*
X54543429Y-61000000D01*
X54543416Y-61000001D01*
X54472897Y-61006408D01*
X54472893Y-61006409D01*
X54436515Y-61017745D01*
X54380110Y-61012620D01*
X54343851Y-60969111D01*
X54340500Y-60947096D01*
X54340500Y-58338026D01*
X54362174Y-58285700D01*
X54414500Y-58264026D01*
X54448093Y-58272091D01*
G37*
%TD.AperFunction*%
%TA.AperFunction,Conductor*%
G36*
X63548326Y-57591674D02*
G01*
X63570000Y-57644000D01*
X63570000Y-58382844D01*
X63631854Y-58364874D01*
X63688149Y-58371089D01*
X63723562Y-58415290D01*
X63726500Y-58435936D01*
X63726500Y-60112543D01*
X63704826Y-60164869D01*
X63652500Y-60186543D01*
X63600174Y-60164869D01*
X63552731Y-60117426D01*
X63408484Y-60028454D01*
X63405243Y-60026942D01*
X63366983Y-59985181D01*
X63369457Y-59928598D01*
X63384193Y-59907554D01*
X63448528Y-59843220D01*
X63509719Y-59723126D01*
X63525500Y-59623488D01*
X63525500Y-59106512D01*
X63509719Y-59006874D01*
X63448528Y-58886780D01*
X63353220Y-58791472D01*
X63353219Y-58791471D01*
X63233126Y-58730281D01*
X63233125Y-58730280D01*
X63133489Y-58714500D01*
X63133488Y-58714500D01*
X62566512Y-58714500D01*
X62566511Y-58714500D01*
X62466874Y-58730280D01*
X62466873Y-58730281D01*
X62346780Y-58791471D01*
X62251471Y-58886780D01*
X62190281Y-59006873D01*
X62190280Y-59006874D01*
X62174500Y-59106511D01*
X62174500Y-59623488D01*
X62190280Y-59723125D01*
X62190281Y-59723126D01*
X62251471Y-59843219D01*
X62315803Y-59907551D01*
X62337477Y-59959877D01*
X62315803Y-60012203D01*
X62294759Y-60026940D01*
X62291520Y-60028450D01*
X62147268Y-60117426D01*
X62086826Y-60177869D01*
X62034500Y-60199543D01*
X61982174Y-60177869D01*
X61960500Y-60125543D01*
X61960500Y-58145980D01*
X61982174Y-58093654D01*
X62034500Y-58071980D01*
X62065773Y-58078913D01*
X62076827Y-58084068D01*
X62125684Y-58090500D01*
X62125686Y-58090500D01*
X62474314Y-58090500D01*
X62474316Y-58090500D01*
X62523173Y-58084068D01*
X62555404Y-58069037D01*
X62611986Y-58066568D01*
X62650372Y-58098435D01*
X62679265Y-58147290D01*
X62792710Y-58260735D01*
X62930806Y-58342405D01*
X63069999Y-58382845D01*
X63070000Y-58382845D01*
X63070000Y-57644000D01*
X63091674Y-57591674D01*
X63144000Y-57570000D01*
X63496000Y-57570000D01*
X63548326Y-57591674D01*
G37*
%TD.AperFunction*%
%TA.AperFunction,Conductor*%
G36*
X51144075Y-55642993D02*
G01*
X51209901Y-55757007D01*
X51302993Y-55850099D01*
X51417007Y-55915925D01*
X51480589Y-55932962D01*
X50848282Y-56565269D01*
X50902449Y-56604624D01*
X51091778Y-56701093D01*
X51091782Y-56701095D01*
X51293863Y-56766755D01*
X51293876Y-56766758D01*
X51486449Y-56797259D01*
X51534740Y-56826852D01*
X51547962Y-56881924D01*
X51518369Y-56930215D01*
X51489310Y-56942926D01*
X51303585Y-56979868D01*
X51303579Y-56979870D01*
X51112401Y-57059059D01*
X50940345Y-57174022D01*
X50940344Y-57174024D01*
X50794024Y-57320344D01*
X50794022Y-57320345D01*
X50679059Y-57492401D01*
X50642867Y-57579777D01*
X50602818Y-57619825D01*
X50546181Y-57619825D01*
X50506133Y-57579776D01*
X50500500Y-57551458D01*
X50500500Y-56236598D01*
X50522174Y-56184272D01*
X51127037Y-55579408D01*
X51144075Y-55642993D01*
G37*
%TD.AperFunction*%
%TA.AperFunction,Conductor*%
G36*
X68317826Y-50692174D02*
G01*
X68339500Y-50744500D01*
X68339500Y-51239746D01*
X68351133Y-51298232D01*
X68380608Y-51342343D01*
X68395448Y-51364552D01*
X68439560Y-51394027D01*
X68461767Y-51408866D01*
X68461768Y-51408866D01*
X68461769Y-51408867D01*
X68520252Y-51420500D01*
X68520254Y-51420500D01*
X70259746Y-51420500D01*
X70259748Y-51420500D01*
X70318231Y-51408867D01*
X70384390Y-51364660D01*
X70439935Y-51353611D01*
X70487028Y-51385075D01*
X70499500Y-51426189D01*
X70499500Y-52471458D01*
X70477826Y-52523784D01*
X70425500Y-52545458D01*
X70373174Y-52523784D01*
X70357133Y-52499777D01*
X70345403Y-52471458D01*
X70320941Y-52412402D01*
X70205977Y-52240345D01*
X70059655Y-52094023D01*
X70040447Y-52081189D01*
X69887598Y-51979059D01*
X69696420Y-51899870D01*
X69696413Y-51899868D01*
X69543516Y-51869455D01*
X69493465Y-51859500D01*
X69286535Y-51859500D01*
X69246385Y-51867486D01*
X69083586Y-51899868D01*
X69083579Y-51899870D01*
X68892401Y-51979059D01*
X68720345Y-52094022D01*
X68720344Y-52094024D01*
X68574024Y-52240344D01*
X68574022Y-52240345D01*
X68459059Y-52412401D01*
X68459059Y-52412402D01*
X68406279Y-52539825D01*
X68396340Y-52563819D01*
X68356292Y-52603867D01*
X68327973Y-52609500D01*
X67142840Y-52609500D01*
X67119975Y-52605879D01*
X67117420Y-52605049D01*
X67019247Y-52589500D01*
X67019246Y-52589500D01*
X66440754Y-52589500D01*
X66440753Y-52589500D01*
X66342579Y-52605048D01*
X66342579Y-52605049D01*
X66224250Y-52665340D01*
X66130340Y-52759250D01*
X66070049Y-52877579D01*
X66070048Y-52877579D01*
X66054500Y-52975753D01*
X66054500Y-53479246D01*
X66070049Y-53577420D01*
X66130340Y-53695749D01*
X66224250Y-53789659D01*
X66283414Y-53819804D01*
X66342579Y-53849950D01*
X66342579Y-53849951D01*
X66440753Y-53865500D01*
X66440754Y-53865500D01*
X67019247Y-53865500D01*
X67117420Y-53849951D01*
X67235751Y-53789658D01*
X67329658Y-53695751D01*
X67389951Y-53577420D01*
X67405500Y-53479246D01*
X67405500Y-53284500D01*
X67427174Y-53232174D01*
X67479500Y-53210500D01*
X68327973Y-53210500D01*
X68380299Y-53232174D01*
X68396339Y-53256179D01*
X68422867Y-53320223D01*
X68459059Y-53407598D01*
X68572529Y-53577420D01*
X68574023Y-53579655D01*
X68720345Y-53725977D01*
X68892402Y-53840941D01*
X69083580Y-53920130D01*
X69286535Y-53960500D01*
X69286536Y-53960500D01*
X69493464Y-53960500D01*
X69493465Y-53960500D01*
X69696420Y-53920130D01*
X69887598Y-53840941D01*
X70059655Y-53725977D01*
X70205977Y-53579655D01*
X70320941Y-53407598D01*
X70357133Y-53320222D01*
X70397181Y-53280174D01*
X70453818Y-53280174D01*
X70493867Y-53320222D01*
X70499500Y-53348541D01*
X70499500Y-55011458D01*
X70477826Y-55063784D01*
X70425500Y-55085458D01*
X70373174Y-55063784D01*
X70357133Y-55039777D01*
X70324859Y-54961861D01*
X70320941Y-54952402D01*
X70205977Y-54780345D01*
X70059655Y-54634023D01*
X70017715Y-54606000D01*
X69887598Y-54519059D01*
X69696420Y-54439870D01*
X69696413Y-54439868D01*
X69543516Y-54409455D01*
X69493465Y-54399500D01*
X69286535Y-54399500D01*
X69246385Y-54407486D01*
X69083586Y-54439868D01*
X69083579Y-54439870D01*
X68892401Y-54519059D01*
X68720345Y-54634022D01*
X68720344Y-54634024D01*
X68574024Y-54780344D01*
X68574022Y-54780345D01*
X68459059Y-54952401D01*
X68379870Y-55143579D01*
X68379868Y-55143586D01*
X68339500Y-55346535D01*
X68339500Y-55553464D01*
X68379868Y-55756413D01*
X68379871Y-55756424D01*
X68442588Y-55907836D01*
X68442588Y-55964473D01*
X68426547Y-55988480D01*
X66923163Y-57491864D01*
X66870837Y-57513538D01*
X66818511Y-57491864D01*
X66797748Y-57451113D01*
X66785646Y-57374695D01*
X66785645Y-57374693D01*
X66749885Y-57304511D01*
X66728050Y-57261658D01*
X66638342Y-57171950D01*
X66525304Y-57114354D01*
X66525302Y-57114353D01*
X66525301Y-57114353D01*
X66431520Y-57099500D01*
X66431519Y-57099500D01*
X65090058Y-57099500D01*
X65037732Y-57077826D01*
X65016058Y-57025500D01*
X65037732Y-56973174D01*
X65744930Y-56265977D01*
X66548733Y-55462174D01*
X66601059Y-55440500D01*
X67019247Y-55440500D01*
X67117420Y-55424951D01*
X67235751Y-55364658D01*
X67329658Y-55270751D01*
X67389951Y-55152420D01*
X67405500Y-55054246D01*
X67405500Y-54550754D01*
X67404299Y-54543174D01*
X67397780Y-54502011D01*
X67389951Y-54452580D01*
X67329658Y-54334249D01*
X67235751Y-54240342D01*
X67235749Y-54240340D01*
X67117420Y-54180049D01*
X67117420Y-54180048D01*
X67019247Y-54164500D01*
X67019246Y-54164500D01*
X66440754Y-54164500D01*
X66440753Y-54164500D01*
X66342579Y-54180048D01*
X66342579Y-54180049D01*
X66224250Y-54240340D01*
X66130340Y-54334250D01*
X66070049Y-54452579D01*
X66070048Y-54452579D01*
X66054500Y-54550753D01*
X66054500Y-55054247D01*
X66055741Y-55062084D01*
X66054316Y-55068019D01*
X66056652Y-55073659D01*
X66047874Y-55094850D01*
X66042519Y-55117156D01*
X66034978Y-55125985D01*
X65946326Y-55214637D01*
X65894000Y-55236311D01*
X65841674Y-55214637D01*
X65820000Y-55162311D01*
X65820000Y-54930000D01*
X65120000Y-54930000D01*
X65120000Y-54430000D01*
X65820000Y-54430000D01*
X65820000Y-54031509D01*
X65781572Y-53838317D01*
X65781569Y-53838306D01*
X65706190Y-53656324D01*
X65596753Y-53492540D01*
X65457459Y-53353246D01*
X65293675Y-53243809D01*
X65187185Y-53199700D01*
X65147136Y-53159652D01*
X65147136Y-53103015D01*
X65163172Y-53079013D01*
X67550012Y-50692174D01*
X67602338Y-50670500D01*
X68265500Y-50670500D01*
X68317826Y-50692174D01*
G37*
%TD.AperFunction*%
%TA.AperFunction,Conductor*%
G36*
X57228326Y-55366674D02*
G01*
X57250000Y-55419000D01*
X57250000Y-55595000D01*
X57426000Y-55595000D01*
X57478326Y-55616674D01*
X57500000Y-55669000D01*
X57500000Y-56820000D01*
X57518877Y-56820000D01*
X57571203Y-56841674D01*
X57592877Y-56894000D01*
X57571203Y-56946326D01*
X57539523Y-56965062D01*
X57530805Y-56967594D01*
X57392710Y-57049264D01*
X57335799Y-57106176D01*
X57283473Y-57127850D01*
X57231147Y-57106176D01*
X57021674Y-56896703D01*
X57000000Y-56844377D01*
X57000000Y-55845000D01*
X56444000Y-55845000D01*
X56391674Y-55823326D01*
X56370000Y-55771000D01*
X56370000Y-55464265D01*
X56420060Y-55414205D01*
X56459556Y-55345796D01*
X56459769Y-55345000D01*
X57176000Y-55345000D01*
X57228326Y-55366674D01*
G37*
%TD.AperFunction*%
%TA.AperFunction,Conductor*%
G36*
X63728326Y-55366674D02*
G01*
X63750000Y-55419000D01*
X63750000Y-55595000D01*
X63926000Y-55595000D01*
X63978326Y-55616674D01*
X64000000Y-55669000D01*
X64000000Y-56820000D01*
X64097829Y-56820000D01*
X64161691Y-56813133D01*
X64216034Y-56829089D01*
X64243178Y-56878798D01*
X64227222Y-56933141D01*
X64221928Y-56939035D01*
X64105312Y-57055651D01*
X64052986Y-57077325D01*
X64000660Y-57055651D01*
X63989292Y-57040995D01*
X63960736Y-56992711D01*
X63868025Y-56900000D01*
X63574000Y-56900000D01*
X63521674Y-56878326D01*
X63500000Y-56826000D01*
X63500000Y-55845000D01*
X63482676Y-55827676D01*
X63472174Y-55823326D01*
X63450500Y-55771000D01*
X63450500Y-55419000D01*
X63472174Y-55366674D01*
X63524500Y-55345000D01*
X63676000Y-55345000D01*
X63728326Y-55366674D01*
G37*
%TD.AperFunction*%
%TA.AperFunction,Conductor*%
G36*
X65070000Y-56060312D02*
G01*
X65048326Y-56112638D01*
X64669035Y-56491928D01*
X64616709Y-56513602D01*
X64564383Y-56491928D01*
X64542709Y-56439602D01*
X64543133Y-56431691D01*
X64550000Y-56367828D01*
X64550000Y-56251275D01*
X64570000Y-56202990D01*
X64570000Y-55396988D01*
X64579940Y-55414205D01*
X64635795Y-55470060D01*
X64704204Y-55509556D01*
X64780504Y-55530000D01*
X64859496Y-55530000D01*
X64935796Y-55509556D01*
X65004205Y-55470060D01*
X65060060Y-55414205D01*
X65070000Y-55396988D01*
X65070000Y-56060312D01*
G37*
%TD.AperFunction*%
%TA.AperFunction,Conductor*%
G36*
X50626826Y-53296215D02*
G01*
X50642867Y-53320223D01*
X50679058Y-53407597D01*
X50792530Y-53577420D01*
X50794023Y-53579655D01*
X50940345Y-53725977D01*
X51112402Y-53840941D01*
X51303580Y-53920130D01*
X51489310Y-53957073D01*
X51536402Y-53988538D01*
X51547451Y-54044087D01*
X51515986Y-54091180D01*
X51486450Y-54102740D01*
X51293874Y-54133242D01*
X51293863Y-54133244D01*
X51091785Y-54198903D01*
X50902450Y-54295374D01*
X50848282Y-54334729D01*
X51480590Y-54967037D01*
X51417007Y-54984075D01*
X51302993Y-55049901D01*
X51209901Y-55142993D01*
X51144075Y-55257007D01*
X51127037Y-55320590D01*
X50522174Y-54715727D01*
X50500500Y-54663401D01*
X50500500Y-53348541D01*
X50522174Y-53296215D01*
X50574500Y-53274541D01*
X50626826Y-53296215D01*
G37*
%TD.AperFunction*%
%TA.AperFunction,Conductor*%
G36*
X55358582Y-49522174D02*
G01*
X55380256Y-49574500D01*
X55367785Y-49615612D01*
X55293809Y-49726324D01*
X55218430Y-49908306D01*
X55218427Y-49908317D01*
X55180000Y-50101509D01*
X55180000Y-50250000D01*
X55880000Y-50250000D01*
X55880000Y-50750000D01*
X55180000Y-50750000D01*
X55180000Y-50898490D01*
X55218427Y-51091682D01*
X55218430Y-51091693D01*
X55293809Y-51273675D01*
X55403246Y-51437459D01*
X55542540Y-51576753D01*
X55706324Y-51686190D01*
X55888306Y-51761569D01*
X55888317Y-51761572D01*
X55929999Y-51769863D01*
X55930000Y-51769863D01*
X55930000Y-50966988D01*
X55939940Y-50984205D01*
X55995795Y-51040060D01*
X56064204Y-51079556D01*
X56140504Y-51100000D01*
X56219496Y-51100000D01*
X56295796Y-51079556D01*
X56364205Y-51040060D01*
X56420060Y-50984205D01*
X56430000Y-50966988D01*
X56430000Y-51769863D01*
X56471682Y-51761572D01*
X56471693Y-51761569D01*
X56653675Y-51686190D01*
X56817459Y-51576753D01*
X56956753Y-51437459D01*
X57066190Y-51273675D01*
X57141569Y-51091693D01*
X57141572Y-51091682D01*
X57180000Y-50898490D01*
X57180000Y-50750000D01*
X56480000Y-50750000D01*
X56480000Y-50250000D01*
X57180000Y-50250000D01*
X57180000Y-50101509D01*
X57141572Y-49908317D01*
X57141569Y-49908306D01*
X57066190Y-49726324D01*
X56992215Y-49615612D01*
X56981166Y-49560063D01*
X57012632Y-49512971D01*
X57053744Y-49500500D01*
X63946256Y-49500500D01*
X63998582Y-49522174D01*
X64020256Y-49574500D01*
X64007785Y-49615612D01*
X63933809Y-49726324D01*
X63858430Y-49908306D01*
X63858427Y-49908317D01*
X63820000Y-50101509D01*
X63820000Y-50250000D01*
X64520000Y-50250000D01*
X64520000Y-50750000D01*
X63820000Y-50750000D01*
X63820000Y-50898490D01*
X63858427Y-51091682D01*
X63858430Y-51091693D01*
X63933809Y-51273675D01*
X64043246Y-51437459D01*
X64182540Y-51576753D01*
X64346324Y-51686190D01*
X64528306Y-51761569D01*
X64528317Y-51761572D01*
X64569999Y-51769863D01*
X64570000Y-51769863D01*
X64570000Y-50966988D01*
X64579940Y-50984205D01*
X64635795Y-51040060D01*
X64704204Y-51079556D01*
X64780504Y-51100000D01*
X64859496Y-51100000D01*
X64935796Y-51079556D01*
X65004205Y-51040060D01*
X65060060Y-50984205D01*
X65070000Y-50966988D01*
X65070000Y-51769863D01*
X65111682Y-51761572D01*
X65111693Y-51761569D01*
X65293675Y-51686190D01*
X65457459Y-51576753D01*
X65596753Y-51437459D01*
X65706190Y-51273675D01*
X65781569Y-51091693D01*
X65781572Y-51091682D01*
X65820000Y-50898490D01*
X65820000Y-50750000D01*
X65120000Y-50750000D01*
X65120000Y-50250000D01*
X65820000Y-50250000D01*
X65820000Y-50101509D01*
X65781572Y-49908317D01*
X65781569Y-49908306D01*
X65706190Y-49726324D01*
X65632215Y-49615612D01*
X65621166Y-49560063D01*
X65652632Y-49512971D01*
X65693744Y-49500500D01*
X68265500Y-49500500D01*
X68317826Y-49522174D01*
X68339500Y-49574500D01*
X68339500Y-49995500D01*
X68317826Y-50047826D01*
X68265500Y-50069500D01*
X67407651Y-50069500D01*
X67331229Y-50089977D01*
X67331224Y-50089979D01*
X67262703Y-50129540D01*
X64240418Y-53151826D01*
X64188092Y-53173500D01*
X63070428Y-53173500D01*
X62994006Y-53193977D01*
X62994001Y-53193979D01*
X62965388Y-53210500D01*
X62925480Y-53233540D01*
X62473541Y-53685479D01*
X62437175Y-53748467D01*
X62392241Y-53782945D01*
X62336088Y-53775552D01*
X62320763Y-53763792D01*
X62083511Y-53526540D01*
X62045355Y-53504511D01*
X62014990Y-53486979D01*
X62014985Y-53486977D01*
X61938564Y-53466500D01*
X61938562Y-53466500D01*
X59494338Y-53466500D01*
X59494336Y-53466500D01*
X59417914Y-53486977D01*
X59417909Y-53486979D01*
X59387545Y-53504511D01*
X59349388Y-53526540D01*
X58730103Y-54145826D01*
X58677777Y-54167500D01*
X58439562Y-54167500D01*
X58360438Y-54167500D01*
X58284012Y-54187978D01*
X58284009Y-54187979D01*
X58279328Y-54189234D01*
X58278572Y-54186415D01*
X58231130Y-54186380D01*
X58191112Y-54146301D01*
X58185500Y-54118034D01*
X58185500Y-54074232D01*
X58185499Y-54074231D01*
X58183695Y-54067500D01*
X58146281Y-53927865D01*
X58070515Y-53796635D01*
X57963365Y-53689485D01*
X57956430Y-53685481D01*
X57832139Y-53613721D01*
X57832130Y-53613717D01*
X57685768Y-53574500D01*
X57685766Y-53574500D01*
X57534234Y-53574500D01*
X57534232Y-53574500D01*
X57387869Y-53613717D01*
X57387860Y-53613721D01*
X57256636Y-53689484D01*
X57209992Y-53736127D01*
X57157666Y-53757800D01*
X57105340Y-53736125D01*
X57089300Y-53712118D01*
X57066190Y-53656324D01*
X56956753Y-53492540D01*
X56817459Y-53353246D01*
X56653675Y-53243809D01*
X56471691Y-53168429D01*
X56471684Y-53168427D01*
X56430000Y-53160136D01*
X56430000Y-53963011D01*
X56420060Y-53945795D01*
X56364205Y-53889940D01*
X56295796Y-53850444D01*
X56219496Y-53830000D01*
X56140504Y-53830000D01*
X56064204Y-53850444D01*
X55995795Y-53889940D01*
X55939940Y-53945795D01*
X55930000Y-53963011D01*
X55930000Y-53160136D01*
X55929999Y-53160136D01*
X55888315Y-53168427D01*
X55888308Y-53168429D01*
X55706324Y-53243809D01*
X55542540Y-53353246D01*
X55403246Y-53492540D01*
X55293809Y-53656324D01*
X55218430Y-53838306D01*
X55218427Y-53838317D01*
X55180000Y-54031509D01*
X55180000Y-54430000D01*
X55880000Y-54430000D01*
X55880000Y-54930000D01*
X55179999Y-54930000D01*
X55169810Y-54940189D01*
X55142081Y-54951674D01*
X55117485Y-54961862D01*
X55117484Y-54961861D01*
X55117484Y-54961862D01*
X55065159Y-54940188D01*
X54982174Y-54857203D01*
X54960500Y-54804877D01*
X54960500Y-54550753D01*
X54952780Y-54502011D01*
X54944951Y-54452580D01*
X54884658Y-54334249D01*
X54790751Y-54240342D01*
X54790749Y-54240340D01*
X54672420Y-54180049D01*
X54672420Y-54180048D01*
X54574247Y-54164500D01*
X54574246Y-54164500D01*
X53995754Y-54164500D01*
X53995753Y-54164500D01*
X53897582Y-54180048D01*
X53897580Y-54180048D01*
X53897580Y-54180049D01*
X53804375Y-54227540D01*
X53798742Y-54230410D01*
X53742280Y-54234853D01*
X53699212Y-54198070D01*
X53694769Y-54141608D01*
X53712820Y-54112149D01*
X53739460Y-54085511D01*
X53749837Y-54067538D01*
X53779021Y-54016989D01*
X53782906Y-54002487D01*
X53802058Y-53969311D01*
X53891499Y-53879870D01*
X53943824Y-53858197D01*
X53955393Y-53859107D01*
X53995754Y-53865500D01*
X53995755Y-53865500D01*
X54574247Y-53865500D01*
X54672420Y-53849951D01*
X54790751Y-53789658D01*
X54884658Y-53695751D01*
X54944951Y-53577420D01*
X54960500Y-53479246D01*
X54960500Y-52975754D01*
X54944951Y-52877580D01*
X54884658Y-52759249D01*
X54790751Y-52665342D01*
X54790749Y-52665340D01*
X54672420Y-52605049D01*
X54672420Y-52605048D01*
X54574247Y-52589500D01*
X54574246Y-52589500D01*
X53995754Y-52589500D01*
X53995753Y-52589500D01*
X53897576Y-52605049D01*
X53896359Y-52605445D01*
X53895504Y-52605377D01*
X53891828Y-52605960D01*
X53891688Y-52605076D01*
X53839897Y-52600995D01*
X53803119Y-52557923D01*
X53799500Y-52535064D01*
X53799500Y-52340010D01*
X53802021Y-52320857D01*
X53806200Y-52305262D01*
X53806200Y-52226138D01*
X53785722Y-52149712D01*
X53773968Y-52129353D01*
X53746162Y-52081192D01*
X53746161Y-52081191D01*
X53746160Y-52081189D01*
X52682174Y-51017203D01*
X52660500Y-50964877D01*
X52660500Y-49574500D01*
X52682174Y-49522174D01*
X52734500Y-49500500D01*
X55306256Y-49500500D01*
X55358582Y-49522174D01*
G37*
%TD.AperFunction*%
%TD*%
M02*
