%TF.GenerationSoftware,KiCad,Pcbnew,9.0.6*%
%TF.CreationDate,2026-02-18T17:47:18+01:00*%
%TF.ProjectId,devboard,64657662-6f61-4726-942e-6b696361645f,rev?*%
%TF.SameCoordinates,Original*%
%TF.FileFunction,Legend,Top*%
%TF.FilePolarity,Positive*%
%FSLAX46Y46*%
G04 Gerber Fmt 4.6, Leading zero omitted, Abs format (unit mm)*
G04 Created by KiCad (PCBNEW 9.0.6) date 2026-02-18 17:47:18*
%MOMM*%
%LPD*%
G01*
G04 APERTURE LIST*
%ADD10C,0.150000*%
%ADD11C,0.120000*%
%ADD12C,0.000000*%
G04 APERTURE END LIST*
D10*
X58938095Y-85704819D02*
X58938095Y-86514342D01*
X58938095Y-86514342D02*
X58985714Y-86609580D01*
X58985714Y-86609580D02*
X59033333Y-86657200D01*
X59033333Y-86657200D02*
X59128571Y-86704819D01*
X59128571Y-86704819D02*
X59319047Y-86704819D01*
X59319047Y-86704819D02*
X59414285Y-86657200D01*
X59414285Y-86657200D02*
X59461904Y-86609580D01*
X59461904Y-86609580D02*
X59509523Y-86514342D01*
X59509523Y-86514342D02*
X59509523Y-85704819D01*
X60414285Y-85704819D02*
X60223809Y-85704819D01*
X60223809Y-85704819D02*
X60128571Y-85752438D01*
X60128571Y-85752438D02*
X60080952Y-85800057D01*
X60080952Y-85800057D02*
X59985714Y-85942914D01*
X59985714Y-85942914D02*
X59938095Y-86133390D01*
X59938095Y-86133390D02*
X59938095Y-86514342D01*
X59938095Y-86514342D02*
X59985714Y-86609580D01*
X59985714Y-86609580D02*
X60033333Y-86657200D01*
X60033333Y-86657200D02*
X60128571Y-86704819D01*
X60128571Y-86704819D02*
X60319047Y-86704819D01*
X60319047Y-86704819D02*
X60414285Y-86657200D01*
X60414285Y-86657200D02*
X60461904Y-86609580D01*
X60461904Y-86609580D02*
X60509523Y-86514342D01*
X60509523Y-86514342D02*
X60509523Y-86276247D01*
X60509523Y-86276247D02*
X60461904Y-86181009D01*
X60461904Y-86181009D02*
X60414285Y-86133390D01*
X60414285Y-86133390D02*
X60319047Y-86085771D01*
X60319047Y-86085771D02*
X60128571Y-86085771D01*
X60128571Y-86085771D02*
X60033333Y-86133390D01*
X60033333Y-86133390D02*
X59985714Y-86181009D01*
X59985714Y-86181009D02*
X59938095Y-86276247D01*
X55238095Y-65454819D02*
X55238095Y-66264342D01*
X55238095Y-66264342D02*
X55285714Y-66359580D01*
X55285714Y-66359580D02*
X55333333Y-66407200D01*
X55333333Y-66407200D02*
X55428571Y-66454819D01*
X55428571Y-66454819D02*
X55619047Y-66454819D01*
X55619047Y-66454819D02*
X55714285Y-66407200D01*
X55714285Y-66407200D02*
X55761904Y-66359580D01*
X55761904Y-66359580D02*
X55809523Y-66264342D01*
X55809523Y-66264342D02*
X55809523Y-65454819D01*
X56761904Y-65454819D02*
X56285714Y-65454819D01*
X56285714Y-65454819D02*
X56238095Y-65931009D01*
X56238095Y-65931009D02*
X56285714Y-65883390D01*
X56285714Y-65883390D02*
X56380952Y-65835771D01*
X56380952Y-65835771D02*
X56619047Y-65835771D01*
X56619047Y-65835771D02*
X56714285Y-65883390D01*
X56714285Y-65883390D02*
X56761904Y-65931009D01*
X56761904Y-65931009D02*
X56809523Y-66026247D01*
X56809523Y-66026247D02*
X56809523Y-66264342D01*
X56809523Y-66264342D02*
X56761904Y-66359580D01*
X56761904Y-66359580D02*
X56714285Y-66407200D01*
X56714285Y-66407200D02*
X56619047Y-66454819D01*
X56619047Y-66454819D02*
X56380952Y-66454819D01*
X56380952Y-66454819D02*
X56285714Y-66407200D01*
X56285714Y-66407200D02*
X56238095Y-66359580D01*
X57423809Y-79978628D02*
X57423809Y-80454819D01*
X57090476Y-79454819D02*
X57423809Y-79978628D01*
X57423809Y-79978628D02*
X57757142Y-79454819D01*
X58614285Y-80454819D02*
X58042857Y-80454819D01*
X58328571Y-80454819D02*
X58328571Y-79454819D01*
X58328571Y-79454819D02*
X58233333Y-79597676D01*
X58233333Y-79597676D02*
X58138095Y-79692914D01*
X58138095Y-79692914D02*
X58042857Y-79740533D01*
X55807200Y-61083332D02*
X55854819Y-60940475D01*
X55854819Y-60940475D02*
X55854819Y-60702380D01*
X55854819Y-60702380D02*
X55807200Y-60607142D01*
X55807200Y-60607142D02*
X55759580Y-60559523D01*
X55759580Y-60559523D02*
X55664342Y-60511904D01*
X55664342Y-60511904D02*
X55569104Y-60511904D01*
X55569104Y-60511904D02*
X55473866Y-60559523D01*
X55473866Y-60559523D02*
X55426247Y-60607142D01*
X55426247Y-60607142D02*
X55378628Y-60702380D01*
X55378628Y-60702380D02*
X55331009Y-60892856D01*
X55331009Y-60892856D02*
X55283390Y-60988094D01*
X55283390Y-60988094D02*
X55235771Y-61035713D01*
X55235771Y-61035713D02*
X55140533Y-61083332D01*
X55140533Y-61083332D02*
X55045295Y-61083332D01*
X55045295Y-61083332D02*
X54950057Y-61035713D01*
X54950057Y-61035713D02*
X54902438Y-60988094D01*
X54902438Y-60988094D02*
X54854819Y-60892856D01*
X54854819Y-60892856D02*
X54854819Y-60654761D01*
X54854819Y-60654761D02*
X54902438Y-60511904D01*
X54854819Y-60178570D02*
X55854819Y-59940475D01*
X55854819Y-59940475D02*
X55140533Y-59749999D01*
X55140533Y-59749999D02*
X55854819Y-59559523D01*
X55854819Y-59559523D02*
X54854819Y-59321428D01*
X54950057Y-58988094D02*
X54902438Y-58940475D01*
X54902438Y-58940475D02*
X54854819Y-58845237D01*
X54854819Y-58845237D02*
X54854819Y-58607142D01*
X54854819Y-58607142D02*
X54902438Y-58511904D01*
X54902438Y-58511904D02*
X54950057Y-58464285D01*
X54950057Y-58464285D02*
X55045295Y-58416666D01*
X55045295Y-58416666D02*
X55140533Y-58416666D01*
X55140533Y-58416666D02*
X55283390Y-58464285D01*
X55283390Y-58464285D02*
X55854819Y-59035713D01*
X55854819Y-59035713D02*
X55854819Y-58416666D01*
X54466666Y-98589819D02*
X54466666Y-99304104D01*
X54466666Y-99304104D02*
X54419047Y-99446961D01*
X54419047Y-99446961D02*
X54323809Y-99542200D01*
X54323809Y-99542200D02*
X54180952Y-99589819D01*
X54180952Y-99589819D02*
X54085714Y-99589819D01*
X54895238Y-98685057D02*
X54942857Y-98637438D01*
X54942857Y-98637438D02*
X55038095Y-98589819D01*
X55038095Y-98589819D02*
X55276190Y-98589819D01*
X55276190Y-98589819D02*
X55371428Y-98637438D01*
X55371428Y-98637438D02*
X55419047Y-98685057D01*
X55419047Y-98685057D02*
X55466666Y-98780295D01*
X55466666Y-98780295D02*
X55466666Y-98875533D01*
X55466666Y-98875533D02*
X55419047Y-99018390D01*
X55419047Y-99018390D02*
X54847619Y-99589819D01*
X54847619Y-99589819D02*
X55466666Y-99589819D01*
X66007200Y-60983332D02*
X66054819Y-60840475D01*
X66054819Y-60840475D02*
X66054819Y-60602380D01*
X66054819Y-60602380D02*
X66007200Y-60507142D01*
X66007200Y-60507142D02*
X65959580Y-60459523D01*
X65959580Y-60459523D02*
X65864342Y-60411904D01*
X65864342Y-60411904D02*
X65769104Y-60411904D01*
X65769104Y-60411904D02*
X65673866Y-60459523D01*
X65673866Y-60459523D02*
X65626247Y-60507142D01*
X65626247Y-60507142D02*
X65578628Y-60602380D01*
X65578628Y-60602380D02*
X65531009Y-60792856D01*
X65531009Y-60792856D02*
X65483390Y-60888094D01*
X65483390Y-60888094D02*
X65435771Y-60935713D01*
X65435771Y-60935713D02*
X65340533Y-60983332D01*
X65340533Y-60983332D02*
X65245295Y-60983332D01*
X65245295Y-60983332D02*
X65150057Y-60935713D01*
X65150057Y-60935713D02*
X65102438Y-60888094D01*
X65102438Y-60888094D02*
X65054819Y-60792856D01*
X65054819Y-60792856D02*
X65054819Y-60554761D01*
X65054819Y-60554761D02*
X65102438Y-60411904D01*
X65054819Y-60078570D02*
X66054819Y-59840475D01*
X66054819Y-59840475D02*
X65340533Y-59649999D01*
X65340533Y-59649999D02*
X66054819Y-59459523D01*
X66054819Y-59459523D02*
X65054819Y-59221428D01*
X66054819Y-58316666D02*
X66054819Y-58888094D01*
X66054819Y-58602380D02*
X65054819Y-58602380D01*
X65054819Y-58602380D02*
X65197676Y-58697618D01*
X65197676Y-58697618D02*
X65292914Y-58792856D01*
X65292914Y-58792856D02*
X65340533Y-58888094D01*
X67259819Y-52145833D02*
X66259819Y-52145833D01*
X66259819Y-52145833D02*
X66259819Y-51764881D01*
X66259819Y-51764881D02*
X66307438Y-51669643D01*
X66307438Y-51669643D02*
X66355057Y-51622024D01*
X66355057Y-51622024D02*
X66450295Y-51574405D01*
X66450295Y-51574405D02*
X66593152Y-51574405D01*
X66593152Y-51574405D02*
X66688390Y-51622024D01*
X66688390Y-51622024D02*
X66736009Y-51669643D01*
X66736009Y-51669643D02*
X66783628Y-51764881D01*
X66783628Y-51764881D02*
X66783628Y-52145833D01*
X66259819Y-51241071D02*
X67259819Y-51002976D01*
X67259819Y-51002976D02*
X66545533Y-50812500D01*
X66545533Y-50812500D02*
X67259819Y-50622024D01*
X67259819Y-50622024D02*
X66259819Y-50383929D01*
X67259819Y-49431548D02*
X66783628Y-49764881D01*
X67259819Y-50002976D02*
X66259819Y-50002976D01*
X66259819Y-50002976D02*
X66259819Y-49622024D01*
X66259819Y-49622024D02*
X66307438Y-49526786D01*
X66307438Y-49526786D02*
X66355057Y-49479167D01*
X66355057Y-49479167D02*
X66450295Y-49431548D01*
X66450295Y-49431548D02*
X66593152Y-49431548D01*
X66593152Y-49431548D02*
X66688390Y-49479167D01*
X66688390Y-49479167D02*
X66736009Y-49526786D01*
X66736009Y-49526786D02*
X66783628Y-49622024D01*
X66783628Y-49622024D02*
X66783628Y-50002976D01*
X58961905Y-90854819D02*
X58961905Y-89854819D01*
X58961905Y-89854819D02*
X59200000Y-89854819D01*
X59200000Y-89854819D02*
X59342857Y-89902438D01*
X59342857Y-89902438D02*
X59438095Y-89997676D01*
X59438095Y-89997676D02*
X59485714Y-90092914D01*
X59485714Y-90092914D02*
X59533333Y-90283390D01*
X59533333Y-90283390D02*
X59533333Y-90426247D01*
X59533333Y-90426247D02*
X59485714Y-90616723D01*
X59485714Y-90616723D02*
X59438095Y-90711961D01*
X59438095Y-90711961D02*
X59342857Y-90807200D01*
X59342857Y-90807200D02*
X59200000Y-90854819D01*
X59200000Y-90854819D02*
X58961905Y-90854819D01*
X59866667Y-89854819D02*
X60485714Y-89854819D01*
X60485714Y-89854819D02*
X60152381Y-90235771D01*
X60152381Y-90235771D02*
X60295238Y-90235771D01*
X60295238Y-90235771D02*
X60390476Y-90283390D01*
X60390476Y-90283390D02*
X60438095Y-90331009D01*
X60438095Y-90331009D02*
X60485714Y-90426247D01*
X60485714Y-90426247D02*
X60485714Y-90664342D01*
X60485714Y-90664342D02*
X60438095Y-90759580D01*
X60438095Y-90759580D02*
X60390476Y-90807200D01*
X60390476Y-90807200D02*
X60295238Y-90854819D01*
X60295238Y-90854819D02*
X60009524Y-90854819D01*
X60009524Y-90854819D02*
X59914286Y-90807200D01*
X59914286Y-90807200D02*
X59866667Y-90759580D01*
X61516666Y-98766033D02*
X61516666Y-99266033D01*
X61516666Y-99266033D02*
X61483333Y-99366033D01*
X61483333Y-99366033D02*
X61416666Y-99432700D01*
X61416666Y-99432700D02*
X61316666Y-99466033D01*
X61316666Y-99466033D02*
X61250000Y-99466033D01*
X62149999Y-98999366D02*
X62149999Y-99466033D01*
X61983333Y-98732700D02*
X61816666Y-99232700D01*
X61816666Y-99232700D02*
X62249999Y-99232700D01*
X64938095Y-71154819D02*
X64938095Y-71964342D01*
X64938095Y-71964342D02*
X64985714Y-72059580D01*
X64985714Y-72059580D02*
X65033333Y-72107200D01*
X65033333Y-72107200D02*
X65128571Y-72154819D01*
X65128571Y-72154819D02*
X65319047Y-72154819D01*
X65319047Y-72154819D02*
X65414285Y-72107200D01*
X65414285Y-72107200D02*
X65461904Y-72059580D01*
X65461904Y-72059580D02*
X65509523Y-71964342D01*
X65509523Y-71964342D02*
X65509523Y-71154819D01*
X66509523Y-72154819D02*
X65938095Y-72154819D01*
X66223809Y-72154819D02*
X66223809Y-71154819D01*
X66223809Y-71154819D02*
X66128571Y-71297676D01*
X66128571Y-71297676D02*
X66033333Y-71392914D01*
X66033333Y-71392914D02*
X65938095Y-71440533D01*
X65866666Y-98589819D02*
X65866666Y-99304104D01*
X65866666Y-99304104D02*
X65819047Y-99446961D01*
X65819047Y-99446961D02*
X65723809Y-99542200D01*
X65723809Y-99542200D02*
X65580952Y-99589819D01*
X65580952Y-99589819D02*
X65485714Y-99589819D01*
X66247619Y-98589819D02*
X66866666Y-98589819D01*
X66866666Y-98589819D02*
X66533333Y-98970771D01*
X66533333Y-98970771D02*
X66676190Y-98970771D01*
X66676190Y-98970771D02*
X66771428Y-99018390D01*
X66771428Y-99018390D02*
X66819047Y-99066009D01*
X66819047Y-99066009D02*
X66866666Y-99161247D01*
X66866666Y-99161247D02*
X66866666Y-99399342D01*
X66866666Y-99399342D02*
X66819047Y-99494580D01*
X66819047Y-99494580D02*
X66771428Y-99542200D01*
X66771428Y-99542200D02*
X66676190Y-99589819D01*
X66676190Y-99589819D02*
X66390476Y-99589819D01*
X66390476Y-99589819D02*
X66295238Y-99542200D01*
X66295238Y-99542200D02*
X66247619Y-99494580D01*
X60206666Y-57239819D02*
X60206666Y-57954104D01*
X60206666Y-57954104D02*
X60159047Y-58096961D01*
X60159047Y-58096961D02*
X60063809Y-58192200D01*
X60063809Y-58192200D02*
X59920952Y-58239819D01*
X59920952Y-58239819D02*
X59825714Y-58239819D01*
X61206666Y-58239819D02*
X60635238Y-58239819D01*
X60920952Y-58239819D02*
X60920952Y-57239819D01*
X60920952Y-57239819D02*
X60825714Y-57382676D01*
X60825714Y-57382676D02*
X60730476Y-57477914D01*
X60730476Y-57477914D02*
X60635238Y-57525533D01*
X54764819Y-51475119D02*
X54288628Y-51808452D01*
X54764819Y-52046547D02*
X53764819Y-52046547D01*
X53764819Y-52046547D02*
X53764819Y-51665595D01*
X53764819Y-51665595D02*
X53812438Y-51570357D01*
X53812438Y-51570357D02*
X53860057Y-51522738D01*
X53860057Y-51522738D02*
X53955295Y-51475119D01*
X53955295Y-51475119D02*
X54098152Y-51475119D01*
X54098152Y-51475119D02*
X54193390Y-51522738D01*
X54193390Y-51522738D02*
X54241009Y-51570357D01*
X54241009Y-51570357D02*
X54288628Y-51665595D01*
X54288628Y-51665595D02*
X54288628Y-52046547D01*
X54717200Y-51094166D02*
X54764819Y-50951309D01*
X54764819Y-50951309D02*
X54764819Y-50713214D01*
X54764819Y-50713214D02*
X54717200Y-50617976D01*
X54717200Y-50617976D02*
X54669580Y-50570357D01*
X54669580Y-50570357D02*
X54574342Y-50522738D01*
X54574342Y-50522738D02*
X54479104Y-50522738D01*
X54479104Y-50522738D02*
X54383866Y-50570357D01*
X54383866Y-50570357D02*
X54336247Y-50617976D01*
X54336247Y-50617976D02*
X54288628Y-50713214D01*
X54288628Y-50713214D02*
X54241009Y-50903690D01*
X54241009Y-50903690D02*
X54193390Y-50998928D01*
X54193390Y-50998928D02*
X54145771Y-51046547D01*
X54145771Y-51046547D02*
X54050533Y-51094166D01*
X54050533Y-51094166D02*
X53955295Y-51094166D01*
X53955295Y-51094166D02*
X53860057Y-51046547D01*
X53860057Y-51046547D02*
X53812438Y-50998928D01*
X53812438Y-50998928D02*
X53764819Y-50903690D01*
X53764819Y-50903690D02*
X53764819Y-50665595D01*
X53764819Y-50665595D02*
X53812438Y-50522738D01*
X53764819Y-50237023D02*
X53764819Y-49665595D01*
X54764819Y-49951309D02*
X53764819Y-49951309D01*
X53888095Y-85704819D02*
X53888095Y-86514342D01*
X53888095Y-86514342D02*
X53935714Y-86609580D01*
X53935714Y-86609580D02*
X53983333Y-86657200D01*
X53983333Y-86657200D02*
X54078571Y-86704819D01*
X54078571Y-86704819D02*
X54269047Y-86704819D01*
X54269047Y-86704819D02*
X54364285Y-86657200D01*
X54364285Y-86657200D02*
X54411904Y-86609580D01*
X54411904Y-86609580D02*
X54459523Y-86514342D01*
X54459523Y-86514342D02*
X54459523Y-85704819D01*
X55364285Y-86038152D02*
X55364285Y-86704819D01*
X55126190Y-85657200D02*
X54888095Y-86371485D01*
X54888095Y-86371485D02*
X55507142Y-86371485D01*
X60613095Y-64089819D02*
X60613095Y-64899342D01*
X60613095Y-64899342D02*
X60660714Y-64994580D01*
X60660714Y-64994580D02*
X60708333Y-65042200D01*
X60708333Y-65042200D02*
X60803571Y-65089819D01*
X60803571Y-65089819D02*
X60994047Y-65089819D01*
X60994047Y-65089819D02*
X61089285Y-65042200D01*
X61089285Y-65042200D02*
X61136904Y-64994580D01*
X61136904Y-64994580D02*
X61184523Y-64899342D01*
X61184523Y-64899342D02*
X61184523Y-64089819D01*
X61613095Y-64185057D02*
X61660714Y-64137438D01*
X61660714Y-64137438D02*
X61755952Y-64089819D01*
X61755952Y-64089819D02*
X61994047Y-64089819D01*
X61994047Y-64089819D02*
X62089285Y-64137438D01*
X62089285Y-64137438D02*
X62136904Y-64185057D01*
X62136904Y-64185057D02*
X62184523Y-64280295D01*
X62184523Y-64280295D02*
X62184523Y-64375533D01*
X62184523Y-64375533D02*
X62136904Y-64518390D01*
X62136904Y-64518390D02*
X61565476Y-65089819D01*
X61565476Y-65089819D02*
X62184523Y-65089819D01*
D11*
%TO.C,U6*%
X61300000Y-86765000D02*
X61300000Y-86540000D01*
X61300000Y-90600000D02*
X61300000Y-90075000D01*
X61300000Y-90600000D02*
X61825000Y-90600000D01*
X61825000Y-86300000D02*
X61600000Y-86300000D01*
X65600000Y-86300000D02*
X65075000Y-86300000D01*
X65600000Y-86300000D02*
X65600000Y-86825000D01*
X65600000Y-90600000D02*
X65075000Y-90600000D01*
X65600000Y-90600000D02*
X65600000Y-90075000D01*
X61300000Y-86300000D02*
X61060000Y-85970000D01*
X61540000Y-85970000D01*
X61300000Y-86300000D01*
G36*
X61300000Y-86300000D02*
G01*
X61060000Y-85970000D01*
X61540000Y-85970000D01*
X61300000Y-86300000D01*
G37*
%TO.C,C19*%
X54807836Y-96240000D02*
X54592164Y-96240000D01*
X54807836Y-96960000D02*
X54592164Y-96960000D01*
%TO.C,C12*%
X59980000Y-66807836D02*
X59980000Y-66592164D01*
X60700000Y-66807836D02*
X60700000Y-66592164D01*
%TO.C,C17*%
X58067164Y-65765000D02*
X58282836Y-65765000D01*
X58067164Y-66485000D02*
X58282836Y-66485000D01*
%TO.C,R6*%
X65663641Y-62870000D02*
X65356359Y-62870000D01*
X65663641Y-63630000D02*
X65356359Y-63630000D01*
%TO.C,C13*%
X62340000Y-59999420D02*
X62340000Y-60280580D01*
X63360000Y-59999420D02*
X63360000Y-60280580D01*
D12*
%TO.C,G\u002A\u002A\u002A*%
G36*
X54877994Y-93467824D02*
G01*
X54908277Y-93483349D01*
X54925082Y-93503868D01*
X54932077Y-93536217D01*
X54933101Y-93570449D01*
X54936143Y-93615775D01*
X54944047Y-93668079D01*
X54949587Y-93693644D01*
X54958095Y-93744572D01*
X54960977Y-93798605D01*
X54959797Y-93822441D01*
X54947272Y-93876849D01*
X54920679Y-93944482D01*
X54882075Y-94021036D01*
X54833514Y-94102209D01*
X54807642Y-94141011D01*
X54781279Y-94180857D01*
X54760776Y-94214903D01*
X54749668Y-94237182D01*
X54748737Y-94240412D01*
X54750078Y-94261341D01*
X54756805Y-94296565D01*
X54765059Y-94329477D01*
X54775336Y-94386690D01*
X54771051Y-94428566D01*
X54752990Y-94453595D01*
X54721934Y-94460264D01*
X54699682Y-94455587D01*
X54682327Y-94448117D01*
X54669573Y-94435354D01*
X54657521Y-94411518D01*
X54642271Y-94370827D01*
X54642013Y-94370100D01*
X54625002Y-94316818D01*
X54615727Y-94269998D01*
X54615026Y-94225276D01*
X54623741Y-94178288D01*
X54642715Y-94124668D01*
X54672786Y-94060053D01*
X54714798Y-93980077D01*
X54718490Y-93973270D01*
X54749923Y-93908512D01*
X54773759Y-93845506D01*
X54788755Y-93788919D01*
X54793661Y-93743415D01*
X54787659Y-93714373D01*
X54765200Y-93655547D01*
X54757524Y-93589110D01*
X54761609Y-93546539D01*
X54779499Y-93498966D01*
X54808910Y-93469761D01*
X54847052Y-93460812D01*
X54877994Y-93467824D01*
G37*
G36*
X54363664Y-93410559D02*
G01*
X54389057Y-93429516D01*
X54391481Y-93433181D01*
X54390988Y-93448913D01*
X54384438Y-93483409D01*
X54372940Y-93532720D01*
X54357603Y-93592898D01*
X54339539Y-93659994D01*
X54319856Y-93730061D01*
X54299666Y-93799149D01*
X54280080Y-93863310D01*
X54262205Y-93918599D01*
X54247153Y-93961062D01*
X54236035Y-93986754D01*
X54235641Y-93987461D01*
X54211549Y-94024100D01*
X54179899Y-94065160D01*
X54162777Y-94084967D01*
X54136444Y-94115981D01*
X54117385Y-94142378D01*
X54111232Y-94154348D01*
X54111366Y-94174465D01*
X54116578Y-94210277D01*
X54125773Y-94254477D01*
X54127088Y-94259981D01*
X54137193Y-94326111D01*
X54132289Y-94376542D01*
X54113052Y-94410105D01*
X54080161Y-94425627D01*
X54034295Y-94421937D01*
X54033438Y-94421710D01*
X54003213Y-94409295D01*
X53983737Y-94393586D01*
X53982996Y-94392393D01*
X53973101Y-94368214D01*
X53960492Y-94328694D01*
X53947321Y-94281805D01*
X53935742Y-94235521D01*
X53927906Y-94197813D01*
X53925791Y-94180483D01*
X53935649Y-94120328D01*
X53967821Y-94056229D01*
X54011154Y-94000971D01*
X54044196Y-93962722D01*
X54073590Y-93925387D01*
X54092469Y-93897833D01*
X54108348Y-93865860D01*
X54130493Y-93814211D01*
X54157744Y-93745833D01*
X54188942Y-93663680D01*
X54222924Y-93570701D01*
X54240279Y-93521972D01*
X54262338Y-93466418D01*
X54283150Y-93427000D01*
X54300577Y-93407458D01*
X54330094Y-93402051D01*
X54363664Y-93410559D01*
G37*
G36*
X54600747Y-93443160D02*
G01*
X54628397Y-93460968D01*
X54640318Y-93495659D01*
X54636600Y-93547705D01*
X54628103Y-93583260D01*
X54614637Y-93640064D01*
X54603619Y-93702516D01*
X54598666Y-93744118D01*
X54590785Y-93810527D01*
X54577265Y-93866812D01*
X54555056Y-93922453D01*
X54521110Y-93986934D01*
X54519908Y-93989051D01*
X54481238Y-94059026D01*
X54454316Y-94113850D01*
X54437829Y-94158287D01*
X54430464Y-94197104D01*
X54430909Y-94235064D01*
X54437850Y-94276931D01*
X54439063Y-94282466D01*
X54448146Y-94354851D01*
X54441719Y-94426839D01*
X54418737Y-94502491D01*
X54378150Y-94585863D01*
X54347466Y-94637238D01*
X54309549Y-94702330D01*
X54287352Y-94753969D01*
X54280165Y-94795946D01*
X54287283Y-94832052D01*
X54305368Y-94862706D01*
X54324407Y-94904762D01*
X54320736Y-94947534D01*
X54294875Y-94985977D01*
X54273798Y-94999740D01*
X54247405Y-95001189D01*
X54219599Y-94995181D01*
X54192023Y-94986709D01*
X54173252Y-94975679D01*
X54157572Y-94956426D01*
X54139270Y-94923290D01*
X54131399Y-94907788D01*
X54111470Y-94864003D01*
X54099542Y-94824126D01*
X54096382Y-94784563D01*
X54102758Y-94741719D01*
X54119433Y-94692002D01*
X54147177Y-94631815D01*
X54186754Y-94557566D01*
X54217838Y-94502423D01*
X54245379Y-94451823D01*
X54261439Y-94412610D01*
X54267478Y-94376174D01*
X54264956Y-94333904D01*
X54255682Y-94279062D01*
X54251882Y-94203147D01*
X54268336Y-94120250D01*
X54305415Y-94029095D01*
X54353711Y-93943717D01*
X54391967Y-93879222D01*
X54419052Y-93823142D01*
X54439187Y-93765714D01*
X54452426Y-93715202D01*
X54478170Y-93616829D01*
X54503581Y-93541276D01*
X54529192Y-93487566D01*
X54555538Y-93454717D01*
X54583151Y-93441751D01*
X54600747Y-93443160D01*
G37*
G36*
X55252704Y-91051212D02*
G01*
X55326882Y-91086999D01*
X55389213Y-91142611D01*
X55396354Y-91151158D01*
X55441389Y-91222266D01*
X55471214Y-91306747D01*
X55486989Y-91407907D01*
X55487143Y-91409778D01*
X55488147Y-91504006D01*
X55475882Y-91587452D01*
X55451128Y-91655989D01*
X55435752Y-91681388D01*
X55408689Y-91709199D01*
X55365739Y-91742246D01*
X55313046Y-91776717D01*
X55256753Y-91808796D01*
X55203004Y-91834674D01*
X55167498Y-91847887D01*
X55126154Y-91851179D01*
X55073118Y-91842533D01*
X55015804Y-91824233D01*
X54961625Y-91798560D01*
X54923756Y-91772800D01*
X54892314Y-91748458D01*
X54865151Y-91730455D01*
X54855717Y-91725668D01*
X54823677Y-91703152D01*
X54790981Y-91659745D01*
X54756950Y-91594408D01*
X54748632Y-91574682D01*
X54732608Y-91536687D01*
X54702552Y-91449282D01*
X54687938Y-91375756D01*
X54688609Y-91331645D01*
X54872945Y-91331645D01*
X54873748Y-91344972D01*
X54886287Y-91413397D01*
X54912493Y-91480077D01*
X54949283Y-91541260D01*
X54993574Y-91593197D01*
X55042286Y-91632134D01*
X55092335Y-91654322D01*
X55130588Y-91657560D01*
X55178126Y-91644816D01*
X55226183Y-91618941D01*
X55267501Y-91585104D01*
X55294820Y-91548470D01*
X55299278Y-91537465D01*
X55306854Y-91490807D01*
X55306614Y-91432795D01*
X55299495Y-91373048D01*
X55286434Y-91321186D01*
X55275898Y-91297447D01*
X55236426Y-91251567D01*
X55183204Y-91224025D01*
X55119462Y-91216456D01*
X55116391Y-91216613D01*
X55076578Y-91217570D01*
X55043145Y-91216121D01*
X55033957Y-91214860D01*
X55009816Y-91217137D01*
X54974537Y-91232872D01*
X54939550Y-91253780D01*
X54903227Y-91277537D01*
X54882845Y-91294518D01*
X54874163Y-91310596D01*
X54872945Y-91331645D01*
X54688609Y-91331645D01*
X54688912Y-91311734D01*
X54705618Y-91252841D01*
X54738200Y-91194704D01*
X54744195Y-91186154D01*
X54785930Y-91140501D01*
X54840684Y-91104076D01*
X54912744Y-91074341D01*
X54954294Y-91061823D01*
X55066888Y-91038720D01*
X55166198Y-91035151D01*
X55252704Y-91051212D01*
G37*
G36*
X55685921Y-89798945D02*
G01*
X55689496Y-89799881D01*
X55717211Y-89811859D01*
X55734335Y-89834441D01*
X55741217Y-89851054D01*
X55752180Y-89879262D01*
X55769738Y-89922756D01*
X55791190Y-89974894D01*
X55807590Y-90014203D01*
X55855921Y-90131605D01*
X55894579Y-90230879D01*
X55924649Y-90315144D01*
X55947216Y-90387520D01*
X55963368Y-90451125D01*
X55968787Y-90477487D01*
X55985061Y-90591120D01*
X55994850Y-90722427D01*
X55998388Y-90866234D01*
X55995909Y-91017366D01*
X55987644Y-91170647D01*
X55973827Y-91320902D01*
X55954690Y-91462957D01*
X55930465Y-91591636D01*
X55916006Y-91651282D01*
X55902800Y-91705225D01*
X55897127Y-91741302D01*
X55898641Y-91764122D01*
X55906548Y-91777850D01*
X55919229Y-91797748D01*
X55938330Y-91837066D01*
X55962560Y-91892690D01*
X55990630Y-91961507D01*
X56021250Y-92040402D01*
X56053130Y-92126261D01*
X56067825Y-92167132D01*
X56106381Y-92275499D01*
X56045733Y-92501811D01*
X56024322Y-92579163D01*
X56002001Y-92655405D01*
X55980503Y-92724919D01*
X55961558Y-92782087D01*
X55947988Y-92818675D01*
X55910660Y-92912753D01*
X55877797Y-93002743D01*
X55846740Y-93096471D01*
X55814835Y-93201756D01*
X55797615Y-93261595D01*
X55774705Y-93338697D01*
X55755033Y-93394991D01*
X55736969Y-93432982D01*
X55718879Y-93455174D01*
X55699135Y-93464072D01*
X55676103Y-93462182D01*
X55668439Y-93459928D01*
X55627386Y-93436583D01*
X55581396Y-93393342D01*
X55532581Y-93333058D01*
X55483052Y-93258583D01*
X55434923Y-93172772D01*
X55396429Y-93092460D01*
X55355638Y-93000568D01*
X55326784Y-93061141D01*
X55312223Y-93096596D01*
X55305031Y-93124294D01*
X55305652Y-93135089D01*
X55308478Y-93160976D01*
X55296327Y-93192206D01*
X55273381Y-93219976D01*
X55261172Y-93228700D01*
X55235495Y-93238245D01*
X55205009Y-93236626D01*
X55164799Y-93224674D01*
X55100803Y-93201955D01*
X55076611Y-93246918D01*
X55062691Y-93276135D01*
X55056497Y-93296053D01*
X55056815Y-93299497D01*
X55057228Y-93314533D01*
X55053630Y-93345159D01*
X55049201Y-93371523D01*
X55038925Y-93413084D01*
X55024661Y-93438691D01*
X55002773Y-93455805D01*
X54989352Y-93461991D01*
X54973578Y-93464987D01*
X54952987Y-93464081D01*
X54925108Y-93458564D01*
X54887473Y-93447723D01*
X54837618Y-93430847D01*
X54773074Y-93407226D01*
X54691374Y-93376148D01*
X54590048Y-93336903D01*
X54589717Y-93336774D01*
X54521794Y-93311010D01*
X54456993Y-93287639D01*
X54400470Y-93268431D01*
X54357387Y-93255159D01*
X54338469Y-93250445D01*
X54298836Y-93239928D01*
X54273856Y-93224832D01*
X54272998Y-93224313D01*
X54259776Y-93199930D01*
X54257994Y-93163113D01*
X54264035Y-93125409D01*
X54435459Y-93125409D01*
X54437188Y-93130532D01*
X54446978Y-93143228D01*
X54461831Y-93153322D01*
X54486051Y-93162299D01*
X54523945Y-93171644D01*
X54579816Y-93182843D01*
X54599752Y-93186603D01*
X54652290Y-93197233D01*
X54699787Y-93208249D01*
X54734540Y-93217813D01*
X54743013Y-93220768D01*
X54773804Y-93231938D01*
X54816625Y-93246280D01*
X54850323Y-93256985D01*
X54922284Y-93279233D01*
X54934184Y-93235148D01*
X54945754Y-93199546D01*
X54958324Y-93170740D01*
X54959740Y-93168257D01*
X54965715Y-93155216D01*
X54961883Y-93145454D01*
X54944128Y-93135381D01*
X54908334Y-93121408D01*
X54904337Y-93119929D01*
X54857098Y-93102276D01*
X54800142Y-93080718D01*
X54746850Y-93060325D01*
X54681912Y-93036186D01*
X54619240Y-93014481D01*
X54562991Y-92996489D01*
X54517320Y-92983485D01*
X54486380Y-92976750D01*
X54475013Y-92976740D01*
X54463669Y-92993199D01*
X54451944Y-93024821D01*
X54441936Y-93063080D01*
X54435742Y-93099451D01*
X54435459Y-93125409D01*
X54264035Y-93125409D01*
X54266473Y-93110189D01*
X54277865Y-93061670D01*
X54308402Y-92939839D01*
X54268136Y-92925739D01*
X54228329Y-92902999D01*
X54219801Y-92889343D01*
X54205846Y-92866994D01*
X54198585Y-92816027D01*
X54198344Y-92795667D01*
X54380961Y-92795667D01*
X54381203Y-92796157D01*
X54393930Y-92801297D01*
X54425820Y-92809988D01*
X54472669Y-92821198D01*
X54530271Y-92833894D01*
X54559616Y-92840030D01*
X54632669Y-92856423D01*
X54708292Y-92875729D01*
X54778230Y-92895704D01*
X54834232Y-92914099D01*
X54841032Y-92916626D01*
X54904014Y-92940193D01*
X54973870Y-92965809D01*
X55037503Y-92988680D01*
X55049419Y-92992885D01*
X55150089Y-93028254D01*
X55165296Y-92974719D01*
X55167367Y-92967425D01*
X55184645Y-92906597D01*
X55114712Y-92896140D01*
X55000380Y-92872800D01*
X54876929Y-92835227D01*
X54862967Y-92829796D01*
X55397260Y-92829796D01*
X55400161Y-92839119D01*
X55406524Y-92847292D01*
X55409036Y-92849990D01*
X55422126Y-92867236D01*
X55445150Y-92900908D01*
X55475565Y-92947149D01*
X55510821Y-93002103D01*
X55538847Y-93046612D01*
X55574601Y-93103262D01*
X55606003Y-93151885D01*
X55630926Y-93189281D01*
X55647244Y-93212246D01*
X55652723Y-93218058D01*
X55657607Y-93206282D01*
X55668062Y-93175396D01*
X55682891Y-93129129D01*
X55700897Y-93071204D01*
X55717832Y-93015494D01*
X55739964Y-92943531D01*
X55762381Y-92873357D01*
X55783177Y-92810753D01*
X55800446Y-92761501D01*
X55808822Y-92739519D01*
X55828006Y-92685455D01*
X55846201Y-92623231D01*
X55857031Y-92577590D01*
X55868417Y-92524828D01*
X55883243Y-92460831D01*
X55898766Y-92397364D01*
X55902706Y-92381899D01*
X55915609Y-92329658D01*
X55922100Y-92293292D01*
X55922160Y-92265735D01*
X55915774Y-92239918D01*
X55902924Y-92208776D01*
X55902275Y-92207321D01*
X55883264Y-92169286D01*
X55864411Y-92138875D01*
X55853687Y-92126348D01*
X55844044Y-92120395D01*
X55834900Y-92122534D01*
X55823700Y-92135999D01*
X55807887Y-92164024D01*
X55784906Y-92209842D01*
X55780339Y-92219151D01*
X55756592Y-92263273D01*
X55722061Y-92321655D01*
X55679901Y-92389249D01*
X55633267Y-92461005D01*
X55585317Y-92531874D01*
X55580315Y-92539089D01*
X55523505Y-92620873D01*
X55479027Y-92685407D01*
X55445613Y-92734987D01*
X55421997Y-92771917D01*
X55406911Y-92798495D01*
X55399088Y-92817020D01*
X55397260Y-92829796D01*
X54862967Y-92829796D01*
X54740958Y-92782337D01*
X54696537Y-92763019D01*
X54614469Y-92727587D01*
X54550779Y-92702759D01*
X54502860Y-92687881D01*
X54468101Y-92682298D01*
X54443894Y-92685358D01*
X54428229Y-92695744D01*
X54410614Y-92719928D01*
X54394219Y-92750292D01*
X54383013Y-92778361D01*
X54380961Y-92795667D01*
X54198344Y-92795667D01*
X54198042Y-92770202D01*
X54096162Y-92811294D01*
X54039372Y-92832851D01*
X53975047Y-92855076D01*
X53907359Y-92876779D01*
X53883069Y-92884038D01*
X53840474Y-92896768D01*
X53778561Y-92913855D01*
X53725791Y-92926846D01*
X53686330Y-92934553D01*
X53664348Y-92935785D01*
X53662439Y-92935161D01*
X53648090Y-92925678D01*
X53638450Y-92912815D01*
X53633842Y-92893886D01*
X53634593Y-92866200D01*
X53635233Y-92862302D01*
X53641025Y-92827068D01*
X53653255Y-92774690D01*
X53786981Y-92774690D01*
X53865864Y-92746823D01*
X53946228Y-92715840D01*
X54036857Y-92676700D01*
X54127836Y-92633892D01*
X54209246Y-92591904D01*
X54214418Y-92589063D01*
X54288098Y-92548394D01*
X54278178Y-92475057D01*
X54273153Y-92427051D01*
X54271115Y-92388635D01*
X54452922Y-92388635D01*
X54456662Y-92450050D01*
X54459234Y-92468043D01*
X54472690Y-92543621D01*
X54527754Y-92549330D01*
X54558973Y-92555510D01*
X54606644Y-92568528D01*
X54664995Y-92586658D01*
X54728253Y-92608170D01*
X54748070Y-92615297D01*
X54813515Y-92638586D01*
X54877527Y-92660349D01*
X54933704Y-92678477D01*
X54975648Y-92690861D01*
X54983390Y-92692869D01*
X55033397Y-92703618D01*
X55089932Y-92713233D01*
X55148007Y-92721188D01*
X55202633Y-92726957D01*
X55248824Y-92730015D01*
X55281591Y-92729831D01*
X55295949Y-92725885D01*
X55295968Y-92725851D01*
X55304867Y-92709243D01*
X55320927Y-92678768D01*
X55336658Y-92648710D01*
X55355020Y-92616373D01*
X55383618Y-92569438D01*
X55419268Y-92512982D01*
X55458785Y-92452079D01*
X55482119Y-92416871D01*
X55567897Y-92280146D01*
X55635225Y-92153505D01*
X55685457Y-92033793D01*
X55719940Y-91917856D01*
X55737979Y-91819156D01*
X55742673Y-91786113D01*
X55750171Y-91736303D01*
X55759444Y-91676461D01*
X55769460Y-91613324D01*
X55769516Y-91612978D01*
X55803686Y-91340274D01*
X55820786Y-91055231D01*
X55821215Y-91039561D01*
X55822040Y-90980801D01*
X55821813Y-90916402D01*
X55820687Y-90851094D01*
X55818811Y-90789605D01*
X55816339Y-90736668D01*
X55813425Y-90697009D01*
X55810216Y-90675362D01*
X55809461Y-90673443D01*
X55798275Y-90673617D01*
X55790002Y-90677498D01*
X55766053Y-90684197D01*
X55724054Y-90689211D01*
X55669714Y-90692454D01*
X55608743Y-90693848D01*
X55546851Y-90693307D01*
X55489752Y-90690751D01*
X55443154Y-90686099D01*
X55424620Y-90682744D01*
X55318623Y-90650973D01*
X55208943Y-90604826D01*
X55127534Y-90561525D01*
X55091891Y-90541884D01*
X55064437Y-90529266D01*
X55051431Y-90526398D01*
X55036764Y-90539960D01*
X55011143Y-90568585D01*
X54977823Y-90608225D01*
X54940058Y-90654830D01*
X54901104Y-90704349D01*
X54864214Y-90752734D01*
X54832643Y-90795934D01*
X54819010Y-90815597D01*
X54770041Y-90890706D01*
X54725624Y-90963687D01*
X54687900Y-91030660D01*
X54659015Y-91087748D01*
X54641114Y-91131070D01*
X54637415Y-91144102D01*
X54629241Y-91172742D01*
X54614456Y-91216967D01*
X54595312Y-91270258D01*
X54578213Y-91315447D01*
X54549481Y-91391787D01*
X54529652Y-91450376D01*
X54517693Y-91495113D01*
X54512566Y-91529887D01*
X54513241Y-91558598D01*
X54513373Y-91559662D01*
X54513323Y-91581179D01*
X54510768Y-91621996D01*
X54506074Y-91677767D01*
X54499604Y-91744150D01*
X54491875Y-91815478D01*
X54476747Y-91958594D01*
X54465183Y-92089566D01*
X54457287Y-92206295D01*
X54453165Y-92306685D01*
X54452922Y-92388635D01*
X54271115Y-92388635D01*
X54270716Y-92381108D01*
X54270963Y-92356958D01*
X54277103Y-92280456D01*
X54286835Y-92188693D01*
X54299144Y-92089321D01*
X54313016Y-91989992D01*
X54327437Y-91898358D01*
X54341392Y-91822072D01*
X54342721Y-91815592D01*
X54373538Y-91667172D01*
X54320764Y-91693476D01*
X54281095Y-91717728D01*
X54238424Y-91750432D01*
X54217718Y-91769193D01*
X54190139Y-91799613D01*
X54169598Y-91832161D01*
X54152088Y-91874409D01*
X54137302Y-91921199D01*
X54077757Y-92086089D01*
X53997549Y-92247855D01*
X53997111Y-92248628D01*
X53979411Y-92283935D01*
X53956535Y-92335568D01*
X53931089Y-92397346D01*
X53905680Y-92463086D01*
X53898460Y-92482636D01*
X53874524Y-92547779D01*
X53851206Y-92610429D01*
X53830756Y-92664596D01*
X53815425Y-92704285D01*
X53811953Y-92712987D01*
X53786981Y-92774690D01*
X53653255Y-92774690D01*
X53653462Y-92773802D01*
X53672230Y-92703713D01*
X53697651Y-92614111D01*
X53703688Y-92593179D01*
X53732230Y-92494641D01*
X53755357Y-92415772D01*
X53774178Y-92353337D01*
X53789807Y-92304100D01*
X53803352Y-92264827D01*
X53815927Y-92232282D01*
X53828643Y-92203228D01*
X53842609Y-92174432D01*
X53857462Y-92145495D01*
X53879892Y-92098785D01*
X53905118Y-92040810D01*
X53928266Y-91982851D01*
X53931738Y-91973555D01*
X53956881Y-91905850D01*
X53975536Y-91857155D01*
X53989239Y-91824060D01*
X53999529Y-91803151D01*
X54007938Y-91791018D01*
X54016006Y-91784245D01*
X54017311Y-91783462D01*
X54032370Y-91770484D01*
X54058208Y-91744130D01*
X54090203Y-91709193D01*
X54103607Y-91693983D01*
X54148587Y-91647093D01*
X54204369Y-91595781D01*
X54261692Y-91548463D01*
X54274151Y-91539006D01*
X54375136Y-91463848D01*
X54402666Y-91368636D01*
X54433671Y-91261967D01*
X54459649Y-91174732D01*
X54482026Y-91103432D01*
X54502223Y-91044574D01*
X54521664Y-90994662D01*
X54541772Y-90950203D01*
X54563968Y-90907699D01*
X54589677Y-90863658D01*
X54620319Y-90814582D01*
X54641957Y-90780812D01*
X54685542Y-90713877D01*
X54724306Y-90656538D01*
X54729185Y-90649713D01*
X54761843Y-90604034D01*
X54801751Y-90551605D01*
X54847624Y-90494489D01*
X54903058Y-90427928D01*
X54920966Y-90406809D01*
X55149908Y-90406809D01*
X55158456Y-90417571D01*
X55185021Y-90433082D01*
X55224778Y-90451356D01*
X55272903Y-90470402D01*
X55324568Y-90488235D01*
X55374950Y-90502863D01*
X55394268Y-90507507D01*
X55474654Y-90520011D01*
X55563352Y-90525032D01*
X55650541Y-90522488D01*
X55726393Y-90512301D01*
X55735489Y-90510274D01*
X55784227Y-90498745D01*
X55772995Y-90448457D01*
X55764580Y-90420166D01*
X55748723Y-90375060D01*
X55727317Y-90318231D01*
X55702260Y-90254772D01*
X55687261Y-90218052D01*
X55661738Y-90157539D01*
X55638795Y-90105368D01*
X55620147Y-90065269D01*
X55607513Y-90040972D01*
X55603215Y-90035376D01*
X55589196Y-90041306D01*
X55560415Y-90060379D01*
X55520008Y-90090026D01*
X55471109Y-90127678D01*
X55416857Y-90170766D01*
X55360384Y-90216720D01*
X55304828Y-90262970D01*
X55253324Y-90306949D01*
X55209008Y-90346085D01*
X55175015Y-90377812D01*
X55154481Y-90399558D01*
X55149908Y-90406809D01*
X54920966Y-90406809D01*
X54953041Y-90368982D01*
X55024361Y-90291566D01*
X55112063Y-90206568D01*
X55211638Y-90117842D01*
X55318575Y-90029237D01*
X55428363Y-89944606D01*
X55536494Y-89867799D01*
X55552655Y-89856948D01*
X55598716Y-89826687D01*
X55630104Y-89807827D01*
X55651789Y-89798299D01*
X55668740Y-89796028D01*
X55685921Y-89798945D01*
G37*
D11*
%TO.C,C9*%
X56740000Y-94772164D02*
X56740000Y-94987836D01*
X57460000Y-94772164D02*
X57460000Y-94987836D01*
%TO.C,C23*%
X64782164Y-82010000D02*
X64997836Y-82010000D01*
X64782164Y-82730000D02*
X64997836Y-82730000D01*
%TO.C,U5*%
X55689432Y-66965000D02*
X58485000Y-66965000D01*
X58485000Y-69235000D02*
X55265000Y-69235000D01*
X55395000Y-66960000D02*
X55255000Y-66770000D01*
X55535000Y-66770000D01*
X55395000Y-66960000D01*
G36*
X55395000Y-66960000D02*
G01*
X55255000Y-66770000D01*
X55535000Y-66770000D01*
X55395000Y-66960000D01*
G37*
%TO.C,C2*%
X62750000Y-66902164D02*
X62750000Y-67117836D01*
X63470000Y-66902164D02*
X63470000Y-67117836D01*
%TO.C,R8*%
X57326359Y-89370000D02*
X57633641Y-89370000D01*
X57326359Y-90130000D02*
X57633641Y-90130000D01*
D12*
%TO.C,G\u002A\u002A\u002A*%
G36*
X54630853Y-73696379D02*
G01*
X54639998Y-73725998D01*
X54647573Y-73773235D01*
X54650367Y-73796777D01*
X54658544Y-73860699D01*
X54668489Y-73915986D01*
X54681817Y-73968497D01*
X54700142Y-74024092D01*
X54725080Y-74088629D01*
X54742254Y-74130190D01*
X54764572Y-74182449D01*
X54782737Y-74221047D01*
X54800069Y-74251096D01*
X54819889Y-74277710D01*
X54845519Y-74305999D01*
X54877346Y-74338162D01*
X54915316Y-74374254D01*
X54953357Y-74407564D01*
X54986362Y-74433762D01*
X55004531Y-74446018D01*
X55064533Y-74474260D01*
X55140806Y-74499614D01*
X55229514Y-74521165D01*
X55326817Y-74537999D01*
X55428877Y-74549199D01*
X55441245Y-74550120D01*
X55486510Y-74554151D01*
X55515481Y-74559160D01*
X55532071Y-74566109D01*
X55539362Y-74574264D01*
X55542293Y-74597765D01*
X55536029Y-74609810D01*
X55529813Y-74616112D01*
X55519470Y-74621867D01*
X55502663Y-74627592D01*
X55477054Y-74633800D01*
X55440304Y-74641006D01*
X55390076Y-74649725D01*
X55324031Y-74660471D01*
X55259569Y-74670664D01*
X55175456Y-74685047D01*
X55106744Y-74699722D01*
X55048651Y-74715980D01*
X54996395Y-74735110D01*
X54958811Y-74751808D01*
X54916159Y-74773879D01*
X54883699Y-74796389D01*
X54853948Y-74825313D01*
X54827285Y-74856818D01*
X54783135Y-74919632D01*
X54754820Y-74978462D01*
X54752544Y-74985225D01*
X54723503Y-75076658D01*
X54700083Y-75151620D01*
X54681581Y-75212832D01*
X54667295Y-75263014D01*
X54656521Y-75304886D01*
X54648558Y-75341170D01*
X54642702Y-75374586D01*
X54638251Y-75407854D01*
X54634715Y-75441472D01*
X54628497Y-75486194D01*
X54618658Y-75514248D01*
X54602756Y-75529134D01*
X54578350Y-75534358D01*
X54569838Y-75534566D01*
X54549615Y-75525819D01*
X54534448Y-75501053D01*
X54526360Y-75476605D01*
X54516174Y-75438558D01*
X54505502Y-75393176D01*
X54499975Y-75367182D01*
X54477093Y-75265970D01*
X54450635Y-75167648D01*
X54421741Y-75075541D01*
X54391550Y-74992970D01*
X54361199Y-74923261D01*
X54331829Y-74869735D01*
X54326997Y-74862457D01*
X54295358Y-74820552D01*
X54261600Y-74785591D01*
X54223284Y-74756576D01*
X54177971Y-74732509D01*
X54123221Y-74712392D01*
X54056594Y-74695225D01*
X53975652Y-74680010D01*
X53877955Y-74665749D01*
X53832139Y-74659903D01*
X53767383Y-74651097D01*
X53721043Y-74642596D01*
X53691355Y-74633624D01*
X53676559Y-74623404D01*
X53674891Y-74611161D01*
X53684589Y-74596118D01*
X53685355Y-74595262D01*
X53710032Y-74579439D01*
X53746210Y-74574741D01*
X53808210Y-74568460D01*
X53880387Y-74550955D01*
X53958453Y-74524232D01*
X54038122Y-74490298D01*
X54115105Y-74451159D01*
X54185117Y-74408823D01*
X54243869Y-74365296D01*
X54287074Y-74322583D01*
X54288358Y-74320994D01*
X54310485Y-74292377D01*
X54329773Y-74264594D01*
X54348159Y-74234094D01*
X54367580Y-74197322D01*
X54389972Y-74150725D01*
X54417271Y-74090749D01*
X54432796Y-74055915D01*
X54473706Y-73960786D01*
X54505125Y-73880858D01*
X54527851Y-73813939D01*
X54542683Y-73757839D01*
X54544536Y-73748924D01*
X54560317Y-73715249D01*
X54581428Y-73694579D01*
X54602826Y-73682533D01*
X54618882Y-73682511D01*
X54630853Y-73696379D01*
G37*
D11*
%TO.C,C16*%
X56040000Y-82412164D02*
X56040000Y-82627836D01*
X56760000Y-82412164D02*
X56760000Y-82627836D01*
%TO.C,C3*%
X59857836Y-79800000D02*
X59642164Y-79800000D01*
X59857836Y-80520000D02*
X59642164Y-80520000D01*
D12*
%TO.C,G\u002A\u002A\u002A*%
G36*
X55615423Y-75348278D02*
G01*
X55619995Y-75363085D01*
X55623782Y-75386699D01*
X55625179Y-75398468D01*
X55629266Y-75430422D01*
X55634238Y-75458060D01*
X55640900Y-75484311D01*
X55650061Y-75512102D01*
X55662527Y-75544364D01*
X55671113Y-75565141D01*
X55682270Y-75591265D01*
X55691350Y-75610561D01*
X55700014Y-75625582D01*
X55709923Y-75638886D01*
X55722735Y-75653028D01*
X55738645Y-75669106D01*
X55757626Y-75687149D01*
X55776643Y-75703801D01*
X55793142Y-75716897D01*
X55802225Y-75723023D01*
X55832220Y-75737142D01*
X55870349Y-75749816D01*
X55914694Y-75760590D01*
X55963336Y-75769005D01*
X56014356Y-75774604D01*
X56020539Y-75775064D01*
X56043167Y-75777079D01*
X56057649Y-75779583D01*
X56065943Y-75783057D01*
X56069587Y-75787134D01*
X56071053Y-75798882D01*
X56067921Y-75804903D01*
X56064814Y-75808054D01*
X56059643Y-75810931D01*
X56051242Y-75813793D01*
X56038440Y-75816896D01*
X56020068Y-75820498D01*
X55994959Y-75824857D01*
X55961943Y-75830229D01*
X55929719Y-75835324D01*
X55887671Y-75842514D01*
X55853321Y-75849850D01*
X55824280Y-75857978D01*
X55798158Y-75867541D01*
X55779370Y-75875888D01*
X55758048Y-75886921D01*
X55741821Y-75898174D01*
X55726949Y-75912633D01*
X55713620Y-75928383D01*
X55691549Y-75959784D01*
X55677394Y-75989193D01*
X55676257Y-75992573D01*
X55661739Y-76038281D01*
X55650031Y-76075755D01*
X55640782Y-76106354D01*
X55633641Y-76131440D01*
X55628255Y-76152372D01*
X55624274Y-76170511D01*
X55621346Y-76187215D01*
X55619121Y-76203846D01*
X55617354Y-76220651D01*
X55614245Y-76243008D01*
X55609327Y-76257032D01*
X55601377Y-76264474D01*
X55589177Y-76267085D01*
X55584922Y-76267189D01*
X55574812Y-76262817D01*
X55567230Y-76250436D01*
X55563187Y-76238215D01*
X55558095Y-76219195D01*
X55552760Y-76196508D01*
X55549997Y-76183514D01*
X55538558Y-76132918D01*
X55525332Y-76083767D01*
X55510888Y-76037722D01*
X55495795Y-75996445D01*
X55480623Y-75961598D01*
X55465941Y-75934840D01*
X55463525Y-75931202D01*
X55447709Y-75910253D01*
X55430834Y-75892776D01*
X55411679Y-75878272D01*
X55389027Y-75866241D01*
X55361658Y-75856184D01*
X55328351Y-75847602D01*
X55287888Y-75839996D01*
X55239049Y-75832867D01*
X55216146Y-75829945D01*
X55183774Y-75825543D01*
X55160609Y-75821293D01*
X55145768Y-75816808D01*
X55138371Y-75811699D01*
X55137537Y-75805579D01*
X55142385Y-75798059D01*
X55142768Y-75797631D01*
X55155104Y-75789721D01*
X55173190Y-75787372D01*
X55204184Y-75784232D01*
X55240265Y-75775482D01*
X55279290Y-75762123D01*
X55319117Y-75745159D01*
X55357601Y-75725594D01*
X55392599Y-75704430D01*
X55421970Y-75682670D01*
X55443568Y-75661319D01*
X55444210Y-75660524D01*
X55455271Y-75646218D01*
X55464913Y-75632330D01*
X55474105Y-75617083D01*
X55483813Y-75598700D01*
X55495007Y-75575406D01*
X55508653Y-75545424D01*
X55516415Y-75528011D01*
X55536865Y-75480456D01*
X55552572Y-75440500D01*
X55563933Y-75407047D01*
X55571347Y-75379003D01*
X55572273Y-75374546D01*
X55580162Y-75357712D01*
X55590715Y-75347379D01*
X55601412Y-75341357D01*
X55609439Y-75341346D01*
X55615423Y-75348278D01*
G37*
D11*
%TO.C,R9*%
X61536359Y-84720000D02*
X61843641Y-84720000D01*
X61536359Y-85480000D02*
X61843641Y-85480000D01*
%TO.C,Y1*%
X57140000Y-80740000D02*
X57140000Y-84160000D01*
X57140000Y-84160000D02*
X61260000Y-84160000D01*
%TO.C,C8*%
X55317164Y-62915000D02*
X55532836Y-62915000D01*
X55317164Y-63635000D02*
X55532836Y-63635000D01*
%TO.C,SW2*%
X53830000Y-57730000D02*
X54130000Y-57730000D01*
X53830000Y-61870000D02*
X53830000Y-57730000D01*
X54130000Y-61870000D02*
X53830000Y-61870000D01*
X56670000Y-57730000D02*
X56970000Y-57730000D01*
X56970000Y-57730000D02*
X56970000Y-61870000D01*
X56970000Y-61870000D02*
X56670000Y-61870000D01*
%TO.C,R7*%
X53720000Y-66116359D02*
X53720000Y-66423641D01*
X54480000Y-66116359D02*
X54480000Y-66423641D01*
%TO.C,J2*%
X50230000Y-48990000D02*
X51610000Y-48990000D01*
X50230000Y-50370000D02*
X50230000Y-48990000D01*
X50230000Y-51640000D02*
X50230000Y-100010000D01*
X50230000Y-51640000D02*
X52990000Y-51640000D01*
X50230000Y-100010000D02*
X52990000Y-100010000D01*
X52990000Y-51640000D02*
X52990000Y-100010000D01*
%TO.C,C24*%
X59827836Y-91340000D02*
X59612164Y-91340000D01*
X59827836Y-92060000D02*
X59612164Y-92060000D01*
%TO.C,SW1*%
X64030000Y-57730000D02*
X64330000Y-57730000D01*
X64030000Y-61870000D02*
X64030000Y-57730000D01*
X64330000Y-61870000D02*
X64030000Y-61870000D01*
X66870000Y-57730000D02*
X67170000Y-57730000D01*
X67170000Y-57730000D02*
X67170000Y-61870000D01*
X67170000Y-61870000D02*
X66870000Y-61870000D01*
%TO.C,PWR*%
X65995000Y-53215000D02*
X65995000Y-55500000D01*
X65995000Y-55500000D02*
X67465000Y-55500000D01*
X67465000Y-55500000D02*
X67465000Y-53215000D01*
%TO.C,R5*%
X55806359Y-80290000D02*
X56113641Y-80290000D01*
X55806359Y-81050000D02*
X56113641Y-81050000D01*
%TO.C,C21*%
X63592164Y-84740000D02*
X63807836Y-84740000D01*
X63592164Y-85460000D02*
X63807836Y-85460000D01*
%TO.C,C10*%
X63789190Y-80958307D02*
X63941693Y-81110810D01*
X64298307Y-80449190D02*
X64450810Y-80601693D01*
%TO.C,C18*%
X65807836Y-84740000D02*
X65592164Y-84740000D01*
X65807836Y-85460000D02*
X65592164Y-85460000D01*
%TO.C,D3*%
X57800000Y-92300000D02*
X57800000Y-96300000D01*
X57800000Y-92300000D02*
X63400000Y-92300000D01*
X57800000Y-96300000D02*
X62800000Y-96300000D01*
X63400000Y-95700000D02*
X62800000Y-96300000D01*
X63400000Y-95700000D02*
X63400000Y-92300000D01*
%TO.C,R11*%
X63193641Y-62870000D02*
X62886359Y-62870000D01*
X63193641Y-63630000D02*
X62886359Y-63630000D01*
%TO.C,C15*%
X61640000Y-82612836D02*
X61640000Y-82397164D01*
X62360000Y-82612836D02*
X62360000Y-82397164D01*
%TO.C,R10*%
X62970000Y-82923641D02*
X62970000Y-82616359D01*
X63730000Y-82923641D02*
X63730000Y-82616359D01*
%TO.C,J4*%
X56580000Y-99770000D02*
X56580000Y-98390000D01*
X57960000Y-99770000D02*
X56580000Y-99770000D01*
X59230000Y-97010000D02*
X64420000Y-97010000D01*
X59230000Y-99770000D02*
X59230000Y-97010000D01*
X59230000Y-99770000D02*
X64420000Y-99770000D01*
X64420000Y-99770000D02*
X64420000Y-97010000D01*
%TO.C,R12*%
X55266359Y-64240000D02*
X55573641Y-64240000D01*
X55266359Y-65000000D02*
X55573641Y-65000000D01*
D12*
%TO.C,G\u002A\u002A\u002A*%
G36*
X65577457Y-93659041D02*
G01*
X65602883Y-93682182D01*
X65618428Y-93716321D01*
X65621421Y-93758313D01*
X65616068Y-93786011D01*
X65601487Y-93840341D01*
X65588520Y-93899146D01*
X65576754Y-93965216D01*
X65565776Y-94041347D01*
X65555172Y-94130330D01*
X65544528Y-94234957D01*
X65536386Y-94324065D01*
X65530697Y-94379839D01*
X65522264Y-94450798D01*
X65511755Y-94531899D01*
X65499838Y-94618094D01*
X65487183Y-94704341D01*
X65478821Y-94758392D01*
X65461529Y-94870570D01*
X65448054Y-94965666D01*
X65438186Y-95046711D01*
X65431711Y-95116740D01*
X65428417Y-95178788D01*
X65428090Y-95235886D01*
X65430519Y-95291069D01*
X65435490Y-95347371D01*
X65436730Y-95358674D01*
X65450571Y-95481494D01*
X65556879Y-95439192D01*
X65682226Y-95388780D01*
X65807870Y-95337119D01*
X65937000Y-95282846D01*
X66072804Y-95224595D01*
X66218472Y-95161005D01*
X66377194Y-95090710D01*
X66495492Y-95037807D01*
X66597012Y-94992294D01*
X66681510Y-94954546D01*
X66750665Y-94923888D01*
X66806157Y-94899646D01*
X66849664Y-94881146D01*
X66882866Y-94867714D01*
X66907442Y-94858673D01*
X66925071Y-94853353D01*
X66937432Y-94851075D01*
X66946204Y-94851167D01*
X66953068Y-94852955D01*
X66954435Y-94853488D01*
X66984851Y-94873599D01*
X67014842Y-94905745D01*
X67038151Y-94942296D01*
X67047194Y-94966651D01*
X67049527Y-94987002D01*
X67047450Y-95011226D01*
X67040178Y-95041407D01*
X67026922Y-95079627D01*
X67006896Y-95127969D01*
X66979313Y-95188515D01*
X66943387Y-95263348D01*
X66907905Y-95335312D01*
X66827745Y-95506694D01*
X66748805Y-95695113D01*
X66672330Y-95897084D01*
X66599564Y-96109127D01*
X66531750Y-96327760D01*
X66470132Y-96549497D01*
X66459702Y-96589837D01*
X66444842Y-96649852D01*
X66430849Y-96709734D01*
X66419071Y-96763473D01*
X66410861Y-96805056D01*
X66409405Y-96813586D01*
X66403066Y-96861362D01*
X66398415Y-96913279D01*
X66395636Y-96964359D01*
X66394920Y-97009620D01*
X66396454Y-97044087D01*
X66400009Y-97061966D01*
X66401521Y-97081384D01*
X66395695Y-97108237D01*
X66394881Y-97110550D01*
X66372770Y-97144268D01*
X66339197Y-97164095D01*
X66299873Y-97167369D01*
X66282468Y-97162969D01*
X66256950Y-97149203D01*
X66238501Y-97128049D01*
X66227203Y-97098036D01*
X66223137Y-97057687D01*
X66226384Y-97005531D01*
X66237025Y-96940094D01*
X66255143Y-96859902D01*
X66280819Y-96763482D01*
X66310081Y-96662862D01*
X66320843Y-96625736D01*
X66335838Y-96572345D01*
X66354085Y-96506271D01*
X66374604Y-96431094D01*
X66396411Y-96350394D01*
X66418529Y-96267750D01*
X66423890Y-96247585D01*
X66467122Y-96086663D01*
X66507028Y-95942351D01*
X66544643Y-95811210D01*
X66580999Y-95689802D01*
X66617130Y-95574689D01*
X66654070Y-95462434D01*
X66692852Y-95349596D01*
X66699261Y-95331358D01*
X66721640Y-95267430D01*
X66741391Y-95210181D01*
X66757585Y-95162365D01*
X66769298Y-95126737D01*
X66775604Y-95106051D01*
X66776410Y-95101966D01*
X66766478Y-95103237D01*
X66741000Y-95110040D01*
X66703840Y-95121264D01*
X66659144Y-95135704D01*
X66590892Y-95160566D01*
X66510081Y-95193530D01*
X66421799Y-95232237D01*
X66331135Y-95274328D01*
X66243182Y-95317440D01*
X66163025Y-95359215D01*
X66098416Y-95395705D01*
X66001128Y-95453583D01*
X65918875Y-95502257D01*
X65849149Y-95543159D01*
X65789440Y-95577720D01*
X65737237Y-95607371D01*
X65690032Y-95633542D01*
X65645314Y-95657666D01*
X65600573Y-95681172D01*
X65570538Y-95696670D01*
X65502816Y-95730669D01*
X65449726Y-95755136D01*
X65408170Y-95770870D01*
X65375048Y-95778666D01*
X65347268Y-95779322D01*
X65321730Y-95773634D01*
X65302213Y-95765696D01*
X65278686Y-95752847D01*
X65263694Y-95737221D01*
X65251669Y-95711874D01*
X65245605Y-95695044D01*
X65235027Y-95652400D01*
X65229643Y-95606296D01*
X65229516Y-95588977D01*
X65238158Y-95416767D01*
X65248952Y-95263432D01*
X65262016Y-95127434D01*
X65272635Y-95041301D01*
X65290756Y-94904757D01*
X65307926Y-94768537D01*
X65323685Y-94636617D01*
X65337570Y-94512974D01*
X65349120Y-94401585D01*
X65357876Y-94306427D01*
X65357963Y-94305395D01*
X65368367Y-94191967D01*
X65379413Y-94094503D01*
X65391760Y-94008449D01*
X65406071Y-93929251D01*
X65423009Y-93852357D01*
X65425022Y-93844003D01*
X65440802Y-93781181D01*
X65453932Y-93735309D01*
X65465821Y-93703229D01*
X65477873Y-93681776D01*
X65491496Y-93667794D01*
X65507643Y-93658329D01*
X65544820Y-93650042D01*
X65577457Y-93659041D01*
G37*
D11*
%TO.C,C25*%
X63740000Y-94207836D02*
X63740000Y-93992164D01*
X64460000Y-94207836D02*
X64460000Y-93992164D01*
%TO.C,U1*%
X56890000Y-71367500D02*
X57540000Y-71367500D01*
X56890000Y-72017500D02*
X56890000Y-71367500D01*
X56890000Y-78587500D02*
X56890000Y-77937500D01*
X57540000Y-78587500D02*
X56890000Y-78587500D01*
X63460000Y-71367500D02*
X64110000Y-71367500D01*
X64110000Y-71367500D02*
X64110000Y-72017500D01*
X64110000Y-77937500D02*
X64110000Y-78587500D01*
X64110000Y-78587500D02*
X63460000Y-78587500D01*
X56360000Y-72377500D02*
X56030000Y-72617500D01*
X56030000Y-72137500D01*
X56360000Y-72377500D01*
G36*
X56360000Y-72377500D02*
G01*
X56030000Y-72617500D01*
X56030000Y-72137500D01*
X56360000Y-72377500D01*
G37*
%TO.C,J3*%
X68010000Y-48990000D02*
X69390000Y-48990000D01*
X68010000Y-50370000D02*
X68010000Y-48990000D01*
X68010000Y-51640000D02*
X68010000Y-100010000D01*
X68010000Y-51640000D02*
X70770000Y-51640000D01*
X68010000Y-100010000D02*
X70770000Y-100010000D01*
X70770000Y-51640000D02*
X70770000Y-100010000D01*
%TO.C,C5*%
X56740000Y-92807836D02*
X56740000Y-92592164D01*
X57460000Y-92807836D02*
X57460000Y-92592164D01*
%TO.C,J1*%
X55800000Y-49550000D02*
X55800000Y-47650000D01*
X55800000Y-53450000D02*
X55800000Y-51450000D01*
X65200000Y-47650000D02*
X55800000Y-47650000D01*
X65200000Y-49550000D02*
X65200000Y-47650000D01*
X65200000Y-53450000D02*
X65200000Y-51450000D01*
%TO.C,C14*%
X64259420Y-64270000D02*
X64540580Y-64270000D01*
X64259420Y-65290000D02*
X64540580Y-65290000D01*
%TO.C,R3*%
X60800000Y-69586359D02*
X60800000Y-69893641D01*
X61560000Y-69586359D02*
X61560000Y-69893641D01*
%TO.C,C20*%
X64892164Y-91940000D02*
X65107836Y-91940000D01*
X64892164Y-92660000D02*
X65107836Y-92660000D01*
%TO.C,R1*%
X62656359Y-57190000D02*
X62963641Y-57190000D01*
X62656359Y-57950000D02*
X62963641Y-57950000D01*
%TO.C,C22*%
X58840000Y-87917164D02*
X58840000Y-88132836D01*
X59560000Y-87917164D02*
X59560000Y-88132836D01*
%TO.C,C6*%
X56110000Y-85237836D02*
X56110000Y-85022164D01*
X56830000Y-85237836D02*
X56830000Y-85022164D01*
%TO.C,R4*%
X61840000Y-69586359D02*
X61840000Y-69893641D01*
X62600000Y-69586359D02*
X62600000Y-69893641D01*
%TO.C,RST*%
X53550000Y-53215000D02*
X53550000Y-55500000D01*
X53550000Y-55500000D02*
X55020000Y-55500000D01*
X55020000Y-55500000D02*
X55020000Y-53215000D01*
%TO.C,C7*%
X66179190Y-76938307D02*
X66331693Y-77090810D01*
X66688307Y-76429190D02*
X66840810Y-76581693D01*
%TO.C,R2*%
X58583641Y-57360000D02*
X58276359Y-57360000D01*
X58583641Y-58120000D02*
X58276359Y-58120000D01*
%TO.C,C1*%
X59357836Y-63787500D02*
X59142164Y-63787500D01*
X59357836Y-64507500D02*
X59142164Y-64507500D01*
%TO.C,U4*%
X56650000Y-87165000D02*
X58150000Y-87165000D01*
X56650000Y-88885000D02*
X58150000Y-88885000D01*
X56200000Y-87425000D02*
X55920000Y-87425000D01*
X56200000Y-87145000D01*
X56200000Y-87425000D01*
G36*
X56200000Y-87425000D02*
G01*
X55920000Y-87425000D01*
X56200000Y-87145000D01*
X56200000Y-87425000D01*
G37*
%TO.C,C11*%
X66800000Y-73972164D02*
X66800000Y-74187836D01*
X67520000Y-73972164D02*
X67520000Y-74187836D01*
%TO.C,U2*%
X57610000Y-60700000D02*
X58610000Y-60700000D01*
X57610000Y-62220000D02*
X57610000Y-60700000D01*
X57660000Y-62220000D02*
X57610000Y-62220000D01*
X59560000Y-62220000D02*
X58780000Y-62220000D01*
X59730000Y-60700000D02*
X60730000Y-60700000D01*
X60730000Y-60700000D02*
X60730000Y-62220000D01*
X60730000Y-62220000D02*
X60680000Y-62220000D01*
X59120000Y-63000000D02*
X58790000Y-62760000D01*
X59120000Y-62520000D01*
X59120000Y-63000000D01*
G36*
X59120000Y-63000000D02*
G01*
X58790000Y-62760000D01*
X59120000Y-62520000D01*
X59120000Y-63000000D01*
G37*
%TO.C,C4*%
X55847836Y-70650000D02*
X55632164Y-70650000D01*
X55847836Y-71370000D02*
X55632164Y-71370000D01*
D12*
%TO.C,G\u002A\u002A\u002A*%
G36*
X65340093Y-66311846D02*
G01*
X65381547Y-66319737D01*
X65422791Y-66335105D01*
X65425747Y-66336404D01*
X65491077Y-66380032D01*
X65530559Y-66439632D01*
X65543514Y-66511822D01*
X65529267Y-66593223D01*
X65492843Y-66671205D01*
X65429223Y-66757397D01*
X65353249Y-66828771D01*
X65270633Y-66881806D01*
X65187089Y-66912979D01*
X65108328Y-66918770D01*
X65094495Y-66916733D01*
X65065371Y-66912807D01*
X65045785Y-66918557D01*
X65029007Y-66939933D01*
X65008303Y-66982885D01*
X65000968Y-66999401D01*
X64968871Y-67078245D01*
X64944920Y-67154118D01*
X64928186Y-67233460D01*
X64917736Y-67322715D01*
X64912641Y-67428326D01*
X64911969Y-67556733D01*
X64912644Y-67610597D01*
X64917374Y-67907007D01*
X65026058Y-67868988D01*
X65140179Y-67821312D01*
X65255627Y-67756508D01*
X65380589Y-67669977D01*
X65381037Y-67669643D01*
X65445146Y-67627598D01*
X65495121Y-67610406D01*
X65536363Y-67617892D01*
X65574270Y-67649881D01*
X65584875Y-67663010D01*
X65630574Y-67707451D01*
X65684787Y-67727242D01*
X65684901Y-67727260D01*
X65732097Y-67739326D01*
X65791444Y-67760597D01*
X65830187Y-67777321D01*
X65898462Y-67807374D01*
X65969335Y-67835337D01*
X66034620Y-67858298D01*
X66086130Y-67873348D01*
X66112780Y-67877750D01*
X66125417Y-67863799D01*
X66130086Y-67827164D01*
X66127604Y-67775672D01*
X66118789Y-67717148D01*
X66104456Y-67659420D01*
X66085424Y-67610314D01*
X66084717Y-67608914D01*
X66049081Y-67555359D01*
X66004790Y-67511454D01*
X65959714Y-67483655D01*
X65924855Y-67477763D01*
X65884221Y-67472975D01*
X65830304Y-67452290D01*
X65773242Y-67421249D01*
X65723171Y-67385394D01*
X65690230Y-67350264D01*
X65689528Y-67349142D01*
X65653652Y-67263679D01*
X65647446Y-67176009D01*
X65671226Y-67091701D01*
X65674608Y-67084929D01*
X65710385Y-67025427D01*
X65749367Y-66985831D01*
X65798873Y-66962411D01*
X65866221Y-66951437D01*
X65941113Y-66949108D01*
X66010239Y-66949897D01*
X66055963Y-66953519D01*
X66086615Y-66961772D01*
X66110526Y-66976454D01*
X66124725Y-66988750D01*
X66200594Y-67072023D01*
X66245279Y-67153367D01*
X66258663Y-67232379D01*
X66240626Y-67308657D01*
X66226768Y-67334799D01*
X66194844Y-67387161D01*
X66244559Y-67459420D01*
X66289154Y-67540528D01*
X66321360Y-67638491D01*
X66343083Y-67759503D01*
X66346852Y-67791764D01*
X66354455Y-67845639D01*
X66363539Y-67885737D01*
X66371481Y-67902517D01*
X66398465Y-67901235D01*
X66444489Y-67877453D01*
X66507406Y-67832317D01*
X66517522Y-67824295D01*
X66565117Y-67774152D01*
X66610427Y-67705247D01*
X66625435Y-67676172D01*
X66663586Y-67609129D01*
X66701233Y-67571754D01*
X66741301Y-67562149D01*
X66781020Y-67575233D01*
X66814038Y-67608295D01*
X66822772Y-67656039D01*
X66808709Y-67714601D01*
X66773336Y-67780120D01*
X66718143Y-67848735D01*
X66651762Y-67910759D01*
X66600233Y-67954447D01*
X66554737Y-67995117D01*
X66523910Y-68025008D01*
X66520749Y-68028460D01*
X66486020Y-68054320D01*
X66435929Y-68077275D01*
X66414668Y-68083909D01*
X66340336Y-68103524D01*
X66329491Y-68204798D01*
X66310567Y-68294968D01*
X66274903Y-68393472D01*
X66228054Y-68486039D01*
X66207533Y-68518054D01*
X66198886Y-68537077D01*
X66205206Y-68556246D01*
X66230551Y-68582750D01*
X66256820Y-68605366D01*
X66300161Y-68640138D01*
X66361075Y-68686887D01*
X66435061Y-68742361D01*
X66517619Y-68803308D01*
X66604249Y-68866474D01*
X66690451Y-68928608D01*
X66771724Y-68986457D01*
X66843568Y-69036769D01*
X66901482Y-69076291D01*
X66940966Y-69101772D01*
X66953128Y-69108590D01*
X67001617Y-69143640D01*
X67028282Y-69187490D01*
X67031991Y-69232867D01*
X67011611Y-69272498D01*
X66981857Y-69293179D01*
X66944520Y-69303619D01*
X66905707Y-69298347D01*
X66859927Y-69275000D01*
X66801687Y-69231217D01*
X66765102Y-69199981D01*
X66688473Y-69133696D01*
X66606221Y-69064033D01*
X66521921Y-68993864D01*
X66439148Y-68926060D01*
X66361478Y-68863492D01*
X66292485Y-68809032D01*
X66235746Y-68765551D01*
X66194836Y-68735920D01*
X66173330Y-68723011D01*
X66171077Y-68722936D01*
X66165906Y-68738833D01*
X66153793Y-68780113D01*
X66136235Y-68841551D01*
X66114732Y-68917924D01*
X66099340Y-68973125D01*
X66069105Y-69075393D01*
X66033907Y-69184079D01*
X65997627Y-69287772D01*
X65964144Y-69375063D01*
X65956311Y-69393812D01*
X65924502Y-69467510D01*
X65901520Y-69516864D01*
X65883783Y-69546753D01*
X65867709Y-69562058D01*
X65849715Y-69567659D01*
X65828130Y-69568437D01*
X65790233Y-69561498D01*
X65771479Y-69539044D01*
X65771881Y-69498623D01*
X65791455Y-69437782D01*
X65829420Y-69355649D01*
X65875066Y-69256478D01*
X65918165Y-69147438D01*
X65956468Y-69035769D01*
X65987721Y-68928708D01*
X66009675Y-68833492D01*
X66020078Y-68757361D01*
X66020614Y-68740912D01*
X66016870Y-68673610D01*
X66005054Y-68633780D01*
X65996874Y-68623874D01*
X65975734Y-68587604D01*
X65978818Y-68539628D01*
X66005249Y-68487682D01*
X66013508Y-68477203D01*
X66075644Y-68384759D01*
X66112737Y-68281820D01*
X66125614Y-68199867D01*
X66135706Y-68091281D01*
X66034540Y-68070567D01*
X65964266Y-68052894D01*
X65885553Y-68027940D01*
X65806905Y-67998973D01*
X65736829Y-67969257D01*
X65683832Y-67942061D01*
X65663499Y-67928083D01*
X65620744Y-67896984D01*
X65572339Y-67869045D01*
X65529685Y-67850343D01*
X65509513Y-67845999D01*
X65486530Y-67852931D01*
X65442877Y-67871556D01*
X65385898Y-67898620D01*
X65350126Y-67916649D01*
X65268679Y-67955106D01*
X65176217Y-67993533D01*
X65090033Y-68024839D01*
X65073038Y-68030250D01*
X65011160Y-68049589D01*
X64961838Y-68065619D01*
X64932190Y-68075997D01*
X64926948Y-68078350D01*
X64929740Y-68094264D01*
X64942684Y-68132120D01*
X64963256Y-68184753D01*
X64971184Y-68203894D01*
X64994219Y-68265453D01*
X65021155Y-68347894D01*
X65048878Y-68441134D01*
X65074274Y-68535090D01*
X65077907Y-68549489D01*
X65133934Y-68761230D01*
X65189028Y-68942847D01*
X65243858Y-69095923D01*
X65299093Y-69222044D01*
X65355401Y-69322793D01*
X65413451Y-69399756D01*
X65452926Y-69438192D01*
X65506610Y-69493462D01*
X65529560Y-69542623D01*
X65521704Y-69585323D01*
X65488990Y-69617446D01*
X65446910Y-69634853D01*
X65404692Y-69629047D01*
X65358326Y-69598191D01*
X65303803Y-69540448D01*
X65293462Y-69527859D01*
X65252499Y-69472907D01*
X65220938Y-69418183D01*
X65193559Y-69353124D01*
X65166025Y-69270042D01*
X65143263Y-69194089D01*
X65122519Y-69121208D01*
X65106704Y-69061812D01*
X65100717Y-69036625D01*
X65087385Y-68984064D01*
X65067676Y-68916812D01*
X65047398Y-68854062D01*
X65026811Y-68791321D01*
X65001287Y-68710049D01*
X64974554Y-68622255D01*
X64956969Y-68562840D01*
X64934113Y-68489166D01*
X64914768Y-68436003D01*
X64900376Y-68406932D01*
X64892973Y-68404090D01*
X64885647Y-68429909D01*
X64877418Y-68477188D01*
X64870054Y-68535747D01*
X64869982Y-68536432D01*
X64855577Y-68617989D01*
X64828171Y-68720073D01*
X64790033Y-68835374D01*
X64743437Y-68956583D01*
X64727916Y-68993547D01*
X64712984Y-69032875D01*
X64692038Y-69093927D01*
X64667999Y-69167961D01*
X64646565Y-69237043D01*
X64606264Y-69361064D01*
X64566048Y-69462797D01*
X64521272Y-69551349D01*
X64467293Y-69635829D01*
X64399468Y-69725343D01*
X64394395Y-69731646D01*
X64338145Y-69797940D01*
X64295165Y-69839560D01*
X64261859Y-69858730D01*
X64234628Y-69857672D01*
X64214112Y-69843075D01*
X64200409Y-69823958D01*
X64198361Y-69801096D01*
X64209970Y-69769643D01*
X64237241Y-69724749D01*
X64282178Y-69661569D01*
X64297981Y-69640234D01*
X64342013Y-69579612D01*
X64378932Y-69524273D01*
X64411259Y-69468888D01*
X64441513Y-69408127D01*
X64472213Y-69336659D01*
X64505879Y-69249154D01*
X64545031Y-69140281D01*
X64575309Y-69053527D01*
X64621240Y-68917775D01*
X64656650Y-68803930D01*
X64683095Y-68704537D01*
X64702130Y-68612139D01*
X64715309Y-68519281D01*
X64724188Y-68418505D01*
X64729899Y-68312300D01*
X64733577Y-68223134D01*
X64735290Y-68160860D01*
X64734558Y-68120657D01*
X64730904Y-68097702D01*
X64723850Y-68087172D01*
X64712915Y-68084246D01*
X64707259Y-68084124D01*
X64678877Y-68070394D01*
X64634599Y-68029200D01*
X64574420Y-67960536D01*
X64561865Y-67945218D01*
X64505619Y-67876350D01*
X64446590Y-67804625D01*
X64393563Y-67740696D01*
X64368748Y-67711062D01*
X64309773Y-67632088D01*
X64256716Y-67544574D01*
X64214525Y-67457897D01*
X64188152Y-67381436D01*
X64183894Y-67360859D01*
X64187184Y-67305718D01*
X64212030Y-67265776D01*
X64250901Y-67244436D01*
X64296267Y-67245103D01*
X64340599Y-67271179D01*
X64352659Y-67284578D01*
X64375366Y-67318290D01*
X64385664Y-67343134D01*
X64385717Y-67344109D01*
X64395219Y-67381314D01*
X64420853Y-67436970D01*
X64458989Y-67504680D01*
X64505997Y-67578044D01*
X64558249Y-67650664D01*
X64563399Y-67657350D01*
X64611934Y-67720376D01*
X64658880Y-67782056D01*
X64697093Y-67832972D01*
X64710999Y-67851875D01*
X64758624Y-67917437D01*
X64768960Y-67830125D01*
X64772660Y-67783522D01*
X64775988Y-67713133D01*
X64778668Y-67626920D01*
X64780424Y-67532846D01*
X64780867Y-67485881D01*
X64784688Y-67331088D01*
X64794670Y-67201921D01*
X64811699Y-67092698D01*
X64836659Y-66997736D01*
X64870334Y-66911573D01*
X64891331Y-66863764D01*
X64905524Y-66827720D01*
X64909437Y-66813801D01*
X64901184Y-66795077D01*
X64879699Y-66758676D01*
X64853874Y-66718874D01*
X64819068Y-66660281D01*
X64802181Y-66610373D01*
X64798312Y-66563745D01*
X64800944Y-66519645D01*
X64812745Y-66486532D01*
X64839568Y-66452622D01*
X64867101Y-66425270D01*
X64913475Y-66386403D01*
X64963467Y-66358123D01*
X65023940Y-66338236D01*
X65101755Y-66324549D01*
X65203771Y-66314867D01*
X65214867Y-66314083D01*
X65288007Y-66310329D01*
X65340093Y-66311846D01*
G37*
%TD*%
M02*
