%TF.GenerationSoftware,KiCad,Pcbnew,9.0.6*%
%TF.CreationDate,2026-02-18T17:47:18+01:00*%
%TF.ProjectId,devboard,64657662-6f61-4726-942e-6b696361645f,rev?*%
%TF.SameCoordinates,Original*%
%TF.FileFunction,Soldermask,Top*%
%TF.FilePolarity,Negative*%
%FSLAX46Y46*%
G04 Gerber Fmt 4.6, Leading zero omitted, Abs format (unit mm)*
G04 Created by KiCad (PCBNEW 9.0.6) date 2026-02-18 17:47:18*
%MOMM*%
%LPD*%
G01*
G04 APERTURE LIST*
G04 Aperture macros list*
%AMRoundRect*
0 Rectangle with rounded corners*
0 $1 Rounding radius*
0 $2 $3 $4 $5 $6 $7 $8 $9 X,Y pos of 4 corners*
0 Add a 4 corners polygon primitive as box body*
4,1,4,$2,$3,$4,$5,$6,$7,$8,$9,$2,$3,0*
0 Add four circle primitives for the rounded corners*
1,1,$1+$1,$2,$3*
1,1,$1+$1,$4,$5*
1,1,$1+$1,$6,$7*
1,1,$1+$1,$8,$9*
0 Add four rect primitives between the rounded corners*
20,1,$1+$1,$2,$3,$4,$5,0*
20,1,$1+$1,$4,$5,$6,$7,0*
20,1,$1+$1,$6,$7,$8,$9,0*
20,1,$1+$1,$8,$9,$2,$3,0*%
G04 Aperture macros list end*
%ADD10RoundRect,0.075000X-0.350000X-0.075000X0.350000X-0.075000X0.350000X0.075000X-0.350000X0.075000X0*%
%ADD11RoundRect,0.075000X0.075000X-0.350000X0.075000X0.350000X-0.075000X0.350000X-0.075000X-0.350000X0*%
%ADD12RoundRect,0.140000X0.140000X0.170000X-0.140000X0.170000X-0.140000X-0.170000X0.140000X-0.170000X0*%
%ADD13RoundRect,0.140000X0.170000X-0.140000X0.170000X0.140000X-0.170000X0.140000X-0.170000X-0.140000X0*%
%ADD14RoundRect,0.140000X-0.140000X-0.170000X0.140000X-0.170000X0.140000X0.170000X-0.140000X0.170000X0*%
%ADD15RoundRect,0.135000X0.135000X0.185000X-0.135000X0.185000X-0.135000X-0.185000X0.135000X-0.185000X0*%
%ADD16RoundRect,0.225000X-0.250000X0.225000X-0.250000X-0.225000X0.250000X-0.225000X0.250000X0.225000X0*%
%ADD17RoundRect,0.140000X-0.170000X0.140000X-0.170000X-0.140000X0.170000X-0.140000X0.170000X0.140000X0*%
%ADD18RoundRect,0.062500X-0.387500X-0.062500X0.387500X-0.062500X0.387500X0.062500X-0.387500X0.062500X0*%
%ADD19R,0.200000X1.600000*%
%ADD20RoundRect,0.135000X-0.135000X-0.185000X0.135000X-0.185000X0.135000X0.185000X-0.135000X0.185000X0*%
%ADD21RoundRect,0.250000X-0.450000X-0.350000X0.450000X-0.350000X0.450000X0.350000X-0.450000X0.350000X0*%
%ADD22RoundRect,0.200000X0.800000X-0.200000X0.800000X0.200000X-0.800000X0.200000X-0.800000X-0.200000X0*%
%ADD23RoundRect,0.135000X-0.185000X0.135000X-0.185000X-0.135000X0.185000X-0.135000X0.185000X0.135000X0*%
%ADD24R,1.700000X1.700000*%
%ADD25C,1.700000*%
%ADD26RoundRect,0.218750X0.256250X-0.218750X0.256250X0.218750X-0.256250X0.218750X-0.256250X-0.218750X0*%
%ADD27RoundRect,0.140000X-0.219203X-0.021213X-0.021213X-0.219203X0.219203X0.021213X0.021213X0.219203X0*%
%ADD28R,1.600000X0.850000*%
%ADD29RoundRect,0.135000X0.185000X-0.135000X0.185000X0.135000X-0.185000X0.135000X-0.185000X-0.135000X0*%
%ADD30RoundRect,0.050000X-0.387500X-0.050000X0.387500X-0.050000X0.387500X0.050000X-0.387500X0.050000X0*%
%ADD31RoundRect,0.050000X-0.050000X-0.387500X0.050000X-0.387500X0.050000X0.387500X-0.050000X0.387500X0*%
%ADD32R,3.200000X3.200000*%
%ADD33C,0.650000*%
%ADD34R,0.600000X1.450000*%
%ADD35R,0.300000X1.450000*%
%ADD36O,1.000000X2.100000*%
%ADD37O,1.000000X1.600000*%
%ADD38RoundRect,0.225000X-0.225000X-0.250000X0.225000X-0.250000X0.225000X0.250000X-0.225000X0.250000X0*%
%ADD39R,0.500000X0.300000*%
%ADD40RoundRect,0.150000X0.150000X-0.587500X0.150000X0.587500X-0.150000X0.587500X-0.150000X-0.587500X0*%
G04 APERTURE END LIST*
D10*
%TO.C,U6*%
X61500000Y-87200000D03*
X61500000Y-87700000D03*
X61500000Y-88200000D03*
X61500000Y-88700000D03*
X61500000Y-89200000D03*
X61500000Y-89700000D03*
D11*
X62200000Y-90400000D03*
X62700000Y-90400000D03*
X63200000Y-90400000D03*
X63700000Y-90400000D03*
X64200000Y-90400000D03*
X64700000Y-90400000D03*
D10*
X65400000Y-89700000D03*
X65400000Y-89200000D03*
X65400000Y-88700000D03*
X65400000Y-88200000D03*
X65400000Y-87700000D03*
X65400000Y-87200000D03*
D11*
X64700000Y-86500000D03*
X64200000Y-86500000D03*
X63700000Y-86500000D03*
X63200000Y-86500000D03*
X62700000Y-86500000D03*
X62200000Y-86500000D03*
%TD*%
D12*
%TO.C,C19*%
X55180000Y-96600000D03*
X54220000Y-96600000D03*
%TD*%
D13*
%TO.C,C12*%
X60340000Y-67180000D03*
X60340000Y-66220000D03*
%TD*%
D14*
%TO.C,C17*%
X57695000Y-66125000D03*
X58655000Y-66125000D03*
%TD*%
D15*
%TO.C,R6*%
X66020000Y-63250000D03*
X65000000Y-63250000D03*
%TD*%
D16*
%TO.C,C13*%
X62850000Y-59365000D03*
X62850000Y-60915000D03*
%TD*%
D17*
%TO.C,C9*%
X57100000Y-94400000D03*
X57100000Y-95360000D03*
%TD*%
D14*
%TO.C,C23*%
X64410000Y-82370000D03*
X65370000Y-82370000D03*
%TD*%
D18*
%TO.C,U5*%
X55450000Y-67350000D03*
X55450000Y-67850000D03*
X55450000Y-68350000D03*
X55450000Y-68850000D03*
X58300000Y-68850000D03*
X58300000Y-68350000D03*
X58300000Y-67850000D03*
X58300000Y-67350000D03*
D19*
X56875000Y-68100000D03*
%TD*%
D17*
%TO.C,C2*%
X63110000Y-66530000D03*
X63110000Y-67490000D03*
%TD*%
D20*
%TO.C,R8*%
X56970000Y-89750000D03*
X57990000Y-89750000D03*
%TD*%
D17*
%TO.C,C16*%
X56400000Y-82040000D03*
X56400000Y-83000000D03*
%TD*%
D12*
%TO.C,C3*%
X60230000Y-80160000D03*
X59270000Y-80160000D03*
%TD*%
D20*
%TO.C,R9*%
X61180000Y-85100000D03*
X62200000Y-85100000D03*
%TD*%
D21*
%TO.C,Y1*%
X58100000Y-83300000D03*
X60300000Y-83300000D03*
X60300000Y-81600000D03*
X58100000Y-81600000D03*
%TD*%
D14*
%TO.C,C8*%
X54945000Y-63275000D03*
X55905000Y-63275000D03*
%TD*%
D22*
%TO.C,SW2*%
X55400000Y-61900000D03*
X55400000Y-57700000D03*
%TD*%
D23*
%TO.C,R7*%
X54100000Y-65760000D03*
X54100000Y-66780000D03*
%TD*%
D24*
%TO.C,J2*%
X51610000Y-50370000D03*
D25*
X51610000Y-52910000D03*
X51610000Y-55450000D03*
X51610000Y-57990000D03*
X51610000Y-60530000D03*
X51610000Y-63070000D03*
X51610000Y-65610000D03*
X51610000Y-68150000D03*
X51610000Y-70690000D03*
X51610000Y-73230000D03*
X51610000Y-75770000D03*
X51610000Y-78310000D03*
X51610000Y-80850000D03*
X51610000Y-83390000D03*
X51610000Y-85930000D03*
X51610000Y-88470000D03*
X51610000Y-91010000D03*
X51610000Y-93550000D03*
X51610000Y-96090000D03*
X51610000Y-98630000D03*
%TD*%
D12*
%TO.C,C24*%
X60200000Y-91700000D03*
X59240000Y-91700000D03*
%TD*%
D22*
%TO.C,SW1*%
X65600000Y-61900000D03*
X65600000Y-57700000D03*
%TD*%
D26*
%TO.C,PWR*%
X66730000Y-54802500D03*
X66730000Y-53227500D03*
%TD*%
D20*
%TO.C,R5*%
X55450000Y-80670000D03*
X56470000Y-80670000D03*
%TD*%
D14*
%TO.C,C21*%
X63220000Y-85100000D03*
X64180000Y-85100000D03*
%TD*%
D27*
%TO.C,C10*%
X63780589Y-80440589D03*
X64459411Y-81119411D03*
%TD*%
D12*
%TO.C,C18*%
X66180000Y-85100000D03*
X65220000Y-85100000D03*
%TD*%
D28*
%TO.C,D3*%
X58850000Y-93425000D03*
X58850000Y-95175000D03*
X62350000Y-95175000D03*
X62350000Y-93425000D03*
%TD*%
D15*
%TO.C,R11*%
X63550000Y-63250000D03*
X62530000Y-63250000D03*
%TD*%
D13*
%TO.C,C15*%
X62000000Y-82985000D03*
X62000000Y-82025000D03*
%TD*%
D29*
%TO.C,R10*%
X63350000Y-83280000D03*
X63350000Y-82260000D03*
%TD*%
D24*
%TO.C,J4*%
X57960000Y-98390000D03*
D25*
X60500000Y-98390000D03*
X63040000Y-98390000D03*
%TD*%
D20*
%TO.C,R12*%
X54910000Y-64620000D03*
X55930000Y-64620000D03*
%TD*%
D13*
%TO.C,C25*%
X64100000Y-94580000D03*
X64100000Y-93620000D03*
%TD*%
D30*
%TO.C,U1*%
X57062500Y-72377500D03*
X57062500Y-72777500D03*
X57062500Y-73177500D03*
X57062500Y-73577500D03*
X57062500Y-73977500D03*
X57062500Y-74377500D03*
X57062500Y-74777500D03*
X57062500Y-75177500D03*
X57062500Y-75577500D03*
X57062500Y-75977500D03*
X57062500Y-76377500D03*
X57062500Y-76777500D03*
X57062500Y-77177500D03*
X57062500Y-77577500D03*
D31*
X57900000Y-78415000D03*
X58300000Y-78415000D03*
X58700000Y-78415000D03*
X59100000Y-78415000D03*
X59500000Y-78415000D03*
X59900000Y-78415000D03*
X60300000Y-78415000D03*
X60700000Y-78415000D03*
X61100000Y-78415000D03*
X61500000Y-78415000D03*
X61900000Y-78415000D03*
X62300000Y-78415000D03*
X62700000Y-78415000D03*
X63100000Y-78415000D03*
D30*
X63937500Y-77577500D03*
X63937500Y-77177500D03*
X63937500Y-76777500D03*
X63937500Y-76377500D03*
X63937500Y-75977500D03*
X63937500Y-75577500D03*
X63937500Y-75177500D03*
X63937500Y-74777500D03*
X63937500Y-74377500D03*
X63937500Y-73977500D03*
X63937500Y-73577500D03*
X63937500Y-73177500D03*
X63937500Y-72777500D03*
X63937500Y-72377500D03*
D31*
X63100000Y-71540000D03*
X62700000Y-71540000D03*
X62300000Y-71540000D03*
X61900000Y-71540000D03*
X61500000Y-71540000D03*
X61100000Y-71540000D03*
X60700000Y-71540000D03*
X60300000Y-71540000D03*
X59900000Y-71540000D03*
X59500000Y-71540000D03*
X59100000Y-71540000D03*
X58700000Y-71540000D03*
X58300000Y-71540000D03*
X57900000Y-71540000D03*
D32*
X60500000Y-74977500D03*
%TD*%
D24*
%TO.C,J3*%
X69390000Y-50370000D03*
D25*
X69390000Y-52910000D03*
X69390000Y-55450000D03*
X69390000Y-57990000D03*
X69390000Y-60530000D03*
X69390000Y-63070000D03*
X69390000Y-65610000D03*
X69390000Y-68150000D03*
X69390000Y-70690000D03*
X69390000Y-73230000D03*
X69390000Y-75770000D03*
X69390000Y-78310000D03*
X69390000Y-80850000D03*
X69390000Y-83390000D03*
X69390000Y-85930000D03*
X69390000Y-88470000D03*
X69390000Y-91010000D03*
X69390000Y-93550000D03*
X69390000Y-96090000D03*
X69390000Y-98630000D03*
%TD*%
D13*
%TO.C,C5*%
X57100000Y-93180000D03*
X57100000Y-92220000D03*
%TD*%
D33*
%TO.C,J1*%
X63390000Y-54150000D03*
X57610000Y-54150000D03*
D34*
X63750000Y-55595000D03*
X62950000Y-55595000D03*
D35*
X61750000Y-55595000D03*
X60750000Y-55595000D03*
X60250000Y-55595000D03*
X59250000Y-55595000D03*
D34*
X58050000Y-55595000D03*
X57250000Y-55595000D03*
X57250000Y-55595000D03*
X58050000Y-55595000D03*
D35*
X58750000Y-55595000D03*
X59750000Y-55595000D03*
X61250000Y-55595000D03*
X62250000Y-55595000D03*
D34*
X62950000Y-55595000D03*
X63750000Y-55595000D03*
D36*
X64820000Y-54680000D03*
D37*
X64820000Y-50500000D03*
D36*
X56180000Y-54680000D03*
D37*
X56180000Y-50500000D03*
%TD*%
D38*
%TO.C,C14*%
X63625000Y-64780000D03*
X65175000Y-64780000D03*
%TD*%
D23*
%TO.C,R3*%
X61180000Y-69230000D03*
X61180000Y-70250000D03*
%TD*%
D14*
%TO.C,C20*%
X64520000Y-92300000D03*
X65480000Y-92300000D03*
%TD*%
D20*
%TO.C,R1*%
X62300000Y-57570000D03*
X63320000Y-57570000D03*
%TD*%
D17*
%TO.C,C22*%
X59200000Y-87545000D03*
X59200000Y-88505000D03*
%TD*%
D13*
%TO.C,C6*%
X56470000Y-85610000D03*
X56470000Y-84650000D03*
%TD*%
D23*
%TO.C,R4*%
X62220000Y-69230000D03*
X62220000Y-70250000D03*
%TD*%
D26*
%TO.C,RST*%
X54285000Y-54802500D03*
X54285000Y-53227500D03*
%TD*%
D27*
%TO.C,C7*%
X66170589Y-76420589D03*
X66849411Y-77099411D03*
%TD*%
D15*
%TO.C,R2*%
X58940000Y-57740000D03*
X57920000Y-57740000D03*
%TD*%
D12*
%TO.C,C1*%
X59730000Y-64147500D03*
X58770000Y-64147500D03*
%TD*%
D39*
%TO.C,U4*%
X56700000Y-87625000D03*
X56700000Y-88425000D03*
X58100000Y-88425000D03*
X58100000Y-87625000D03*
%TD*%
D17*
%TO.C,C11*%
X67160000Y-73600000D03*
X67160000Y-74560000D03*
%TD*%
D40*
%TO.C,U2*%
X58220000Y-62397500D03*
X60120000Y-62397500D03*
X59170000Y-60522500D03*
%TD*%
D12*
%TO.C,C4*%
X56220000Y-71010000D03*
X55260000Y-71010000D03*
%TD*%
M02*
