M48
; DRILL file {KiCad 9.0.6} date 2026-02-18T17:47:21+0100
; FORMAT={-:-/ absolute / metric / decimal}
; #@! TF.CreationDate,2026-02-18T17:47:21+01:00
; #@! TF.GenerationSoftware,Kicad,Pcbnew,9.0.6
; #@! TF.FileFunction,Plated,1,2,PTH
FMAT,2
METRIC
; #@! TA.AperFunction,Plated,PTH,ViaDrill
T1C0.300
; #@! TA.AperFunction,Plated,PTH,ComponentDrill
T2C0.600
; #@! TA.AperFunction,Plated,PTH,ComponentDrill
T3C1.000
%
G90
G05
T1
X50.95Y-71.95
X52.5Y-56.8
X52.55Y-69.5
X52.558Y-67.305
X53.384Y-72.094
X54.053Y-72.359
X54.22Y-96.6
X54.63Y-72.936
X55.18Y-96.6
X55.225Y-73.447
X55.26Y-71.01
X55.4Y-57.7
X55.4Y-92.0
X55.45Y-68.975
X55.905Y-63.24
X56.01Y-88.72
X56.067Y-86.875
X56.23Y-71.01
X56.275Y-67.432
X56.4Y-82.04
X56.47Y-84.65
X57.1Y-92.22
X57.1Y-94.4
X57.1Y-95.36
X57.695Y-66.125
X57.884Y-74.389
X58.03Y-86.6
X58.05Y-55.595
X58.22Y-62.45
X58.24Y-77.17
X58.68Y-87.625
X58.962Y-76.825
X59.11Y-72.877
X59.169Y-91.7
X59.2Y-60.46
X59.27Y-80.16
X59.45Y-85.39
X59.73Y-64.147
X60.001Y-72.475
X60.12Y-62.397
X60.12Y-77.35
X60.34Y-66.22
X60.34Y-67.18
X61.611Y-77.478
X61.91Y-84.2
X62.0Y-82.025
X62.0Y-82.985
X62.26Y-65.77
X62.35Y-95.175
X62.53Y-62.1
X62.68Y-91.4
X62.85Y-59.365
X62.85Y-60.915
X62.89Y-80.37
X62.942Y-77.404
X62.95Y-55.595
X63.033Y-69.461
X63.11Y-67.49
X63.28Y-92.3
X63.625Y-64.78
X63.738Y-78.306
X63.785Y-80.476
X63.94Y-79.08
X64.2Y-85.1
X64.41Y-82.499
X64.459Y-81.119
X64.52Y-92.3
X65.175Y-64.78
X65.4Y-91.08
X65.48Y-92.3
X65.6Y-61.9
X65.88Y-74.08
X66.849Y-77.099
X66.885Y-72.415
X67.16Y-74.56
T3
X51.61Y-50.37
X51.61Y-52.91
X51.61Y-55.45
X51.61Y-57.99
X51.61Y-60.53
X51.61Y-63.07
X51.61Y-65.61
X51.61Y-68.15
X51.61Y-70.69
X51.61Y-73.23
X51.61Y-75.77
X51.61Y-78.31
X51.61Y-80.85
X51.61Y-83.39
X51.61Y-85.93
X51.61Y-88.47
X51.61Y-91.01
X51.61Y-93.55
X51.61Y-96.09
X51.61Y-98.63
X57.96Y-98.39
X60.5Y-98.39
X63.04Y-98.39
X69.39Y-50.37
X69.39Y-52.91
X69.39Y-55.45
X69.39Y-57.99
X69.39Y-60.53
X69.39Y-63.07
X69.39Y-65.61
X69.39Y-68.15
X69.39Y-70.69
X69.39Y-73.23
X69.39Y-75.77
X69.39Y-78.31
X69.39Y-80.85
X69.39Y-83.39
X69.39Y-85.93
X69.39Y-88.47
X69.39Y-91.01
X69.39Y-93.55
X69.39Y-96.09
X69.39Y-98.63
T2
G00X56.18Y-50.8
M15
G01X56.18Y-50.2
M16
G05
G00X56.18Y-55.23
M15
G01X56.18Y-54.13
M16
G05
G00X64.82Y-50.8
M15
G01X64.82Y-50.2
M16
G05
G00X64.82Y-55.23
M15
G01X64.82Y-54.13
M16
G05
M30
