%TF.GenerationSoftware,KiCad,Pcbnew,9.0.6*%
%TF.CreationDate,2026-02-18T17:47:18+01:00*%
%TF.ProjectId,devboard,64657662-6f61-4726-942e-6b696361645f,rev?*%
%TF.SameCoordinates,Original*%
%TF.FileFunction,Legend,Bot*%
%TF.FilePolarity,Positive*%
%FSLAX46Y46*%
G04 Gerber Fmt 4.6, Leading zero omitted, Abs format (unit mm)*
G04 Created by KiCad (PCBNEW 9.0.6) date 2026-02-18 17:47:18*
%MOMM*%
%LPD*%
G01*
G04 APERTURE LIST*
%ADD10C,0.400000*%
%ADD11C,0.187500*%
%ADD12C,0.000000*%
G04 APERTURE END LIST*
D10*
X63465561Y-77460652D02*
X65465561Y-77460652D01*
X65465561Y-77460652D02*
X65465561Y-76698747D01*
X65465561Y-76698747D02*
X65370323Y-76508271D01*
X65370323Y-76508271D02*
X65275085Y-76413033D01*
X65275085Y-76413033D02*
X65084609Y-76317795D01*
X65084609Y-76317795D02*
X64798895Y-76317795D01*
X64798895Y-76317795D02*
X64608419Y-76413033D01*
X64608419Y-76413033D02*
X64513180Y-76508271D01*
X64513180Y-76508271D02*
X64417942Y-76698747D01*
X64417942Y-76698747D02*
X64417942Y-77460652D01*
X63465561Y-75460652D02*
X64798895Y-75460652D01*
X65465561Y-75460652D02*
X65370323Y-75555890D01*
X65370323Y-75555890D02*
X65275085Y-75460652D01*
X65275085Y-75460652D02*
X65370323Y-75365414D01*
X65370323Y-75365414D02*
X65465561Y-75460652D01*
X65465561Y-75460652D02*
X65275085Y-75460652D01*
X63560800Y-73651128D02*
X63465561Y-73841604D01*
X63465561Y-73841604D02*
X63465561Y-74222557D01*
X63465561Y-74222557D02*
X63560800Y-74413033D01*
X63560800Y-74413033D02*
X63656038Y-74508271D01*
X63656038Y-74508271D02*
X63846514Y-74603509D01*
X63846514Y-74603509D02*
X64417942Y-74603509D01*
X64417942Y-74603509D02*
X64608419Y-74508271D01*
X64608419Y-74508271D02*
X64703657Y-74413033D01*
X64703657Y-74413033D02*
X64798895Y-74222557D01*
X64798895Y-74222557D02*
X64798895Y-73841604D01*
X64798895Y-73841604D02*
X64703657Y-73651128D01*
X63465561Y-72508271D02*
X63560800Y-72698747D01*
X63560800Y-72698747D02*
X63656038Y-72793985D01*
X63656038Y-72793985D02*
X63846514Y-72889223D01*
X63846514Y-72889223D02*
X64417942Y-72889223D01*
X64417942Y-72889223D02*
X64608419Y-72793985D01*
X64608419Y-72793985D02*
X64703657Y-72698747D01*
X64703657Y-72698747D02*
X64798895Y-72508271D01*
X64798895Y-72508271D02*
X64798895Y-72222556D01*
X64798895Y-72222556D02*
X64703657Y-72032080D01*
X64703657Y-72032080D02*
X64608419Y-71936842D01*
X64608419Y-71936842D02*
X64417942Y-71841604D01*
X64417942Y-71841604D02*
X63846514Y-71841604D01*
X63846514Y-71841604D02*
X63656038Y-71936842D01*
X63656038Y-71936842D02*
X63560800Y-72032080D01*
X63560800Y-72032080D02*
X63465561Y-72222556D01*
X63465561Y-72222556D02*
X63465561Y-72508271D01*
X64513180Y-70317794D02*
X64513180Y-70984461D01*
X63465561Y-70984461D02*
X65465561Y-70984461D01*
X65465561Y-70984461D02*
X65465561Y-70032080D01*
X63465561Y-68984461D02*
X63560800Y-69174937D01*
X63560800Y-69174937D02*
X63751276Y-69270175D01*
X63751276Y-69270175D02*
X65465561Y-69270175D01*
X63465561Y-68222556D02*
X64798895Y-68222556D01*
X65465561Y-68222556D02*
X65370323Y-68317794D01*
X65370323Y-68317794D02*
X65275085Y-68222556D01*
X65275085Y-68222556D02*
X65370323Y-68127318D01*
X65370323Y-68127318D02*
X65465561Y-68222556D01*
X65465561Y-68222556D02*
X65275085Y-68222556D01*
X64798895Y-67270175D02*
X62798895Y-67270175D01*
X64703657Y-67270175D02*
X64798895Y-67079699D01*
X64798895Y-67079699D02*
X64798895Y-66698746D01*
X64798895Y-66698746D02*
X64703657Y-66508270D01*
X64703657Y-66508270D02*
X64608419Y-66413032D01*
X64608419Y-66413032D02*
X64417942Y-66317794D01*
X64417942Y-66317794D02*
X63846514Y-66317794D01*
X63846514Y-66317794D02*
X63656038Y-66413032D01*
X63656038Y-66413032D02*
X63560800Y-66508270D01*
X63560800Y-66508270D02*
X63465561Y-66698746D01*
X63465561Y-66698746D02*
X63465561Y-67079699D01*
X63465561Y-67079699D02*
X63560800Y-67270175D01*
X65465561Y-64127317D02*
X63465561Y-62793984D01*
X65465561Y-62793984D02*
X63465561Y-64127317D01*
D11*
X60193321Y-75719502D02*
X61693321Y-75719502D01*
X61121892Y-75719502D02*
X61193321Y-75576645D01*
X61193321Y-75576645D02*
X61193321Y-75290930D01*
X61193321Y-75290930D02*
X61121892Y-75148073D01*
X61121892Y-75148073D02*
X61050464Y-75076645D01*
X61050464Y-75076645D02*
X60907607Y-75005216D01*
X60907607Y-75005216D02*
X60479035Y-75005216D01*
X60479035Y-75005216D02*
X60336178Y-75076645D01*
X60336178Y-75076645D02*
X60264750Y-75148073D01*
X60264750Y-75148073D02*
X60193321Y-75290930D01*
X60193321Y-75290930D02*
X60193321Y-75576645D01*
X60193321Y-75576645D02*
X60264750Y-75719502D01*
X61193321Y-74505216D02*
X60193321Y-74148073D01*
X61193321Y-73790930D02*
X60193321Y-74148073D01*
X60193321Y-74148073D02*
X59836178Y-74290930D01*
X59836178Y-74290930D02*
X59764750Y-74362359D01*
X59764750Y-74362359D02*
X59693321Y-74505216D01*
X60907607Y-71148073D02*
X60979035Y-71219502D01*
X60979035Y-71219502D02*
X61050464Y-71362359D01*
X61050464Y-71362359D02*
X61050464Y-71505216D01*
X61050464Y-71505216D02*
X60979035Y-71648073D01*
X60979035Y-71648073D02*
X60907607Y-71719502D01*
X60907607Y-71719502D02*
X60764750Y-71790930D01*
X60764750Y-71790930D02*
X60621892Y-71790930D01*
X60621892Y-71790930D02*
X60479035Y-71719502D01*
X60479035Y-71719502D02*
X60407607Y-71648073D01*
X60407607Y-71648073D02*
X60336178Y-71505216D01*
X60336178Y-71505216D02*
X60336178Y-71362359D01*
X60336178Y-71362359D02*
X60407607Y-71219502D01*
X60407607Y-71219502D02*
X60479035Y-71148073D01*
X61050464Y-71148073D02*
X60479035Y-71148073D01*
X60479035Y-71148073D02*
X60407607Y-71076645D01*
X60407607Y-71076645D02*
X60407607Y-71005216D01*
X60407607Y-71005216D02*
X60479035Y-70862359D01*
X60479035Y-70862359D02*
X60621892Y-70790930D01*
X60621892Y-70790930D02*
X60979035Y-70790930D01*
X60979035Y-70790930D02*
X61193321Y-70933788D01*
X61193321Y-70933788D02*
X61336178Y-71148073D01*
X61336178Y-71148073D02*
X61407607Y-71433788D01*
X61407607Y-71433788D02*
X61336178Y-71719502D01*
X61336178Y-71719502D02*
X61193321Y-71933788D01*
X61193321Y-71933788D02*
X60979035Y-72076645D01*
X60979035Y-72076645D02*
X60693321Y-72148073D01*
X60693321Y-72148073D02*
X60407607Y-72076645D01*
X60407607Y-72076645D02*
X60193321Y-71933788D01*
X60193321Y-71933788D02*
X60050464Y-71719502D01*
X60050464Y-71719502D02*
X59979035Y-71433788D01*
X59979035Y-71433788D02*
X60050464Y-71148073D01*
X60050464Y-71148073D02*
X60193321Y-70933788D01*
X60193321Y-70148074D02*
X61193321Y-70148074D01*
X61050464Y-70148074D02*
X61121892Y-70076645D01*
X61121892Y-70076645D02*
X61193321Y-69933788D01*
X61193321Y-69933788D02*
X61193321Y-69719502D01*
X61193321Y-69719502D02*
X61121892Y-69576645D01*
X61121892Y-69576645D02*
X60979035Y-69505217D01*
X60979035Y-69505217D02*
X60193321Y-69505217D01*
X60979035Y-69505217D02*
X61121892Y-69433788D01*
X61121892Y-69433788D02*
X61193321Y-69290931D01*
X61193321Y-69290931D02*
X61193321Y-69076645D01*
X61193321Y-69076645D02*
X61121892Y-68933788D01*
X61121892Y-68933788D02*
X60979035Y-68862359D01*
X60979035Y-68862359D02*
X60193321Y-68862359D01*
X60193321Y-67505217D02*
X60979035Y-67505217D01*
X60979035Y-67505217D02*
X61121892Y-67576645D01*
X61121892Y-67576645D02*
X61193321Y-67719502D01*
X61193321Y-67719502D02*
X61193321Y-68005217D01*
X61193321Y-68005217D02*
X61121892Y-68148074D01*
X60264750Y-67505217D02*
X60193321Y-67648074D01*
X60193321Y-67648074D02*
X60193321Y-68005217D01*
X60193321Y-68005217D02*
X60264750Y-68148074D01*
X60264750Y-68148074D02*
X60407607Y-68219502D01*
X60407607Y-68219502D02*
X60550464Y-68219502D01*
X60550464Y-68219502D02*
X60693321Y-68148074D01*
X60693321Y-68148074D02*
X60764750Y-68005217D01*
X60764750Y-68005217D02*
X60764750Y-67648074D01*
X60764750Y-67648074D02*
X60836178Y-67505217D01*
X61193321Y-66933788D02*
X60193321Y-66576645D01*
X60193321Y-66576645D02*
X61193321Y-66219502D01*
X60193321Y-65433788D02*
X60264750Y-65576645D01*
X60264750Y-65576645D02*
X60336178Y-65648074D01*
X60336178Y-65648074D02*
X60479035Y-65719502D01*
X60479035Y-65719502D02*
X60907607Y-65719502D01*
X60907607Y-65719502D02*
X61050464Y-65648074D01*
X61050464Y-65648074D02*
X61121892Y-65576645D01*
X61121892Y-65576645D02*
X61193321Y-65433788D01*
X61193321Y-65433788D02*
X61193321Y-65219502D01*
X61193321Y-65219502D02*
X61121892Y-65076645D01*
X61121892Y-65076645D02*
X61050464Y-65005217D01*
X61050464Y-65005217D02*
X60907607Y-64933788D01*
X60907607Y-64933788D02*
X60479035Y-64933788D01*
X60479035Y-64933788D02*
X60336178Y-65005217D01*
X60336178Y-65005217D02*
X60264750Y-65076645D01*
X60264750Y-65076645D02*
X60193321Y-65219502D01*
X60193321Y-65219502D02*
X60193321Y-65433788D01*
X60193321Y-64290931D02*
X61193321Y-64290931D01*
X60907607Y-64290931D02*
X61050464Y-64219502D01*
X61050464Y-64219502D02*
X61121892Y-64148074D01*
X61121892Y-64148074D02*
X61193321Y-64005216D01*
X61193321Y-64005216D02*
X61193321Y-63862359D01*
X61193321Y-63505217D02*
X60193321Y-63148074D01*
X61193321Y-62790931D02*
X60193321Y-63148074D01*
X60193321Y-63148074D02*
X59836178Y-63290931D01*
X59836178Y-63290931D02*
X59764750Y-63362360D01*
X59764750Y-63362360D02*
X59693321Y-63505217D01*
D12*
%TO.C,G\u002A\u002A\u002A*%
G36*
X54937432Y-81909251D02*
G01*
X54938804Y-81910550D01*
X54988609Y-81988650D01*
X54989418Y-82074183D01*
X54941079Y-82156777D01*
X54939780Y-82158148D01*
X54861679Y-82207953D01*
X54776147Y-82208762D01*
X54693553Y-82160424D01*
X54692181Y-82159124D01*
X54642377Y-82081024D01*
X54641568Y-81995491D01*
X54689906Y-81912898D01*
X54691206Y-81911526D01*
X54769306Y-81861721D01*
X54854839Y-81860912D01*
X54937432Y-81909251D01*
G37*
G36*
X54937432Y-84459660D02*
G01*
X54938804Y-84460960D01*
X54988609Y-84539060D01*
X54989418Y-84624593D01*
X54941079Y-84707186D01*
X54939780Y-84708558D01*
X54861679Y-84758363D01*
X54776147Y-84759172D01*
X54693553Y-84710833D01*
X54692181Y-84709534D01*
X54642377Y-84631433D01*
X54641568Y-84545901D01*
X54689906Y-84463307D01*
X54691206Y-84461935D01*
X54769306Y-84412131D01*
X54854839Y-84411322D01*
X54937432Y-84459660D01*
G37*
G36*
X54937432Y-87010070D02*
G01*
X54938804Y-87011370D01*
X54988609Y-87089470D01*
X54989418Y-87175003D01*
X54941079Y-87257596D01*
X54939780Y-87258968D01*
X54861679Y-87308773D01*
X54776147Y-87309582D01*
X54693553Y-87261243D01*
X54692181Y-87259944D01*
X54642377Y-87181843D01*
X54641568Y-87096310D01*
X54689906Y-87013717D01*
X54691206Y-87012345D01*
X54769306Y-86962541D01*
X54854839Y-86961732D01*
X54937432Y-87010070D01*
G37*
G36*
X54937432Y-88831792D02*
G01*
X54938804Y-88833091D01*
X54988609Y-88911191D01*
X54989418Y-88996724D01*
X54941079Y-89079317D01*
X54939780Y-89080689D01*
X54861679Y-89130494D01*
X54776147Y-89131303D01*
X54693553Y-89082965D01*
X54692181Y-89081665D01*
X54642377Y-89003565D01*
X54641568Y-88918032D01*
X54689906Y-88835439D01*
X54691206Y-88834067D01*
X54769306Y-88784262D01*
X54854839Y-88783453D01*
X54937432Y-88831792D01*
G37*
G36*
X55301777Y-84095316D02*
G01*
X55303148Y-84096616D01*
X55352953Y-84174716D01*
X55353762Y-84260249D01*
X55305424Y-84342842D01*
X55304124Y-84344214D01*
X55226024Y-84394019D01*
X55140491Y-84394828D01*
X55057898Y-84346489D01*
X55056526Y-84345189D01*
X55006721Y-84267089D01*
X55005912Y-84181556D01*
X55054251Y-84098963D01*
X55055550Y-84097591D01*
X55133650Y-84047787D01*
X55219183Y-84046977D01*
X55301777Y-84095316D01*
G37*
G36*
X55666121Y-81544906D02*
G01*
X55667493Y-81546206D01*
X55717297Y-81624306D01*
X55718106Y-81709839D01*
X55669768Y-81792432D01*
X55668468Y-81793804D01*
X55590368Y-81843609D01*
X55504835Y-81844418D01*
X55422242Y-81796079D01*
X55420870Y-81794780D01*
X55371065Y-81716679D01*
X55370256Y-81631147D01*
X55418595Y-81548553D01*
X55419894Y-81547181D01*
X55497995Y-81497377D01*
X55583527Y-81496568D01*
X55666121Y-81544906D01*
G37*
G36*
X57123498Y-83730972D02*
G01*
X57124870Y-83732271D01*
X57174674Y-83810372D01*
X57175484Y-83895905D01*
X57127145Y-83978498D01*
X57125845Y-83979870D01*
X57047745Y-84029674D01*
X56962212Y-84030484D01*
X56879619Y-83982145D01*
X56878247Y-83980845D01*
X56828442Y-83902745D01*
X56827633Y-83817212D01*
X56875972Y-83734619D01*
X56877271Y-83733247D01*
X56955372Y-83683442D01*
X57040905Y-83682633D01*
X57123498Y-83730972D01*
G37*
G36*
X57852186Y-81909251D02*
G01*
X57853558Y-81910550D01*
X57903363Y-81988650D01*
X57904172Y-82074183D01*
X57855833Y-82156777D01*
X57854534Y-82158148D01*
X57776433Y-82207953D01*
X57690901Y-82208762D01*
X57608307Y-82160424D01*
X57606935Y-82159124D01*
X57557131Y-82081024D01*
X57556322Y-81995491D01*
X57604660Y-81912898D01*
X57605960Y-81911526D01*
X57684060Y-81861721D01*
X57769593Y-81860912D01*
X57852186Y-81909251D01*
G37*
G36*
X57852186Y-91017857D02*
G01*
X57853558Y-91019157D01*
X57903363Y-91097257D01*
X57904172Y-91182790D01*
X57855833Y-91265383D01*
X57854534Y-91266755D01*
X57776433Y-91316559D01*
X57690901Y-91317369D01*
X57608307Y-91269030D01*
X57606935Y-91267730D01*
X57557131Y-91189630D01*
X57556322Y-91104097D01*
X57604660Y-91021504D01*
X57605960Y-91020132D01*
X57684060Y-90970328D01*
X57769593Y-90969518D01*
X57852186Y-91017857D01*
G37*
G36*
X58216531Y-81544906D02*
G01*
X58217903Y-81546206D01*
X58267707Y-81624306D01*
X58268516Y-81709839D01*
X58220178Y-81792432D01*
X58218878Y-81793804D01*
X58140778Y-81843609D01*
X58055245Y-81844418D01*
X57972652Y-81796079D01*
X57971280Y-81794780D01*
X57921475Y-81716679D01*
X57920666Y-81631147D01*
X57969005Y-81548553D01*
X57970304Y-81547181D01*
X58048405Y-81497377D01*
X58133937Y-81496568D01*
X58216531Y-81544906D01*
G37*
G36*
X58580875Y-84459660D02*
G01*
X58582247Y-84460960D01*
X58632051Y-84539060D01*
X58632861Y-84624593D01*
X58584522Y-84707186D01*
X58583222Y-84708558D01*
X58505122Y-84758363D01*
X58419589Y-84759172D01*
X58336996Y-84710833D01*
X58335624Y-84709534D01*
X58285819Y-84631433D01*
X58285010Y-84545901D01*
X58333349Y-84463307D01*
X58334649Y-84461935D01*
X58412749Y-84412131D01*
X58498282Y-84411322D01*
X58580875Y-84459660D01*
G37*
G36*
X58945219Y-81544906D02*
G01*
X58946591Y-81546206D01*
X58996396Y-81624306D01*
X58997205Y-81709839D01*
X58948866Y-81792432D01*
X58947566Y-81793804D01*
X58869466Y-81843609D01*
X58783933Y-81844418D01*
X58701340Y-81796079D01*
X58699968Y-81794780D01*
X58650164Y-81716679D01*
X58649354Y-81631147D01*
X58697693Y-81548553D01*
X58698993Y-81547181D01*
X58777093Y-81497377D01*
X58862626Y-81496568D01*
X58945219Y-81544906D01*
G37*
G36*
X59673908Y-92475234D02*
G01*
X59675280Y-92476534D01*
X59725084Y-92554634D01*
X59725893Y-92640167D01*
X59677555Y-92722760D01*
X59676255Y-92724132D01*
X59598155Y-92773937D01*
X59512622Y-92774746D01*
X59430029Y-92726407D01*
X59428657Y-92725107D01*
X59378852Y-92647007D01*
X59378043Y-92561474D01*
X59426382Y-92478881D01*
X59427681Y-92477509D01*
X59505782Y-92427705D01*
X59591314Y-92426895D01*
X59673908Y-92475234D01*
G37*
G36*
X60038252Y-92839578D02*
G01*
X60039624Y-92840878D01*
X60089428Y-92918978D01*
X60090238Y-93004511D01*
X60041899Y-93087104D01*
X60040599Y-93088476D01*
X59962499Y-93138281D01*
X59876966Y-93139090D01*
X59794373Y-93090751D01*
X59793001Y-93089452D01*
X59743197Y-93011351D01*
X59742387Y-92925819D01*
X59790726Y-92843225D01*
X59792026Y-92841853D01*
X59870126Y-92792049D01*
X59955659Y-92791240D01*
X60038252Y-92839578D01*
G37*
G36*
X60402596Y-92475234D02*
G01*
X60403968Y-92476534D01*
X60453773Y-92554634D01*
X60454582Y-92640167D01*
X60406243Y-92722760D01*
X60404944Y-92724132D01*
X60326843Y-92773937D01*
X60241310Y-92774746D01*
X60158717Y-92726407D01*
X60157345Y-92725107D01*
X60107541Y-92647007D01*
X60106732Y-92561474D01*
X60155070Y-92478881D01*
X60156370Y-92477509D01*
X60234470Y-92427705D01*
X60320003Y-92426895D01*
X60402596Y-92475234D01*
G37*
G36*
X60402596Y-93203923D02*
G01*
X60403968Y-93205222D01*
X60453773Y-93283323D01*
X60454582Y-93368855D01*
X60406243Y-93451449D01*
X60404944Y-93452821D01*
X60326843Y-93502625D01*
X60241310Y-93503434D01*
X60158717Y-93455096D01*
X60157345Y-93453796D01*
X60107541Y-93375696D01*
X60106732Y-93290163D01*
X60155070Y-93207570D01*
X60156370Y-93206198D01*
X60234470Y-93156393D01*
X60320003Y-93155584D01*
X60402596Y-93203923D01*
G37*
G36*
X60766940Y-92839578D02*
G01*
X60768312Y-92840878D01*
X60818117Y-92918978D01*
X60818926Y-93004511D01*
X60770587Y-93087104D01*
X60769288Y-93088476D01*
X60691188Y-93138281D01*
X60605655Y-93139090D01*
X60523061Y-93090751D01*
X60521690Y-93089452D01*
X60471885Y-93011351D01*
X60471076Y-92925819D01*
X60519414Y-92843225D01*
X60520714Y-92841853D01*
X60598814Y-92792049D01*
X60684347Y-92791240D01*
X60766940Y-92839578D01*
G37*
G36*
X61131285Y-81544906D02*
G01*
X61132657Y-81546206D01*
X61182461Y-81624306D01*
X61183270Y-81709839D01*
X61134932Y-81792432D01*
X61133632Y-81793804D01*
X61055532Y-81843609D01*
X60969999Y-81844418D01*
X60887406Y-81796079D01*
X60886034Y-81794780D01*
X60836229Y-81716679D01*
X60835420Y-81631147D01*
X60883759Y-81548553D01*
X60885058Y-81547181D01*
X60963159Y-81497377D01*
X61048691Y-81496568D01*
X61131285Y-81544906D01*
G37*
G36*
X61131285Y-87010070D02*
G01*
X61132657Y-87011370D01*
X61182461Y-87089470D01*
X61183270Y-87175003D01*
X61134932Y-87257596D01*
X61133632Y-87258968D01*
X61055532Y-87308773D01*
X60969999Y-87309582D01*
X60887406Y-87261243D01*
X60886034Y-87259944D01*
X60836229Y-87181843D01*
X60835420Y-87096310D01*
X60883759Y-87013717D01*
X60885058Y-87012345D01*
X60963159Y-86962541D01*
X61048691Y-86961732D01*
X61131285Y-87010070D01*
G37*
G36*
X61131285Y-93203923D02*
G01*
X61132657Y-93205222D01*
X61182461Y-93283323D01*
X61183270Y-93368855D01*
X61134932Y-93451449D01*
X61133632Y-93452821D01*
X61055532Y-93502625D01*
X60969999Y-93503434D01*
X60887406Y-93455096D01*
X60886034Y-93453796D01*
X60836229Y-93375696D01*
X60835420Y-93290163D01*
X60883759Y-93207570D01*
X60885058Y-93206198D01*
X60963159Y-93156393D01*
X61048691Y-93155584D01*
X61131285Y-93203923D01*
G37*
G36*
X61859973Y-84459660D02*
G01*
X61861345Y-84460960D01*
X61911150Y-84539060D01*
X61911959Y-84624593D01*
X61863620Y-84707186D01*
X61862321Y-84708558D01*
X61784220Y-84758363D01*
X61698688Y-84759172D01*
X61616094Y-84710833D01*
X61614722Y-84709534D01*
X61564918Y-84631433D01*
X61564109Y-84545901D01*
X61612447Y-84463307D01*
X61613747Y-84461935D01*
X61691847Y-84412131D01*
X61777380Y-84411322D01*
X61859973Y-84459660D01*
G37*
G36*
X62588662Y-82637939D02*
G01*
X62590034Y-82639239D01*
X62639838Y-82717339D01*
X62640647Y-82802872D01*
X62592309Y-82885465D01*
X62591009Y-82886837D01*
X62512909Y-82936641D01*
X62427376Y-82937451D01*
X62344783Y-82889112D01*
X62343411Y-82887812D01*
X62293606Y-82809712D01*
X62292797Y-82724179D01*
X62341136Y-82641586D01*
X62342435Y-82640214D01*
X62420536Y-82590410D01*
X62506068Y-82589600D01*
X62588662Y-82637939D01*
G37*
G36*
X63317350Y-87738759D02*
G01*
X63318722Y-87740058D01*
X63368527Y-87818159D01*
X63369336Y-87903691D01*
X63320997Y-87986285D01*
X63319698Y-87987657D01*
X63241597Y-88037461D01*
X63156065Y-88038270D01*
X63073471Y-87989932D01*
X63072099Y-87988632D01*
X63022295Y-87910532D01*
X63021486Y-87824999D01*
X63069824Y-87742406D01*
X63071124Y-87741034D01*
X63149224Y-87691229D01*
X63234757Y-87690420D01*
X63317350Y-87738759D01*
G37*
G36*
X63317350Y-89196136D02*
G01*
X63318722Y-89197435D01*
X63368527Y-89275536D01*
X63369336Y-89361068D01*
X63320997Y-89443662D01*
X63319698Y-89445034D01*
X63241597Y-89494838D01*
X63156065Y-89495647D01*
X63073471Y-89447309D01*
X63072099Y-89446009D01*
X63022295Y-89367909D01*
X63021486Y-89282376D01*
X63069824Y-89199783D01*
X63071124Y-89198411D01*
X63149224Y-89148606D01*
X63234757Y-89147797D01*
X63317350Y-89196136D01*
G37*
G36*
X63317350Y-91382201D02*
G01*
X63318722Y-91383501D01*
X63368527Y-91461601D01*
X63369336Y-91547134D01*
X63320997Y-91629727D01*
X63319698Y-91631099D01*
X63241597Y-91680904D01*
X63156065Y-91681713D01*
X63073471Y-91633374D01*
X63072099Y-91632075D01*
X63022295Y-91553974D01*
X63021486Y-91468442D01*
X63069824Y-91385848D01*
X63071124Y-91384476D01*
X63149224Y-91334672D01*
X63234757Y-91333863D01*
X63317350Y-91382201D01*
G37*
G36*
X63681695Y-83366628D02*
G01*
X63683067Y-83367927D01*
X63732871Y-83446028D01*
X63733680Y-83531560D01*
X63685342Y-83614154D01*
X63684042Y-83615526D01*
X63605942Y-83665330D01*
X63520409Y-83666139D01*
X63437816Y-83617801D01*
X63436444Y-83616501D01*
X63386639Y-83538401D01*
X63385830Y-83452868D01*
X63434169Y-83370275D01*
X63435468Y-83368903D01*
X63513569Y-83319098D01*
X63599101Y-83318289D01*
X63681695Y-83366628D01*
G37*
G36*
X63681695Y-88103103D02*
G01*
X63683067Y-88104403D01*
X63732871Y-88182503D01*
X63733680Y-88268036D01*
X63685342Y-88350629D01*
X63684042Y-88352001D01*
X63605942Y-88401805D01*
X63520409Y-88402615D01*
X63437816Y-88354276D01*
X63436444Y-88352976D01*
X63386639Y-88274876D01*
X63385830Y-88189343D01*
X63434169Y-88106750D01*
X63435468Y-88105378D01*
X63513569Y-88055574D01*
X63599101Y-88054764D01*
X63681695Y-88103103D01*
G37*
G36*
X63681695Y-91017857D02*
G01*
X63683067Y-91019157D01*
X63732871Y-91097257D01*
X63733680Y-91182790D01*
X63685342Y-91265383D01*
X63684042Y-91266755D01*
X63605942Y-91316559D01*
X63520409Y-91317369D01*
X63437816Y-91269030D01*
X63436444Y-91267730D01*
X63386639Y-91189630D01*
X63385830Y-91104097D01*
X63434169Y-91021504D01*
X63435468Y-91020132D01*
X63513569Y-90970328D01*
X63599101Y-90969518D01*
X63681695Y-91017857D01*
G37*
G36*
X64046039Y-85552693D02*
G01*
X64047411Y-85553993D01*
X64097215Y-85632093D01*
X64098025Y-85717626D01*
X64049686Y-85800219D01*
X64048386Y-85801591D01*
X63970286Y-85851396D01*
X63884753Y-85852205D01*
X63802160Y-85803866D01*
X63800788Y-85802566D01*
X63750983Y-85724466D01*
X63750174Y-85638933D01*
X63798513Y-85556340D01*
X63799812Y-85554968D01*
X63877913Y-85505164D01*
X63963446Y-85504354D01*
X64046039Y-85552693D01*
G37*
G36*
X64410383Y-88103103D02*
G01*
X64411755Y-88104403D01*
X64461559Y-88182503D01*
X64462369Y-88268036D01*
X64414030Y-88350629D01*
X64412730Y-88352001D01*
X64334630Y-88401805D01*
X64249097Y-88402615D01*
X64166504Y-88354276D01*
X64165132Y-88352976D01*
X64115328Y-88274876D01*
X64114518Y-88189343D01*
X64162857Y-88106750D01*
X64164157Y-88105378D01*
X64242257Y-88055574D01*
X64327790Y-88054764D01*
X64410383Y-88103103D01*
G37*
G36*
X64774727Y-87738759D02*
G01*
X64776099Y-87740058D01*
X64825904Y-87818159D01*
X64826713Y-87903691D01*
X64778374Y-87986285D01*
X64777075Y-87987657D01*
X64698974Y-88037461D01*
X64613442Y-88038270D01*
X64530848Y-87989932D01*
X64529476Y-87988632D01*
X64479672Y-87910532D01*
X64478863Y-87824999D01*
X64527201Y-87742406D01*
X64528501Y-87741034D01*
X64606601Y-87691229D01*
X64692134Y-87690420D01*
X64774727Y-87738759D01*
G37*
G36*
X64774727Y-88467447D02*
G01*
X64776099Y-88468747D01*
X64825904Y-88546847D01*
X64826713Y-88632380D01*
X64778374Y-88714973D01*
X64777075Y-88716345D01*
X64698974Y-88766150D01*
X64613442Y-88766959D01*
X64530848Y-88718620D01*
X64529476Y-88717321D01*
X64479672Y-88639220D01*
X64478863Y-88553688D01*
X64527201Y-88471094D01*
X64528501Y-88469722D01*
X64606601Y-88419918D01*
X64692134Y-88419109D01*
X64774727Y-88467447D01*
G37*
G36*
X64774727Y-89196136D02*
G01*
X64776099Y-89197435D01*
X64825904Y-89275536D01*
X64826713Y-89361068D01*
X64778374Y-89443662D01*
X64777075Y-89445034D01*
X64698974Y-89494838D01*
X64613442Y-89495647D01*
X64530848Y-89447309D01*
X64529476Y-89446009D01*
X64479672Y-89367909D01*
X64478863Y-89282376D01*
X64527201Y-89199783D01*
X64528501Y-89198411D01*
X64606601Y-89148606D01*
X64692134Y-89147797D01*
X64774727Y-89196136D01*
G37*
G36*
X65139072Y-87010070D02*
G01*
X65140444Y-87011370D01*
X65190248Y-87089470D01*
X65191057Y-87175003D01*
X65142719Y-87257596D01*
X65141419Y-87258968D01*
X65063319Y-87308773D01*
X64977786Y-87309582D01*
X64895193Y-87261243D01*
X64893821Y-87259944D01*
X64844016Y-87181843D01*
X64843207Y-87096310D01*
X64891546Y-87013717D01*
X64892845Y-87012345D01*
X64970946Y-86962541D01*
X65056478Y-86961732D01*
X65139072Y-87010070D01*
G37*
G36*
X65503416Y-88831792D02*
G01*
X65504788Y-88833091D01*
X65554592Y-88911191D01*
X65555402Y-88996724D01*
X65507063Y-89079317D01*
X65505763Y-89080689D01*
X65427663Y-89130494D01*
X65342130Y-89131303D01*
X65259537Y-89082965D01*
X65258165Y-89081665D01*
X65208360Y-89003565D01*
X65207551Y-88918032D01*
X65255890Y-88835439D01*
X65257190Y-88834067D01*
X65335290Y-88784262D01*
X65420823Y-88783453D01*
X65503416Y-88831792D01*
G37*
G36*
X65867760Y-85552693D02*
G01*
X65869132Y-85553993D01*
X65918937Y-85632093D01*
X65919746Y-85717626D01*
X65871407Y-85800219D01*
X65870107Y-85801591D01*
X65792007Y-85851396D01*
X65706474Y-85852205D01*
X65623881Y-85803866D01*
X65622509Y-85802566D01*
X65572705Y-85724466D01*
X65571895Y-85638933D01*
X65620234Y-85556340D01*
X65621534Y-85554968D01*
X65699634Y-85505164D01*
X65785167Y-85504354D01*
X65867760Y-85552693D01*
G37*
G36*
X66596449Y-84459660D02*
G01*
X66597821Y-84460960D01*
X66647625Y-84539060D01*
X66648434Y-84624593D01*
X66600096Y-84707186D01*
X66598796Y-84708558D01*
X66520696Y-84758363D01*
X66435163Y-84759172D01*
X66352570Y-84710833D01*
X66351198Y-84709534D01*
X66301393Y-84631433D01*
X66300584Y-84545901D01*
X66348923Y-84463307D01*
X66350222Y-84461935D01*
X66428323Y-84412131D01*
X66513855Y-84411322D01*
X66596449Y-84459660D01*
G37*
G36*
X66596449Y-86645726D02*
G01*
X66597821Y-86647026D01*
X66647625Y-86725126D01*
X66648434Y-86810659D01*
X66600096Y-86893252D01*
X66598796Y-86894624D01*
X66520696Y-86944428D01*
X66435163Y-86945238D01*
X66352570Y-86896899D01*
X66351198Y-86895599D01*
X66301393Y-86817499D01*
X66300584Y-86731966D01*
X66348923Y-86649373D01*
X66350222Y-86648001D01*
X66428323Y-86598197D01*
X66513855Y-86597387D01*
X66596449Y-86645726D01*
G37*
G36*
X66596449Y-89560480D02*
G01*
X66597821Y-89561780D01*
X66647625Y-89639880D01*
X66648434Y-89725413D01*
X66600096Y-89808006D01*
X66598796Y-89809378D01*
X66520696Y-89859182D01*
X66435163Y-89859992D01*
X66352570Y-89811653D01*
X66351198Y-89810353D01*
X66301393Y-89732253D01*
X66300584Y-89646720D01*
X66348923Y-89564127D01*
X66350222Y-89562755D01*
X66428323Y-89512951D01*
X66513855Y-89512141D01*
X66596449Y-89560480D01*
G37*
G36*
X56057990Y-91712477D02*
G01*
X56196410Y-91775768D01*
X56310528Y-91872951D01*
X56394876Y-91995946D01*
X56443987Y-92136673D01*
X56452392Y-92287052D01*
X56414625Y-92439003D01*
X56386437Y-92497459D01*
X56291272Y-92623823D01*
X56171343Y-92712981D01*
X56035213Y-92764775D01*
X55891449Y-92779044D01*
X55748616Y-92755629D01*
X55615278Y-92694370D01*
X55500000Y-92595109D01*
X55411348Y-92457685D01*
X55404877Y-92443141D01*
X55365890Y-92292088D01*
X55372613Y-92142111D01*
X55419808Y-92001289D01*
X55502235Y-91877699D01*
X55614657Y-91779420D01*
X55751833Y-91714529D01*
X55908526Y-91691103D01*
X56057990Y-91712477D01*
G37*
G36*
X65530941Y-82239527D02*
G01*
X65669361Y-82302817D01*
X65783479Y-82400000D01*
X65867827Y-82522995D01*
X65916938Y-82663722D01*
X65925343Y-82814101D01*
X65887575Y-82966052D01*
X65859388Y-83024508D01*
X65764223Y-83150872D01*
X65644294Y-83240030D01*
X65508164Y-83291824D01*
X65364400Y-83306093D01*
X65221567Y-83282678D01*
X65088228Y-83221420D01*
X64972951Y-83122158D01*
X64884299Y-82984735D01*
X64877828Y-82970191D01*
X64838840Y-82819137D01*
X64845564Y-82669160D01*
X64892759Y-82528338D01*
X64975186Y-82404749D01*
X65087608Y-82306469D01*
X65224784Y-82241578D01*
X65381476Y-82218152D01*
X65530941Y-82239527D01*
G37*
G36*
X65530941Y-91712477D02*
G01*
X65669361Y-91775768D01*
X65783479Y-91872951D01*
X65867827Y-91995946D01*
X65916938Y-92136673D01*
X65925343Y-92287052D01*
X65887575Y-92439003D01*
X65859388Y-92497459D01*
X65764223Y-92623823D01*
X65644294Y-92712981D01*
X65508164Y-92764775D01*
X65364400Y-92779044D01*
X65221567Y-92755629D01*
X65088228Y-92694370D01*
X64972951Y-92595109D01*
X64884299Y-92457685D01*
X64877828Y-92443141D01*
X64838840Y-92292088D01*
X64845564Y-92142111D01*
X64892759Y-92001289D01*
X64975186Y-91877699D01*
X65087608Y-91779420D01*
X65224784Y-91714529D01*
X65381476Y-91691103D01*
X65530941Y-91712477D01*
G37*
G36*
X54937432Y-89560480D02*
G01*
X54960342Y-89584531D01*
X54980301Y-89619272D01*
X54991561Y-89669383D01*
X54996542Y-89747083D01*
X54997665Y-89864592D01*
X54997267Y-89939395D01*
X54993772Y-90033826D01*
X54984763Y-90095863D01*
X54967959Y-90137904D01*
X54941079Y-90172350D01*
X54939780Y-90173722D01*
X54861679Y-90223527D01*
X54776147Y-90224336D01*
X54693553Y-90175997D01*
X54670644Y-90151946D01*
X54650684Y-90117205D01*
X54639424Y-90067094D01*
X54634443Y-89989395D01*
X54633321Y-89871886D01*
X54633719Y-89797082D01*
X54637213Y-89702651D01*
X54646223Y-89640615D01*
X54663027Y-89598574D01*
X54689906Y-89564127D01*
X54691206Y-89562755D01*
X54769306Y-89512951D01*
X54854839Y-89512141D01*
X54937432Y-89560480D01*
G37*
G36*
X55433166Y-86589539D02*
G01*
X55527597Y-86593033D01*
X55589633Y-86602042D01*
X55631674Y-86618847D01*
X55666121Y-86645726D01*
X55667493Y-86647026D01*
X55717297Y-86725126D01*
X55718106Y-86810659D01*
X55669768Y-86893252D01*
X55645717Y-86916161D01*
X55610975Y-86936121D01*
X55560865Y-86947381D01*
X55483165Y-86952362D01*
X55365656Y-86953485D01*
X55290853Y-86953086D01*
X55196421Y-86949592D01*
X55134385Y-86940583D01*
X55092344Y-86923778D01*
X55057898Y-86896899D01*
X55056526Y-86895599D01*
X55006721Y-86817499D01*
X55005912Y-86731966D01*
X55054251Y-86649373D01*
X55078301Y-86626464D01*
X55113043Y-86606504D01*
X55163153Y-86595244D01*
X55240853Y-86590263D01*
X55358362Y-86589140D01*
X55433166Y-86589539D01*
G37*
G36*
X59440953Y-93147735D02*
G01*
X59535384Y-93151230D01*
X59597420Y-93160239D01*
X59639461Y-93177043D01*
X59673908Y-93203923D01*
X59675280Y-93205222D01*
X59725084Y-93283323D01*
X59725893Y-93368855D01*
X59677555Y-93451449D01*
X59653504Y-93474358D01*
X59618762Y-93494317D01*
X59568652Y-93505578D01*
X59490952Y-93510559D01*
X59373443Y-93511681D01*
X59298640Y-93511283D01*
X59204208Y-93507789D01*
X59142172Y-93498779D01*
X59100131Y-93481975D01*
X59065684Y-93455096D01*
X59064312Y-93453796D01*
X59014508Y-93375696D01*
X59013699Y-93290163D01*
X59062037Y-93207570D01*
X59086088Y-93184660D01*
X59120830Y-93164701D01*
X59170940Y-93153441D01*
X59248640Y-93148460D01*
X59366149Y-93147337D01*
X59440953Y-93147735D01*
G37*
G36*
X61495629Y-85917037D02*
G01*
X61518538Y-85941088D01*
X61538498Y-85975830D01*
X61549758Y-86025940D01*
X61554739Y-86103640D01*
X61555862Y-86221149D01*
X61555463Y-86295953D01*
X61551969Y-86390384D01*
X61542960Y-86452420D01*
X61526155Y-86494461D01*
X61499276Y-86528908D01*
X61497976Y-86530280D01*
X61419876Y-86580084D01*
X61334343Y-86580893D01*
X61251750Y-86532555D01*
X61228841Y-86508504D01*
X61208881Y-86473762D01*
X61197621Y-86423652D01*
X61192640Y-86345952D01*
X61191517Y-86228443D01*
X61191916Y-86153640D01*
X61195410Y-86059208D01*
X61204419Y-85997172D01*
X61221224Y-85955131D01*
X61248103Y-85920684D01*
X61249403Y-85919312D01*
X61327503Y-85869508D01*
X61413036Y-85868699D01*
X61495629Y-85917037D01*
G37*
G36*
X62720051Y-88046916D02*
G01*
X62814482Y-88050410D01*
X62876518Y-88059419D01*
X62918559Y-88076224D01*
X62953006Y-88103103D01*
X62954378Y-88104403D01*
X63004182Y-88182503D01*
X63004992Y-88268036D01*
X62956653Y-88350629D01*
X62932602Y-88373538D01*
X62897861Y-88393498D01*
X62847750Y-88404758D01*
X62770050Y-88409739D01*
X62652541Y-88410862D01*
X62577738Y-88410463D01*
X62483307Y-88406969D01*
X62421271Y-88397960D01*
X62379229Y-88381155D01*
X62344783Y-88354276D01*
X62343411Y-88352976D01*
X62293606Y-88274876D01*
X62292797Y-88189343D01*
X62341136Y-88106750D01*
X62365187Y-88083841D01*
X62399928Y-88063881D01*
X62450039Y-88052621D01*
X62527738Y-88047640D01*
X62645247Y-88046517D01*
X62720051Y-88046916D01*
G37*
G36*
X63084395Y-86225194D02*
G01*
X63178826Y-86228689D01*
X63240863Y-86237698D01*
X63282904Y-86254502D01*
X63317350Y-86281382D01*
X63318722Y-86282681D01*
X63368527Y-86360782D01*
X63369336Y-86446314D01*
X63320997Y-86528908D01*
X63296946Y-86551817D01*
X63262205Y-86571776D01*
X63212094Y-86583037D01*
X63134395Y-86588018D01*
X63016886Y-86589140D01*
X62942082Y-86588742D01*
X62847651Y-86585248D01*
X62785615Y-86576238D01*
X62743574Y-86559434D01*
X62709127Y-86532555D01*
X62707755Y-86531255D01*
X62657951Y-86453155D01*
X62657141Y-86367622D01*
X62705480Y-86285029D01*
X62729531Y-86262119D01*
X62764272Y-86242160D01*
X62814383Y-86230900D01*
X62892083Y-86225919D01*
X63009592Y-86224796D01*
X63084395Y-86225194D01*
G37*
G36*
X63084395Y-93147735D02*
G01*
X63178826Y-93151230D01*
X63240863Y-93160239D01*
X63282904Y-93177043D01*
X63317350Y-93203923D01*
X63318722Y-93205222D01*
X63368527Y-93283323D01*
X63369336Y-93368855D01*
X63320997Y-93451449D01*
X63296946Y-93474358D01*
X63262205Y-93494317D01*
X63212094Y-93505578D01*
X63134395Y-93510559D01*
X63016886Y-93511681D01*
X62942082Y-93511283D01*
X62847651Y-93507789D01*
X62785615Y-93498779D01*
X62743574Y-93481975D01*
X62709127Y-93455096D01*
X62707755Y-93453796D01*
X62657951Y-93375696D01*
X62657141Y-93290163D01*
X62705480Y-93207570D01*
X62729531Y-93184660D01*
X62764272Y-93164701D01*
X62814383Y-93153441D01*
X62892083Y-93148460D01*
X63009592Y-93147337D01*
X63084395Y-93147735D01*
G37*
G36*
X64541772Y-90232981D02*
G01*
X64636204Y-90236476D01*
X64698240Y-90245485D01*
X64740281Y-90262289D01*
X64774727Y-90289169D01*
X64776099Y-90290468D01*
X64825904Y-90368569D01*
X64826713Y-90454101D01*
X64778374Y-90536695D01*
X64754323Y-90559604D01*
X64719582Y-90579563D01*
X64669471Y-90590823D01*
X64591772Y-90595805D01*
X64474263Y-90596927D01*
X64399459Y-90596529D01*
X64305028Y-90593035D01*
X64242992Y-90584025D01*
X64200951Y-90567221D01*
X64166504Y-90540342D01*
X64165132Y-90539042D01*
X64115328Y-90460942D01*
X64114518Y-90375409D01*
X64162857Y-90292816D01*
X64186908Y-90269906D01*
X64221649Y-90249947D01*
X64271760Y-90238687D01*
X64349460Y-90233705D01*
X64466969Y-90232583D01*
X64541772Y-90232981D01*
G37*
G36*
X62871827Y-82952833D02*
G01*
X62953006Y-83002283D01*
X62975915Y-83026334D01*
X62995875Y-83061076D01*
X63007135Y-83111186D01*
X63012116Y-83188886D01*
X63013239Y-83306395D01*
X63012840Y-83381198D01*
X63009346Y-83475630D01*
X63000337Y-83537666D01*
X62983532Y-83579707D01*
X62956653Y-83614154D01*
X62932602Y-83637063D01*
X62897861Y-83657022D01*
X62847750Y-83668282D01*
X62770050Y-83673264D01*
X62652541Y-83674386D01*
X62577738Y-83673988D01*
X62483307Y-83670494D01*
X62421271Y-83661484D01*
X62379229Y-83644680D01*
X62344783Y-83617801D01*
X62343411Y-83616501D01*
X62293606Y-83538401D01*
X62292797Y-83452868D01*
X62341136Y-83370275D01*
X62371764Y-83342966D01*
X62432533Y-83317134D01*
X62523308Y-83310042D01*
X62648894Y-83310042D01*
X62648894Y-83188102D01*
X62649491Y-83166432D01*
X62672610Y-83061776D01*
X62723074Y-82987806D01*
X62792331Y-82949749D01*
X62871827Y-82952833D01*
G37*
G36*
X62720051Y-90597325D02*
G01*
X62814482Y-90600820D01*
X62876518Y-90609829D01*
X62918559Y-90626634D01*
X62953006Y-90653513D01*
X62975915Y-90677564D01*
X62995875Y-90712305D01*
X63007135Y-90762416D01*
X63012116Y-90840115D01*
X63013239Y-90957624D01*
X63012840Y-91032428D01*
X63009346Y-91126859D01*
X63000337Y-91188895D01*
X62983532Y-91230936D01*
X62956653Y-91265383D01*
X62955353Y-91266755D01*
X62877253Y-91316559D01*
X62791720Y-91317369D01*
X62709127Y-91269030D01*
X62681818Y-91238402D01*
X62655987Y-91177633D01*
X62648894Y-91086858D01*
X62648894Y-90961271D01*
X62526955Y-90961271D01*
X62499776Y-90960745D01*
X62409888Y-90945495D01*
X62344783Y-90904686D01*
X62343411Y-90903386D01*
X62293606Y-90825286D01*
X62292797Y-90739753D01*
X62341136Y-90657160D01*
X62365187Y-90634250D01*
X62399928Y-90614291D01*
X62450039Y-90603031D01*
X62527738Y-90598050D01*
X62645247Y-90596927D01*
X62720051Y-90597325D01*
G37*
G36*
X66596449Y-87738759D02*
G01*
X66614505Y-87756893D01*
X66631734Y-87781912D01*
X66643493Y-87816916D01*
X66650826Y-87870318D01*
X66654774Y-87950532D01*
X66656378Y-88065969D01*
X66656681Y-88225042D01*
X66656567Y-88326237D01*
X66655450Y-88458887D01*
X66652324Y-88553065D01*
X66646206Y-88617266D01*
X66636116Y-88659988D01*
X66621073Y-88689725D01*
X66600096Y-88714973D01*
X66598796Y-88716345D01*
X66520696Y-88766150D01*
X66435163Y-88766959D01*
X66352570Y-88718620D01*
X66334514Y-88700485D01*
X66317285Y-88675467D01*
X66305525Y-88640463D01*
X66298192Y-88587061D01*
X66294245Y-88506847D01*
X66292640Y-88391410D01*
X66292337Y-88232336D01*
X66292451Y-88131142D01*
X66293568Y-87998492D01*
X66296695Y-87904314D01*
X66302812Y-87840113D01*
X66312902Y-87797391D01*
X66327945Y-87767654D01*
X66348923Y-87742406D01*
X66350222Y-87741034D01*
X66428323Y-87691229D01*
X66513855Y-87690420D01*
X66596449Y-87738759D01*
G37*
G36*
X55584941Y-85503243D02*
G01*
X55666121Y-85552693D01*
X55693430Y-85583322D01*
X55719261Y-85644090D01*
X55726353Y-85734865D01*
X55726353Y-85860452D01*
X55848293Y-85860452D01*
X55869963Y-85861049D01*
X55974619Y-85884167D01*
X56048589Y-85934632D01*
X56086646Y-86003889D01*
X56083563Y-86083384D01*
X56034112Y-86164563D01*
X56015977Y-86182619D01*
X55990959Y-86199848D01*
X55955955Y-86211608D01*
X55902552Y-86218941D01*
X55822339Y-86222888D01*
X55706902Y-86224493D01*
X55547828Y-86224796D01*
X55446634Y-86224682D01*
X55313984Y-86223565D01*
X55219806Y-86220438D01*
X55155604Y-86214321D01*
X55112883Y-86204231D01*
X55083146Y-86189188D01*
X55057898Y-86168210D01*
X55056526Y-86166911D01*
X55006721Y-86088810D01*
X55005912Y-86003278D01*
X55054251Y-85920684D01*
X55084879Y-85893376D01*
X55145648Y-85867544D01*
X55236423Y-85860452D01*
X55362009Y-85860452D01*
X55362009Y-85738512D01*
X55362606Y-85716842D01*
X55385724Y-85612186D01*
X55436189Y-85538216D01*
X55505446Y-85500159D01*
X55584941Y-85503243D01*
G37*
G36*
X55220597Y-84774554D02*
G01*
X55301777Y-84824005D01*
X55324686Y-84848055D01*
X55344645Y-84882797D01*
X55355905Y-84932908D01*
X55360887Y-85010607D01*
X55362009Y-85128116D01*
X55361611Y-85202920D01*
X55358117Y-85297351D01*
X55349107Y-85359387D01*
X55332303Y-85401428D01*
X55305424Y-85435875D01*
X55274795Y-85463184D01*
X55214027Y-85489015D01*
X55123251Y-85496108D01*
X54997665Y-85496108D01*
X54997665Y-85618047D01*
X54997068Y-85639717D01*
X54973950Y-85744374D01*
X54923485Y-85818344D01*
X54854228Y-85856400D01*
X54774733Y-85853317D01*
X54693553Y-85803866D01*
X54670644Y-85779815D01*
X54650684Y-85745074D01*
X54639424Y-85694963D01*
X54634443Y-85617263D01*
X54633321Y-85499755D01*
X54633719Y-85424951D01*
X54637213Y-85330520D01*
X54646223Y-85268484D01*
X54663027Y-85226443D01*
X54689906Y-85191996D01*
X54720535Y-85164687D01*
X54781303Y-85138856D01*
X54872078Y-85131763D01*
X54997665Y-85131763D01*
X54997665Y-85009824D01*
X54998262Y-84988154D01*
X55021380Y-84883497D01*
X55071845Y-84809527D01*
X55141102Y-84771471D01*
X55220597Y-84774554D01*
G37*
G36*
X65503416Y-87374414D02*
G01*
X65521472Y-87392549D01*
X65538701Y-87417567D01*
X65550461Y-87452571D01*
X65557793Y-87505974D01*
X65561741Y-87586188D01*
X65563345Y-87701625D01*
X65563648Y-87860698D01*
X65563535Y-87961893D01*
X65562417Y-88094543D01*
X65559291Y-88188720D01*
X65553173Y-88252922D01*
X65543084Y-88295643D01*
X65528040Y-88325380D01*
X65507063Y-88350629D01*
X65483012Y-88373538D01*
X65448271Y-88393498D01*
X65398160Y-88404758D01*
X65320460Y-88409739D01*
X65202951Y-88410862D01*
X65128148Y-88410463D01*
X65033716Y-88406969D01*
X64971680Y-88397960D01*
X64929639Y-88381155D01*
X64895193Y-88354276D01*
X64893821Y-88352976D01*
X64844016Y-88274876D01*
X64843207Y-88189343D01*
X64891546Y-88106750D01*
X64922174Y-88079441D01*
X64982943Y-88053610D01*
X65073718Y-88046517D01*
X65199304Y-88046517D01*
X65199304Y-87742406D01*
X65199360Y-87698304D01*
X65200832Y-87579301D01*
X65205560Y-87498473D01*
X65215205Y-87445122D01*
X65231428Y-87408550D01*
X65255890Y-87378061D01*
X65257190Y-87376690D01*
X65335290Y-87326885D01*
X65420823Y-87326076D01*
X65503416Y-87374414D01*
G37*
G36*
X59957073Y-88417997D02*
G01*
X60038252Y-88467447D01*
X60056308Y-88485582D01*
X60073537Y-88510600D01*
X60085297Y-88545604D01*
X60092629Y-88599007D01*
X60096577Y-88679221D01*
X60098181Y-88794658D01*
X60098485Y-88953731D01*
X60098628Y-89033929D01*
X60098087Y-89197139D01*
X60091129Y-89317508D01*
X60071344Y-89401531D01*
X60032320Y-89455708D01*
X59967647Y-89486536D01*
X59870912Y-89500511D01*
X59735705Y-89504131D01*
X59555615Y-89503894D01*
X59454420Y-89503781D01*
X59321771Y-89502663D01*
X59227593Y-89499537D01*
X59163391Y-89493419D01*
X59120670Y-89483329D01*
X59090933Y-89468286D01*
X59065684Y-89447309D01*
X59064312Y-89446009D01*
X59014508Y-89367909D01*
X59013699Y-89282376D01*
X59062037Y-89199783D01*
X59092666Y-89172474D01*
X59153434Y-89146642D01*
X59244210Y-89139550D01*
X59369796Y-89139550D01*
X59369796Y-89017611D01*
X59378517Y-88926175D01*
X59418594Y-88840091D01*
X59494184Y-88790874D01*
X59608554Y-88775206D01*
X59734140Y-88775206D01*
X59734140Y-88653266D01*
X59734737Y-88631596D01*
X59757855Y-88526940D01*
X59808320Y-88452970D01*
X59877577Y-88414913D01*
X59957073Y-88417997D01*
G37*
G36*
X63448739Y-84039129D02*
G01*
X63543171Y-84042623D01*
X63605207Y-84051632D01*
X63647248Y-84068437D01*
X63681695Y-84095316D01*
X63683067Y-84096616D01*
X63732871Y-84174716D01*
X63733680Y-84260249D01*
X63685342Y-84342842D01*
X63654713Y-84370151D01*
X63593945Y-84395982D01*
X63503169Y-84403075D01*
X63377583Y-84403075D01*
X63377583Y-84525014D01*
X63377057Y-84552193D01*
X63361807Y-84642081D01*
X63320997Y-84707186D01*
X63296946Y-84730096D01*
X63262205Y-84750055D01*
X63212094Y-84761315D01*
X63134395Y-84766296D01*
X63016886Y-84767419D01*
X62942082Y-84767021D01*
X62847651Y-84763526D01*
X62785615Y-84754517D01*
X62743574Y-84737713D01*
X62709127Y-84710833D01*
X62707755Y-84709534D01*
X62657951Y-84631433D01*
X62657141Y-84545901D01*
X62705480Y-84463307D01*
X62736108Y-84435998D01*
X62796877Y-84410167D01*
X62887652Y-84403075D01*
X63013239Y-84403075D01*
X63013239Y-84281135D01*
X63013765Y-84253956D01*
X63029015Y-84164069D01*
X63069824Y-84098963D01*
X63093875Y-84076054D01*
X63128617Y-84056094D01*
X63178727Y-84044834D01*
X63256427Y-84039853D01*
X63373936Y-84038730D01*
X63448739Y-84039129D01*
G37*
G36*
X61991362Y-81488719D02*
G01*
X62085794Y-81492213D01*
X62147830Y-81501223D01*
X62189871Y-81518027D01*
X62224317Y-81544906D01*
X62251626Y-81575535D01*
X62277458Y-81636303D01*
X62284550Y-81727078D01*
X62284550Y-81852665D01*
X62406490Y-81852665D01*
X62428160Y-81853262D01*
X62532816Y-81876380D01*
X62606786Y-81926845D01*
X62644843Y-81996102D01*
X62641759Y-82075597D01*
X62592309Y-82156777D01*
X62561680Y-82184085D01*
X62500912Y-82209917D01*
X62410137Y-82217009D01*
X62284550Y-82217009D01*
X62284550Y-82338949D01*
X62283953Y-82360619D01*
X62260835Y-82465275D01*
X62210370Y-82539245D01*
X62141113Y-82577302D01*
X62061618Y-82574218D01*
X61980439Y-82524768D01*
X61965764Y-82510237D01*
X61944745Y-82481510D01*
X61931412Y-82442641D01*
X61924032Y-82383153D01*
X61920874Y-82292573D01*
X61920206Y-82160424D01*
X61920206Y-81852665D01*
X61798266Y-81852665D01*
X61771087Y-81852139D01*
X61681200Y-81836889D01*
X61616094Y-81796079D01*
X61614722Y-81794780D01*
X61564918Y-81716679D01*
X61564109Y-81631147D01*
X61612447Y-81548553D01*
X61636498Y-81525644D01*
X61671240Y-81505684D01*
X61721350Y-81494424D01*
X61799050Y-81489443D01*
X61916559Y-81488321D01*
X61991362Y-81488719D01*
G37*
G36*
X57852186Y-88103103D02*
G01*
X57879495Y-88133731D01*
X57905327Y-88194500D01*
X57912419Y-88285275D01*
X57912419Y-88410862D01*
X58034358Y-88410862D01*
X58125795Y-88419582D01*
X58211878Y-88459660D01*
X58261095Y-88535249D01*
X58276763Y-88649619D01*
X58276763Y-88775206D01*
X58398703Y-88775206D01*
X58420373Y-88775803D01*
X58525029Y-88798921D01*
X58598999Y-88849386D01*
X58637056Y-88918643D01*
X58633972Y-88998138D01*
X58584522Y-89079317D01*
X58560471Y-89102227D01*
X58525730Y-89122186D01*
X58475619Y-89133446D01*
X58397919Y-89138428D01*
X58280410Y-89139550D01*
X58205607Y-89139152D01*
X58111175Y-89135658D01*
X58049139Y-89126648D01*
X58007098Y-89109844D01*
X57972652Y-89082965D01*
X57945343Y-89052336D01*
X57919511Y-88991567D01*
X57912419Y-88900792D01*
X57912419Y-88775206D01*
X57790480Y-88775206D01*
X57763300Y-88774680D01*
X57673413Y-88759430D01*
X57608307Y-88718620D01*
X57585398Y-88694569D01*
X57565439Y-88659828D01*
X57554178Y-88609717D01*
X57549197Y-88532018D01*
X57548075Y-88414509D01*
X57548473Y-88339705D01*
X57551967Y-88245274D01*
X57560977Y-88183238D01*
X57577781Y-88141197D01*
X57604660Y-88106750D01*
X57605960Y-88105378D01*
X57684060Y-88055574D01*
X57769593Y-88054764D01*
X57852186Y-88103103D01*
G37*
G36*
X65867760Y-89560480D02*
G01*
X65895069Y-89591108D01*
X65920900Y-89651877D01*
X65927993Y-89742652D01*
X65927993Y-89868239D01*
X66049932Y-89868239D01*
X66077111Y-89868765D01*
X66166999Y-89884015D01*
X66232104Y-89924824D01*
X66255014Y-89948875D01*
X66274973Y-89983617D01*
X66286233Y-90033727D01*
X66291214Y-90111427D01*
X66292337Y-90228936D01*
X66291939Y-90303739D01*
X66288444Y-90398171D01*
X66279435Y-90460207D01*
X66262631Y-90502248D01*
X66235751Y-90536695D01*
X66217617Y-90554750D01*
X66192599Y-90571979D01*
X66157594Y-90583739D01*
X66104192Y-90591072D01*
X66023978Y-90595020D01*
X65908541Y-90596624D01*
X65749468Y-90596927D01*
X65648273Y-90596813D01*
X65515623Y-90595696D01*
X65421445Y-90592569D01*
X65357244Y-90586452D01*
X65314522Y-90576362D01*
X65284785Y-90561319D01*
X65259537Y-90540342D01*
X65258165Y-90539042D01*
X65208360Y-90460942D01*
X65207551Y-90375409D01*
X65255890Y-90292816D01*
X65286518Y-90265507D01*
X65347287Y-90239675D01*
X65438062Y-90232583D01*
X65563648Y-90232583D01*
X65563648Y-89928471D01*
X65563704Y-89884369D01*
X65565177Y-89765367D01*
X65569905Y-89684538D01*
X65579549Y-89631187D01*
X65595772Y-89594616D01*
X65620234Y-89564127D01*
X65621534Y-89562755D01*
X65699634Y-89512951D01*
X65785167Y-89512141D01*
X65867760Y-89560480D01*
G37*
G36*
X61495629Y-81909251D02*
G01*
X61510303Y-81923781D01*
X61531322Y-81952508D01*
X61544656Y-81991377D01*
X61552036Y-82050865D01*
X61555194Y-82141446D01*
X61555862Y-82273595D01*
X61555862Y-82581353D01*
X61677801Y-82581353D01*
X61769237Y-82590074D01*
X61855321Y-82630152D01*
X61904538Y-82705741D01*
X61920206Y-82820111D01*
X61920206Y-82945698D01*
X62042145Y-82945698D01*
X62063815Y-82946295D01*
X62168472Y-82969413D01*
X62242442Y-83019878D01*
X62280498Y-83089135D01*
X62277415Y-83168630D01*
X62227965Y-83249809D01*
X62203914Y-83272719D01*
X62169172Y-83292678D01*
X62119062Y-83303938D01*
X62041362Y-83308919D01*
X61923853Y-83310042D01*
X61849049Y-83309644D01*
X61754618Y-83306149D01*
X61692582Y-83297140D01*
X61650541Y-83280336D01*
X61616094Y-83253456D01*
X61588785Y-83222828D01*
X61562954Y-83162059D01*
X61555862Y-83071284D01*
X61555862Y-82945698D01*
X61433922Y-82945698D01*
X61406743Y-82945171D01*
X61316856Y-82929922D01*
X61251750Y-82889112D01*
X61233694Y-82870977D01*
X61216465Y-82845959D01*
X61204705Y-82810955D01*
X61197373Y-82757552D01*
X61193425Y-82677339D01*
X61191821Y-82561902D01*
X61191517Y-82402828D01*
X61191631Y-82301634D01*
X61192748Y-82168984D01*
X61195875Y-82074806D01*
X61201993Y-82010604D01*
X61212082Y-81967883D01*
X61227125Y-81938146D01*
X61248103Y-81912898D01*
X61249403Y-81911526D01*
X61327503Y-81861721D01*
X61413036Y-81860912D01*
X61495629Y-81909251D01*
G37*
G36*
X64046039Y-86281382D02*
G01*
X64073348Y-86312010D01*
X64099179Y-86372779D01*
X64106271Y-86463554D01*
X64106271Y-86589140D01*
X64228211Y-86589140D01*
X64249881Y-86589737D01*
X64354537Y-86612855D01*
X64428507Y-86663320D01*
X64466564Y-86732577D01*
X64463481Y-86812073D01*
X64414030Y-86893252D01*
X64383402Y-86920561D01*
X64322633Y-86946392D01*
X64231858Y-86953485D01*
X64106271Y-86953485D01*
X64106271Y-87135657D01*
X64106271Y-87317829D01*
X64228211Y-87317829D01*
X64249881Y-87318426D01*
X64354537Y-87341544D01*
X64428507Y-87392009D01*
X64466564Y-87461266D01*
X64463481Y-87540761D01*
X64414030Y-87621940D01*
X64395895Y-87639996D01*
X64370877Y-87657225D01*
X64335873Y-87668985D01*
X64282470Y-87676318D01*
X64202257Y-87680265D01*
X64086820Y-87681870D01*
X63927746Y-87682173D01*
X63826552Y-87682059D01*
X63693902Y-87680942D01*
X63599724Y-87677815D01*
X63535523Y-87671698D01*
X63492801Y-87661608D01*
X63463064Y-87646565D01*
X63437816Y-87625587D01*
X63436444Y-87624288D01*
X63386639Y-87546188D01*
X63385830Y-87460655D01*
X63434169Y-87378061D01*
X63464797Y-87350753D01*
X63525566Y-87324921D01*
X63616341Y-87317829D01*
X63741927Y-87317829D01*
X63741927Y-86831545D01*
X63741929Y-86811429D01*
X63742302Y-86645404D01*
X63743890Y-86522750D01*
X63747504Y-86435609D01*
X63753961Y-86376125D01*
X63764072Y-86336438D01*
X63778651Y-86308692D01*
X63798513Y-86285029D01*
X63799812Y-86283657D01*
X63877913Y-86233852D01*
X63963446Y-86233043D01*
X64046039Y-86281382D01*
G37*
G36*
X61778794Y-88782341D02*
G01*
X61859973Y-88831792D01*
X61882883Y-88855842D01*
X61902842Y-88890584D01*
X61914102Y-88940694D01*
X61919083Y-89018394D01*
X61920206Y-89135903D01*
X61919808Y-89210707D01*
X61916313Y-89305138D01*
X61907304Y-89367174D01*
X61890500Y-89409215D01*
X61863620Y-89443662D01*
X61856434Y-89451196D01*
X61834759Y-89470303D01*
X61807547Y-89484127D01*
X61767045Y-89493521D01*
X61705501Y-89499341D01*
X61615165Y-89502440D01*
X61488283Y-89503673D01*
X61317104Y-89503894D01*
X60827173Y-89503894D01*
X60827173Y-89625834D01*
X60826647Y-89653013D01*
X60811397Y-89742900D01*
X60770587Y-89808006D01*
X60746537Y-89830915D01*
X60711795Y-89850875D01*
X60661685Y-89862135D01*
X60583985Y-89867116D01*
X60466476Y-89868239D01*
X60391672Y-89867840D01*
X60297241Y-89864346D01*
X60235205Y-89855337D01*
X60193164Y-89838532D01*
X60158717Y-89811653D01*
X60157345Y-89810353D01*
X60107541Y-89732253D01*
X60106732Y-89646720D01*
X60155070Y-89564127D01*
X60185699Y-89536818D01*
X60246467Y-89510987D01*
X60337242Y-89503894D01*
X60462829Y-89503894D01*
X60462829Y-89381955D01*
X60463355Y-89354776D01*
X60478605Y-89264888D01*
X60519414Y-89199783D01*
X60526601Y-89192249D01*
X60548276Y-89173141D01*
X60575488Y-89159318D01*
X60615990Y-89149923D01*
X60677533Y-89144103D01*
X60767870Y-89141004D01*
X60894752Y-89139771D01*
X61065931Y-89139550D01*
X61555862Y-89139550D01*
X61555862Y-89017611D01*
X61556459Y-88995941D01*
X61579577Y-88891284D01*
X61630042Y-88817314D01*
X61699299Y-88779258D01*
X61778794Y-88782341D01*
G37*
G36*
X63084395Y-81488719D02*
G01*
X63178826Y-81492213D01*
X63240863Y-81501223D01*
X63282904Y-81518027D01*
X63317350Y-81544906D01*
X63344659Y-81575535D01*
X63370491Y-81636303D01*
X63377583Y-81727078D01*
X63377583Y-81852665D01*
X63499522Y-81852665D01*
X63526702Y-81853191D01*
X63616589Y-81868441D01*
X63681695Y-81909251D01*
X63699750Y-81927385D01*
X63716979Y-81952403D01*
X63728739Y-81987408D01*
X63736072Y-82040810D01*
X63740020Y-82121024D01*
X63741624Y-82236461D01*
X63741927Y-82395534D01*
X63741813Y-82496729D01*
X63740696Y-82629379D01*
X63737569Y-82723557D01*
X63731452Y-82787758D01*
X63721362Y-82830479D01*
X63706319Y-82860216D01*
X63685342Y-82885465D01*
X63684042Y-82886837D01*
X63605942Y-82936641D01*
X63520409Y-82937451D01*
X63437816Y-82889112D01*
X63410507Y-82858484D01*
X63384675Y-82797715D01*
X63377583Y-82706940D01*
X63377583Y-82581353D01*
X63073471Y-82581353D01*
X63029369Y-82581298D01*
X62910367Y-82579825D01*
X62829538Y-82575097D01*
X62776187Y-82565453D01*
X62739616Y-82549230D01*
X62709127Y-82524768D01*
X62707755Y-82523468D01*
X62657951Y-82445368D01*
X62657141Y-82359835D01*
X62705480Y-82277242D01*
X62736108Y-82249933D01*
X62796877Y-82224101D01*
X62887652Y-82217009D01*
X63013239Y-82217009D01*
X63013239Y-82034837D01*
X63013239Y-81852665D01*
X62891299Y-81852665D01*
X62869629Y-81852068D01*
X62764973Y-81828950D01*
X62691003Y-81778485D01*
X62652946Y-81709228D01*
X62656030Y-81629733D01*
X62705480Y-81548553D01*
X62729531Y-81525644D01*
X62764272Y-81505684D01*
X62814383Y-81494424D01*
X62892083Y-81489443D01*
X63009592Y-81488321D01*
X63084395Y-81488719D01*
G37*
G36*
X58864040Y-85138898D02*
G01*
X58945219Y-85188349D01*
X58959893Y-85202880D01*
X58980912Y-85231606D01*
X58994246Y-85270476D01*
X59001626Y-85329963D01*
X59004784Y-85420544D01*
X59005452Y-85552693D01*
X59005452Y-85860452D01*
X59127391Y-85860452D01*
X59149061Y-85861049D01*
X59253718Y-85884167D01*
X59327688Y-85934632D01*
X59365744Y-86003889D01*
X59362661Y-86083384D01*
X59313210Y-86164563D01*
X59289160Y-86187473D01*
X59254418Y-86207432D01*
X59204307Y-86218692D01*
X59126608Y-86223673D01*
X59009099Y-86224796D01*
X58934295Y-86224398D01*
X58839864Y-86220903D01*
X58777828Y-86211894D01*
X58735787Y-86195090D01*
X58701340Y-86168210D01*
X58674031Y-86137582D01*
X58648200Y-86076813D01*
X58641108Y-85986038D01*
X58641108Y-85860452D01*
X58154824Y-85860452D01*
X58134708Y-85860450D01*
X57968682Y-85860077D01*
X57846028Y-85858489D01*
X57758888Y-85854875D01*
X57699403Y-85848418D01*
X57659717Y-85838307D01*
X57631971Y-85823728D01*
X57608307Y-85803866D01*
X57606935Y-85802566D01*
X57557131Y-85724466D01*
X57556322Y-85638933D01*
X57604660Y-85556340D01*
X57635289Y-85529031D01*
X57696057Y-85503200D01*
X57786832Y-85496108D01*
X57912419Y-85496108D01*
X57912419Y-85374168D01*
X57913016Y-85352498D01*
X57936134Y-85247841D01*
X57986599Y-85173872D01*
X58055856Y-85135815D01*
X58135351Y-85138898D01*
X58216531Y-85188349D01*
X58243839Y-85218977D01*
X58269671Y-85279746D01*
X58276763Y-85370521D01*
X58276763Y-85496108D01*
X58458935Y-85496108D01*
X58641108Y-85496108D01*
X58641108Y-85374168D01*
X58641704Y-85352498D01*
X58664823Y-85247841D01*
X58715287Y-85173872D01*
X58784545Y-85135815D01*
X58864040Y-85138898D01*
G37*
G36*
X60685761Y-85503243D02*
G01*
X60766940Y-85552693D01*
X60773425Y-85558841D01*
X60791010Y-85578089D01*
X60804270Y-85601934D01*
X60813813Y-85637154D01*
X60820251Y-85690528D01*
X60824196Y-85768836D01*
X60826257Y-85878856D01*
X60827046Y-86027367D01*
X60827173Y-86221149D01*
X60827172Y-86245628D01*
X60826939Y-86434327D01*
X60825902Y-86578581D01*
X60823486Y-86685220D01*
X60819115Y-86761075D01*
X60812215Y-86812975D01*
X60802210Y-86847751D01*
X60788526Y-86872233D01*
X60770587Y-86893252D01*
X60769288Y-86894624D01*
X60691188Y-86944428D01*
X60605655Y-86945238D01*
X60523061Y-86896899D01*
X60508387Y-86882368D01*
X60487368Y-86853642D01*
X60474035Y-86814772D01*
X60466655Y-86755285D01*
X60463497Y-86664704D01*
X60462829Y-86532555D01*
X60462829Y-86224796D01*
X60280657Y-86224796D01*
X60098485Y-86224796D01*
X60098485Y-86346736D01*
X60097958Y-86373915D01*
X60082709Y-86463802D01*
X60041899Y-86528908D01*
X60017848Y-86551817D01*
X59983107Y-86571776D01*
X59932996Y-86583037D01*
X59855296Y-86588018D01*
X59737787Y-86589140D01*
X59662984Y-86588742D01*
X59568552Y-86585248D01*
X59506516Y-86576238D01*
X59464475Y-86559434D01*
X59430029Y-86532555D01*
X59428657Y-86531255D01*
X59378852Y-86453155D01*
X59378043Y-86367622D01*
X59426382Y-86285029D01*
X59457010Y-86257720D01*
X59517779Y-86231888D01*
X59608554Y-86224796D01*
X59734140Y-86224796D01*
X59734140Y-86102857D01*
X59734667Y-86075677D01*
X59749916Y-85985790D01*
X59790726Y-85920684D01*
X59805257Y-85906010D01*
X59833983Y-85884991D01*
X59872853Y-85871658D01*
X59932340Y-85864278D01*
X60022921Y-85861120D01*
X60155070Y-85860452D01*
X60462829Y-85860452D01*
X60462829Y-85738512D01*
X60463426Y-85716842D01*
X60486544Y-85612186D01*
X60537009Y-85538216D01*
X60606266Y-85500159D01*
X60685761Y-85503243D01*
G37*
G36*
X66515269Y-85503243D02*
G01*
X66596449Y-85552693D01*
X66619358Y-85576744D01*
X66639317Y-85611486D01*
X66650578Y-85661596D01*
X66655559Y-85739296D01*
X66656681Y-85856805D01*
X66656283Y-85931608D01*
X66652789Y-86026040D01*
X66643779Y-86088076D01*
X66626975Y-86130117D01*
X66600096Y-86164563D01*
X66569467Y-86191872D01*
X66508699Y-86217704D01*
X66417924Y-86224796D01*
X66292337Y-86224796D01*
X66292337Y-86346736D01*
X66283617Y-86438172D01*
X66243539Y-86524256D01*
X66167949Y-86573472D01*
X66053579Y-86589140D01*
X65927993Y-86589140D01*
X65927993Y-86711080D01*
X65927396Y-86732750D01*
X65904278Y-86837406D01*
X65853813Y-86911376D01*
X65784556Y-86949433D01*
X65705060Y-86946349D01*
X65623881Y-86896899D01*
X65596572Y-86866271D01*
X65570741Y-86805502D01*
X65563648Y-86714727D01*
X65563648Y-86589140D01*
X65259537Y-86589140D01*
X65215435Y-86589085D01*
X65096432Y-86587612D01*
X65015604Y-86582884D01*
X64962253Y-86573240D01*
X64925682Y-86557017D01*
X64895193Y-86532555D01*
X64893821Y-86531255D01*
X64844016Y-86453155D01*
X64843207Y-86367622D01*
X64891546Y-86285029D01*
X64922174Y-86257720D01*
X64982943Y-86231888D01*
X65073718Y-86224796D01*
X65199304Y-86224796D01*
X65199304Y-86102857D01*
X65199901Y-86081186D01*
X65223019Y-85976530D01*
X65273484Y-85902560D01*
X65342741Y-85864503D01*
X65422237Y-85867587D01*
X65503416Y-85917037D01*
X65530725Y-85947666D01*
X65556556Y-86008434D01*
X65563648Y-86099210D01*
X65563648Y-86224796D01*
X65745821Y-86224796D01*
X65927993Y-86224796D01*
X65927993Y-86102857D01*
X65936713Y-86011420D01*
X65976791Y-85925337D01*
X66052381Y-85876120D01*
X66166751Y-85860452D01*
X66292337Y-85860452D01*
X66292337Y-85738512D01*
X66292934Y-85716842D01*
X66316052Y-85612186D01*
X66366517Y-85538216D01*
X66435774Y-85500159D01*
X66515269Y-85503243D01*
G37*
G36*
X62507482Y-84774554D02*
G01*
X62588662Y-84824005D01*
X62615971Y-84854633D01*
X62641802Y-84915402D01*
X62648894Y-85006177D01*
X62648894Y-85131763D01*
X62770834Y-85131763D01*
X62792504Y-85132360D01*
X62897160Y-85155478D01*
X62971130Y-85205943D01*
X63009187Y-85275200D01*
X63006104Y-85354696D01*
X62956653Y-85435875D01*
X62926025Y-85463184D01*
X62865256Y-85489015D01*
X62774481Y-85496108D01*
X62648894Y-85496108D01*
X62648894Y-85800219D01*
X62648839Y-85844321D01*
X62647366Y-85963324D01*
X62642638Y-86044152D01*
X62632994Y-86097503D01*
X62616771Y-86134075D01*
X62592309Y-86164563D01*
X62568258Y-86187473D01*
X62533516Y-86207432D01*
X62483406Y-86218692D01*
X62405706Y-86223673D01*
X62288197Y-86224796D01*
X62213394Y-86224398D01*
X62118962Y-86220903D01*
X62056926Y-86211894D01*
X62014885Y-86195090D01*
X61980439Y-86168210D01*
X61965764Y-86153680D01*
X61944745Y-86124953D01*
X61931412Y-86086084D01*
X61924032Y-86026596D01*
X61920874Y-85936015D01*
X61920206Y-85803866D01*
X61920206Y-85496108D01*
X61616094Y-85496108D01*
X61571992Y-85496052D01*
X61452989Y-85494579D01*
X61372161Y-85489851D01*
X61318810Y-85480207D01*
X61282239Y-85463984D01*
X61251750Y-85439522D01*
X61228841Y-85415471D01*
X61208881Y-85380730D01*
X61197621Y-85330619D01*
X61192640Y-85252919D01*
X61191517Y-85135410D01*
X61191916Y-85060607D01*
X61195410Y-84966175D01*
X61204419Y-84904139D01*
X61221224Y-84862098D01*
X61248103Y-84827652D01*
X61249403Y-84826280D01*
X61327503Y-84776475D01*
X61413036Y-84775666D01*
X61495629Y-84824005D01*
X61522938Y-84854633D01*
X61548769Y-84915402D01*
X61555862Y-85006177D01*
X61555862Y-85131763D01*
X61920206Y-85131763D01*
X62284550Y-85131763D01*
X62284550Y-85009824D01*
X62285147Y-84988154D01*
X62308265Y-84883497D01*
X62358730Y-84809527D01*
X62427987Y-84771471D01*
X62507482Y-84774554D01*
G37*
G36*
X58580875Y-92110890D02*
G01*
X58595549Y-92125421D01*
X58616568Y-92154147D01*
X58629902Y-92193017D01*
X58637282Y-92252504D01*
X58640440Y-92343085D01*
X58641108Y-92475234D01*
X58641108Y-92782993D01*
X58763047Y-92782993D01*
X58784717Y-92783590D01*
X58889374Y-92806708D01*
X58963344Y-92857173D01*
X59001400Y-92926430D01*
X58998317Y-93005925D01*
X58948866Y-93087104D01*
X58934335Y-93101779D01*
X58905609Y-93122798D01*
X58866739Y-93136131D01*
X58807252Y-93143511D01*
X58716671Y-93146669D01*
X58584522Y-93147337D01*
X58276763Y-93147337D01*
X58276763Y-93269277D01*
X58276166Y-93290947D01*
X58253048Y-93395603D01*
X58202583Y-93469573D01*
X58133326Y-93507630D01*
X58053831Y-93504546D01*
X57972652Y-93455096D01*
X57945343Y-93424467D01*
X57919511Y-93363699D01*
X57912419Y-93272924D01*
X57912419Y-93147337D01*
X57790480Y-93147337D01*
X57763300Y-93146811D01*
X57673413Y-93131561D01*
X57608307Y-93090751D01*
X57590251Y-93072617D01*
X57573022Y-93047599D01*
X57561263Y-93012594D01*
X57553930Y-92959192D01*
X57549982Y-92878978D01*
X57548378Y-92763541D01*
X57548075Y-92604468D01*
X57548189Y-92503273D01*
X57549306Y-92370623D01*
X57552432Y-92276445D01*
X57558550Y-92212244D01*
X57568640Y-92169522D01*
X57583683Y-92139785D01*
X57604660Y-92114537D01*
X57605960Y-92113165D01*
X57684060Y-92063360D01*
X57769593Y-92062551D01*
X57852186Y-92110890D01*
X57866860Y-92125421D01*
X57887880Y-92154147D01*
X57901213Y-92193017D01*
X57908593Y-92252504D01*
X57911751Y-92343085D01*
X57912419Y-92475234D01*
X57912419Y-92782993D01*
X58094591Y-92782993D01*
X58276763Y-92782993D01*
X58276763Y-92478881D01*
X58276819Y-92434779D01*
X58278291Y-92315776D01*
X58283019Y-92234948D01*
X58292664Y-92181597D01*
X58308887Y-92145026D01*
X58333349Y-92114537D01*
X58334649Y-92113165D01*
X58412749Y-92063360D01*
X58498282Y-92062551D01*
X58580875Y-92110890D01*
G37*
G36*
X64855792Y-84403076D02*
G01*
X65044491Y-84403309D01*
X65188745Y-84404346D01*
X65295384Y-84406762D01*
X65371239Y-84411133D01*
X65423139Y-84418033D01*
X65457915Y-84428037D01*
X65482397Y-84441722D01*
X65503416Y-84459660D01*
X65530725Y-84490289D01*
X65556556Y-84551057D01*
X65563648Y-84641832D01*
X65563648Y-84767419D01*
X65867760Y-84767419D01*
X65911862Y-84767474D01*
X66030865Y-84768947D01*
X66111693Y-84773675D01*
X66165044Y-84783320D01*
X66201615Y-84799542D01*
X66232104Y-84824005D01*
X66233476Y-84825304D01*
X66283281Y-84903405D01*
X66284090Y-84988937D01*
X66235751Y-85071531D01*
X66221221Y-85086205D01*
X66192494Y-85107224D01*
X66153625Y-85120557D01*
X66094137Y-85127937D01*
X66003556Y-85131095D01*
X65871407Y-85131763D01*
X65563648Y-85131763D01*
X65563648Y-85253703D01*
X65554928Y-85345139D01*
X65514850Y-85431223D01*
X65439261Y-85480439D01*
X65324891Y-85496108D01*
X65199304Y-85496108D01*
X65199304Y-85618047D01*
X65190584Y-85709483D01*
X65150506Y-85795567D01*
X65074916Y-85844784D01*
X64960546Y-85860452D01*
X64834960Y-85860452D01*
X64834960Y-85982391D01*
X64834434Y-86009570D01*
X64819184Y-86099458D01*
X64778374Y-86164563D01*
X64754323Y-86187473D01*
X64719582Y-86207432D01*
X64669471Y-86218692D01*
X64591772Y-86223673D01*
X64474263Y-86224796D01*
X64399459Y-86224398D01*
X64305028Y-86220903D01*
X64242992Y-86211894D01*
X64200951Y-86195090D01*
X64166504Y-86168210D01*
X64165132Y-86166911D01*
X64115328Y-86088810D01*
X64114518Y-86003278D01*
X64162857Y-85920684D01*
X64193486Y-85893376D01*
X64254254Y-85867544D01*
X64345029Y-85860452D01*
X64470616Y-85860452D01*
X64470616Y-85678280D01*
X64470616Y-85496108D01*
X64348676Y-85496108D01*
X64327006Y-85495511D01*
X64222350Y-85472392D01*
X64148380Y-85421928D01*
X64110323Y-85352670D01*
X64113407Y-85273175D01*
X64162857Y-85191996D01*
X64193486Y-85164687D01*
X64254254Y-85138856D01*
X64345029Y-85131763D01*
X64470616Y-85131763D01*
X64470616Y-84949591D01*
X64470616Y-84767419D01*
X64348676Y-84767419D01*
X64327006Y-84766822D01*
X64222350Y-84743704D01*
X64148380Y-84693239D01*
X64110323Y-84623982D01*
X64113407Y-84544487D01*
X64162857Y-84463307D01*
X64169005Y-84456823D01*
X64188253Y-84439237D01*
X64212098Y-84425978D01*
X64247318Y-84416435D01*
X64300692Y-84409996D01*
X64379000Y-84406052D01*
X64489020Y-84403991D01*
X64637531Y-84403202D01*
X64831313Y-84403075D01*
X64855792Y-84403076D01*
G37*
G36*
X62928614Y-86953598D02*
G01*
X63061264Y-86954716D01*
X63155442Y-86957842D01*
X63219643Y-86963960D01*
X63262365Y-86974050D01*
X63292102Y-86989093D01*
X63317350Y-87010070D01*
X63318722Y-87011370D01*
X63368527Y-87089470D01*
X63369336Y-87175003D01*
X63320997Y-87257596D01*
X63290369Y-87284905D01*
X63229600Y-87310737D01*
X63138825Y-87317829D01*
X63013239Y-87317829D01*
X63013239Y-87439768D01*
X63012712Y-87466947D01*
X62997463Y-87556835D01*
X62956653Y-87621940D01*
X62942122Y-87636615D01*
X62913396Y-87657634D01*
X62874526Y-87670967D01*
X62815039Y-87678347D01*
X62724458Y-87681505D01*
X62592309Y-87682173D01*
X62284550Y-87682173D01*
X62284550Y-87804113D01*
X62275830Y-87895549D01*
X62235752Y-87981633D01*
X62160162Y-88030849D01*
X62045792Y-88046517D01*
X61920206Y-88046517D01*
X61920206Y-88168457D01*
X61919680Y-88195636D01*
X61904430Y-88285523D01*
X61863620Y-88350629D01*
X61856434Y-88358163D01*
X61834759Y-88377270D01*
X61807547Y-88391094D01*
X61767045Y-88400489D01*
X61705501Y-88406308D01*
X61615165Y-88409408D01*
X61488283Y-88410640D01*
X61317104Y-88410862D01*
X60827173Y-88410862D01*
X60827173Y-88532801D01*
X60826576Y-88554471D01*
X60803458Y-88659128D01*
X60752993Y-88733098D01*
X60683736Y-88771154D01*
X60604241Y-88768071D01*
X60523061Y-88718620D01*
X60495753Y-88687992D01*
X60469921Y-88627223D01*
X60462829Y-88536448D01*
X60462829Y-88410862D01*
X60340889Y-88410862D01*
X60313710Y-88410335D01*
X60223823Y-88395086D01*
X60158717Y-88354276D01*
X60157345Y-88352976D01*
X60107541Y-88274876D01*
X60106732Y-88189343D01*
X60155070Y-88106750D01*
X60185699Y-88079441D01*
X60246467Y-88053610D01*
X60337242Y-88046517D01*
X60462829Y-88046517D01*
X60462829Y-87924578D01*
X60463355Y-87897399D01*
X60478605Y-87807511D01*
X60519414Y-87742406D01*
X60543465Y-87719496D01*
X60578207Y-87699537D01*
X60628317Y-87688277D01*
X60706017Y-87683296D01*
X60823526Y-87682173D01*
X60898330Y-87682571D01*
X60992761Y-87686066D01*
X61054797Y-87695075D01*
X61096838Y-87711879D01*
X61131285Y-87738759D01*
X61158594Y-87769387D01*
X61184425Y-87830156D01*
X61191517Y-87920931D01*
X61191517Y-88046517D01*
X61373689Y-88046517D01*
X61555862Y-88046517D01*
X61555862Y-87924578D01*
X61564582Y-87833142D01*
X61604660Y-87747058D01*
X61680249Y-87697841D01*
X61794619Y-87682173D01*
X61920206Y-87682173D01*
X61920206Y-87560234D01*
X61928926Y-87468797D01*
X61969004Y-87382714D01*
X62044594Y-87333497D01*
X62158964Y-87317829D01*
X62284550Y-87317829D01*
X62284550Y-87195889D01*
X62285076Y-87168710D01*
X62300326Y-87078823D01*
X62341136Y-87013717D01*
X62359271Y-86995661D01*
X62384289Y-86978432D01*
X62419293Y-86966672D01*
X62472695Y-86959340D01*
X62552909Y-86955392D01*
X62668346Y-86953788D01*
X62827420Y-86953485D01*
X62928614Y-86953598D01*
G37*
G36*
X64177428Y-88775604D02*
G01*
X64271859Y-88779098D01*
X64333895Y-88788108D01*
X64375936Y-88804912D01*
X64410383Y-88831792D01*
X64411755Y-88833091D01*
X64461559Y-88911191D01*
X64462369Y-88996724D01*
X64414030Y-89079317D01*
X64383402Y-89106626D01*
X64322633Y-89132458D01*
X64231858Y-89139550D01*
X64106271Y-89139550D01*
X64106271Y-89321722D01*
X64106271Y-89503894D01*
X64228211Y-89503894D01*
X64249881Y-89504491D01*
X64354537Y-89527610D01*
X64428507Y-89578074D01*
X64466564Y-89647331D01*
X64463481Y-89726827D01*
X64414030Y-89808006D01*
X64383402Y-89835315D01*
X64322633Y-89861146D01*
X64231858Y-89868239D01*
X64106271Y-89868239D01*
X64106271Y-89990178D01*
X64105745Y-90017357D01*
X64090495Y-90107245D01*
X64049686Y-90172350D01*
X64035155Y-90187024D01*
X64006428Y-90208043D01*
X63967559Y-90221377D01*
X63908072Y-90228757D01*
X63817491Y-90231915D01*
X63685342Y-90232583D01*
X63377583Y-90232583D01*
X63377583Y-90354522D01*
X63376986Y-90376192D01*
X63353868Y-90480849D01*
X63303403Y-90554819D01*
X63234146Y-90592876D01*
X63154651Y-90589792D01*
X63073471Y-90540342D01*
X63046162Y-90509713D01*
X63020331Y-90448945D01*
X63013239Y-90358169D01*
X63013239Y-90232583D01*
X62709127Y-90232583D01*
X62665025Y-90232527D01*
X62546022Y-90231055D01*
X62465194Y-90226327D01*
X62411843Y-90216682D01*
X62375272Y-90200459D01*
X62344783Y-90175997D01*
X62317474Y-90145369D01*
X62291642Y-90084600D01*
X62284550Y-89993825D01*
X62284550Y-89868239D01*
X62162611Y-89868239D01*
X62135432Y-89867712D01*
X62045544Y-89852463D01*
X61980439Y-89811653D01*
X61979067Y-89810353D01*
X61929262Y-89732253D01*
X61928453Y-89646720D01*
X61976792Y-89564127D01*
X62007420Y-89536818D01*
X62068189Y-89510987D01*
X62158964Y-89503894D01*
X62284550Y-89503894D01*
X62284550Y-89199783D01*
X62284606Y-89155681D01*
X62286078Y-89036678D01*
X62290806Y-88955850D01*
X62300451Y-88902499D01*
X62316674Y-88865927D01*
X62341136Y-88835439D01*
X62365187Y-88812529D01*
X62399928Y-88792570D01*
X62450039Y-88781310D01*
X62527738Y-88776328D01*
X62645247Y-88775206D01*
X62720051Y-88775604D01*
X62814482Y-88779098D01*
X62876518Y-88788108D01*
X62918559Y-88804912D01*
X62953006Y-88831792D01*
X62954378Y-88833091D01*
X63004182Y-88911191D01*
X63004992Y-88996724D01*
X62956653Y-89079317D01*
X62926025Y-89106626D01*
X62865256Y-89132458D01*
X62774481Y-89139550D01*
X62648894Y-89139550D01*
X62648894Y-89503894D01*
X62648894Y-89868239D01*
X63013239Y-89868239D01*
X63377583Y-89868239D01*
X63377583Y-89746299D01*
X63386303Y-89654863D01*
X63426381Y-89568779D01*
X63501971Y-89519562D01*
X63616341Y-89503894D01*
X63741927Y-89503894D01*
X63741927Y-89199783D01*
X63741983Y-89155681D01*
X63743455Y-89036678D01*
X63748183Y-88955850D01*
X63757828Y-88902499D01*
X63774051Y-88865927D01*
X63798513Y-88835439D01*
X63822564Y-88812529D01*
X63857305Y-88792570D01*
X63907416Y-88781310D01*
X63985115Y-88776328D01*
X64102624Y-88775206D01*
X64177428Y-88775604D01*
G37*
G36*
X55936434Y-90974285D02*
G01*
X56119490Y-90974504D01*
X56259533Y-90975636D01*
X56364524Y-90978434D01*
X56442424Y-90983651D01*
X56501193Y-90992040D01*
X56548793Y-91004354D01*
X56593184Y-91021348D01*
X56642328Y-91043774D01*
X56704176Y-91077011D01*
X56814197Y-91150978D01*
X56906962Y-91229650D01*
X56927228Y-91250242D01*
X57008728Y-91343285D01*
X57071465Y-91438491D01*
X57117709Y-91544131D01*
X57149726Y-91668478D01*
X57169787Y-91819803D01*
X57180159Y-92006379D01*
X57183113Y-92236476D01*
X57182989Y-92290220D01*
X57178627Y-92510228D01*
X57166356Y-92688498D01*
X57143907Y-92833302D01*
X57109012Y-92952913D01*
X57059403Y-93055603D01*
X56992809Y-93149642D01*
X56906962Y-93243303D01*
X56854501Y-93290355D01*
X56747525Y-93368804D01*
X56642328Y-93429179D01*
X56635124Y-93432552D01*
X56587087Y-93454200D01*
X56542727Y-93470518D01*
X56494084Y-93482259D01*
X56433196Y-93490175D01*
X56352102Y-93495021D01*
X56242842Y-93497550D01*
X56097454Y-93498515D01*
X55972550Y-93498617D01*
X55907978Y-93498669D01*
X55321878Y-93498669D01*
X55147851Y-93412996D01*
X55015747Y-93335521D01*
X54859651Y-93196626D01*
X54744468Y-93025583D01*
X54669904Y-92822030D01*
X54660077Y-92767753D01*
X54648649Y-92653366D01*
X54640764Y-92508124D01*
X54636436Y-92343851D01*
X54635970Y-92238187D01*
X54997685Y-92238187D01*
X54997851Y-92348830D01*
X54999173Y-92494160D01*
X55002505Y-92601582D01*
X55008660Y-92679885D01*
X55018450Y-92737861D01*
X55032688Y-92784299D01*
X55052185Y-92827991D01*
X55058201Y-92839781D01*
X55145527Y-92964018D01*
X55257800Y-93061544D01*
X55380816Y-93119748D01*
X55432057Y-93128633D01*
X55533044Y-93137117D01*
X55664654Y-93142853D01*
X55815089Y-93145841D01*
X55972550Y-93146084D01*
X56125237Y-93143583D01*
X56261353Y-93138338D01*
X56369099Y-93130352D01*
X56436675Y-93119626D01*
X56459634Y-93112054D01*
X56562018Y-93054975D01*
X56661622Y-92968728D01*
X56742948Y-92868624D01*
X56790498Y-92769980D01*
X56799141Y-92722113D01*
X56808255Y-92620899D01*
X56814457Y-92488427D01*
X56817745Y-92336585D01*
X56818121Y-92177264D01*
X56815585Y-92022353D01*
X56810135Y-91883741D01*
X56801773Y-91773317D01*
X56790498Y-91702972D01*
X56783113Y-91680560D01*
X56726165Y-91580187D01*
X56639111Y-91481980D01*
X56537449Y-91401256D01*
X56436675Y-91353327D01*
X56385407Y-91344430D01*
X56284394Y-91335922D01*
X56152766Y-91330156D01*
X56002322Y-91327133D01*
X55844860Y-91326854D01*
X55692180Y-91329320D01*
X55556080Y-91334533D01*
X55448359Y-91342494D01*
X55380816Y-91353205D01*
X55366850Y-91357406D01*
X55244431Y-91420618D01*
X55134527Y-91521509D01*
X55051482Y-91647271D01*
X55040063Y-91672099D01*
X55023764Y-91717118D01*
X55012230Y-91770119D01*
X55004657Y-91839914D01*
X55000243Y-91935316D01*
X54998187Y-92065136D01*
X54997685Y-92238187D01*
X54635970Y-92238187D01*
X54635679Y-92172374D01*
X54638505Y-92005517D01*
X54644927Y-91855106D01*
X54654959Y-91732966D01*
X54668612Y-91650923D01*
X54719125Y-91503096D01*
X54822719Y-91322142D01*
X54964939Y-91175280D01*
X55147851Y-91059957D01*
X55321878Y-90974284D01*
X55907978Y-90974284D01*
X55936434Y-90974285D01*
G37*
G36*
X65409385Y-81501334D02*
G01*
X65592441Y-81501553D01*
X65732484Y-81502685D01*
X65837475Y-81505483D01*
X65915375Y-81510700D01*
X65974144Y-81519089D01*
X66021744Y-81531404D01*
X66066135Y-81548397D01*
X66115279Y-81570823D01*
X66177127Y-81604061D01*
X66287148Y-81678027D01*
X66379913Y-81756699D01*
X66400178Y-81777292D01*
X66481679Y-81870334D01*
X66544416Y-81965540D01*
X66590659Y-82071180D01*
X66622677Y-82195527D01*
X66642738Y-82346853D01*
X66653110Y-82533428D01*
X66656064Y-82763526D01*
X66655940Y-82817269D01*
X66651578Y-83037277D01*
X66639307Y-83215547D01*
X66616858Y-83360352D01*
X66581963Y-83479963D01*
X66532353Y-83582652D01*
X66465760Y-83676691D01*
X66379913Y-83770352D01*
X66327452Y-83817404D01*
X66220476Y-83895853D01*
X66115279Y-83956228D01*
X66108075Y-83959601D01*
X66060038Y-83981250D01*
X66015678Y-83997567D01*
X65967035Y-84009308D01*
X65906147Y-84017224D01*
X65825053Y-84022070D01*
X65715793Y-84024599D01*
X65570405Y-84025564D01*
X65445501Y-84025666D01*
X65380929Y-84025718D01*
X64794829Y-84025718D01*
X64620802Y-83940045D01*
X64504846Y-83873444D01*
X64344675Y-83736597D01*
X64224386Y-83566370D01*
X64143427Y-83362091D01*
X64131036Y-83293595D01*
X64120265Y-83177489D01*
X64112910Y-83031417D01*
X64108991Y-82867026D01*
X64108714Y-82765236D01*
X64470636Y-82765236D01*
X64470802Y-82875880D01*
X64472124Y-83021210D01*
X64475456Y-83128631D01*
X64481611Y-83206934D01*
X64491401Y-83264910D01*
X64505638Y-83311348D01*
X64525136Y-83355040D01*
X64531152Y-83366830D01*
X64618477Y-83491067D01*
X64730751Y-83588593D01*
X64853767Y-83646797D01*
X64905007Y-83655682D01*
X65005995Y-83664166D01*
X65137605Y-83669902D01*
X65288040Y-83672891D01*
X65445501Y-83673134D01*
X65598188Y-83670632D01*
X65734304Y-83665388D01*
X65842050Y-83657402D01*
X65909626Y-83646675D01*
X65932584Y-83639103D01*
X66034969Y-83582025D01*
X66134573Y-83495777D01*
X66215898Y-83395674D01*
X66263449Y-83297030D01*
X66272091Y-83249162D01*
X66281206Y-83147948D01*
X66287407Y-83015476D01*
X66290696Y-82863634D01*
X66291072Y-82704313D01*
X66288535Y-82549402D01*
X66283086Y-82410790D01*
X66274724Y-82300367D01*
X66263449Y-82230021D01*
X66256064Y-82207609D01*
X66199116Y-82107236D01*
X66112062Y-82009030D01*
X66010400Y-81928305D01*
X65909626Y-81880376D01*
X65858358Y-81871479D01*
X65757345Y-81862971D01*
X65625717Y-81857205D01*
X65475273Y-81854182D01*
X65317811Y-81853903D01*
X65165131Y-81856369D01*
X65029031Y-81861582D01*
X64921310Y-81869544D01*
X64853767Y-81880254D01*
X64839800Y-81884455D01*
X64717382Y-81947667D01*
X64607477Y-82048559D01*
X64524433Y-82174320D01*
X64513014Y-82199148D01*
X64496715Y-82244167D01*
X64485181Y-82297169D01*
X64477608Y-82366963D01*
X64473194Y-82462365D01*
X64471138Y-82592185D01*
X64470636Y-82765236D01*
X64108714Y-82765236D01*
X64108525Y-82695965D01*
X64111531Y-82529881D01*
X64118027Y-82380422D01*
X64128032Y-82259237D01*
X64141563Y-82177972D01*
X64192075Y-82030145D01*
X64295670Y-81849192D01*
X64437890Y-81702329D01*
X64620802Y-81587006D01*
X64794829Y-81501333D01*
X65380929Y-81501333D01*
X65409385Y-81501334D01*
G37*
G36*
X65409385Y-90974285D02*
G01*
X65592441Y-90974504D01*
X65732484Y-90975636D01*
X65837475Y-90978434D01*
X65915375Y-90983651D01*
X65974144Y-90992040D01*
X66021744Y-91004354D01*
X66066135Y-91021348D01*
X66115279Y-91043774D01*
X66177127Y-91077011D01*
X66287148Y-91150978D01*
X66379913Y-91229650D01*
X66400178Y-91250242D01*
X66481679Y-91343285D01*
X66544416Y-91438491D01*
X66590659Y-91544131D01*
X66622677Y-91668478D01*
X66642738Y-91819803D01*
X66653110Y-92006379D01*
X66656064Y-92236476D01*
X66655940Y-92290220D01*
X66651578Y-92510228D01*
X66639307Y-92688498D01*
X66616858Y-92833302D01*
X66581963Y-92952913D01*
X66532353Y-93055603D01*
X66465760Y-93149642D01*
X66379913Y-93243303D01*
X66327452Y-93290355D01*
X66220476Y-93368804D01*
X66115279Y-93429179D01*
X66108075Y-93432552D01*
X66060038Y-93454200D01*
X66015678Y-93470518D01*
X65967035Y-93482259D01*
X65906147Y-93490175D01*
X65825053Y-93495021D01*
X65715793Y-93497550D01*
X65570405Y-93498515D01*
X65445501Y-93498617D01*
X65380929Y-93498669D01*
X64794829Y-93498669D01*
X64620802Y-93412996D01*
X64504846Y-93346395D01*
X64344675Y-93209548D01*
X64224386Y-93039321D01*
X64143427Y-92835042D01*
X64131036Y-92766546D01*
X64120265Y-92650440D01*
X64112910Y-92504367D01*
X64108991Y-92339977D01*
X64108714Y-92238187D01*
X64470636Y-92238187D01*
X64470802Y-92348830D01*
X64472124Y-92494160D01*
X64475456Y-92601582D01*
X64481611Y-92679885D01*
X64491401Y-92737861D01*
X64505638Y-92784299D01*
X64525136Y-92827991D01*
X64531152Y-92839781D01*
X64618477Y-92964018D01*
X64730751Y-93061544D01*
X64853767Y-93119748D01*
X64905007Y-93128633D01*
X65005995Y-93137117D01*
X65137605Y-93142853D01*
X65288040Y-93145841D01*
X65445501Y-93146084D01*
X65598188Y-93143583D01*
X65734304Y-93138338D01*
X65842050Y-93130352D01*
X65909626Y-93119626D01*
X65932584Y-93112054D01*
X66034969Y-93054975D01*
X66134573Y-92968728D01*
X66215898Y-92868624D01*
X66263449Y-92769980D01*
X66272091Y-92722113D01*
X66281206Y-92620899D01*
X66287407Y-92488427D01*
X66290696Y-92336585D01*
X66291072Y-92177264D01*
X66288535Y-92022353D01*
X66283086Y-91883741D01*
X66274724Y-91773317D01*
X66263449Y-91702972D01*
X66256064Y-91680560D01*
X66199116Y-91580187D01*
X66112062Y-91481980D01*
X66010400Y-91401256D01*
X65909626Y-91353327D01*
X65858358Y-91344430D01*
X65757345Y-91335922D01*
X65625717Y-91330156D01*
X65475273Y-91327133D01*
X65317811Y-91326854D01*
X65165131Y-91329320D01*
X65029031Y-91334533D01*
X64921310Y-91342494D01*
X64853767Y-91353205D01*
X64839800Y-91357406D01*
X64717382Y-91420618D01*
X64607477Y-91521509D01*
X64524433Y-91647271D01*
X64513014Y-91672099D01*
X64496715Y-91717118D01*
X64485181Y-91770119D01*
X64477608Y-91839914D01*
X64473194Y-91935316D01*
X64471138Y-92065136D01*
X64470636Y-92238187D01*
X64108714Y-92238187D01*
X64108525Y-92168915D01*
X64111531Y-92002832D01*
X64118027Y-91853373D01*
X64128032Y-91732188D01*
X64141563Y-91650923D01*
X64192075Y-91503096D01*
X64295670Y-91322142D01*
X64437890Y-91175280D01*
X64620802Y-91059957D01*
X64794829Y-90974284D01*
X65380929Y-90974284D01*
X65409385Y-90974285D01*
G37*
G36*
X62143138Y-90968407D02*
G01*
X62224317Y-91017857D01*
X62251626Y-91048486D01*
X62277458Y-91109254D01*
X62284550Y-91200029D01*
X62284550Y-91325616D01*
X62406490Y-91325616D01*
X62433669Y-91326142D01*
X62523556Y-91341392D01*
X62588662Y-91382201D01*
X62603336Y-91396732D01*
X62624355Y-91425459D01*
X62637689Y-91464328D01*
X62645069Y-91523816D01*
X62648227Y-91614396D01*
X62648894Y-91746546D01*
X62648894Y-92054304D01*
X62953006Y-92054304D01*
X62997108Y-92054360D01*
X63116111Y-92055832D01*
X63196939Y-92060560D01*
X63250290Y-92070205D01*
X63286861Y-92086428D01*
X63317350Y-92110890D01*
X63344659Y-92141518D01*
X63370491Y-92202287D01*
X63377583Y-92293062D01*
X63377583Y-92418648D01*
X63499522Y-92418648D01*
X63526702Y-92419175D01*
X63616589Y-92434425D01*
X63681695Y-92475234D01*
X63704604Y-92499285D01*
X63724563Y-92534026D01*
X63735823Y-92584137D01*
X63740805Y-92661837D01*
X63741927Y-92779346D01*
X63741529Y-92854149D01*
X63738035Y-92948581D01*
X63729025Y-93010617D01*
X63712221Y-93052658D01*
X63685342Y-93087104D01*
X63684042Y-93088476D01*
X63605942Y-93138281D01*
X63520409Y-93139090D01*
X63437816Y-93090751D01*
X63410507Y-93060123D01*
X63384675Y-92999354D01*
X63377583Y-92908579D01*
X63377583Y-92782993D01*
X63255643Y-92782993D01*
X63164207Y-92774272D01*
X63078123Y-92734194D01*
X63028907Y-92658605D01*
X63013239Y-92544235D01*
X63013239Y-92418648D01*
X62831067Y-92418648D01*
X62648894Y-92418648D01*
X62648894Y-92722760D01*
X62648839Y-92766862D01*
X62647366Y-92885865D01*
X62642638Y-92966693D01*
X62632994Y-93020044D01*
X62616771Y-93056615D01*
X62592309Y-93087104D01*
X62591009Y-93088476D01*
X62512909Y-93138281D01*
X62427376Y-93139090D01*
X62344783Y-93090751D01*
X62337249Y-93083565D01*
X62318141Y-93061890D01*
X62304318Y-93034678D01*
X62294923Y-92994176D01*
X62289103Y-92932633D01*
X62286004Y-92842296D01*
X62284771Y-92715414D01*
X62284550Y-92544235D01*
X62284550Y-92054304D01*
X62102378Y-92054304D01*
X61920206Y-92054304D01*
X61920206Y-92722760D01*
X61920176Y-92836535D01*
X61919760Y-93015540D01*
X61918450Y-93152401D01*
X61915741Y-93253597D01*
X61911132Y-93325611D01*
X61904119Y-93374922D01*
X61894198Y-93408011D01*
X61880866Y-93431360D01*
X61863620Y-93451449D01*
X61862321Y-93452821D01*
X61784220Y-93502625D01*
X61698688Y-93503434D01*
X61616094Y-93455096D01*
X61588785Y-93424467D01*
X61562954Y-93363699D01*
X61555862Y-93272924D01*
X61555862Y-93147337D01*
X61433922Y-93147337D01*
X61412252Y-93146740D01*
X61307596Y-93123622D01*
X61233626Y-93073157D01*
X61195569Y-93003900D01*
X61198653Y-92924405D01*
X61248103Y-92843225D01*
X61278731Y-92815917D01*
X61339500Y-92790085D01*
X61430275Y-92782993D01*
X61555862Y-92782993D01*
X61555862Y-92600821D01*
X61555862Y-92418648D01*
X61251750Y-92418648D01*
X61207648Y-92418593D01*
X61088645Y-92417120D01*
X61007817Y-92412392D01*
X60954466Y-92402748D01*
X60917895Y-92386525D01*
X60887406Y-92362063D01*
X60886034Y-92360763D01*
X60836229Y-92282663D01*
X60835420Y-92197130D01*
X60883759Y-92114537D01*
X60898290Y-92099863D01*
X60927016Y-92078844D01*
X60965886Y-92065510D01*
X61025373Y-92058130D01*
X61115954Y-92054972D01*
X61248103Y-92054304D01*
X61555862Y-92054304D01*
X61555862Y-91750193D01*
X61555917Y-91706091D01*
X61557390Y-91587088D01*
X61562118Y-91506260D01*
X61571762Y-91452908D01*
X61587985Y-91416337D01*
X61612447Y-91385848D01*
X61643076Y-91358539D01*
X61703844Y-91332708D01*
X61794619Y-91325616D01*
X61920206Y-91325616D01*
X61920206Y-91203676D01*
X61920803Y-91182006D01*
X61943921Y-91077350D01*
X61994386Y-91003380D01*
X62063643Y-90965323D01*
X62143138Y-90968407D01*
G37*
G36*
X58556483Y-89504008D02*
G01*
X58689133Y-89505125D01*
X58783311Y-89508252D01*
X58847512Y-89514370D01*
X58890234Y-89524459D01*
X58919971Y-89539502D01*
X58945219Y-89560480D01*
X58972528Y-89591108D01*
X58998359Y-89651877D01*
X59005452Y-89742652D01*
X59005452Y-89868239D01*
X59491736Y-89868239D01*
X59511851Y-89868241D01*
X59677877Y-89868614D01*
X59800531Y-89870201D01*
X59887671Y-89873816D01*
X59947156Y-89880272D01*
X59986842Y-89890383D01*
X60014588Y-89904963D01*
X60038252Y-89924824D01*
X60065561Y-89955453D01*
X60091392Y-90016221D01*
X60098485Y-90106996D01*
X60098485Y-90232583D01*
X60402596Y-90232583D01*
X60446698Y-90232638D01*
X60565701Y-90234111D01*
X60646529Y-90238839D01*
X60699880Y-90248484D01*
X60736452Y-90264706D01*
X60766940Y-90289169D01*
X60794249Y-90319797D01*
X60820081Y-90380566D01*
X60827173Y-90471341D01*
X60827173Y-90596927D01*
X61009345Y-90596927D01*
X61191517Y-90596927D01*
X61191517Y-90414755D01*
X61191517Y-90232583D01*
X61069578Y-90232583D01*
X61047908Y-90231986D01*
X60943251Y-90208868D01*
X60869281Y-90158403D01*
X60831225Y-90089146D01*
X60834308Y-90009651D01*
X60883759Y-89928471D01*
X60901893Y-89910415D01*
X60926912Y-89893186D01*
X60961916Y-89881427D01*
X61015318Y-89874094D01*
X61095532Y-89870146D01*
X61210969Y-89868542D01*
X61370042Y-89868239D01*
X61471237Y-89868353D01*
X61603887Y-89869470D01*
X61698065Y-89872596D01*
X61762266Y-89878714D01*
X61804988Y-89888804D01*
X61834725Y-89903847D01*
X61859973Y-89924824D01*
X61861345Y-89926124D01*
X61911150Y-90004224D01*
X61911959Y-90089757D01*
X61863620Y-90172350D01*
X61832992Y-90199659D01*
X61772223Y-90225491D01*
X61681448Y-90232583D01*
X61555862Y-90232583D01*
X61555862Y-90414755D01*
X61555862Y-90596927D01*
X61677801Y-90596927D01*
X61699471Y-90597524D01*
X61804128Y-90620642D01*
X61878098Y-90671107D01*
X61916154Y-90740364D01*
X61913071Y-90819860D01*
X61863620Y-90901039D01*
X61832992Y-90928348D01*
X61772223Y-90954179D01*
X61681448Y-90961271D01*
X61555862Y-90961271D01*
X61555862Y-91083211D01*
X61555265Y-91104881D01*
X61532146Y-91209537D01*
X61481682Y-91283507D01*
X61412425Y-91321564D01*
X61332929Y-91318481D01*
X61251750Y-91269030D01*
X61224441Y-91238402D01*
X61198610Y-91177633D01*
X61191517Y-91086858D01*
X61191517Y-90961271D01*
X61009345Y-90961271D01*
X60827173Y-90961271D01*
X60827173Y-91143444D01*
X60827173Y-91325616D01*
X60949113Y-91325616D01*
X60970783Y-91326213D01*
X61075439Y-91349331D01*
X61149409Y-91399796D01*
X61187466Y-91469053D01*
X61184382Y-91548548D01*
X61134932Y-91629727D01*
X61120401Y-91644401D01*
X61091674Y-91665421D01*
X61052805Y-91678754D01*
X60993317Y-91686134D01*
X60902737Y-91689292D01*
X60770587Y-91689960D01*
X60462829Y-91689960D01*
X60462829Y-91811899D01*
X60462232Y-91833570D01*
X60439114Y-91938226D01*
X60388649Y-92012196D01*
X60319392Y-92050253D01*
X60239896Y-92047169D01*
X60158717Y-91997719D01*
X60131408Y-91967090D01*
X60105577Y-91906322D01*
X60098485Y-91815546D01*
X60098485Y-91689960D01*
X59734140Y-91689960D01*
X59369796Y-91689960D01*
X59369796Y-91994072D01*
X59369741Y-92038173D01*
X59368268Y-92157176D01*
X59363540Y-92238005D01*
X59353895Y-92291356D01*
X59337673Y-92327927D01*
X59313210Y-92358416D01*
X59311911Y-92359788D01*
X59233810Y-92409592D01*
X59148278Y-92410402D01*
X59065684Y-92362063D01*
X59051010Y-92347532D01*
X59029991Y-92318805D01*
X59016658Y-92279936D01*
X59009278Y-92220449D01*
X59006120Y-92129868D01*
X59005452Y-91997719D01*
X59005452Y-91689960D01*
X58701340Y-91689960D01*
X58657238Y-91689905D01*
X58538235Y-91688432D01*
X58457407Y-91683704D01*
X58404056Y-91674059D01*
X58367485Y-91657837D01*
X58336996Y-91633374D01*
X58314087Y-91609323D01*
X58294127Y-91574582D01*
X58282867Y-91524471D01*
X58277886Y-91446772D01*
X58276763Y-91329263D01*
X58277161Y-91254459D01*
X58280656Y-91160028D01*
X58289665Y-91097992D01*
X58306470Y-91055951D01*
X58333349Y-91021504D01*
X58334649Y-91020132D01*
X58412749Y-90970328D01*
X58498282Y-90969518D01*
X58580875Y-91017857D01*
X58608184Y-91048486D01*
X58634015Y-91109254D01*
X58641108Y-91200029D01*
X58641108Y-91325616D01*
X58823280Y-91325616D01*
X59005452Y-91325616D01*
X59005452Y-91021504D01*
X59005507Y-90977402D01*
X59006980Y-90858399D01*
X59011708Y-90777571D01*
X59021353Y-90724220D01*
X59037575Y-90687649D01*
X59062037Y-90657160D01*
X59063337Y-90655788D01*
X59141437Y-90605983D01*
X59226970Y-90605174D01*
X59309563Y-90653513D01*
X59324238Y-90668044D01*
X59345257Y-90696770D01*
X59358590Y-90735640D01*
X59365970Y-90795127D01*
X59369128Y-90885708D01*
X59369796Y-91017857D01*
X59369796Y-91325616D01*
X59551968Y-91325616D01*
X59734140Y-91325616D01*
X59734140Y-91203676D01*
X59734737Y-91182006D01*
X59757855Y-91077350D01*
X59808320Y-91003380D01*
X59877577Y-90965323D01*
X59957073Y-90968407D01*
X60038252Y-91017857D01*
X60065561Y-91048486D01*
X60091392Y-91109254D01*
X60098485Y-91200029D01*
X60098485Y-91325616D01*
X60280657Y-91325616D01*
X60462829Y-91325616D01*
X60462829Y-91143444D01*
X60462829Y-90961271D01*
X60340889Y-90961271D01*
X60249453Y-90952551D01*
X60163369Y-90912473D01*
X60114153Y-90836884D01*
X60098485Y-90722514D01*
X60098485Y-90596927D01*
X59794373Y-90596927D01*
X59750271Y-90596872D01*
X59631268Y-90595399D01*
X59550440Y-90590671D01*
X59497089Y-90581026D01*
X59460518Y-90564804D01*
X59430029Y-90540342D01*
X59402720Y-90509713D01*
X59376888Y-90448945D01*
X59369796Y-90358169D01*
X59369796Y-90232583D01*
X59187624Y-90232583D01*
X59005452Y-90232583D01*
X59005452Y-90354522D01*
X59004926Y-90381702D01*
X58989676Y-90471589D01*
X58948866Y-90536695D01*
X58934335Y-90551369D01*
X58905609Y-90572388D01*
X58866739Y-90585721D01*
X58807252Y-90593101D01*
X58716671Y-90596259D01*
X58584522Y-90596927D01*
X58458935Y-90596927D01*
X58276763Y-90596927D01*
X58276763Y-90718867D01*
X58276166Y-90740537D01*
X58253048Y-90845193D01*
X58202583Y-90919163D01*
X58133326Y-90957220D01*
X58053831Y-90954136D01*
X57972652Y-90904686D01*
X57945343Y-90874057D01*
X57919511Y-90813289D01*
X57912419Y-90722514D01*
X57912419Y-90596927D01*
X57790480Y-90596927D01*
X57763300Y-90596401D01*
X57673413Y-90581151D01*
X57608307Y-90540342D01*
X57606935Y-90539042D01*
X57557131Y-90460942D01*
X57556322Y-90375409D01*
X57604660Y-90292816D01*
X57635289Y-90265507D01*
X57696057Y-90239675D01*
X57786832Y-90232583D01*
X57912419Y-90232583D01*
X57912419Y-90050411D01*
X58276763Y-90050411D01*
X58276763Y-90232583D01*
X58458935Y-90232583D01*
X58641108Y-90232583D01*
X58641108Y-90050411D01*
X58641108Y-89868239D01*
X58458935Y-89868239D01*
X58276763Y-89868239D01*
X58276763Y-90050411D01*
X57912419Y-90050411D01*
X57912419Y-89928471D01*
X57912412Y-89909804D01*
X57913133Y-89772697D01*
X57919894Y-89670545D01*
X57939266Y-89598210D01*
X57977820Y-89550551D01*
X58042128Y-89522430D01*
X58138761Y-89508706D01*
X58274291Y-89504241D01*
X58455288Y-89503894D01*
X58556483Y-89504008D01*
G37*
G36*
X58192139Y-86224910D02*
G01*
X58324789Y-86226027D01*
X58418966Y-86229154D01*
X58483168Y-86235271D01*
X58525889Y-86245361D01*
X58555626Y-86260404D01*
X58580875Y-86281382D01*
X58582247Y-86282681D01*
X58632051Y-86360782D01*
X58632861Y-86446314D01*
X58584522Y-86528908D01*
X58569991Y-86543582D01*
X58541264Y-86564601D01*
X58502395Y-86577934D01*
X58442908Y-86585314D01*
X58352327Y-86588472D01*
X58220178Y-86589140D01*
X57912419Y-86589140D01*
X57912419Y-86771312D01*
X57912419Y-86953485D01*
X58276763Y-86953485D01*
X58641108Y-86953485D01*
X58641108Y-86831545D01*
X58641634Y-86804366D01*
X58656884Y-86714478D01*
X58697693Y-86649373D01*
X58721744Y-86626464D01*
X58756486Y-86606504D01*
X58806596Y-86595244D01*
X58884296Y-86590263D01*
X59001805Y-86589140D01*
X59076608Y-86589539D01*
X59171040Y-86593033D01*
X59233076Y-86602042D01*
X59275117Y-86618847D01*
X59309563Y-86645726D01*
X59324238Y-86660257D01*
X59345257Y-86688983D01*
X59358590Y-86727853D01*
X59365970Y-86787340D01*
X59369128Y-86877921D01*
X59369796Y-87010070D01*
X59369796Y-87317829D01*
X59491736Y-87317829D01*
X59518915Y-87318355D01*
X59608802Y-87333605D01*
X59673908Y-87374414D01*
X59696817Y-87398465D01*
X59716776Y-87433207D01*
X59728037Y-87483317D01*
X59733018Y-87561017D01*
X59734140Y-87678526D01*
X59733742Y-87753330D01*
X59730248Y-87847761D01*
X59721238Y-87909797D01*
X59704434Y-87951838D01*
X59677555Y-87986285D01*
X59663024Y-88000959D01*
X59634297Y-88021978D01*
X59595428Y-88035312D01*
X59535940Y-88042691D01*
X59445360Y-88045850D01*
X59313210Y-88046517D01*
X59005452Y-88046517D01*
X59005452Y-88350629D01*
X59005396Y-88394731D01*
X59003924Y-88513734D01*
X58999196Y-88594562D01*
X58989551Y-88647913D01*
X58973328Y-88684484D01*
X58948866Y-88714973D01*
X58947566Y-88716345D01*
X58869466Y-88766150D01*
X58783933Y-88766959D01*
X58701340Y-88718620D01*
X58693806Y-88711434D01*
X58674699Y-88689759D01*
X58660875Y-88662547D01*
X58651480Y-88622045D01*
X58645661Y-88560501D01*
X58642562Y-88470165D01*
X58641329Y-88343283D01*
X58641108Y-88172104D01*
X58641108Y-87682173D01*
X58519168Y-87682173D01*
X58427732Y-87673453D01*
X58341648Y-87633375D01*
X58292431Y-87557785D01*
X58276763Y-87443415D01*
X58276763Y-87317829D01*
X57912419Y-87317829D01*
X57548075Y-87317829D01*
X57548075Y-87621940D01*
X57548019Y-87666042D01*
X57546547Y-87785045D01*
X57541819Y-87865874D01*
X57532174Y-87919225D01*
X57515951Y-87955796D01*
X57491489Y-87986285D01*
X57460861Y-88013594D01*
X57400092Y-88039425D01*
X57309317Y-88046517D01*
X57183730Y-88046517D01*
X57183730Y-88168457D01*
X57175010Y-88259893D01*
X57134932Y-88345977D01*
X57059343Y-88395194D01*
X56944973Y-88410862D01*
X56819386Y-88410862D01*
X56819386Y-88775206D01*
X56819386Y-89139550D01*
X57001558Y-89139550D01*
X57183730Y-89139550D01*
X57183730Y-89017611D01*
X57184327Y-88995941D01*
X57207446Y-88891284D01*
X57257910Y-88817314D01*
X57327167Y-88779258D01*
X57406663Y-88782341D01*
X57487842Y-88831792D01*
X57505898Y-88849926D01*
X57523127Y-88874944D01*
X57534887Y-88909948D01*
X57542220Y-88963351D01*
X57546167Y-89043565D01*
X57547771Y-89159002D01*
X57548075Y-89318075D01*
X57547961Y-89419270D01*
X57546844Y-89551920D01*
X57543717Y-89646098D01*
X57537599Y-89710299D01*
X57527510Y-89753020D01*
X57512467Y-89782757D01*
X57491489Y-89808006D01*
X57460861Y-89835315D01*
X57400092Y-89861146D01*
X57309317Y-89868239D01*
X57183730Y-89868239D01*
X57183730Y-89990178D01*
X57183204Y-90017357D01*
X57167954Y-90107245D01*
X57127145Y-90172350D01*
X57103094Y-90195260D01*
X57068352Y-90215219D01*
X57018242Y-90226479D01*
X56940542Y-90231460D01*
X56823033Y-90232583D01*
X56748230Y-90232185D01*
X56653798Y-90228690D01*
X56591762Y-90219681D01*
X56549721Y-90202877D01*
X56515275Y-90175997D01*
X56487966Y-90145369D01*
X56462134Y-90084600D01*
X56455042Y-89993825D01*
X56455042Y-89868239D01*
X56272870Y-89868239D01*
X56090698Y-89868239D01*
X56090698Y-89990178D01*
X56081977Y-90081614D01*
X56041899Y-90167698D01*
X55966310Y-90216915D01*
X55851940Y-90232583D01*
X55726353Y-90232583D01*
X55726353Y-90354522D01*
X55725827Y-90381702D01*
X55710577Y-90471589D01*
X55669768Y-90536695D01*
X55645717Y-90559604D01*
X55610975Y-90579563D01*
X55560865Y-90590823D01*
X55483165Y-90595805D01*
X55365656Y-90596927D01*
X55290853Y-90596529D01*
X55196421Y-90593035D01*
X55134385Y-90584025D01*
X55092344Y-90567221D01*
X55057898Y-90540342D01*
X55056526Y-90539042D01*
X55006721Y-90460942D01*
X55005912Y-90375409D01*
X55054251Y-90292816D01*
X55084879Y-90265507D01*
X55145648Y-90239675D01*
X55236423Y-90232583D01*
X55362009Y-90232583D01*
X55362009Y-90110643D01*
X55370730Y-90019207D01*
X55410807Y-89933123D01*
X55486397Y-89883907D01*
X55600767Y-89868239D01*
X55726353Y-89868239D01*
X55726353Y-89381955D01*
X55726355Y-89361839D01*
X55726728Y-89195814D01*
X55728316Y-89073159D01*
X55731931Y-88986019D01*
X55738387Y-88926535D01*
X55748498Y-88886848D01*
X55763078Y-88859102D01*
X55782939Y-88835439D01*
X55784239Y-88834067D01*
X55862339Y-88784262D01*
X55947872Y-88783453D01*
X56030465Y-88831792D01*
X56045139Y-88846322D01*
X56066158Y-88875049D01*
X56079492Y-88913918D01*
X56086872Y-88973406D01*
X56090030Y-89063987D01*
X56090698Y-89196136D01*
X56090698Y-89503894D01*
X56272870Y-89503894D01*
X56455042Y-89503894D01*
X56455042Y-88835439D01*
X56455072Y-88721664D01*
X56455488Y-88542659D01*
X56456798Y-88405798D01*
X56459506Y-88304601D01*
X56464116Y-88232588D01*
X56471129Y-88183277D01*
X56481050Y-88150188D01*
X56494382Y-88126839D01*
X56511628Y-88106750D01*
X56542256Y-88079441D01*
X56603025Y-88053610D01*
X56693800Y-88046517D01*
X56819386Y-88046517D01*
X56819386Y-87500001D01*
X56819386Y-86953485D01*
X56637214Y-86953485D01*
X56455042Y-86953485D01*
X56455042Y-87439768D01*
X56455040Y-87459884D01*
X56454667Y-87625910D01*
X56453080Y-87748564D01*
X56449465Y-87835704D01*
X56443008Y-87895189D01*
X56432897Y-87934875D01*
X56418318Y-87962621D01*
X56398456Y-87986285D01*
X56367828Y-88013594D01*
X56307059Y-88039425D01*
X56216284Y-88046517D01*
X56090698Y-88046517D01*
X56090698Y-88168457D01*
X56081977Y-88259893D01*
X56041899Y-88345977D01*
X55966310Y-88395194D01*
X55851940Y-88410862D01*
X55726353Y-88410862D01*
X55726353Y-88532801D01*
X55725827Y-88559980D01*
X55710577Y-88649868D01*
X55669768Y-88714973D01*
X55645717Y-88737883D01*
X55610975Y-88757842D01*
X55560865Y-88769102D01*
X55483165Y-88774083D01*
X55365656Y-88775206D01*
X55290853Y-88774808D01*
X55196421Y-88771313D01*
X55134385Y-88762304D01*
X55092344Y-88745500D01*
X55057898Y-88718620D01*
X55056526Y-88717321D01*
X55006721Y-88639220D01*
X55005912Y-88553688D01*
X55054251Y-88471094D01*
X55084879Y-88443785D01*
X55145648Y-88417954D01*
X55236423Y-88410862D01*
X55362009Y-88410862D01*
X55362009Y-88106750D01*
X55362065Y-88062648D01*
X55363537Y-87943645D01*
X55368265Y-87862817D01*
X55377910Y-87809466D01*
X55394133Y-87772895D01*
X55418595Y-87742406D01*
X55433126Y-87727732D01*
X55461852Y-87706713D01*
X55500722Y-87693379D01*
X55560209Y-87685999D01*
X55650790Y-87682841D01*
X55782939Y-87682173D01*
X56090698Y-87682173D01*
X56090698Y-87500001D01*
X56090698Y-87317829D01*
X55968758Y-87317829D01*
X55947088Y-87317232D01*
X55842432Y-87294114D01*
X55768462Y-87243649D01*
X55730405Y-87174392D01*
X55733489Y-87094896D01*
X55782939Y-87013717D01*
X55813567Y-86986408D01*
X55874336Y-86960577D01*
X55965111Y-86953485D01*
X56090698Y-86953485D01*
X56090698Y-86649373D01*
X56090753Y-86605271D01*
X56092226Y-86486268D01*
X56096954Y-86405440D01*
X56106598Y-86352089D01*
X56122821Y-86315518D01*
X56147283Y-86285029D01*
X56148583Y-86283657D01*
X56226683Y-86233852D01*
X56312216Y-86233043D01*
X56394809Y-86281382D01*
X56422118Y-86312010D01*
X56447950Y-86372779D01*
X56455042Y-86463554D01*
X56455042Y-86589140D01*
X56637214Y-86589140D01*
X56819386Y-86589140D01*
X56819386Y-86467201D01*
X56819983Y-86445531D01*
X56843101Y-86340874D01*
X56893566Y-86266904D01*
X56962823Y-86228848D01*
X57042319Y-86231931D01*
X57123498Y-86281382D01*
X57150807Y-86312010D01*
X57176638Y-86372779D01*
X57183730Y-86463554D01*
X57183730Y-86589140D01*
X57365903Y-86589140D01*
X57548075Y-86589140D01*
X57548075Y-86467201D01*
X57548601Y-86440022D01*
X57563851Y-86350134D01*
X57604660Y-86285029D01*
X57622795Y-86266973D01*
X57647813Y-86249744D01*
X57682817Y-86237984D01*
X57736220Y-86230651D01*
X57816434Y-86226704D01*
X57931871Y-86225099D01*
X58090944Y-86224796D01*
X58192139Y-86224910D01*
G37*
G36*
X56394809Y-81544906D02*
G01*
X56422118Y-81575535D01*
X56447950Y-81636303D01*
X56455042Y-81727078D01*
X56455042Y-81852665D01*
X56576981Y-81852665D01*
X56668418Y-81861385D01*
X56754501Y-81901463D01*
X56803718Y-81977053D01*
X56819386Y-82091423D01*
X56819386Y-82217009D01*
X56941326Y-82217009D01*
X56962996Y-82217606D01*
X57067652Y-82240724D01*
X57141622Y-82291189D01*
X57179679Y-82360446D01*
X57176595Y-82439941D01*
X57127145Y-82521121D01*
X57096516Y-82548430D01*
X57035748Y-82574261D01*
X56944973Y-82581353D01*
X56819386Y-82581353D01*
X56819386Y-82763526D01*
X56819386Y-82945698D01*
X57365903Y-82945698D01*
X57912419Y-82945698D01*
X57912419Y-82823758D01*
X57921140Y-82732322D01*
X57961217Y-82646238D01*
X58036807Y-82597021D01*
X58151177Y-82581353D01*
X58276763Y-82581353D01*
X58276763Y-82277242D01*
X58276819Y-82233140D01*
X58278291Y-82114137D01*
X58283019Y-82033309D01*
X58292664Y-81979958D01*
X58308887Y-81943386D01*
X58333349Y-81912898D01*
X58334649Y-81911526D01*
X58412749Y-81861721D01*
X58498282Y-81860912D01*
X58580875Y-81909251D01*
X58595549Y-81923781D01*
X58616568Y-81952508D01*
X58629902Y-81991377D01*
X58637282Y-82050865D01*
X58640440Y-82141446D01*
X58641108Y-82273595D01*
X58641108Y-82581353D01*
X59005452Y-82581353D01*
X59369796Y-82581353D01*
X59369796Y-82277242D01*
X59369467Y-82190765D01*
X59370366Y-82084422D01*
X59377972Y-82003014D01*
X59397949Y-81943222D01*
X59435963Y-81901730D01*
X59497677Y-81875221D01*
X59588757Y-81860377D01*
X59714867Y-81853881D01*
X59881673Y-81852416D01*
X60094838Y-81852665D01*
X60119316Y-81852666D01*
X60308016Y-81852899D01*
X60452270Y-81853936D01*
X60558909Y-81856352D01*
X60634764Y-81860723D01*
X60686664Y-81867623D01*
X60721440Y-81877628D01*
X60745922Y-81891312D01*
X60766940Y-81909251D01*
X60768312Y-81910550D01*
X60818117Y-81988650D01*
X60818926Y-82074183D01*
X60770587Y-82156777D01*
X60756057Y-82171451D01*
X60727330Y-82192470D01*
X60688461Y-82205803D01*
X60628973Y-82213183D01*
X60538392Y-82216341D01*
X60406243Y-82217009D01*
X60098485Y-82217009D01*
X60098485Y-82338949D01*
X60089764Y-82430385D01*
X60049686Y-82516469D01*
X59974097Y-82565685D01*
X59859727Y-82581353D01*
X59734140Y-82581353D01*
X59734140Y-82885465D01*
X59734085Y-82929567D01*
X59732612Y-83048570D01*
X59727884Y-83129398D01*
X59718240Y-83182749D01*
X59702017Y-83219320D01*
X59677555Y-83249809D01*
X59646926Y-83277118D01*
X59586158Y-83302950D01*
X59495383Y-83310042D01*
X59369796Y-83310042D01*
X59369796Y-83492214D01*
X59369796Y-83674386D01*
X59551968Y-83674386D01*
X59734140Y-83674386D01*
X59734140Y-83552447D01*
X59742861Y-83461011D01*
X59782939Y-83374927D01*
X59858528Y-83325710D01*
X59972898Y-83310042D01*
X60098485Y-83310042D01*
X60098485Y-83188102D01*
X60099081Y-83166432D01*
X60122200Y-83061776D01*
X60172664Y-82987806D01*
X60241922Y-82949749D01*
X60321417Y-82952833D01*
X60402596Y-83002283D01*
X60429905Y-83032912D01*
X60455737Y-83093680D01*
X60462829Y-83184455D01*
X60462829Y-83310042D01*
X60584768Y-83310042D01*
X60676204Y-83318762D01*
X60762288Y-83358840D01*
X60811505Y-83434430D01*
X60827173Y-83548800D01*
X60827173Y-83674386D01*
X61009345Y-83674386D01*
X61191517Y-83674386D01*
X61191517Y-83552447D01*
X61192114Y-83530777D01*
X61215232Y-83426120D01*
X61265697Y-83352150D01*
X61334954Y-83314094D01*
X61414450Y-83317177D01*
X61495629Y-83366628D01*
X61518538Y-83390678D01*
X61538498Y-83425420D01*
X61549758Y-83475531D01*
X61554739Y-83553230D01*
X61555862Y-83670739D01*
X61555463Y-83745543D01*
X61551969Y-83839974D01*
X61542960Y-83902010D01*
X61526155Y-83944051D01*
X61499276Y-83978498D01*
X61468648Y-84005807D01*
X61407879Y-84031638D01*
X61317104Y-84038730D01*
X61191517Y-84038730D01*
X61191517Y-84160670D01*
X61190991Y-84187849D01*
X61175741Y-84277737D01*
X61134932Y-84342842D01*
X61120401Y-84357516D01*
X61091674Y-84378535D01*
X61052805Y-84391869D01*
X60993317Y-84399249D01*
X60902737Y-84402407D01*
X60770587Y-84403075D01*
X60462829Y-84403075D01*
X60462829Y-84707186D01*
X60462836Y-84725854D01*
X60462115Y-84862961D01*
X60455354Y-84965113D01*
X60435982Y-85037448D01*
X60397428Y-85085107D01*
X60333120Y-85113228D01*
X60236486Y-85126952D01*
X60100957Y-85131417D01*
X59919959Y-85131763D01*
X59818765Y-85131649D01*
X59686115Y-85130532D01*
X59591937Y-85127406D01*
X59527736Y-85121288D01*
X59485014Y-85111198D01*
X59455277Y-85096155D01*
X59430029Y-85075178D01*
X59428657Y-85073878D01*
X59378852Y-84995778D01*
X59378043Y-84910245D01*
X59426382Y-84827652D01*
X59440913Y-84812977D01*
X59469639Y-84791958D01*
X59508508Y-84778625D01*
X59567996Y-84771245D01*
X59658577Y-84768087D01*
X59790726Y-84767419D01*
X60098485Y-84767419D01*
X60098485Y-84585247D01*
X60098485Y-84403075D01*
X59612201Y-84403075D01*
X59475854Y-84403147D01*
X59314901Y-84401489D01*
X59195551Y-84393883D01*
X59111596Y-84376022D01*
X59056828Y-84343599D01*
X59025038Y-84292308D01*
X59010018Y-84217839D01*
X59005558Y-84115887D01*
X59005452Y-83982145D01*
X59005452Y-83674386D01*
X58883512Y-83674386D01*
X58861842Y-83673789D01*
X58757186Y-83650671D01*
X58683216Y-83600206D01*
X58645159Y-83530949D01*
X58648243Y-83451454D01*
X58697693Y-83370275D01*
X58728322Y-83342966D01*
X58789090Y-83317134D01*
X58879865Y-83310042D01*
X59005452Y-83310042D01*
X59005452Y-83127870D01*
X59005452Y-82945698D01*
X58641108Y-82945698D01*
X58276763Y-82945698D01*
X58276763Y-83431981D01*
X58276761Y-83452097D01*
X58276388Y-83618123D01*
X58274801Y-83740777D01*
X58271186Y-83827917D01*
X58264730Y-83887402D01*
X58254619Y-83927088D01*
X58240039Y-83954834D01*
X58220178Y-83978498D01*
X58189549Y-84005807D01*
X58128781Y-84031638D01*
X58038005Y-84038730D01*
X57912419Y-84038730D01*
X57912419Y-84342842D01*
X57912364Y-84386944D01*
X57910891Y-84505947D01*
X57906163Y-84586775D01*
X57896518Y-84640126D01*
X57880296Y-84676697D01*
X57855833Y-84707186D01*
X57841302Y-84721860D01*
X57812576Y-84742880D01*
X57773707Y-84756213D01*
X57714219Y-84763593D01*
X57623638Y-84766751D01*
X57491489Y-84767419D01*
X57183730Y-84767419D01*
X57183730Y-84949591D01*
X57183730Y-85131763D01*
X57305670Y-85131763D01*
X57327340Y-85132360D01*
X57431996Y-85155478D01*
X57505966Y-85205943D01*
X57544023Y-85275200D01*
X57540940Y-85354696D01*
X57491489Y-85435875D01*
X57460861Y-85463184D01*
X57400092Y-85489015D01*
X57309317Y-85496108D01*
X57183730Y-85496108D01*
X57183730Y-85618047D01*
X57183134Y-85639717D01*
X57160015Y-85744374D01*
X57109551Y-85818344D01*
X57040293Y-85856400D01*
X57001558Y-85854898D01*
X56960798Y-85853317D01*
X56879619Y-85803866D01*
X56852310Y-85773238D01*
X56826479Y-85712469D01*
X56819386Y-85621694D01*
X56819386Y-85496108D01*
X56637214Y-85496108D01*
X56333102Y-85496108D01*
X56312987Y-85496106D01*
X56146961Y-85495732D01*
X56024307Y-85494145D01*
X55937167Y-85490530D01*
X55877682Y-85484074D01*
X55837996Y-85473963D01*
X55810250Y-85459383D01*
X55786586Y-85439522D01*
X55763677Y-85415471D01*
X55743717Y-85380730D01*
X55732457Y-85330619D01*
X55727476Y-85252919D01*
X55726353Y-85135410D01*
X55726752Y-85060607D01*
X55730246Y-84966175D01*
X55732654Y-84949591D01*
X56455042Y-84949591D01*
X56455042Y-85131763D01*
X56637214Y-85131763D01*
X56819386Y-85131763D01*
X56819386Y-84949591D01*
X56819386Y-84767419D01*
X56637214Y-84767419D01*
X56455042Y-84767419D01*
X56455042Y-84949591D01*
X55732654Y-84949591D01*
X55739255Y-84904139D01*
X55756060Y-84862098D01*
X55782939Y-84827652D01*
X55813567Y-84800343D01*
X55874336Y-84774511D01*
X55965111Y-84767419D01*
X56090698Y-84767419D01*
X56090698Y-84585247D01*
X56090698Y-84403075D01*
X55968758Y-84403075D01*
X55947088Y-84402478D01*
X55842432Y-84379360D01*
X55768462Y-84328895D01*
X55730405Y-84259638D01*
X55733489Y-84180142D01*
X55782939Y-84098963D01*
X55813567Y-84071654D01*
X55874336Y-84045823D01*
X55965111Y-84038730D01*
X56090698Y-84038730D01*
X56090698Y-83856558D01*
X56455042Y-83856558D01*
X56455042Y-84403075D01*
X57001558Y-84403075D01*
X57548075Y-84403075D01*
X57548075Y-83856558D01*
X57548075Y-83310042D01*
X57001558Y-83310042D01*
X56455042Y-83310042D01*
X56455042Y-83856558D01*
X56090698Y-83856558D01*
X56090698Y-83674386D01*
X55422242Y-83674386D01*
X55308467Y-83674356D01*
X55129462Y-83673940D01*
X54992601Y-83672630D01*
X54891405Y-83669922D01*
X54819391Y-83665313D01*
X54770080Y-83658299D01*
X54736991Y-83648378D01*
X54713642Y-83635046D01*
X54693553Y-83617801D01*
X54692181Y-83616501D01*
X54642377Y-83538401D01*
X54641568Y-83452868D01*
X54689906Y-83370275D01*
X54720535Y-83342966D01*
X54781303Y-83317134D01*
X54872078Y-83310042D01*
X54997665Y-83310042D01*
X54997665Y-83127870D01*
X54997665Y-82945698D01*
X54875725Y-82945698D01*
X54854055Y-82945101D01*
X54749399Y-82921983D01*
X54675429Y-82871518D01*
X54637372Y-82802261D01*
X54640456Y-82722765D01*
X54689906Y-82641586D01*
X54704437Y-82626912D01*
X54733164Y-82605893D01*
X54772033Y-82592559D01*
X54831521Y-82585179D01*
X54922101Y-82582021D01*
X55054251Y-82581353D01*
X55362009Y-82581353D01*
X55362009Y-82459414D01*
X55362535Y-82432235D01*
X55377785Y-82342347D01*
X55418595Y-82277242D01*
X55442646Y-82254332D01*
X55477387Y-82234373D01*
X55527498Y-82223113D01*
X55605197Y-82218132D01*
X55722706Y-82217009D01*
X55797510Y-82217407D01*
X55891941Y-82220902D01*
X55953977Y-82229911D01*
X55996018Y-82246715D01*
X56030465Y-82273595D01*
X56031837Y-82274894D01*
X56081641Y-82352995D01*
X56082451Y-82438527D01*
X56034112Y-82521121D01*
X56003484Y-82548430D01*
X55942715Y-82574261D01*
X55851940Y-82581353D01*
X55726353Y-82581353D01*
X55726353Y-82945698D01*
X55726353Y-83310042D01*
X55908526Y-83310042D01*
X56090698Y-83310042D01*
X56090698Y-83188102D01*
X56099418Y-83096666D01*
X56139496Y-83010582D01*
X56215086Y-82961366D01*
X56329455Y-82945698D01*
X56455042Y-82945698D01*
X56455042Y-82581353D01*
X56455042Y-82217009D01*
X56333102Y-82217009D01*
X56305923Y-82216483D01*
X56216036Y-82201233D01*
X56150930Y-82160424D01*
X56128021Y-82136373D01*
X56108062Y-82101631D01*
X56096801Y-82051521D01*
X56091820Y-81973821D01*
X56090698Y-81856312D01*
X56091096Y-81781508D01*
X56094590Y-81687077D01*
X56103600Y-81625041D01*
X56120404Y-81583000D01*
X56147283Y-81548553D01*
X56148583Y-81547181D01*
X56226683Y-81497377D01*
X56312216Y-81496568D01*
X56394809Y-81544906D01*
G37*
G36*
X56811515Y-60082399D02*
G01*
X56831111Y-60102960D01*
X56855292Y-60172412D01*
X56853689Y-60264396D01*
X56825607Y-60365020D01*
X56819393Y-60379289D01*
X56791407Y-60421956D01*
X56750989Y-60440705D01*
X56686747Y-60437985D01*
X56587291Y-60416246D01*
X56524704Y-60396496D01*
X56485541Y-60365296D01*
X56484543Y-60316330D01*
X56517402Y-60238645D01*
X56584479Y-60131655D01*
X56658002Y-60066793D01*
X56734065Y-60050170D01*
X56811515Y-60082399D01*
G37*
G36*
X57237514Y-60255850D02*
G01*
X57275190Y-60278488D01*
X57289558Y-60331866D01*
X57290516Y-60369283D01*
X57280688Y-60443133D01*
X57260589Y-60515433D01*
X57235133Y-60570278D01*
X57209235Y-60591765D01*
X57196842Y-60589538D01*
X57145626Y-60572232D01*
X57077167Y-60543509D01*
X57045287Y-60527267D01*
X56992789Y-60490026D01*
X56972055Y-60458350D01*
X56975697Y-60442907D01*
X57003583Y-60392401D01*
X57049947Y-60332189D01*
X57097470Y-60283539D01*
X57147625Y-60254325D01*
X57204524Y-60250948D01*
X57237514Y-60255850D01*
G37*
G36*
X57428509Y-66816685D02*
G01*
X57493073Y-66828910D01*
X57516164Y-66851241D01*
X57513678Y-66855467D01*
X57482906Y-66882885D01*
X57424582Y-66927912D01*
X57348305Y-66983806D01*
X57263673Y-67043823D01*
X57180285Y-67101221D01*
X57107738Y-67149257D01*
X57055632Y-67181187D01*
X57033565Y-67190268D01*
X57028221Y-67170734D01*
X57017017Y-67114288D01*
X57003124Y-67035054D01*
X56991718Y-66966639D01*
X56980711Y-66900749D01*
X56975229Y-66868111D01*
X56975075Y-66867019D01*
X56990604Y-66848476D01*
X56992728Y-66848316D01*
X57031203Y-66844332D01*
X57103047Y-66836310D01*
X57194645Y-66825766D01*
X57203202Y-66824787D01*
X57329532Y-66815124D01*
X57428509Y-66816685D01*
G37*
G36*
X57525895Y-58057240D02*
G01*
X57530727Y-58109861D01*
X57534856Y-58200636D01*
X57538069Y-58322810D01*
X57540154Y-58469630D01*
X57540896Y-58634340D01*
X57541176Y-58744622D01*
X57542598Y-58900396D01*
X57545059Y-59034821D01*
X57548373Y-59140869D01*
X57552356Y-59211510D01*
X57556823Y-59239718D01*
X57570364Y-59237473D01*
X57622701Y-59216642D01*
X57708268Y-59177702D01*
X57820873Y-59123583D01*
X57954324Y-59057214D01*
X58102429Y-58981527D01*
X58207250Y-58927669D01*
X58345459Y-58857943D01*
X58464505Y-58799394D01*
X58558234Y-58754984D01*
X58620492Y-58727674D01*
X58645124Y-58720424D01*
X58640866Y-58741143D01*
X58616679Y-58797018D01*
X58576126Y-58878541D01*
X58523555Y-58976554D01*
X58397397Y-59214088D01*
X58137515Y-59778178D01*
X57919462Y-60366956D01*
X57744102Y-60977926D01*
X57612300Y-61608592D01*
X57602331Y-61668135D01*
X57586881Y-61770874D01*
X57575152Y-61869956D01*
X57566638Y-61974233D01*
X57560835Y-62092558D01*
X57557239Y-62233784D01*
X57555346Y-62406764D01*
X57554650Y-62620351D01*
X57554688Y-62786460D01*
X57555708Y-62965124D01*
X57558279Y-63109618D01*
X57562894Y-63228584D01*
X57570042Y-63330664D01*
X57580216Y-63424499D01*
X57593907Y-63518733D01*
X57611607Y-63622006D01*
X57613970Y-63635125D01*
X57650652Y-63825775D01*
X57690279Y-64004134D01*
X57735259Y-64177263D01*
X57787999Y-64352223D01*
X57850906Y-64536077D01*
X57926388Y-64735885D01*
X58016851Y-64958710D01*
X58124703Y-65211613D01*
X58252351Y-65501655D01*
X58369285Y-65774537D01*
X58556681Y-66263833D01*
X58711939Y-66743366D01*
X58832881Y-67206111D01*
X58917325Y-67645043D01*
X58931023Y-67747669D01*
X58949019Y-67951151D01*
X58958977Y-68171106D01*
X58960888Y-68394481D01*
X58954744Y-68608220D01*
X58940535Y-68799268D01*
X58918252Y-68954572D01*
X58858891Y-69201704D01*
X58765035Y-69477361D01*
X58759846Y-69507613D01*
X58787228Y-69520643D01*
X58820924Y-69531060D01*
X58823615Y-69562400D01*
X58792667Y-69606347D01*
X58731608Y-69654419D01*
X58720103Y-69661543D01*
X58632984Y-69711148D01*
X58511160Y-69775749D01*
X58363483Y-69851003D01*
X58198810Y-69932569D01*
X58025992Y-70016107D01*
X57853886Y-70097274D01*
X57691343Y-70171730D01*
X57547220Y-70235133D01*
X57531089Y-70242019D01*
X57050348Y-70435624D01*
X56892213Y-70491012D01*
X56591267Y-70596422D01*
X56142291Y-70727805D01*
X55691865Y-70833168D01*
X55228433Y-70915900D01*
X55142279Y-70928512D01*
X55010573Y-70946278D01*
X54871114Y-70963761D01*
X54735250Y-70979646D01*
X54614329Y-70992620D01*
X54519699Y-71001368D01*
X54462708Y-71004576D01*
X54447655Y-71000346D01*
X54433576Y-70975123D01*
X54426548Y-70919021D01*
X54424635Y-70822797D01*
X54424635Y-70641017D01*
X54863632Y-70625725D01*
X55152862Y-70611027D01*
X55455803Y-70585392D01*
X55733723Y-70550973D01*
X55974598Y-70509032D01*
X56102458Y-70482517D01*
X56120020Y-70295103D01*
X56122486Y-70265994D01*
X56129765Y-70093064D01*
X56128814Y-69889692D01*
X56120403Y-69671062D01*
X56105302Y-69452358D01*
X56084283Y-69248763D01*
X56058116Y-69075463D01*
X56048211Y-69024040D01*
X56011523Y-68850493D01*
X55963988Y-68643263D01*
X55908139Y-68412455D01*
X55856109Y-68206232D01*
X56481705Y-68206232D01*
X56485533Y-68271858D01*
X56525334Y-68316764D01*
X56599835Y-68333080D01*
X56616430Y-68332113D01*
X56684149Y-68323315D01*
X56778860Y-68307347D01*
X56885492Y-68286657D01*
X56937589Y-68276109D01*
X57026670Y-68259245D01*
X57089685Y-68248928D01*
X57115487Y-68247074D01*
X57119655Y-68254735D01*
X57138947Y-68299006D01*
X57169437Y-68373312D01*
X57206747Y-68467095D01*
X57290601Y-68680690D01*
X57097638Y-68777710D01*
X56981162Y-68843167D01*
X56865675Y-68929249D01*
X56790659Y-69014795D01*
X56758758Y-69096596D01*
X56772621Y-69171447D01*
X56791154Y-69198257D01*
X56831711Y-69225307D01*
X56892213Y-69234308D01*
X56979075Y-69224981D01*
X57098709Y-69197044D01*
X57257528Y-69150215D01*
X57384132Y-69112440D01*
X57556071Y-69064915D01*
X57727316Y-69020995D01*
X57874781Y-68986793D01*
X57992736Y-68960793D01*
X58099926Y-68935628D01*
X58182169Y-68914682D01*
X58227712Y-68900817D01*
X58246776Y-68891358D01*
X58299363Y-68835872D01*
X58317591Y-68762490D01*
X58295653Y-68689289D01*
X58282830Y-68671032D01*
X58220877Y-68611236D01*
X58136418Y-68571867D01*
X58020935Y-68550021D01*
X57865912Y-68542796D01*
X57634453Y-68541645D01*
X57575309Y-68396271D01*
X57548052Y-68325589D01*
X57525017Y-68257177D01*
X57516164Y-68218330D01*
X57534827Y-68197293D01*
X57590137Y-68160191D01*
X57673275Y-68113195D01*
X57775337Y-68061688D01*
X57900106Y-67998522D01*
X58004108Y-67935012D01*
X58069764Y-67877419D01*
X58101931Y-67821344D01*
X58105462Y-67762383D01*
X58105342Y-67761610D01*
X58079903Y-67708839D01*
X58030993Y-67658416D01*
X57964615Y-67609045D01*
X57697108Y-67674047D01*
X57654109Y-67684788D01*
X57518858Y-67720812D01*
X57359455Y-67765623D01*
X57192323Y-67814544D01*
X57033885Y-67862899D01*
X56891310Y-67908276D01*
X56777557Y-67947009D01*
X56695522Y-67979248D01*
X56637012Y-68008612D01*
X56593832Y-68038722D01*
X56557790Y-68073196D01*
X56515124Y-68127760D01*
X56490048Y-68186642D01*
X56481705Y-68206232D01*
X55856109Y-68206232D01*
X55846506Y-68168170D01*
X55781622Y-67920514D01*
X55763883Y-67855370D01*
X55716017Y-67679590D01*
X55652224Y-67455502D01*
X55597742Y-67268864D01*
X55516716Y-66990013D01*
X56123751Y-66990013D01*
X56158103Y-67049632D01*
X56163978Y-67055358D01*
X56193384Y-67076835D01*
X56229333Y-67084866D01*
X56281771Y-67078478D01*
X56360644Y-67056699D01*
X56475899Y-67018556D01*
X56534819Y-67000815D01*
X56596629Y-66988657D01*
X56627290Y-66991497D01*
X56636493Y-67016277D01*
X56648547Y-67078449D01*
X56658954Y-67161227D01*
X56673742Y-67312132D01*
X56549045Y-67392933D01*
X56515192Y-67416568D01*
X56434467Y-67488842D01*
X56383349Y-67559711D01*
X56375294Y-67576750D01*
X56356095Y-67626259D01*
X56361032Y-67654957D01*
X56391331Y-67681541D01*
X56431780Y-67700862D01*
X56490048Y-67704939D01*
X56525935Y-67689759D01*
X56597536Y-67654246D01*
X56696851Y-67602503D01*
X56816123Y-67538573D01*
X56947594Y-67466496D01*
X57060275Y-67404377D01*
X57206182Y-67324781D01*
X57343399Y-67250782D01*
X57460435Y-67188570D01*
X57545801Y-67144331D01*
X57589766Y-67121596D01*
X57746939Y-67028138D01*
X57855044Y-66940332D01*
X57914065Y-66858198D01*
X57923986Y-66781756D01*
X57884791Y-66711027D01*
X57847433Y-66677195D01*
X57774658Y-66636558D01*
X57678051Y-66610224D01*
X57549311Y-66596244D01*
X57380137Y-66592674D01*
X57360289Y-66592839D01*
X57157080Y-66601333D01*
X56953255Y-66621055D01*
X56757159Y-66650313D01*
X56577136Y-66687413D01*
X56421532Y-66730659D01*
X56413089Y-66733938D01*
X56298692Y-66778359D01*
X56216959Y-66828817D01*
X56194878Y-66849134D01*
X56135778Y-66924047D01*
X56123751Y-66990013D01*
X55516716Y-66990013D01*
X55495115Y-66915674D01*
X55405215Y-66603377D01*
X55326960Y-66327625D01*
X55259266Y-66084072D01*
X55220227Y-65939424D01*
X55835340Y-65939424D01*
X55844283Y-66021188D01*
X55892291Y-66139512D01*
X55977733Y-66234788D01*
X56096053Y-66305805D01*
X56242690Y-66351350D01*
X56413089Y-66370214D01*
X56602689Y-66361183D01*
X56806934Y-66323048D01*
X57021265Y-66254596D01*
X57153364Y-66193881D01*
X57294521Y-66104600D01*
X57407982Y-66004605D01*
X57483025Y-65902081D01*
X57483601Y-65900959D01*
X57516459Y-65800727D01*
X57526005Y-65687332D01*
X57512551Y-65579865D01*
X57476409Y-65497421D01*
X57432898Y-65451272D01*
X57349057Y-65398846D01*
X57259778Y-65375081D01*
X57181545Y-65386195D01*
X57161787Y-65397580D01*
X57124907Y-65449100D01*
X57127323Y-65513289D01*
X57169913Y-65575852D01*
X57181380Y-65587629D01*
X57214548Y-65658874D01*
X57211031Y-65739564D01*
X57170757Y-65809964D01*
X57163124Y-65817381D01*
X57052729Y-65896948D01*
X56908399Y-65964819D01*
X56743968Y-66016558D01*
X56573267Y-66047728D01*
X56410130Y-66053895D01*
X56393985Y-66053055D01*
X56301443Y-66045925D01*
X56242075Y-66033716D01*
X56201562Y-66011851D01*
X56165587Y-65975756D01*
X56128526Y-65918070D01*
X56106427Y-65824824D01*
X56106413Y-65822535D01*
X56095284Y-65756806D01*
X56069650Y-65712146D01*
X56049595Y-65699793D01*
X55986626Y-65694641D01*
X55922125Y-65725062D01*
X55871921Y-65785206D01*
X55846731Y-65856151D01*
X55835340Y-65939424D01*
X55220227Y-65939424D01*
X55201050Y-65868369D01*
X55151228Y-65676169D01*
X55108716Y-65503125D01*
X55072432Y-65344888D01*
X55041291Y-65197112D01*
X55014211Y-65055449D01*
X54990108Y-64915551D01*
X54967898Y-64773071D01*
X54946498Y-64623661D01*
X54935471Y-64540159D01*
X55477806Y-64540159D01*
X55488258Y-64587422D01*
X55504818Y-64622141D01*
X55532928Y-64653762D01*
X55578380Y-64679925D01*
X55649051Y-64703926D01*
X55752821Y-64729061D01*
X55897570Y-64758624D01*
X55923819Y-64763762D01*
X56039525Y-64786312D01*
X56134225Y-64804616D01*
X56198744Y-64816908D01*
X56223905Y-64821423D01*
X56227988Y-64837176D01*
X56230088Y-64884126D01*
X56222006Y-64925859D01*
X56186807Y-64960763D01*
X56094532Y-64995176D01*
X55962907Y-65060543D01*
X55849436Y-65135983D01*
X55761459Y-65215534D01*
X55706313Y-65293238D01*
X55691339Y-65363134D01*
X55700823Y-65408064D01*
X55723246Y-65439075D01*
X55763883Y-65447493D01*
X55828893Y-65432790D01*
X55924439Y-65394441D01*
X56056681Y-65331919D01*
X56104876Y-65308660D01*
X56262127Y-65239468D01*
X56409796Y-65187813D01*
X56562634Y-65149824D01*
X56735393Y-65121629D01*
X56942822Y-65099357D01*
X56985129Y-65095422D01*
X57094580Y-65082718D01*
X57168343Y-65068235D01*
X57216943Y-65049383D01*
X57250906Y-65023573D01*
X57303802Y-64970676D01*
X57253022Y-64902281D01*
X57228538Y-64871566D01*
X57225885Y-64869097D01*
X57180153Y-64826540D01*
X57122108Y-64797115D01*
X57046646Y-64782163D01*
X56981468Y-64781121D01*
X56946008Y-64780554D01*
X56812436Y-64791161D01*
X56638170Y-64812855D01*
X56514509Y-64829699D01*
X56703476Y-64628577D01*
X56777875Y-64546813D01*
X56865907Y-64437715D01*
X56916297Y-64353895D01*
X56930407Y-64292870D01*
X56909595Y-64252155D01*
X56889320Y-64240646D01*
X56821865Y-64242101D01*
X56729506Y-64285245D01*
X56612886Y-64369722D01*
X56472651Y-64495171D01*
X56356598Y-64606630D01*
X56206609Y-64541582D01*
X56139792Y-64514285D01*
X56117241Y-64505072D01*
X55955513Y-64450709D01*
X55809282Y-64416456D01*
X55685473Y-64403313D01*
X55591010Y-64412279D01*
X55532815Y-64444353D01*
X55492595Y-64496670D01*
X55477806Y-64540159D01*
X54935471Y-64540159D01*
X54930615Y-64503389D01*
X54897393Y-64206830D01*
X54871468Y-63906620D01*
X54853062Y-63610234D01*
X54842399Y-63325144D01*
X54839942Y-63082597D01*
X55430228Y-63082597D01*
X55459953Y-63210413D01*
X55528687Y-63318064D01*
X55533663Y-63323265D01*
X55645114Y-63406367D01*
X55790524Y-63468716D01*
X55959035Y-63509218D01*
X56139792Y-63526777D01*
X56321939Y-63520299D01*
X56494620Y-63488690D01*
X56646979Y-63430853D01*
X56656071Y-63426035D01*
X56755262Y-63351492D01*
X56824401Y-63257581D01*
X56857627Y-63155197D01*
X56849077Y-63055236D01*
X56844586Y-63042617D01*
X56793269Y-62957604D01*
X56790163Y-62952458D01*
X56712389Y-62890627D01*
X56623928Y-62867673D01*
X56606710Y-62868023D01*
X56553831Y-62880331D01*
X56541573Y-62915269D01*
X56566425Y-62979671D01*
X56569465Y-62985688D01*
X56596533Y-63085489D01*
X56579122Y-63176136D01*
X56518832Y-63248577D01*
X56456890Y-63277292D01*
X56353877Y-63297597D01*
X56231076Y-63304378D01*
X56103330Y-63297731D01*
X55985476Y-63277752D01*
X55892358Y-63244535D01*
X55856059Y-63224249D01*
X55755332Y-63146144D01*
X55702965Y-63060513D01*
X55698438Y-62966610D01*
X55698456Y-62966516D01*
X55714071Y-62886154D01*
X55727852Y-62814469D01*
X55726572Y-62771121D01*
X55696857Y-62736141D01*
X55645796Y-62726102D01*
X55584979Y-62740011D01*
X55525994Y-62776873D01*
X55480429Y-62835695D01*
X55440683Y-62946309D01*
X55430228Y-63082597D01*
X54839942Y-63082597D01*
X54839701Y-63058824D01*
X54845191Y-62818749D01*
X54859091Y-62612391D01*
X54881625Y-62447225D01*
X54901710Y-62362130D01*
X55612509Y-62362130D01*
X55616639Y-62405575D01*
X55632825Y-62428405D01*
X55663944Y-62443055D01*
X55708403Y-62454880D01*
X55789984Y-62469655D01*
X55883837Y-62481884D01*
X55902754Y-62483931D01*
X55997928Y-62495154D01*
X56123983Y-62510960D01*
X56266731Y-62529544D01*
X56411984Y-62549100D01*
X56553095Y-62567030D01*
X56691963Y-62579566D01*
X56793269Y-62580503D01*
X56862982Y-62569379D01*
X56907073Y-62545736D01*
X56931511Y-62509115D01*
X56927827Y-62465170D01*
X56877848Y-62421161D01*
X56781868Y-62381004D01*
X56641635Y-62345138D01*
X56458899Y-62314004D01*
X56235405Y-62288043D01*
X55972904Y-62267694D01*
X55953182Y-62266179D01*
X55891425Y-62253360D01*
X55854596Y-62223934D01*
X55840069Y-62170224D01*
X55845219Y-62084554D01*
X55867420Y-61959246D01*
X55880809Y-61888771D01*
X55895493Y-61778481D01*
X55893112Y-61706604D01*
X55873066Y-61667567D01*
X55834755Y-61655794D01*
X55815721Y-61657330D01*
X55781110Y-61673925D01*
X55751335Y-61715205D01*
X55721660Y-61789130D01*
X55687353Y-61903664D01*
X55660928Y-62012210D01*
X55635881Y-62142152D01*
X55620389Y-62254837D01*
X55617557Y-62285636D01*
X55612509Y-62362130D01*
X54901710Y-62362130D01*
X54969425Y-62075243D01*
X55110746Y-61645195D01*
X55284654Y-61229920D01*
X55947190Y-61229920D01*
X55975997Y-61355365D01*
X56041423Y-61467612D01*
X56139901Y-61554515D01*
X56154618Y-61562448D01*
X56222619Y-61590961D01*
X56322693Y-61626935D01*
X56443300Y-61666760D01*
X56572899Y-61706827D01*
X56699949Y-61743524D01*
X56812908Y-61773242D01*
X56900236Y-61792369D01*
X56909775Y-61793979D01*
X56981468Y-61794956D01*
X57030080Y-61767361D01*
X57051840Y-61743848D01*
X57068942Y-61706020D01*
X57052056Y-61665679D01*
X57032838Y-61644205D01*
X56989968Y-61617049D01*
X56920773Y-61589251D01*
X56817827Y-61557958D01*
X56673705Y-61520316D01*
X56618423Y-61506427D01*
X56463880Y-61466183D01*
X56349100Y-61433080D01*
X56267484Y-61404583D01*
X56212432Y-61378159D01*
X56177342Y-61351273D01*
X56155614Y-61321391D01*
X56139847Y-61281674D01*
X56143018Y-61210570D01*
X56189265Y-61156140D01*
X56274653Y-61124879D01*
X56290074Y-61122798D01*
X56382947Y-61120799D01*
X56507057Y-61129195D01*
X56648838Y-61146414D01*
X56794722Y-61170883D01*
X56931144Y-61201027D01*
X56995682Y-61216600D01*
X57055492Y-61225501D01*
X57096487Y-61219679D01*
X57135185Y-61198969D01*
X57176063Y-61166133D01*
X57194645Y-61138045D01*
X57189938Y-61123004D01*
X57153165Y-61081027D01*
X57091471Y-61033896D01*
X57018807Y-60991512D01*
X56949124Y-60963776D01*
X56885226Y-60947929D01*
X56744374Y-60920173D01*
X56598245Y-60899131D01*
X56460131Y-60886220D01*
X56343323Y-60882856D01*
X56261113Y-60890456D01*
X56252822Y-60892350D01*
X56129870Y-60930422D01*
X56038009Y-60978398D01*
X55986425Y-61031561D01*
X55958564Y-61103421D01*
X55947190Y-61229920D01*
X55284654Y-61229920D01*
X55297745Y-61198661D01*
X55530128Y-60736218D01*
X55707003Y-60431666D01*
X56291143Y-60431666D01*
X56299724Y-60485430D01*
X56300892Y-60486720D01*
X56334716Y-60503343D01*
X56407560Y-60530637D01*
X56511899Y-60566037D01*
X56640209Y-60606977D01*
X56784966Y-60650891D01*
X56844122Y-60668383D01*
X56990151Y-60711084D01*
X57097922Y-60741172D01*
X57174234Y-60759910D01*
X57225885Y-60768558D01*
X57259675Y-60768376D01*
X57282402Y-60760625D01*
X57300864Y-60746567D01*
X57333099Y-60709383D01*
X57385177Y-60626502D01*
X57436195Y-60524562D01*
X57477918Y-60420551D01*
X57502109Y-60331457D01*
X57505355Y-60303280D01*
X57490998Y-60207480D01*
X57439934Y-60134848D01*
X57359893Y-60090270D01*
X57258603Y-60078636D01*
X57143792Y-60104833D01*
X57106886Y-60119042D01*
X57062373Y-60130373D01*
X57037683Y-60117865D01*
X57015670Y-60077917D01*
X57001487Y-60052747D01*
X56925721Y-59974117D01*
X56822970Y-59919968D01*
X56709570Y-59899805D01*
X56654785Y-59905284D01*
X56547048Y-59951771D01*
X56451438Y-60043943D01*
X56370465Y-60179728D01*
X56346991Y-60233087D01*
X56307544Y-60344764D01*
X56291143Y-60431666D01*
X55707003Y-60431666D01*
X55807604Y-60258446D01*
X56129879Y-59765922D01*
X56496661Y-59259224D01*
X56569533Y-59164106D01*
X56682106Y-59020517D01*
X56802137Y-58870647D01*
X56925386Y-58719507D01*
X57047618Y-58572104D01*
X57164594Y-58433449D01*
X57272079Y-58308549D01*
X57365833Y-58202415D01*
X57441621Y-58120055D01*
X57495205Y-58066478D01*
X57522347Y-58046694D01*
X57525895Y-58057240D01*
G37*
%TD*%
M02*
